<svg width="250" height="214" viewBox="0 0 250 214" fill="none" xmlns="http://www.w3.org/2000/svg">
<g clip-path="url(#clip0_1_2638)">
<g filter="url(#filter0_dd_1_2638)">
<g clip-path="url(#clip1_1_2638)">
<g clip-path="url(#clip2_1_2638)">
<circle cx="38.3382" cy="38.3382" r="10.4538" fill="#B7AEAE" fill-opacity="0.2" stroke="black"/>
<g clip-path="url(#clip3_1_2638)">
<path d="M66.1624 36.5179C65.7174 36.5179 65.3084 36.4392 64.9353 36.2817C64.5622 36.1208 64.2609 35.8829 64.0316 35.568C63.8057 35.2531 63.6876 34.8594 63.6773 34.387H64.6323C64.6323 34.6712 64.7008 34.9039 64.8377 35.0854C64.9781 35.2668 65.1629 35.402 65.3922 35.491C65.6216 35.5766 65.8749 35.6193 66.1522 35.6193C66.4329 35.6193 66.681 35.5766 66.8967 35.491C67.1123 35.4054 67.2783 35.2907 67.3947 35.147C67.5145 35.0032 67.5744 34.8389 67.5744 34.654C67.5744 34.4042 67.4974 34.2039 67.3434 34.0533C67.1893 33.8993 66.9549 33.7692 66.6399 33.6631L65.4231 33.2112C64.8993 33.0161 64.5005 32.7919 64.2267 32.5386C63.9529 32.2819 63.8159 31.9259 63.8159 31.4706C63.8159 30.9537 64.0179 30.5344 64.4218 30.2126C64.8257 29.8874 65.394 29.7249 66.1265 29.7249C66.8214 29.7249 67.3605 29.8857 67.7439 30.2075C68.1307 30.5293 68.3515 30.9674 68.4062 31.522H67.4461C67.3982 31.2413 67.2664 31.0188 67.0507 30.8545C66.8385 30.6902 66.5304 30.608 66.1265 30.608C65.7363 30.608 65.4316 30.6936 65.2125 30.8647C64.9935 31.0325 64.8839 31.2447 64.8839 31.5014C64.8839 31.7136 64.9524 31.8831 65.0893 32.0097C65.2297 32.1364 65.447 32.2511 65.7414 32.3538L67.1277 32.8621C67.6035 33.0298 67.9749 33.2557 68.2419 33.5398C68.5089 33.824 68.6424 34.1851 68.6424 34.6232C68.6424 34.9929 68.5466 35.3198 68.3549 35.6039C68.1632 35.8881 67.8825 36.1123 67.5128 36.2766C67.1431 36.4375 66.693 36.5179 66.1624 36.5179ZM72.1921 36.5179C71.7437 36.5179 71.3415 36.4203 70.9855 36.2252C70.6329 36.0301 70.3539 35.7392 70.1485 35.3523C69.9432 34.9655 69.8405 34.488 69.8405 33.9198C69.8405 33.3413 69.9432 32.8604 70.1485 32.477C70.3539 32.0902 70.6329 31.7992 70.9855 31.6041C71.3415 31.409 71.7437 31.3114 72.1921 31.3114C72.6337 31.3114 73.0308 31.409 73.3833 31.6041C73.7359 31.7992 74.0132 32.0902 74.2151 32.477C74.4205 32.8604 74.5232 33.3413 74.5232 33.9198C74.5232 34.488 74.4205 34.9655 74.2151 35.3523C74.0132 35.7392 73.7359 36.0301 73.3833 36.2252C73.0308 36.4203 72.6337 36.5179 72.1921 36.5179ZM72.1613 35.6656C72.4454 35.6656 72.6902 35.5971 72.8955 35.4602C73.1044 35.3233 73.2635 35.1247 73.3731 34.8646C73.486 34.601 73.5425 34.2861 73.5425 33.9198C73.5425 33.3584 73.4278 32.9237 73.1985 32.6156C72.9726 32.3075 72.6457 32.1535 72.2178 32.1535C71.9302 32.1535 71.6821 32.2237 71.4733 32.364C71.2679 32.5009 71.1087 32.7012 70.9958 32.9648C70.8862 33.2249 70.8314 33.5433 70.8314 33.9198C70.8314 34.4709 70.9461 34.9005 71.1755 35.2086C71.4048 35.5132 71.7334 35.6656 72.1613 35.6656ZM77.8267 36.5179C77.4227 36.5179 77.0462 36.4101 76.6971 36.1944C76.3479 35.9788 76.0672 35.6758 75.855 35.2856C75.6428 34.8954 75.5366 34.4367 75.5366 33.9095C75.5366 33.355 75.6428 32.886 75.855 32.5027C76.0672 32.1159 76.3479 31.8215 76.6971 31.6195C77.0462 31.4141 77.4227 31.3114 77.8267 31.3114C78.1245 31.3114 78.3898 31.3594 78.6225 31.4552C78.8553 31.5476 79.0555 31.6743 79.2233 31.8352C79.391 31.9926 79.5262 32.1706 79.6289 32.3692C79.735 32.5677 79.8086 32.7731 79.8497 32.9853L78.8587 33.0367C78.7868 32.7799 78.6602 32.5745 78.4788 32.4205C78.3008 32.263 78.08 32.1843 77.8164 32.1843C77.5939 32.1843 77.3834 32.2476 77.1848 32.3743C76.9897 32.4975 76.8306 32.6875 76.7073 32.9442C76.5875 33.1975 76.5276 33.5193 76.5276 33.9095C76.5276 34.2724 76.5841 34.5822 76.6971 34.8389C76.81 35.0956 76.9641 35.2924 77.1592 35.4294C77.3543 35.5663 77.5734 35.6348 77.8164 35.6348C78.1655 35.6348 78.4257 35.5509 78.5969 35.3832C78.7714 35.212 78.8587 34.9775 78.8587 34.6797H79.8497C79.8497 35.0254 79.7692 35.3369 79.6084 35.6142C79.4475 35.8915 79.2147 36.1123 78.9101 36.2766C78.6088 36.4375 78.2477 36.5179 77.8267 36.5179ZM81.9496 30.3923C81.7545 30.3923 81.6004 30.3393 81.4875 30.2332C81.3779 30.1236 81.3232 29.9764 81.3232 29.7916C81.3232 29.6136 81.3779 29.4733 81.4875 29.3706C81.6004 29.2645 81.7545 29.2114 81.9496 29.2114C82.1413 29.2114 82.2919 29.2645 82.4014 29.3706C82.5144 29.4733 82.5709 29.6136 82.5709 29.7916C82.5709 29.9764 82.5144 30.1236 82.4014 30.2332C82.2919 30.3393 82.1413 30.3923 81.9496 30.3923ZM81.4618 36.3844V31.4295H82.4374V36.3844H81.4618ZM87.67 36.3844L87.5467 35.2497V33.1907C87.5467 32.7868 87.4629 32.4941 87.2951 32.3127C87.1274 32.1278 86.8621 32.0354 86.4993 32.0354C86.2939 32.0354 86.1108 32.0662 85.9499 32.1278C85.7924 32.186 85.6675 32.275 85.5751 32.3948C85.4861 32.5146 85.4416 32.6653 85.4416 32.8467H84.3633C84.3633 32.4838 84.4523 32.1895 84.6303 31.9635C84.8083 31.7376 85.0565 31.5733 85.3748 31.4706C85.6966 31.3645 86.0714 31.3114 86.4993 31.3114C86.8998 31.3114 87.2524 31.3782 87.557 31.5117C87.8617 31.6418 88.0978 31.8471 88.2656 32.1278C88.4367 32.4085 88.5223 32.7714 88.5223 33.2164V36.3844H87.67ZM86.0166 36.5179C85.6024 36.5179 85.2584 36.446 84.9846 36.3022C84.7107 36.1551 84.5054 35.9634 84.3684 35.7272C84.2349 35.491 84.1682 35.2394 84.1682 34.9724C84.1682 34.6472 84.2503 34.3802 84.4146 34.1714C84.5824 33.9592 84.8134 33.8017 85.1078 33.699C85.4022 33.5963 85.7411 33.545 86.1245 33.545C86.388 33.545 86.6448 33.5689 86.8946 33.6169C87.1445 33.6648 87.391 33.7281 87.634 33.8068V34.3973C87.4355 34.3254 87.2147 34.269 86.9717 34.2279C86.7321 34.1834 86.5078 34.1611 86.299 34.1611C85.9875 34.1611 85.7274 34.2227 85.5186 34.346C85.3098 34.4692 85.2054 34.678 85.2054 34.9724C85.2054 35.188 85.2875 35.3746 85.4518 35.5321C85.6161 35.6861 85.8763 35.7631 86.2323 35.7631C86.4924 35.7631 86.7218 35.7049 86.9203 35.5885C87.1189 35.4687 87.2729 35.3198 87.3824 35.1418C87.492 34.9638 87.5467 34.7858 87.5467 34.6078H87.7829C87.7829 34.9501 87.7128 35.2668 87.5724 35.5577C87.4355 35.8453 87.2352 36.078 86.9717 36.256C86.7081 36.4306 86.3897 36.5179 86.0166 36.5179ZM90.3803 36.3844V29.3654H91.3559V36.3844H90.3803ZM95.8659 29.8429H97.2676L99.342 34.1406H99.2496L101.324 29.8429H102.679V36.3844H101.694V30.9161H101.853L99.6141 35.6091H98.9723L96.7439 30.9417H96.8414V36.3844H95.8659V29.8429ZM106.452 36.5179C106.028 36.5179 105.644 36.4084 105.302 36.1893C104.96 35.9702 104.688 35.6656 104.486 35.2753C104.287 34.8851 104.188 34.4333 104.188 33.9198C104.188 33.3755 104.287 32.91 104.486 32.5232C104.684 32.133 104.955 31.8335 105.297 31.6246C105.639 31.4158 106.024 31.3114 106.452 31.3114C106.836 31.3114 107.164 31.3902 107.438 31.5476C107.712 31.7017 107.933 31.9105 108.101 32.174C108.268 32.4342 108.383 32.7303 108.445 33.0623C108.51 33.3944 108.522 33.7367 108.48 34.0892H104.968V33.5244H107.813L107.577 33.6785C107.587 33.4936 107.577 33.3088 107.546 33.1239C107.519 32.9391 107.464 32.7697 107.382 32.6156C107.3 32.4582 107.183 32.3332 107.033 32.2408C106.885 32.145 106.697 32.097 106.468 32.097C106.18 32.097 105.939 32.1689 105.744 32.3127C105.552 32.4564 105.407 32.6499 105.307 32.8929C105.208 33.1325 105.158 33.3961 105.158 33.6836V34.079C105.158 34.3973 105.206 34.6797 105.302 34.9262C105.398 35.1726 105.54 35.3678 105.728 35.5115C105.92 35.6519 106.161 35.722 106.452 35.722C106.736 35.722 106.971 35.6553 107.156 35.5218C107.344 35.3883 107.46 35.188 107.505 34.921H108.501C108.45 35.2428 108.332 35.5235 108.147 35.7631C107.962 36.0027 107.724 36.1893 107.433 36.3228C107.145 36.4529 106.819 36.5179 106.452 36.5179ZM111.818 36.5179C111.414 36.5179 111.043 36.4101 110.704 36.1944C110.365 35.9753 110.095 35.6707 109.893 35.2805C109.694 34.8868 109.595 34.4247 109.595 33.8941C109.595 33.367 109.692 32.91 109.887 32.5232C110.086 32.1364 110.348 31.8386 110.673 31.6298C110.998 31.4176 111.359 31.3114 111.756 31.3114C112.119 31.3114 112.436 31.4004 112.706 31.5784C112.977 31.753 113.186 32.008 113.333 32.3435C113.483 32.6789 113.559 33.088 113.559 33.5707H113.22C113.22 33.2728 113.16 33.0213 113.04 32.8159C112.92 32.6071 112.765 32.4496 112.573 32.3435C112.381 32.2374 112.176 32.1843 111.957 32.1843C111.7 32.1843 111.467 32.2545 111.258 32.3948C111.053 32.5318 110.889 32.7286 110.765 32.9853C110.646 33.2386 110.586 33.5416 110.586 33.8941C110.586 34.2501 110.646 34.5599 110.765 34.8235C110.889 35.0836 111.053 35.2839 111.258 35.4242C111.467 35.5646 111.698 35.6348 111.952 35.6348C112.16 35.6348 112.361 35.58 112.552 35.4704C112.747 35.3575 112.907 35.1966 113.03 34.9878C113.156 34.779 113.22 34.5308 113.22 34.2433H113.559C113.559 34.7362 113.48 35.1521 113.322 35.491C113.168 35.8299 112.96 36.0866 112.696 36.2612C112.432 36.4323 112.14 36.5179 111.818 36.5179ZM113.389 36.3844L113.22 35.1983V29.3654H114.2V36.3844H113.389ZM116.768 30.3923C116.573 30.3923 116.419 30.3393 116.306 30.2332C116.197 30.1236 116.142 29.9764 116.142 29.7916C116.142 29.6136 116.197 29.4733 116.306 29.3706C116.419 29.2645 116.573 29.2114 116.768 29.2114C116.96 29.2114 117.111 29.2645 117.22 29.3706C117.333 29.4733 117.39 29.6136 117.39 29.7916C117.39 29.9764 117.333 30.1236 117.22 30.2332C117.111 30.3393 116.96 30.3923 116.768 30.3923ZM116.281 36.3844V31.4295H117.256V36.3844H116.281ZM122.489 36.3844L122.366 35.2497V33.1907C122.366 32.7868 122.282 32.4941 122.114 32.3127C121.946 32.1278 121.681 32.0354 121.318 32.0354C121.113 32.0354 120.93 32.0662 120.769 32.1278C120.611 32.186 120.486 32.275 120.394 32.3948C120.305 32.5146 120.26 32.6653 120.26 32.8467H119.182C119.182 32.4838 119.271 32.1895 119.449 31.9635C119.627 31.7376 119.875 31.5733 120.194 31.4706C120.515 31.3645 120.89 31.3114 121.318 31.3114C121.719 31.3114 122.071 31.3782 122.376 31.5117C122.681 31.6418 122.917 31.8471 123.084 32.1278C123.256 32.4085 123.341 32.7714 123.341 33.2164V36.3844H122.489ZM120.835 36.5179C120.421 36.5179 120.077 36.446 119.803 36.3022C119.53 36.1551 119.324 35.9634 119.187 35.7272C119.054 35.491 118.987 35.2394 118.987 34.9724C118.987 34.6472 119.069 34.3802 119.233 34.1714C119.401 33.9592 119.632 33.8017 119.927 33.699C120.221 33.5963 120.56 33.545 120.943 33.545C121.207 33.545 121.464 33.5689 121.713 33.6169C121.963 33.6648 122.21 33.7281 122.453 33.8068V34.3973C122.254 34.3254 122.034 34.269 121.791 34.2279C121.551 34.1834 121.327 34.1611 121.118 34.1611C120.806 34.1611 120.546 34.2227 120.337 34.346C120.129 34.4692 120.024 34.678 120.024 34.9724C120.024 35.188 120.106 35.3746 120.271 35.5321C120.435 35.6861 120.695 35.7631 121.051 35.7631C121.311 35.7631 121.541 35.7049 121.739 35.5885C121.938 35.4687 122.092 35.3198 122.201 35.1418C122.311 34.9638 122.366 34.7858 122.366 34.6078H122.602C122.602 34.9501 122.532 35.2668 122.391 35.5577C122.254 35.8453 122.054 36.078 121.791 36.256C121.527 36.4306 121.209 36.5179 120.835 36.5179ZM127.706 29.8429H129.108L131.182 34.1406H131.09L133.164 29.8429H134.52V36.3844H133.534V30.9161H133.693L131.455 35.6091H130.813L128.584 30.9417H128.682V36.3844H127.706V29.8429ZM139.617 36.3844L139.494 35.2497V33.1907C139.494 32.7868 139.41 32.4941 139.243 32.3127C139.075 32.1278 138.81 32.0354 138.447 32.0354C138.241 32.0354 138.058 32.0662 137.897 32.1278C137.74 32.186 137.615 32.275 137.523 32.3948C137.434 32.5146 137.389 32.6653 137.389 32.8467H136.311C136.311 32.4838 136.4 32.1895 136.578 31.9635C136.756 31.7376 137.004 31.5733 137.322 31.4706C137.644 31.3645 138.019 31.3114 138.447 31.3114C138.847 31.3114 139.2 31.3782 139.504 31.5117C139.809 31.6418 140.045 31.8471 140.213 32.1278C140.384 32.4085 140.47 32.7714 140.47 33.2164V36.3844H139.617ZM137.964 36.5179C137.55 36.5179 137.206 36.446 136.932 36.3022C136.658 36.1551 136.453 35.9634 136.316 35.7272C136.182 35.491 136.116 35.2394 136.116 34.9724C136.116 34.6472 136.198 34.3802 136.362 34.1714C136.53 33.9592 136.761 33.8017 137.055 33.699C137.35 33.5963 137.689 33.545 138.072 33.545C138.336 33.545 138.592 33.5689 138.842 33.6169C139.092 33.6648 139.338 33.7281 139.581 33.8068V34.3973C139.383 34.3254 139.162 34.269 138.919 34.2279C138.68 34.1834 138.455 34.1611 138.247 34.1611C137.935 34.1611 137.675 34.2227 137.466 34.346C137.257 34.4692 137.153 34.678 137.153 34.9724C137.153 35.188 137.235 35.3746 137.399 35.5321C137.564 35.6861 137.824 35.7631 138.18 35.7631C138.44 35.7631 138.669 35.7049 138.868 35.5885C139.066 35.4687 139.22 35.3198 139.33 35.1418C139.439 34.9638 139.494 34.7858 139.494 34.6078H139.73C139.73 34.9501 139.66 35.2668 139.52 35.5577C139.383 35.8453 139.183 36.078 138.919 36.256C138.656 36.4306 138.337 36.5179 137.964 36.5179ZM142.328 36.3844V31.4295H143.303V36.3844H142.328ZM143.036 34.1765C143.036 33.5433 143.101 33.0178 143.231 32.6002C143.365 32.1792 143.55 31.866 143.786 31.6606C144.026 31.4552 144.306 31.3525 144.628 31.3525C144.724 31.3525 144.813 31.3594 144.895 31.3731C144.981 31.3867 145.064 31.4056 145.147 31.4295L145.111 32.4C145.018 32.376 144.917 32.3555 144.808 32.3384C144.702 32.3178 144.604 32.3075 144.515 32.3075C144.234 32.3075 144.005 32.3829 143.827 32.5335C143.649 32.6807 143.517 32.8946 143.432 33.1753C143.346 33.4526 143.303 33.7863 143.303 34.1765H143.036ZM146.169 36.3844V29.3654H147.144V36.3844H146.169ZM147.006 33.4526L149.352 31.4449H150.692L147.006 34.4743V33.4526ZM149.619 36.3844L147.329 33.2523L148.284 33.0521L150.81 36.3844H149.619ZM153.847 36.5179C153.422 36.5179 153.039 36.4084 152.697 36.1893C152.354 35.9702 152.082 35.6656 151.88 35.2753C151.682 34.8851 151.583 34.4333 151.583 33.9198C151.583 33.3755 151.682 32.91 151.88 32.5232C152.079 32.133 152.349 31.8335 152.692 31.6246C153.034 31.4158 153.419 31.3114 153.847 31.3114C154.23 31.3114 154.559 31.3902 154.833 31.5476C155.107 31.7017 155.327 31.9105 155.495 32.174C155.663 32.4342 155.777 32.7303 155.839 33.0623C155.904 33.3944 155.916 33.7367 155.875 34.0892H152.363V33.5244H155.208L154.971 33.6785C154.982 33.4936 154.971 33.3088 154.941 33.1239C154.913 32.9391 154.858 32.7697 154.776 32.6156C154.694 32.4582 154.578 32.3332 154.427 32.2408C154.28 32.145 154.092 32.097 153.862 32.097C153.575 32.097 153.333 32.1689 153.138 32.3127C152.947 32.4564 152.801 32.6499 152.702 32.8929C152.603 33.1325 152.553 33.3961 152.553 33.6836V34.079C152.553 34.3973 152.601 34.6797 152.697 34.9262C152.793 35.1726 152.935 35.3678 153.123 35.5115C153.315 35.6519 153.556 35.722 153.847 35.722C154.131 35.722 154.365 35.6553 154.55 35.5218C154.739 35.3883 154.855 35.188 154.899 34.921H155.896C155.844 35.2428 155.726 35.5235 155.541 35.7631C155.356 36.0027 155.119 36.1893 154.828 36.3228C154.54 36.4529 154.213 36.5179 153.847 36.5179ZM159.007 36.5179C158.727 36.5179 158.473 36.4648 158.247 36.3587C158.021 36.2526 157.842 36.0934 157.708 35.8812C157.578 35.6656 157.513 35.3951 157.513 35.0699V30.0997H158.483V35.0391C158.483 35.5047 158.701 35.7374 159.136 35.7374C159.269 35.7374 159.399 35.7238 159.526 35.6964C159.652 35.6656 159.796 35.6211 159.957 35.5629L160.096 36.256C159.914 36.3313 159.735 36.393 159.557 36.4409C159.382 36.4922 159.199 36.5179 159.007 36.5179ZM156.758 32.1073V31.4449H159.947V32.1073H156.758ZM161.927 30.3923C161.731 30.3923 161.577 30.3393 161.464 30.2332C161.355 30.1236 161.3 29.9764 161.3 29.7916C161.3 29.6136 161.355 29.4733 161.464 29.3706C161.577 29.2645 161.731 29.2114 161.927 29.2114C162.118 29.2114 162.269 29.2645 162.378 29.3706C162.491 29.4733 162.548 29.6136 162.548 29.7916C162.548 29.9764 162.491 30.1236 162.378 30.2332C162.269 30.3393 162.118 30.3923 161.927 30.3923ZM161.439 36.3844V31.4295H162.414V36.3844H161.439ZM168.012 36.3844V33.4885C168.012 33.0606 167.909 32.7371 167.703 32.5181C167.502 32.2956 167.228 32.1843 166.882 32.1843C166.608 32.1843 166.368 32.2596 166.163 32.4102C165.961 32.5574 165.804 32.7748 165.691 33.0623C165.581 33.3464 165.526 33.6939 165.526 34.1046H165.177C165.177 33.4988 165.254 32.9887 165.408 32.5745C165.566 32.1604 165.79 31.8471 166.081 31.6349C166.372 31.4193 166.721 31.3114 167.128 31.3114C167.525 31.3114 167.861 31.4004 168.135 31.5784C168.412 31.7564 168.623 32.0097 168.766 32.3384C168.91 32.6635 168.982 33.0469 168.982 33.4885V36.3844H168.012ZM164.551 36.3844V31.4449H165.398L165.526 32.5129V36.3844H164.551ZM172.656 38.9311C172.122 38.9311 171.662 38.8576 171.275 38.7104C170.892 38.5632 170.596 38.3663 170.387 38.1199C170.178 37.8734 170.074 37.6047 170.074 37.3138C170.074 36.9441 170.209 36.66 170.479 36.4614C170.75 36.2663 171.094 36.1687 171.511 36.1687L172.143 36.4666C171.787 36.4666 171.511 36.5384 171.316 36.6822C171.125 36.826 171.029 37.0211 171.029 37.2675C171.029 37.5243 171.169 37.7348 171.45 37.8991C171.73 38.0668 172.133 38.1507 172.656 38.1507C173.036 38.1507 173.37 38.0942 173.658 37.9813C173.945 37.8717 174.168 37.7262 174.325 37.5448C174.483 37.3668 174.561 37.1751 174.561 36.9697C174.561 36.8294 174.51 36.7096 174.407 36.6103C174.308 36.5145 174.156 36.4666 173.95 36.4666H172.143C171.807 36.4666 171.511 36.4152 171.255 36.3125C171.001 36.2064 170.803 36.0678 170.659 35.8966C170.515 35.7255 170.443 35.5355 170.443 35.3267C170.443 35.1213 170.502 34.945 170.618 34.7978C170.734 34.6472 170.888 34.5342 171.08 34.4589C171.272 34.3802 171.482 34.3408 171.712 34.3408L171.932 34.6797C171.833 34.6797 171.734 34.702 171.635 34.7465C171.535 34.7875 171.453 34.8509 171.388 34.9364C171.323 35.022 171.291 35.1281 171.291 35.2548C171.291 35.402 171.352 35.5252 171.475 35.6245C171.602 35.7203 171.825 35.7683 172.143 35.7683H173.95C174.443 35.7683 174.83 35.8658 175.111 36.0609C175.391 36.256 175.532 36.5401 175.532 36.9133C175.532 37.2521 175.415 37.5756 175.183 37.8837C174.95 38.1918 174.618 38.4434 174.186 38.6385C173.759 38.8336 173.249 38.9311 172.656 38.9311ZM172.764 34.9005C172.381 34.9005 172.032 34.8269 171.717 34.6797C171.405 34.5291 171.157 34.3203 170.972 34.0533C170.787 33.7829 170.695 33.468 170.695 33.1085C170.695 32.7457 170.787 32.4308 170.972 32.1638C171.157 31.8934 171.405 31.6846 171.717 31.5374C172.032 31.3867 172.381 31.3114 172.764 31.3114C173.137 31.3114 173.478 31.3867 173.786 31.5374C174.097 31.6846 174.346 31.8934 174.53 32.1638C174.719 32.4308 174.813 32.7457 174.813 33.1085C174.813 33.468 174.719 33.7829 174.53 34.0533C174.346 34.3203 174.097 34.5291 173.786 34.6797C173.478 34.8269 173.137 34.9005 172.764 34.9005ZM172.764 34.2125C173.117 34.2125 173.385 34.1081 173.57 33.8993C173.759 33.687 173.853 33.4235 173.853 33.1085C173.853 32.7799 173.759 32.5146 173.57 32.3127C173.385 32.1107 173.117 32.0097 172.764 32.0097C172.418 32.0097 172.148 32.1107 171.953 32.3127C171.761 32.5146 171.665 32.7799 171.665 33.1085C171.665 33.4235 171.761 33.687 171.953 33.8993C172.148 34.1081 172.418 34.2125 172.764 34.2125ZM174.443 32.1022L173.986 31.8814C173.986 31.587 174.048 31.3303 174.171 31.1112C174.294 30.8921 174.465 30.721 174.685 30.5977C174.904 30.4745 175.155 30.4129 175.439 30.4129L175.378 31.3628C175.073 31.3628 174.84 31.4227 174.679 31.5425C174.522 31.6623 174.443 31.8489 174.443 32.1022Z" fill="white"/>
<rect x="62.9841" y="57.5072" width="95.9614" height="2.78149" rx="1.39075" fill="white" fill-opacity="0.3"/>
<rect x="62.9841" y="65.7656" width="65.96" height="2.78149" rx="1.39075" fill="white" fill-opacity="0.3"/>
</g>
</g>
<g clip-path="url(#clip4_1_2638)">
<circle cx="38.3382" cy="109.501" r="10.4538" fill="#B7AEAE" fill-opacity="0.2" stroke="black"/>
<g clip-path="url(#clip5_1_2638)">
<g clip-path="url(#clip6_1_2638)">
<path d="M63.2357 107.547L65.4744 101.006H66.681L68.853 107.547H67.826L67.3177 105.986H64.7915L64.2626 107.547H63.2357ZM65.038 105.237H67.0764L66.0597 102.181L65.038 105.237ZM70.0771 107.547V101.006H72.2695C72.9986 101.006 73.56 101.187 73.9537 101.55C74.3473 101.913 74.5441 102.414 74.5441 103.054C74.5441 103.688 74.3473 104.186 73.9537 104.549C73.56 104.908 72.9986 105.088 72.2695 105.088H71.0629V107.547H70.0771ZM71.0629 104.235H72.2695C72.6871 104.235 73.0038 104.127 73.2194 103.912C73.4351 103.696 73.5429 103.41 73.5429 103.054C73.5429 102.695 73.4351 102.404 73.2194 102.181C73.0038 101.959 72.6871 101.848 72.2695 101.848H71.0629V104.235ZM75.9092 107.547V101.006H76.8848V107.547H75.9092ZM81.9596 101.555C81.7645 101.555 81.6104 101.502 81.4975 101.396C81.3879 101.286 81.3332 101.139 81.3332 100.954C81.3332 100.776 81.3879 100.636 81.4975 100.533C81.6104 100.427 81.7645 100.374 81.9596 100.374C82.1513 100.374 82.3019 100.427 82.4114 100.533C82.5244 100.636 82.5809 100.776 82.5809 100.954C82.5809 101.139 82.5244 101.286 82.4114 101.396C82.3019 101.502 82.1513 101.555 81.9596 101.555ZM81.4718 107.547V102.592H82.4474V107.547H81.4718ZM88.0446 107.547V104.651C88.0446 104.223 87.9419 103.9 87.7365 103.681C87.5345 103.458 87.2607 103.347 86.9149 103.347C86.6411 103.347 86.4015 103.422 86.1961 103.573C85.9941 103.72 85.8367 103.937 85.7237 104.225C85.6142 104.509 85.5594 104.857 85.5594 105.267H85.2103C85.2103 104.661 85.2873 104.151 85.4413 103.737C85.5988 103.323 85.823 103.01 86.114 102.798C86.4049 102.582 86.7541 102.474 87.1614 102.474C87.5585 102.474 87.8939 102.563 88.1678 102.741C88.445 102.919 88.6556 103.172 88.7993 103.501C88.9431 103.826 89.015 104.21 89.015 104.651V107.547H88.0446ZM84.5838 107.547V102.608H85.4311L85.5594 103.676V107.547H84.5838ZM92.4583 107.681C92.1776 107.681 91.9243 107.628 91.6984 107.521C91.4724 107.415 91.2927 107.256 91.1592 107.044C91.0292 106.828 90.9641 106.558 90.9641 106.233V101.262H91.9346V106.202C91.9346 106.667 92.1519 106.9 92.5866 106.9C92.7201 106.9 92.8502 106.886 92.9769 106.859C93.1035 106.828 93.2473 106.784 93.4082 106.726L93.5468 107.419C93.3654 107.494 93.1857 107.556 93.0077 107.604C92.8331 107.655 92.65 107.681 92.4583 107.681ZM90.2093 103.27V102.608H93.3979V103.27H90.2093ZM96.5843 107.681C96.1599 107.681 95.7765 107.571 95.4342 107.352C95.0919 107.133 94.8197 106.828 94.6178 106.438C94.4192 106.048 94.32 105.596 94.32 105.083C94.32 104.538 94.4192 104.073 94.6178 103.686C94.8163 103.296 95.0867 102.996 95.429 102.787C95.7713 102.579 96.1564 102.474 96.5843 102.474C96.9677 102.474 97.2963 102.553 97.5702 102.71C97.844 102.864 98.0648 103.073 98.2325 103.337C98.4002 103.597 98.5149 103.893 98.5765 104.225C98.6416 104.557 98.6535 104.899 98.6125 105.252H95.1004V104.687H97.945L97.7088 104.841C97.7191 104.656 97.7088 104.471 97.678 104.287C97.6506 104.102 97.5958 103.932 97.5137 103.778C97.4315 103.621 97.3151 103.496 97.1645 103.404C97.0173 103.308 96.8291 103.26 96.5997 103.26C96.3122 103.26 96.0709 103.332 95.8757 103.475C95.6841 103.619 95.5386 103.813 95.4393 104.056C95.34 104.295 95.2904 104.559 95.2904 104.846V105.242C95.2904 105.56 95.3383 105.842 95.4342 106.089C95.53 106.335 95.6721 106.53 95.8603 106.674C96.052 106.815 96.2934 106.885 96.5843 106.885C96.8684 106.885 97.1029 106.818 97.2878 106.684C97.476 106.551 97.5924 106.351 97.6369 106.084H98.633C98.5817 106.406 98.4636 106.686 98.2787 106.926C98.0939 107.165 97.856 107.352 97.565 107.485C97.2775 107.616 96.9506 107.681 96.5843 107.681ZM101.976 110.094C101.442 110.094 100.981 110.02 100.594 109.873C100.211 109.726 99.915 109.529 99.7062 109.283C99.4974 109.036 99.393 108.767 99.393 108.476C99.393 108.107 99.5282 107.823 99.7986 107.624C100.069 107.429 100.413 107.331 100.831 107.331L101.462 107.629C101.106 107.629 100.831 107.701 100.636 107.845C100.444 107.989 100.348 108.184 100.348 108.43C100.348 108.687 100.488 108.897 100.769 109.062C101.05 109.23 101.452 109.313 101.976 109.313C102.356 109.313 102.689 109.257 102.977 109.144C103.264 109.034 103.487 108.889 103.644 108.708C103.802 108.53 103.881 108.338 103.881 108.132C103.881 107.992 103.829 107.872 103.727 107.773C103.627 107.677 103.475 107.629 103.27 107.629H101.462C101.127 107.629 100.831 107.578 100.574 107.475C100.321 107.369 100.122 107.23 99.9784 107.059C99.8346 106.888 99.7627 106.698 99.7627 106.489C99.7627 106.284 99.8209 106.108 99.9373 105.961C100.054 105.81 100.208 105.697 100.399 105.622C100.591 105.543 100.802 105.504 101.031 105.504L101.252 105.842C101.152 105.842 101.053 105.865 100.954 105.909C100.855 105.95 100.772 106.014 100.707 106.099C100.642 106.185 100.61 106.291 100.61 106.417C100.61 106.565 100.672 106.688 100.795 106.787C100.921 106.883 101.144 106.931 101.462 106.931H103.27C103.763 106.931 104.149 107.029 104.43 107.224C104.711 107.419 104.851 107.703 104.851 108.076C104.851 108.415 104.735 108.738 104.502 109.046C104.269 109.354 103.937 109.606 103.506 109.801C103.078 109.996 102.568 110.094 101.976 110.094ZM102.084 106.063C101.7 106.063 101.351 105.99 101.036 105.842C100.725 105.692 100.476 105.483 100.292 105.216C100.107 104.946 100.014 104.631 100.014 104.271C100.014 103.908 100.107 103.593 100.292 103.326C100.476 103.056 100.725 102.847 101.036 102.7C101.351 102.549 101.7 102.474 102.084 102.474C102.457 102.474 102.797 102.549 103.105 102.7C103.417 102.847 103.665 103.056 103.85 103.326C104.038 103.593 104.132 103.908 104.132 104.271C104.132 104.631 104.038 104.946 103.85 105.216C103.665 105.483 103.417 105.692 103.105 105.842C102.797 105.99 102.457 106.063 102.084 106.063ZM102.084 105.375C102.436 105.375 102.705 105.271 102.89 105.062C103.078 104.85 103.172 104.586 103.172 104.271C103.172 103.943 103.078 103.677 102.89 103.475C102.705 103.273 102.436 103.172 102.084 103.172C101.738 103.172 101.467 103.273 101.272 103.475C101.081 103.677 100.985 103.943 100.985 104.271C100.985 104.586 101.081 104.85 101.272 105.062C101.467 105.271 101.738 105.375 102.084 105.375ZM103.763 103.265L103.306 103.044C103.306 102.75 103.367 102.493 103.49 102.274C103.614 102.055 103.785 101.884 104.004 101.76C104.223 101.637 104.475 101.576 104.759 101.576L104.697 102.525C104.392 102.525 104.16 102.585 103.999 102.705C103.841 102.825 103.763 103.012 103.763 103.265ZM106.035 107.547V102.592H107.01V107.547H106.035ZM106.743 105.339C106.743 104.706 106.808 104.181 106.938 103.763C107.072 103.342 107.257 103.029 107.493 102.823C107.733 102.618 108.013 102.515 108.335 102.515C108.431 102.515 108.52 102.522 108.602 102.536C108.688 102.549 108.771 102.568 108.854 102.592L108.818 103.563C108.725 103.539 108.624 103.518 108.515 103.501C108.409 103.481 108.311 103.47 108.222 103.47C107.941 103.47 107.712 103.546 107.534 103.696C107.356 103.843 107.224 104.057 107.139 104.338C107.053 104.615 107.01 104.949 107.01 105.339H106.743ZM112.972 107.547L112.849 106.412V104.353C112.849 103.949 112.765 103.657 112.597 103.475C112.429 103.291 112.164 103.198 111.801 103.198C111.596 103.198 111.413 103.229 111.252 103.291C111.094 103.349 110.969 103.438 110.877 103.558C110.788 103.677 110.743 103.828 110.743 104.009H109.665C109.665 103.647 109.754 103.352 109.932 103.126C110.11 102.9 110.358 102.736 110.677 102.633C110.998 102.527 111.373 102.474 111.801 102.474C112.202 102.474 112.554 102.541 112.859 102.674C113.163 102.804 113.4 103.01 113.567 103.291C113.739 103.571 113.824 103.934 113.824 104.379V107.547H112.972ZM111.318 107.681C110.904 107.681 110.56 107.609 110.286 107.465C110.013 107.318 109.807 107.126 109.67 106.89C109.537 106.654 109.47 106.402 109.47 106.135C109.47 105.81 109.552 105.543 109.716 105.334C109.884 105.122 110.115 104.964 110.41 104.862C110.704 104.759 111.043 104.708 111.426 104.708C111.69 104.708 111.947 104.732 112.196 104.78C112.446 104.827 112.693 104.891 112.936 104.97V105.56C112.737 105.488 112.517 105.432 112.273 105.391C112.034 105.346 111.81 105.324 111.601 105.324C111.289 105.324 111.029 105.385 110.82 105.509C110.612 105.632 110.507 105.841 110.507 106.135C110.507 106.351 110.589 106.537 110.754 106.695C110.918 106.849 111.178 106.926 111.534 106.926C111.794 106.926 112.024 106.868 112.222 106.751C112.421 106.631 112.575 106.483 112.684 106.305C112.794 106.127 112.849 105.949 112.849 105.771H113.085C113.085 106.113 113.015 106.429 112.874 106.72C112.737 107.008 112.537 107.241 112.273 107.419C112.01 107.593 111.692 107.681 111.318 107.681ZM117.269 107.681C116.988 107.681 116.735 107.628 116.509 107.521C116.283 107.415 116.103 107.256 115.97 107.044C115.84 106.828 115.775 106.558 115.775 106.233V101.262H116.745V106.202C116.745 106.667 116.962 106.9 117.397 106.9C117.531 106.9 117.661 106.886 117.787 106.859C117.914 106.828 118.058 106.784 118.219 106.726L118.357 107.419C118.176 107.494 117.996 107.556 117.818 107.604C117.644 107.655 117.46 107.681 117.269 107.681ZM115.02 103.27V102.608H118.208V103.27H115.02ZM120.188 101.555C119.993 101.555 119.839 101.502 119.726 101.396C119.616 101.286 119.562 101.139 119.562 100.954C119.562 100.776 119.616 100.636 119.726 100.533C119.839 100.427 119.993 100.374 120.188 100.374C120.38 100.374 120.53 100.427 120.64 100.533C120.753 100.636 120.809 100.776 120.809 100.954C120.809 101.139 120.753 101.286 120.64 101.396C120.53 101.502 120.38 101.555 120.188 101.555ZM119.7 107.547V102.592H120.676V107.547H119.7ZM124.671 107.681C124.223 107.681 123.82 107.583 123.464 107.388C123.112 107.193 122.833 106.902 122.628 106.515C122.422 106.128 122.319 105.651 122.319 105.083C122.319 104.504 122.422 104.023 122.628 103.64C122.833 103.253 123.112 102.962 123.464 102.767C123.82 102.572 124.223 102.474 124.671 102.474C125.113 102.474 125.51 102.572 125.862 102.767C126.215 102.962 126.492 103.253 126.694 103.64C126.899 104.023 127.002 104.504 127.002 105.083C127.002 105.651 126.899 106.128 126.694 106.515C126.492 106.902 126.215 107.193 125.862 107.388C125.51 107.583 125.113 107.681 124.671 107.681ZM124.64 106.828C124.924 106.828 125.169 106.76 125.375 106.623C125.583 106.486 125.743 106.287 125.852 106.027C125.965 105.764 126.021 105.449 126.021 105.083C126.021 104.521 125.907 104.086 125.677 103.778C125.452 103.47 125.125 103.316 124.697 103.316C124.409 103.316 124.161 103.386 123.952 103.527C123.747 103.664 123.588 103.864 123.475 104.127C123.365 104.388 123.31 104.706 123.31 105.083C123.31 105.634 123.425 106.063 123.654 106.371C123.884 106.676 124.212 106.828 124.64 106.828ZM131.969 107.547V104.651C131.969 104.223 131.867 103.9 131.661 103.681C131.459 103.458 131.185 103.347 130.84 103.347C130.566 103.347 130.326 103.422 130.121 103.573C129.919 103.72 129.761 103.937 129.648 104.225C129.539 104.509 129.484 104.857 129.484 105.267H129.135C129.135 104.661 129.212 104.151 129.366 103.737C129.523 103.323 129.748 103.01 130.039 102.798C130.33 102.582 130.679 102.474 131.086 102.474C131.483 102.474 131.819 102.563 132.092 102.741C132.37 102.919 132.58 103.172 132.724 103.501C132.868 103.826 132.94 104.21 132.94 104.651V107.547H131.969ZM128.509 107.547V102.608H129.356L129.484 103.676V107.547H128.509Z" fill="white"/>
</g>
<rect x="62.9841" y="116.347" width="75" height="3" rx="1.5" fill="white" fill-opacity="0.3"/>
<rect x="62.9841" y="124.824" width="105" height="3" rx="1.5" fill="white" fill-opacity="0.3"/>
</g>
</g>
<g clip-path="url(#clip7_1_2638)">
<circle cx="38.3382" cy="168.778" r="10.4538" fill="#B7AEAE" fill-opacity="0.2" stroke="black"/>
<g clip-path="url(#clip8_1_2638)">
<g clip-path="url(#clip9_1_2638)">
<path d="M63.9854 166.824V160.282H64.9609V166.824H63.9854ZM66.0242 161.124V160.282H71.1793V161.124H68.8688L69.0895 160.899V166.824H68.114V160.899L68.3296 161.124H66.0242ZM76.5533 166.957C76.0741 166.957 75.6701 166.891 75.3415 166.757C75.0129 166.62 74.7613 166.432 74.5867 166.192C74.4156 165.949 74.3266 165.665 74.3198 165.34H75.2388C75.2525 165.624 75.3655 165.835 75.5777 165.972C75.7934 166.108 76.0843 166.177 76.4506 166.177C76.6457 166.177 76.822 166.146 76.9795 166.084C77.1403 166.023 77.267 165.939 77.3594 165.833C77.4553 165.727 77.5032 165.607 77.5032 165.473C77.5032 165.306 77.4416 165.174 77.3183 165.078C77.1951 164.979 76.9966 164.892 76.7227 164.816L75.7112 164.472C75.3073 164.335 74.9975 164.154 74.7819 163.928C74.5662 163.699 74.4584 163.425 74.4584 163.106C74.4584 162.699 74.6398 162.372 75.0026 162.126C75.3655 161.876 75.8464 161.751 76.4455 161.751C77.065 161.751 77.5426 161.883 77.878 162.146C78.2169 162.406 78.3932 162.733 78.4069 163.127H77.4672C77.4433 162.932 77.3457 162.783 77.1746 162.68C77.0068 162.574 76.7638 162.521 76.4455 162.521C76.1477 162.521 75.9132 162.586 75.742 162.716C75.5743 162.846 75.4904 162.993 75.4904 163.158C75.4904 163.452 75.7437 163.671 76.2504 163.815L77.3132 164.19C77.7171 164.32 78.0286 164.488 78.2477 164.693C78.4668 164.898 78.5763 165.159 78.5763 165.473C78.5763 165.727 78.4924 165.966 78.3247 166.192C78.157 166.418 77.9208 166.603 77.6161 166.747C77.3149 166.887 76.9606 166.957 76.5533 166.957ZM83.4785 161.869H84.4592V166.824H83.4785V161.869ZM80.028 161.869H81.0036V164.929C81.0036 165.302 81.0943 165.585 81.2757 165.776C81.4606 165.968 81.719 166.064 82.0511 166.064C82.3317 166.064 82.5782 165.99 82.7904 165.843C83.0061 165.696 83.1738 165.487 83.2936 165.217C83.4169 164.946 83.4785 164.626 83.4785 164.257H83.7917C83.7917 164.835 83.7129 165.321 83.5555 165.715C83.398 166.108 83.1772 166.408 82.8931 166.613C82.609 166.815 82.277 166.916 81.897 166.916C81.5342 166.916 81.2107 166.85 80.9266 166.716C80.6459 166.583 80.4251 166.377 80.2642 166.1C80.1068 165.819 80.028 165.458 80.028 165.016V161.869ZM88.8005 166.957C88.4411 166.957 88.1296 166.877 87.866 166.716C87.6025 166.552 87.4005 166.312 87.2602 165.997C87.1232 165.679 87.0548 165.285 87.0548 164.816H87.4347C87.4347 165.087 87.4929 165.316 87.6093 165.504C87.7257 165.689 87.878 165.831 88.0663 165.93C88.258 166.026 88.4617 166.074 88.6773 166.074C88.9032 166.074 89.1223 166.011 89.3345 165.884C89.5502 165.754 89.7265 165.561 89.8634 165.304C90.0003 165.047 90.0688 164.729 90.0688 164.349C90.0688 163.986 90.0072 163.676 89.8839 163.42C89.7641 163.163 89.5998 162.966 89.391 162.829C89.1822 162.692 88.9477 162.624 88.6876 162.624C88.4685 162.624 88.2631 162.677 88.0714 162.783C87.8797 162.886 87.7257 163.038 87.6093 163.24C87.4929 163.438 87.4347 163.681 87.4347 163.969H87.0548C87.0548 163.473 87.1335 163.06 87.291 162.732C87.4519 162.403 87.6675 162.158 87.9379 161.997C88.2083 161.833 88.5079 161.751 88.8365 161.751C89.2233 161.751 89.5861 161.855 89.925 162.064C90.2639 162.269 90.5377 162.566 90.7465 162.952C90.9588 163.339 91.0649 163.805 91.0649 164.349C91.0649 164.893 90.9588 165.36 90.7465 165.751C90.5343 166.141 90.2553 166.44 89.9096 166.649C89.5673 166.855 89.1976 166.957 88.8005 166.957ZM86.4592 169.247V161.884H87.2653L87.4347 163.07V169.247H86.4592ZM94.9179 166.957C94.5585 166.957 94.247 166.877 93.9834 166.716C93.7198 166.552 93.5179 166.312 93.3775 165.997C93.2406 165.679 93.1721 165.285 93.1721 164.816H93.5521C93.5521 165.087 93.6103 165.316 93.7267 165.504C93.8431 165.689 93.9954 165.831 94.1837 165.93C94.3753 166.026 94.579 166.074 94.7947 166.074C95.0206 166.074 95.2397 166.011 95.4519 165.884C95.6676 165.754 95.8438 165.561 95.9808 165.304C96.1177 165.047 96.1861 164.729 96.1861 164.349C96.1861 163.986 96.1245 163.676 96.0013 163.42C95.8815 163.163 95.7172 162.966 95.5084 162.829C95.2996 162.692 95.0651 162.624 94.8049 162.624C94.5859 162.624 94.3805 162.677 94.1888 162.783C93.9971 162.886 93.8431 163.038 93.7267 163.24C93.6103 163.438 93.5521 163.681 93.5521 163.969H93.1721C93.1721 163.473 93.2509 163.06 93.4083 162.732C93.5692 162.403 93.7849 162.158 94.0553 161.997C94.3257 161.833 94.6252 161.751 94.9538 161.751C95.3407 161.751 95.7035 161.855 96.0424 162.064C96.3813 162.269 96.6551 162.566 96.8639 162.952C97.0761 163.339 97.1823 163.805 97.1823 164.349C97.1823 164.893 97.0761 165.36 96.8639 165.751C96.6517 166.141 96.3727 166.44 96.027 166.649C95.6847 166.855 95.315 166.957 94.9179 166.957ZM92.5765 169.247V161.884H93.3827L93.5521 163.07V169.247H92.5765ZM100.553 166.957C100.104 166.957 99.702 166.86 99.346 166.665C98.9934 166.47 98.7144 166.179 98.5091 165.792C98.3037 165.405 98.201 164.927 98.201 164.359C98.201 163.781 98.3037 163.3 98.5091 162.916C98.7144 162.53 98.9934 162.239 99.346 162.044C99.702 161.848 100.104 161.751 100.553 161.751C100.994 161.751 101.391 161.848 101.744 162.044C102.096 162.239 102.374 162.53 102.576 162.916C102.781 163.3 102.884 163.781 102.884 164.359C102.884 164.927 102.781 165.405 102.576 165.792C102.374 166.179 102.096 166.47 101.744 166.665C101.391 166.86 100.994 166.957 100.553 166.957ZM100.522 166.105C100.806 166.105 101.051 166.037 101.256 165.9C101.465 165.763 101.624 165.564 101.734 165.304C101.847 165.04 101.903 164.726 101.903 164.359C101.903 163.798 101.788 163.363 101.559 163.055C101.333 162.747 101.006 162.593 100.578 162.593C100.291 162.593 100.043 162.663 99.8338 162.803C99.6284 162.94 99.4692 163.141 99.3563 163.404C99.2467 163.664 99.192 163.983 99.192 164.359C99.192 164.91 99.3066 165.34 99.536 165.648C99.7653 165.953 100.094 166.105 100.522 166.105ZM104.39 166.824V161.869H105.366V166.824H104.39ZM105.099 164.616C105.099 163.983 105.164 163.457 105.294 163.04C105.427 162.619 105.612 162.305 105.848 162.1C106.088 161.895 106.369 161.792 106.69 161.792C106.786 161.792 106.875 161.799 106.957 161.813C107.043 161.826 107.127 161.845 107.209 161.869L107.173 162.839C107.081 162.815 106.98 162.795 106.87 162.778C106.764 162.757 106.666 162.747 106.577 162.747C106.297 162.747 106.067 162.822 105.889 162.973C105.711 163.12 105.58 163.334 105.494 163.615C105.408 163.892 105.366 164.226 105.366 164.616H105.099ZM109.818 166.957C109.537 166.957 109.284 166.904 109.058 166.798C108.832 166.692 108.652 166.533 108.519 166.321C108.388 166.105 108.323 165.835 108.323 165.509V160.539H109.294V165.479C109.294 165.944 109.511 166.177 109.946 166.177C110.079 166.177 110.209 166.163 110.336 166.136C110.463 166.105 110.607 166.061 110.767 166.002L110.906 166.695C110.725 166.771 110.545 166.832 110.367 166.88C110.192 166.932 110.009 166.957 109.818 166.957ZM107.569 162.547V161.884H110.757V162.547H107.569ZM121.303 166.957C121.015 166.957 120.745 166.894 120.492 166.767C120.238 166.641 119.966 166.446 119.675 166.182L116.358 163.225C116.122 163.019 115.934 162.79 115.793 162.536C115.657 162.28 115.588 162.013 115.588 161.735C115.588 161.438 115.67 161.172 115.835 160.94C116.002 160.703 116.244 160.517 116.559 160.38C116.873 160.243 117.25 160.175 117.688 160.175C118.106 160.175 118.465 160.243 118.766 160.38C119.071 160.517 119.306 160.702 119.47 160.934C119.638 161.167 119.721 161.427 119.721 161.715C119.721 161.999 119.653 162.259 119.516 162.495C119.379 162.728 119.167 162.942 118.879 163.137C118.595 163.329 118.229 163.509 117.781 163.676L117.257 163.178C117.609 163.031 117.885 162.887 118.084 162.747C118.285 162.603 118.429 162.456 118.515 162.305C118.6 162.151 118.643 161.985 118.643 161.807C118.643 161.578 118.556 161.388 118.381 161.237C118.207 161.087 117.976 161.012 117.688 161.012C117.349 161.012 117.093 161.097 116.918 161.268C116.743 161.436 116.656 161.638 116.656 161.874C116.656 162.049 116.699 162.215 116.784 162.372C116.87 162.526 117.005 162.687 117.19 162.855L120.456 165.761C120.589 165.874 120.711 165.958 120.82 166.013C120.93 166.067 121.063 166.095 121.221 166.095C121.388 166.095 121.536 166.031 121.662 165.905C121.789 165.778 121.861 165.573 121.878 165.289H122.777C122.759 165.805 122.628 166.213 122.381 166.511C122.138 166.808 121.779 166.957 121.303 166.957ZM117.226 166.957C116.856 166.957 116.512 166.908 116.194 166.808C115.879 166.706 115.602 166.565 115.362 166.387C115.123 166.209 114.936 166.002 114.803 165.766C114.669 165.527 114.602 165.268 114.602 164.991C114.602 164.464 114.813 164.067 115.234 163.8C115.658 163.533 116.259 163.367 117.036 163.302L117.318 163.851C116.75 163.906 116.334 164.024 116.071 164.205C115.807 164.383 115.675 164.628 115.675 164.939C115.675 165.148 115.735 165.338 115.855 165.509C115.978 165.681 116.156 165.817 116.389 165.92C116.622 166.023 116.904 166.074 117.236 166.074C117.64 166.074 118.012 165.992 118.351 165.828C118.689 165.663 118.999 165.438 119.28 165.15C119.561 164.859 119.812 164.52 120.035 164.133C120.257 163.747 120.451 163.331 120.615 162.886L121.282 163.255C121.108 163.789 120.89 164.281 120.63 164.729C120.374 165.177 120.076 165.569 119.737 165.905C119.398 166.237 119.02 166.495 118.602 166.68C118.184 166.865 117.726 166.957 117.226 166.957ZM129.186 166.957C128.628 166.957 128.132 166.831 127.697 166.577C127.263 166.324 126.92 165.946 126.67 165.443C126.424 164.939 126.301 164.311 126.301 163.558C126.301 162.791 126.424 162.158 126.67 161.658C126.92 161.155 127.263 160.78 127.697 160.534C128.132 160.288 128.628 160.164 129.186 160.164C129.748 160.164 130.246 160.289 130.681 160.539C131.119 160.789 131.461 161.167 131.707 161.674C131.957 162.177 132.082 162.805 132.082 163.558C132.082 164.318 131.957 164.951 131.707 165.458C131.461 165.961 131.119 166.338 130.681 166.588C130.246 166.834 129.748 166.957 129.186 166.957ZM129.186 166.064C129.768 166.064 130.227 165.85 130.562 165.422C130.901 164.994 131.071 164.37 131.071 163.548C131.071 162.747 130.901 162.129 130.562 161.694C130.227 161.256 129.768 161.037 129.186 161.037C128.615 161.037 128.159 161.256 127.821 161.694C127.482 162.133 127.312 162.754 127.312 163.558C127.312 164.373 127.482 164.994 127.821 165.422C128.159 165.85 128.615 166.064 129.186 166.064ZM136.91 161.869H137.891V166.824H136.91V161.869ZM133.46 161.869H134.435V164.929C134.435 165.302 134.526 165.585 134.707 165.776C134.892 165.968 135.151 166.064 135.483 166.064C135.763 166.064 136.01 165.99 136.222 165.843C136.438 165.696 136.605 165.487 136.725 165.217C136.849 164.946 136.91 164.626 136.91 164.257H137.223C137.223 164.835 137.145 165.321 136.987 165.715C136.83 166.108 136.609 166.408 136.325 166.613C136.041 166.815 135.709 166.916 135.329 166.916C134.966 166.916 134.642 166.85 134.358 166.716C134.078 166.583 133.857 166.377 133.696 166.1C133.538 165.819 133.46 165.458 133.46 165.016V161.869ZM141.477 166.957C141.197 166.957 140.943 166.904 140.718 166.798C140.492 166.692 140.312 166.533 140.178 166.321C140.048 166.105 139.983 165.835 139.983 165.509V160.539H140.954V165.479C140.954 165.944 141.171 166.177 141.606 166.177C141.739 166.177 141.869 166.163 141.996 166.136C142.123 166.105 142.266 166.061 142.427 166.002L142.566 166.695C142.385 166.771 142.205 166.832 142.027 166.88C141.852 166.932 141.669 166.957 141.477 166.957ZM139.228 162.547V161.884H142.417V162.547H139.228ZM145.639 166.957C145.16 166.957 144.756 166.891 144.428 166.757C144.099 166.62 143.847 166.432 143.673 166.192C143.502 165.949 143.413 165.665 143.406 165.34H144.325C144.339 165.624 144.452 165.835 144.664 165.972C144.879 166.108 145.17 166.177 145.537 166.177C145.732 166.177 145.908 166.146 146.066 166.084C146.226 166.023 146.353 165.939 146.446 165.833C146.541 165.727 146.589 165.607 146.589 165.473C146.589 165.306 146.528 165.174 146.404 165.078C146.281 164.979 146.083 164.892 145.809 164.816L144.797 164.472C144.393 164.335 144.084 164.154 143.868 163.928C143.652 163.699 143.545 163.425 143.545 163.106C143.545 162.699 143.726 162.372 144.089 162.126C144.452 161.876 144.933 161.751 145.532 161.751C146.151 161.751 146.629 161.883 146.964 162.146C147.303 162.406 147.479 162.733 147.493 163.127H146.553C146.529 162.932 146.432 162.783 146.261 162.68C146.093 162.574 145.85 162.521 145.532 162.521C145.234 162.521 144.999 162.586 144.828 162.716C144.66 162.846 144.577 162.993 144.577 163.158C144.577 163.452 144.83 163.671 145.336 163.815L146.399 164.19C146.803 164.32 147.115 164.488 147.334 164.693C147.553 164.898 147.662 165.159 147.662 165.473C147.662 165.727 147.579 165.966 147.411 166.192C147.243 166.418 147.007 166.603 146.702 166.747C146.401 166.887 146.047 166.957 145.639 166.957ZM150.824 166.957C150.543 166.957 150.29 166.904 150.064 166.798C149.838 166.692 149.658 166.533 149.525 166.321C149.395 166.105 149.33 165.835 149.33 165.509V160.539H150.3V165.479C150.3 165.944 150.518 166.177 150.952 166.177C151.086 166.177 151.216 166.163 151.343 166.136C151.469 166.105 151.613 166.061 151.774 166.002L151.913 166.695C151.731 166.771 151.551 166.832 151.373 166.88C151.199 166.932 151.016 166.957 150.824 166.957ZM148.575 162.547V161.884H151.764V162.547H148.575ZM156.275 166.824L156.151 165.689V163.63C156.151 163.226 156.068 162.934 155.9 162.752C155.732 162.567 155.467 162.475 155.104 162.475C154.899 162.475 154.716 162.506 154.555 162.567C154.397 162.625 154.272 162.714 154.18 162.834C154.091 162.954 154.046 163.105 154.046 163.286H152.968C152.968 162.923 153.057 162.629 153.235 162.403C153.413 162.177 153.661 162.013 153.98 161.91C154.301 161.804 154.676 161.751 155.104 161.751C155.505 161.751 155.857 161.818 156.162 161.951C156.466 162.081 156.703 162.287 156.87 162.567C157.041 162.848 157.127 163.211 157.127 163.656V166.824H156.275ZM154.621 166.957C154.207 166.957 153.863 166.885 153.589 166.742C153.315 166.595 153.11 166.403 152.973 166.167C152.84 165.93 152.773 165.679 152.773 165.412C152.773 165.087 152.855 164.82 153.019 164.611C153.187 164.399 153.418 164.241 153.713 164.138C154.007 164.036 154.346 163.984 154.729 163.984C154.993 163.984 155.25 164.008 155.499 164.056C155.749 164.104 155.996 164.168 156.239 164.246V164.837C156.04 164.765 155.819 164.708 155.576 164.667C155.337 164.623 155.113 164.601 154.904 164.601C154.592 164.601 154.332 164.662 154.123 164.785C153.915 164.909 153.81 165.117 153.81 165.412C153.81 165.627 153.892 165.814 154.057 165.972C154.221 166.126 154.481 166.203 154.837 166.203C155.097 166.203 155.327 166.144 155.525 166.028C155.724 165.908 155.878 165.759 155.987 165.581C156.097 165.403 156.151 165.225 156.151 165.047H156.388C156.388 165.39 156.318 165.706 156.177 165.997C156.04 166.285 155.84 166.517 155.576 166.695C155.313 166.87 154.995 166.957 154.621 166.957ZM159.262 166.824V161.191C159.262 160.849 159.327 160.572 159.457 160.359C159.591 160.144 159.767 159.985 159.986 159.882C160.205 159.779 160.447 159.728 160.71 159.728C160.861 159.728 161.015 159.738 161.172 159.759C161.333 159.779 161.491 159.81 161.645 159.851L161.46 160.611C161.364 160.577 161.267 160.549 161.167 160.529C161.071 160.508 160.979 160.498 160.89 160.498C160.784 160.498 160.681 160.519 160.582 160.56C160.483 160.597 160.4 160.667 160.335 160.77C160.274 160.873 160.243 161.018 160.243 161.207V166.824H159.262ZM158.487 162.547V161.884H161.213V162.547H158.487ZM162.883 166.824V161.191C162.883 160.849 162.948 160.572 163.078 160.359C163.211 160.144 163.387 159.985 163.607 159.882C163.826 159.779 164.067 159.728 164.331 159.728C164.481 159.728 164.635 159.738 164.793 159.759C164.954 159.779 165.111 159.81 165.265 159.851L165.08 160.611C164.984 160.577 164.887 160.549 164.788 160.529C164.692 160.508 164.599 160.498 164.51 160.498C164.404 160.498 164.301 160.519 164.202 160.56C164.103 160.597 164.021 160.667 163.956 160.77C163.894 160.873 163.863 161.018 163.863 161.207V166.824H162.883ZM162.107 162.547V161.884H164.834V162.547H162.107ZM170.504 166.957C170.08 166.957 169.696 166.848 169.354 166.629C169.012 166.41 168.74 166.105 168.538 165.715C168.339 165.325 168.24 164.873 168.24 164.359C168.24 163.815 168.339 163.349 168.538 162.963C168.736 162.572 169.007 162.273 169.349 162.064C169.691 161.855 170.076 161.751 170.504 161.751C170.888 161.751 171.216 161.83 171.49 161.987C171.764 162.141 171.985 162.35 172.152 162.614C172.32 162.874 172.435 163.17 172.496 163.502C172.561 163.834 172.573 164.176 172.532 164.529H169.02V163.964H171.865L171.629 164.118C171.639 163.933 171.629 163.748 171.598 163.563C171.57 163.379 171.516 163.209 171.434 163.055C171.351 162.898 171.235 162.773 171.084 162.68C170.937 162.584 170.749 162.536 170.52 162.536C170.232 162.536 169.991 162.608 169.796 162.752C169.604 162.896 169.458 163.089 169.359 163.332C169.26 163.572 169.21 163.836 169.21 164.123V164.518C169.21 164.837 169.258 165.119 169.354 165.366C169.45 165.612 169.592 165.807 169.78 165.951C169.972 166.091 170.213 166.161 170.504 166.161C170.788 166.161 171.023 166.095 171.208 165.961C171.396 165.828 171.512 165.627 171.557 165.36H172.553C172.502 165.682 172.383 165.963 172.199 166.203C172.014 166.442 171.776 166.629 171.485 166.762C171.197 166.892 170.87 166.957 170.504 166.957ZM177.539 166.824V163.928C177.539 163.5 177.436 163.177 177.231 162.958C177.029 162.735 176.755 162.624 176.409 162.624C176.135 162.624 175.896 162.699 175.69 162.85C175.488 162.997 175.331 163.214 175.218 163.502C175.108 163.786 175.053 164.133 175.053 164.544H174.704C174.704 163.938 174.781 163.428 174.935 163.014C175.093 162.6 175.317 162.287 175.608 162.074C175.899 161.859 176.248 161.751 176.655 161.751C177.053 161.751 177.388 161.84 177.662 162.018C177.939 162.196 178.15 162.449 178.293 162.778C178.437 163.103 178.509 163.486 178.509 163.928V166.824H177.539ZM174.078 166.824V161.884H174.925L175.053 162.952V166.824H174.078ZM182.183 169.371C181.649 169.371 181.189 169.297 180.802 169.15C180.419 169.003 180.123 168.806 179.914 168.559C179.705 168.313 179.601 168.044 179.601 167.753C179.601 167.384 179.736 167.099 180.006 166.901C180.277 166.706 180.621 166.608 181.038 166.608L181.67 166.906C181.314 166.906 181.038 166.978 180.843 167.122C180.652 167.265 180.556 167.461 180.556 167.707C180.556 167.964 180.696 168.174 180.977 168.339C181.257 168.506 181.66 168.59 182.183 168.59C182.563 168.59 182.897 168.534 183.185 168.421C183.472 168.311 183.695 168.166 183.852 167.984C184.01 167.806 184.088 167.615 184.088 167.409C184.088 167.269 184.037 167.149 183.934 167.05C183.835 166.954 183.683 166.906 183.477 166.906H181.67C181.334 166.906 181.038 166.855 180.782 166.752C180.528 166.646 180.33 166.507 180.186 166.336C180.042 166.165 179.97 165.975 179.97 165.766C179.97 165.561 180.029 165.384 180.145 165.237C180.261 165.087 180.415 164.974 180.607 164.898C180.799 164.82 181.009 164.78 181.239 164.78L181.459 165.119C181.36 165.119 181.261 165.141 181.162 165.186C181.062 165.227 180.98 165.29 180.915 165.376C180.85 165.461 180.818 165.568 180.818 165.694C180.818 165.841 180.879 165.965 181.002 166.064C181.129 166.16 181.352 166.208 181.67 166.208H183.477C183.97 166.208 184.357 166.305 184.638 166.5C184.918 166.695 185.059 166.98 185.059 167.353C185.059 167.692 184.942 168.015 184.71 168.323C184.477 168.631 184.145 168.883 183.713 169.078C183.286 169.273 182.776 169.371 182.183 169.371ZM182.291 165.34C181.908 165.34 181.559 165.266 181.244 165.119C180.932 164.969 180.684 164.76 180.499 164.493C180.314 164.222 180.222 163.907 180.222 163.548C180.222 163.185 180.314 162.87 180.499 162.603C180.684 162.333 180.932 162.124 181.244 161.977C181.559 161.826 181.908 161.751 182.291 161.751C182.664 161.751 183.005 161.826 183.313 161.977C183.624 162.124 183.873 162.333 184.058 162.603C184.246 162.87 184.34 163.185 184.34 163.548C184.34 163.907 184.246 164.222 184.058 164.493C183.873 164.76 183.624 164.969 183.313 165.119C183.005 165.266 182.664 165.34 182.291 165.34ZM182.291 164.652C182.644 164.652 182.913 164.548 183.097 164.339C183.286 164.126 183.38 163.863 183.38 163.548C183.38 163.219 183.286 162.954 183.097 162.752C182.913 162.55 182.644 162.449 182.291 162.449C181.945 162.449 181.675 162.55 181.48 162.752C181.288 162.954 181.192 163.219 181.192 163.548C181.192 163.863 181.288 164.126 181.48 164.339C181.675 164.548 181.945 164.652 182.291 164.652ZM183.97 162.542L183.513 162.321C183.513 162.026 183.575 161.77 183.698 161.551C183.821 161.332 183.992 161.16 184.212 161.037C184.431 160.914 184.682 160.852 184.966 160.852L184.905 161.802C184.6 161.802 184.367 161.862 184.206 161.982C184.049 162.102 183.97 162.288 183.97 162.542ZM186.807 160.832C186.612 160.832 186.458 160.779 186.345 160.673C186.236 160.563 186.181 160.416 186.181 160.231C186.181 160.053 186.236 159.913 186.345 159.81C186.458 159.704 186.612 159.651 186.807 159.651C186.999 159.651 187.15 159.704 187.259 159.81C187.372 159.913 187.429 160.053 187.429 160.231C187.429 160.416 187.372 160.563 187.259 160.673C187.15 160.779 186.999 160.832 186.807 160.832ZM186.319 166.824V161.869H187.295V166.824H186.319ZM192.892 166.824V163.928C192.892 163.5 192.789 163.177 192.584 162.958C192.382 162.735 192.108 162.624 191.763 162.624C191.489 162.624 191.249 162.699 191.044 162.85C190.842 162.997 190.684 163.214 190.571 163.502C190.462 163.786 190.407 164.133 190.407 164.544H190.058C190.058 163.938 190.135 163.428 190.289 163.014C190.446 162.6 190.671 162.287 190.962 162.074C191.253 161.859 191.602 161.751 192.009 161.751C192.406 161.751 192.742 161.84 193.015 162.018C193.293 162.196 193.503 162.449 193.647 162.778C193.791 163.103 193.863 163.486 193.863 163.928V166.824H192.892ZM189.431 166.824V161.884H190.279L190.407 162.952V166.824H189.431ZM197.491 166.957C197.066 166.957 196.683 166.848 196.341 166.629C195.998 166.41 195.726 166.105 195.524 165.715C195.326 165.325 195.226 164.873 195.226 164.359C195.226 163.815 195.326 163.349 195.524 162.963C195.723 162.572 195.993 162.273 196.335 162.064C196.678 161.855 197.063 161.751 197.491 161.751C197.874 161.751 198.203 161.83 198.477 161.987C198.75 162.141 198.971 162.35 199.139 162.614C199.307 162.874 199.421 163.17 199.483 163.502C199.548 163.834 199.56 164.176 199.519 164.529H196.007V163.964H198.851L198.615 164.118C198.626 163.933 198.615 163.748 198.584 163.563C198.557 163.379 198.502 163.209 198.42 163.055C198.338 162.898 198.222 162.773 198.071 162.68C197.924 162.584 197.736 162.536 197.506 162.536C197.219 162.536 196.977 162.608 196.782 162.752C196.591 162.896 196.445 163.089 196.346 163.332C196.246 163.572 196.197 163.836 196.197 164.123V164.518C196.197 164.837 196.245 165.119 196.341 165.366C196.436 165.612 196.579 165.807 196.767 165.951C196.958 166.091 197.2 166.161 197.491 166.161C197.775 166.161 198.009 166.095 198.194 165.961C198.382 165.828 198.499 165.627 198.543 165.36H199.539C199.488 165.682 199.37 165.963 199.185 166.203C199 166.442 198.762 166.629 198.471 166.762C198.184 166.892 197.857 166.957 197.491 166.957ZM202.836 166.957C202.411 166.957 202.028 166.848 201.686 166.629C201.343 166.41 201.071 166.105 200.869 165.715C200.671 165.325 200.572 164.873 200.572 164.359C200.572 163.815 200.671 163.349 200.869 162.963C201.068 162.572 201.338 162.273 201.681 162.064C202.023 161.855 202.408 161.751 202.836 161.751C203.219 161.751 203.548 161.83 203.822 161.987C204.096 162.141 204.316 162.35 204.484 162.614C204.652 162.874 204.767 163.17 204.828 163.502C204.893 163.834 204.905 164.176 204.864 164.529H201.352V163.964H204.197L203.96 164.118C203.971 163.933 203.96 163.748 203.93 163.563C203.902 163.379 203.847 163.209 203.765 163.055C203.683 162.898 203.567 162.773 203.416 162.68C203.269 162.584 203.081 162.536 202.851 162.536C202.564 162.536 202.322 162.608 202.127 162.752C201.936 162.896 201.79 163.089 201.691 163.332C201.592 163.572 201.542 163.836 201.542 164.123V164.518C201.542 164.837 201.59 165.119 201.686 165.366C201.782 165.612 201.924 165.807 202.112 165.951C202.304 166.091 202.545 166.161 202.836 166.161C203.12 166.161 203.355 166.095 203.539 165.961C203.728 165.828 203.844 165.627 203.889 165.36H204.885C204.833 165.682 204.715 165.963 204.53 166.203C204.345 166.442 204.108 166.629 203.817 166.762C203.529 166.892 203.202 166.957 202.836 166.957ZM206.41 166.824V161.869H207.385V166.824H206.41ZM207.118 164.616C207.118 163.983 207.183 163.457 207.313 163.04C207.447 162.619 207.632 162.305 207.868 162.1C208.108 161.895 208.388 161.792 208.71 161.792C208.806 161.792 208.895 161.799 208.977 161.813C209.063 161.826 209.146 161.845 209.229 161.869L209.193 162.839C209.1 162.815 208.999 162.795 208.89 162.778C208.784 162.757 208.686 162.747 208.597 162.747C208.316 162.747 208.087 162.822 207.909 162.973C207.731 163.12 207.599 163.334 207.514 163.615C207.428 163.892 207.385 164.226 207.385 164.616H207.118ZM212.058 166.957C211.579 166.957 211.175 166.891 210.846 166.757C210.518 166.62 210.266 166.432 210.091 166.192C209.92 165.949 209.831 165.665 209.824 165.34H210.744C210.757 165.624 210.87 165.835 211.082 165.972C211.298 166.108 211.589 166.177 211.955 166.177C212.15 166.177 212.327 166.146 212.484 166.084C212.645 166.023 212.772 165.939 212.864 165.833C212.96 165.727 213.008 165.607 213.008 165.473C213.008 165.306 212.946 165.174 212.823 165.078C212.7 164.979 212.501 164.892 212.227 164.816L211.216 164.472C210.812 164.335 210.502 164.154 210.287 163.928C210.071 163.699 209.963 163.425 209.963 163.106C209.963 162.699 210.144 162.372 210.507 162.126C210.87 161.876 211.351 161.751 211.95 161.751C212.57 161.751 213.047 161.883 213.383 162.146C213.722 162.406 213.898 162.733 213.912 163.127H212.972C212.948 162.932 212.85 162.783 212.679 162.68C212.512 162.574 212.268 162.521 211.95 162.521C211.652 162.521 211.418 162.586 211.247 162.716C211.079 162.846 210.995 162.993 210.995 163.158C210.995 163.452 211.248 163.671 211.755 163.815L212.818 164.19C213.222 164.32 213.533 164.488 213.752 164.693C213.971 164.898 214.081 165.159 214.081 165.473C214.081 165.727 213.997 165.966 213.829 166.192C213.662 166.418 213.425 166.603 213.121 166.747C212.82 166.887 212.465 166.957 212.058 166.957Z" fill="white"/>
</g>
<rect x="62.9841" y="175.301" width="95.9614" height="2.78149" rx="1.39075" fill="white" fill-opacity="0.3"/>
<rect x="62.9841" y="183.559" width="45.96" height="2.78149" rx="1.39075" fill="white" fill-opacity="0.3"/>
</g>
</g>
</g>
</g>
</g>
<rect x="0.171153" y="0.171153" width="249.026" height="213.383" rx="13.521" stroke="white" stroke-opacity="0.2" stroke-width="0.342305"/>
<defs>
<filter id="filter0_dd_1_2638" x="-13.6922" y="-1.90735e-06" width="276.753" height="241.109" filterUnits="userSpaceOnUse" color-interpolation-filters="sRGB">
<feFlood flood-opacity="0" result="BackgroundImageFix"/>
<feColorMatrix in="SourceAlpha" type="matrix" values="0 0 0 0 0 0 0 0 0 0 0 0 0 0 0 0 0 0 127 0" result="hardAlpha"/>
<feOffset dy="13.6922"/>
<feGaussianBlur stdDeviation="13.6922"/>
<feColorMatrix type="matrix" values="0 0 0 0 0.286275 0 0 0 0 0.117647 0 0 0 0 0.721569 0 0 0 0.3 0"/>
<feBlend mode="normal" in2="BackgroundImageFix" result="effect1_dropShadow_1_2638"/>
<feColorMatrix in="SourceAlpha" type="matrix" values="0 0 0 0 0 0 0 0 0 0 0 0 0 0 0 0 0 0 127 0" result="hardAlpha"/>
<feOffset dy="0.68461"/>
<feGaussianBlur stdDeviation="1.02692"/>
<feColorMatrix type="matrix" values="0 0 0 0 0 0 0 0 0 0 0 0 0 0 0 0 0 0 0.05 0"/>
<feBlend mode="normal" in2="effect1_dropShadow_1_2638" result="effect2_dropShadow_1_2638"/>
<feBlend mode="normal" in="SourceGraphic" in2="effect2_dropShadow_1_2638" result="shape"/>
</filter>
<clipPath id="clip0_1_2638">
<rect width="249.369" height="213.725" rx="13.6922" fill="white"/>
</clipPath>
<clipPath id="clip1_1_2638">
<rect x="13.6922" y="13.6922" width="221.984" height="186.341" rx="6.8461" fill="white"/>
</clipPath>
<clipPath id="clip2_1_2638">
<rect width="157.46" height="41.1627" fill="white" transform="translate(27.3844 27.3844)"/>
</clipPath>
<clipPath id="clip3_1_2638">
<rect width="121.861" height="41.1627" fill="white" transform="translate(62.9841 27.3844)"/>
</clipPath>
<clipPath id="clip4_1_2638">
<rect width="158.83" height="29.2767" fill="white" transform="translate(27.3844 98.5471)"/>
</clipPath>
<clipPath id="clip5_1_2638">
<rect width="123.23" height="29.2767" fill="white" transform="translate(62.9841 98.5471)"/>
</clipPath>
<clipPath id="clip6_1_2638">
<rect width="123.23" height="12.323" fill="white" transform="translate(62.9841 98.5471)"/>
</clipPath>
<clipPath id="clip7_1_2638">
<rect width="194.6" height="28.5167" fill="white" transform="translate(27.3844 157.824)"/>
</clipPath>
<clipPath id="clip8_1_2638">
<rect width="159" height="28.5167" fill="white" transform="translate(62.9841 157.824)"/>
</clipPath>
<clipPath id="clip9_1_2638">
<rect width="159" height="12" fill="white" transform="translate(62.9841 157.824)"/>
</clipPath>
</defs>
</svg>
