<svg width="184" height="121" viewBox="0 0 184 121" fill="none" xmlns="http://www.w3.org/2000/svg">
<path fill-rule="evenodd" clip-rule="evenodd" d="M157.823 31.6204C163.334 31.9814 168.061 27.8045 168.38 22.2908C168.699 16.7772 164.49 12.0148 158.979 11.6538C153.468 11.2927 148.741 15.4697 148.422 20.9833C148.103 26.4969 152.312 31.2593 157.823 31.6204Z" fill="white"/>
<g clip-path="url(#clip0_1_2274)">
<path d="M154.417 23.1116L152.788 21.2689L158.726 16.0215L162.183 16.2479L154.417 23.1116ZM161.883 21.4296L158.426 21.2031L157.056 22.4138L158.685 24.2565" fill="#42A5F5" fill-opacity="0.8"/>
<path d="M156.856 25.8723L158.076 27.2527L161.533 27.4792L158.685 24.2565" fill="#0D47A1"/>
<path d="M155.232 24.0312L157.058 22.4171L158.684 24.2569L156.858 25.8711L155.232 24.0312Z" fill="#42A5F5"/>
<path d="M156.858 25.871L158.683 24.2574L158.91 24.5142L157.085 26.1279L156.858 25.871Z" fill="url(#paint0_linear_1_2274)"/>
<path d="M156.856 25.8723L159.472 25.1538L158.685 24.2561" fill="url(#paint1_linear_1_2274)"/>
</g>
<g clip-path="url(#clip1_1_2274)">
<g clip-path="url(#clip2_1_2274)">
<path d="M14.3676 19.0347C14.0076 19.0347 13.6761 18.972 13.3732 18.8467C13.0729 18.7214 12.8291 18.5307 12.6419 18.2747C12.4573 18.0187 12.36 17.6934 12.3499 17.2988H13.2779C13.2762 17.4988 13.3242 17.6627 13.4218 17.7907C13.5195 17.9187 13.6507 18.0147 13.8155 18.0787C13.983 18.1401 14.1667 18.1707 14.3667 18.1707C14.5587 18.1707 14.7296 18.1454 14.8793 18.0947C15.0318 18.0441 15.151 17.9721 15.2371 17.8787C15.3259 17.7827 15.3708 17.6694 15.3719 17.5388C15.3733 17.3654 15.3211 17.2294 15.2152 17.1308C15.1121 17.0321 14.9448 16.9414 14.7135 16.8588L13.6928 16.4508C13.2941 16.2935 12.9889 16.1108 12.7773 15.9028C12.5657 15.6948 12.4614 15.4082 12.4644 15.0428C12.4678 14.6215 12.6373 14.2802 12.9728 14.0189C13.3083 13.7575 13.7747 13.6269 14.372 13.6269C14.9533 13.6269 15.4015 13.7629 15.7166 14.0349C16.0318 14.3042 16.2087 14.6802 16.2474 15.1628H15.3194C15.2864 14.9575 15.1944 14.7935 15.0434 14.6708C14.8925 14.5455 14.6663 14.4829 14.365 14.4829C14.0983 14.4829 13.8872 14.5389 13.7316 14.6508C13.576 14.7602 13.4976 14.8988 13.4962 15.0668C13.495 15.2108 13.5421 15.3255 13.6374 15.4108C13.7353 15.4935 13.8867 15.5735 14.0914 15.6508L15.2238 16.0908C15.6066 16.2401 15.8997 16.4281 16.1032 16.6548C16.3066 16.8814 16.407 17.1654 16.4042 17.5068C16.4016 17.8187 16.3207 18.0894 16.1615 18.3187C16.0023 18.5454 15.7715 18.7214 15.4692 18.8467C15.1668 18.972 14.7996 19.0347 14.3676 19.0347ZM19.6452 19.0347C19.1839 19.0347 18.7767 18.9334 18.4237 18.7307C18.0733 18.5281 17.7998 18.2254 17.6031 17.8227C17.4064 17.4201 17.3105 16.9201 17.3154 16.3228C17.3204 15.7148 17.4245 15.2122 17.6278 14.8148C17.8311 14.4149 18.1095 14.1175 18.4631 13.9229C18.8194 13.7255 19.2282 13.6269 19.6896 13.6269C20.1536 13.6269 20.5621 13.7282 20.9151 13.9309C21.2681 14.1309 21.543 14.4309 21.7397 14.8308C21.9364 15.2308 22.0323 15.7281 22.0274 16.3228C22.0225 16.9281 21.9183 17.4321 21.715 17.8347C21.5117 18.2374 21.2319 18.5387 20.8756 18.7387C20.5193 18.936 20.1092 19.0347 19.6452 19.0347ZM19.6522 18.1787C20.0762 18.1787 20.4135 18.0187 20.6642 17.6987C20.9174 17.3788 21.0466 16.9174 21.0515 16.3148C21.0563 15.7335 20.9346 15.2815 20.6866 14.9588C20.4413 14.6362 20.1066 14.4749 19.6826 14.4749C19.2666 14.4749 18.9319 14.6375 18.6786 14.9628C18.4253 15.2855 18.2962 15.7388 18.2914 16.3228C18.2865 16.9228 18.4081 17.3828 18.6561 17.7027C18.9042 18.0201 19.2362 18.1787 19.6522 18.1787ZM23.123 18.9227L23.1656 13.7309H26.4376L26.4309 14.5469H24.1029L24.0917 15.9148H26.2197L26.2131 16.7228H24.0851L24.067 18.9227H23.123ZM26.8379 14.5469L26.8446 13.7309H31.0046L30.9979 14.5469H29.1779L29.3917 14.3309L29.354 18.9227H28.41L28.4477 14.3309L28.6579 14.5469H26.8379ZM31.1266 13.7309H32.1826L33.4029 18.0907H33.1629L34.4358 14.0749H35.0758L36.3314 18.0267H36.1154L37.4706 13.7309H38.5346L36.708 18.9227H35.716L34.7252 15.8588H34.8132L33.772 18.9227H32.78L31.1266 13.7309ZM38.43 18.9227L40.2406 13.7309H41.4246L43.078 18.9227H42.086L41.7352 17.8027H39.8072L39.43 18.9227H38.43ZM40.0531 17.0908H41.5171L40.8074 14.8588L40.0531 17.0908ZM44.0059 18.9227L44.0485 13.7309H45.9685C46.5898 13.7309 47.0646 13.8762 47.3929 14.1669C47.7238 14.4575 47.8873 14.8428 47.8834 15.3228C47.8795 15.7948 47.7097 16.1761 47.374 16.4668C47.041 16.7548 46.5638 16.8988 45.9425 16.8988H44.9665L44.9499 18.9227H44.0059ZM46.8139 18.9227L45.4578 16.4908H46.4658L48.0459 18.9227H46.8139ZM44.9716 16.2668H45.8516C46.1983 16.2668 46.4616 16.1881 46.6416 16.0308C46.8216 15.8708 46.9126 15.6641 46.9147 15.4108C46.9168 15.1522 46.8372 14.9442 46.6758 14.7868C46.5144 14.6268 46.2764 14.5469 45.9618 14.5469H44.9858L44.9716 16.2668ZM49.1463 18.9227L49.1889 13.7309H52.5249L52.5182 14.5469H50.1262L50.115 15.9148H52.363L52.3563 16.7308H50.1083L50.0971 18.0987H52.4891L52.4823 18.9227H49.1463ZM12.5129 24.7305H14.1929C14.7209 24.7305 15.1827 24.8372 15.5783 25.0505C15.9739 25.2612 16.2808 25.5611 16.4989 25.9505C16.717 26.3398 16.8239 26.7998 16.8196 27.3304C16.8153 27.8557 16.7009 28.3131 16.4763 28.7024C16.2518 29.089 15.94 29.389 15.5409 29.6023C15.1419 29.8157 14.6783 29.9223 14.1503 29.9223H12.4703L12.5129 24.7305ZM13.4499 25.5865L13.4213 29.0744H14.1573C14.4933 29.0744 14.7832 28.9984 15.0271 28.8464C15.2737 28.6944 15.4634 28.4877 15.5962 28.2264C15.7317 27.9624 15.8008 27.6637 15.8036 27.3304C15.8064 26.9918 15.7422 26.6918 15.611 26.4305C15.4824 26.1691 15.2961 25.9638 15.052 25.8145C14.8106 25.6625 14.5219 25.5865 14.1859 25.5865H13.4499ZM17.9545 29.9223L17.9971 24.7305H21.3331L21.3264 25.5465H18.9344L18.9232 26.9144H21.1712L21.1645 27.7304H18.9165L18.9053 29.0984H21.2973L21.2905 29.9223H17.9545ZM24.2823 28.8904L25.6444 24.7305H26.6364L24.8098 29.9223H23.8178L22.1004 24.7305H23.1004L24.3783 28.8904H24.2823ZM27.4701 29.9223L27.5127 24.7305H30.8487L30.842 25.5465H28.45L28.4388 26.9144H30.6868L30.6801 27.7304H28.4321L28.4209 29.0984H30.8129L30.8061 29.9223H27.4701ZM33.16 24.7305L33.1242 29.0984H35.2602L35.2534 29.9223H32.1734L32.216 24.7305H33.16ZM38.1096 30.0343C37.6483 30.0343 37.2411 29.933 36.8881 29.7303C36.5378 29.5277 36.2643 29.225 36.0676 28.8224C35.8709 28.4197 35.775 27.9197 35.7799 27.3224C35.7849 26.7144 35.889 26.2118 36.0923 25.8145C36.2955 25.4145 36.574 25.1172 36.9276 24.9225C37.2839 24.7252 37.6927 24.6265 38.154 24.6265C38.618 24.6265 39.0265 24.7278 39.3795 24.9305C39.7325 25.1305 40.0074 25.4305 40.2041 25.8305C40.4009 26.2305 40.4968 26.7278 40.4919 27.3224C40.4869 27.9277 40.3828 28.4317 40.1795 28.8344C39.9762 29.237 39.6964 29.5383 39.3401 29.7383C38.9838 29.9357 38.5736 30.0343 38.1096 30.0343ZM38.1167 29.1784C38.5407 29.1784 38.878 29.0184 39.1286 28.6984C39.3819 28.3784 39.511 27.9171 39.516 27.3144C39.5207 26.7331 39.3991 26.2811 39.1511 25.9585C38.9057 25.6358 38.5711 25.4745 38.1471 25.4745C37.7311 25.4745 37.3964 25.6371 37.143 25.9625C36.8897 26.2851 36.7607 26.7384 36.7559 27.3224C36.751 27.9224 36.8725 28.3824 37.1206 28.7024C37.3686 29.0197 37.7007 29.1784 38.1167 29.1784ZM41.5635 29.9223L41.6061 24.7305H43.4381C44.0221 24.7305 44.4756 24.8745 44.7985 25.1625C45.1242 25.4505 45.2848 25.8585 45.2805 26.3865C45.2762 26.9091 45.1089 27.3144 44.7785 27.6024C44.4508 27.8904 43.995 28.0344 43.411 28.0344H42.531L42.5155 29.9223H41.5635ZM42.5377 27.2104H43.4177C43.7111 27.2104 43.9331 27.1331 44.0837 26.9784C44.2343 26.8238 44.3105 26.6264 44.3125 26.3865C44.3145 26.1411 44.2415 25.9398 44.0935 25.7825C43.9454 25.6251 43.7247 25.5465 43.4314 25.5465H42.5514L42.5377 27.2104ZM46.2707 24.7305H47.6227L49.0607 27.9064H48.9807L50.4707 24.7305H51.7747L51.7321 29.9223H50.7801L50.8138 25.8185H50.9578L49.3128 29.3544H48.6968L47.1177 25.8345H47.2057L47.1721 29.9223H46.2281L46.2707 24.7305ZM53.2123 29.9223L53.2549 24.7305H56.5909L56.5842 25.5465H54.1922L54.181 26.9144H56.429L56.4223 27.7304H54.1743L54.1631 29.0984H56.5551L56.5483 29.9223H53.2123ZM57.9422 24.7305H58.9742L61.3038 28.4344H61.2318L61.2622 24.7305H62.2062L62.1636 29.9223H61.2036L58.7238 25.9945H58.8758L58.8436 29.9223H57.8996L57.9422 24.7305ZM62.9899 25.5465L62.9966 24.7305H67.1566L67.1499 25.5465H65.3299L65.5437 25.3305L65.506 29.9223H64.562L64.5997 25.3305L64.8099 25.5465H62.9899Z" fill="white"/>
</g>
<g clip-path="url(#clip3_1_2274)">
<rect width="58.9765" height="2.18432" rx="1.09216" transform="matrix(1 0 -0.00820296 0.999966 11.4643 61.8635)" fill="white" fill-opacity="0.2"/>
<rect width="31.6726" height="2.18432" rx="1.09216" transform="matrix(1 0 -0.00820296 0.999966 11.4105 68.4162)" fill="white" fill-opacity="0.2"/>
<rect width="42.5942" height="2.18432" rx="1.09216" transform="matrix(1 0 -0.00820296 0.999966 11.3568 74.9689)" fill="white" fill-opacity="0.2"/>
<g clip-path="url(#clip4_1_2274)">
<rect width="31.6726" height="2.18432" rx="1.09216" transform="matrix(1 0 -0.00820296 0.999966 11.303 81.5217)" fill="white" fill-opacity="0.2"/>
<rect width="45.3246" height="4.36863" rx="2.18432" transform="matrix(1 0 -0.00820296 0.999966 11.1776 96.8114)" fill="white" fill-opacity="0.4"/>
</g>
</g>
</g>
<path fill-rule="evenodd" clip-rule="evenodd" d="M133 32C138.523 32 143 27.5228 143 22C143 16.4772 138.523 12 133 12C127.477 12 123 16.4772 123 22C123 27.5228 127.477 32 133 32Z" fill="#18204D"/>
<path d="M138.625 22.0104C138.625 21.2652 137.692 20.5589 136.261 20.1209C136.591 18.6625 136.444 17.5022 135.798 17.1307C135.649 17.0436 135.474 17.0023 135.284 17.0023L135.284 17.5137C135.389 17.5137 135.474 17.5343 135.545 17.5733C135.857 17.7521 135.993 18.4332 135.887 19.3092C135.862 19.5247 135.821 19.7517 135.77 19.9833C135.321 19.8733 134.83 19.7884 134.314 19.7334C134.004 19.3092 133.683 18.9239 133.36 18.5868C134.108 17.892 134.809 17.5114 135.286 17.5114L135.286 17C134.656 17 133.83 17.4494 132.995 18.2291C132.161 17.454 131.335 17.0092 130.705 17.0092L130.705 17.5205C131.179 17.5205 131.883 17.8989 132.631 18.5891C132.31 18.9262 131.989 19.3092 131.684 19.7334C131.166 19.7884 130.675 19.8733 130.225 19.9856C130.173 19.7563 130.134 19.5339 130.106 19.3206C129.998 18.4447 130.131 17.7636 130.441 17.5825C130.51 17.5412 130.599 17.5228 130.705 17.5228L130.705 17.0115C130.512 17.0115 130.338 17.0527 130.186 17.1399C129.542 17.5114 129.398 18.6694 129.73 20.1232C128.304 20.5635 127.375 21.2675 127.375 22.0104C127.375 22.7557 128.308 23.462 129.739 23.9C129.409 25.3584 129.556 26.5187 130.202 26.8902C130.351 26.9773 130.526 27.0186 130.718 27.0186C131.349 27.0186 132.174 26.5691 133.009 25.7895C133.844 26.5646 134.669 27.0094 135.3 27.0094C135.493 27.0094 135.667 26.9682 135.818 26.881C136.463 26.5095 136.607 25.3515 136.275 23.8977C137.696 23.4597 138.625 22.7534 138.625 22.0104ZM135.639 20.4809C135.555 20.7768 135.449 21.0817 135.33 21.3867C135.236 21.2033 135.137 21.0198 135.029 20.8364C134.924 20.6529 134.812 20.4741 134.699 20.2998C135.025 20.3479 135.339 20.4076 135.639 20.4809ZM134.589 22.9231C134.41 23.2327 134.227 23.5262 134.036 23.7991C133.695 23.8289 133.349 23.8449 133 23.8449C132.654 23.8449 132.307 23.8289 131.968 23.8014C131.778 23.5285 131.592 23.2373 131.413 22.93C131.239 22.6296 131.081 22.3246 130.936 22.0173C131.078 21.71 131.239 21.4028 131.411 21.1024C131.59 20.7928 131.773 20.4993 131.964 20.2264C132.305 20.1966 132.651 20.1805 133 20.1805C133.346 20.1805 133.693 20.1966 134.032 20.2241C134.222 20.497 134.408 20.7882 134.587 21.0955C134.761 21.3959 134.919 21.7009 135.064 22.0082C134.919 22.3154 134.761 22.6227 134.589 22.9231ZM135.33 22.625C135.454 22.9323 135.559 23.2396 135.646 23.5377C135.346 23.611 135.029 23.673 134.701 23.7211C134.814 23.5445 134.926 23.3634 135.032 23.1776C135.137 22.9942 135.236 22.8084 135.33 22.625ZM133.005 25.0717C132.791 24.8516 132.578 24.6062 132.367 24.338C132.573 24.3471 132.784 24.354 132.998 24.354C133.213 24.354 133.427 24.3494 133.635 24.338C133.429 24.6062 133.216 24.8516 133.005 25.0717ZM131.299 23.7211C130.973 23.673 130.659 23.6133 130.358 23.54C130.443 23.2441 130.549 22.9392 130.668 22.6342C130.762 22.8176 130.861 23.0011 130.968 23.1845C131.076 23.368 131.186 23.5468 131.299 23.7211ZM132.993 18.9491C133.206 19.1693 133.42 19.4146 133.631 19.6829C133.424 19.6738 133.213 19.6669 133 19.6669C132.784 19.6669 132.571 19.6715 132.363 19.6829C132.569 19.4146 132.782 19.1693 132.993 18.9491ZM131.296 20.2998C131.184 20.4764 131.071 20.6575 130.966 20.8433C130.861 21.0267 130.762 21.2102 130.668 21.3936C130.544 21.0863 130.439 20.779 130.351 20.4809C130.652 20.4099 130.968 20.3479 131.296 20.2998ZM129.221 23.1708C128.409 22.8245 127.884 22.3705 127.884 22.0104C127.884 21.6504 128.409 21.1941 129.221 20.8501C129.418 20.7653 129.634 20.6896 129.856 20.6185C129.987 21.068 130.159 21.5358 130.372 22.015C130.161 22.492 129.991 22.9575 129.863 23.4047C129.636 23.3336 129.42 23.2556 129.221 23.1708ZM130.455 26.4476C130.143 26.2688 130.007 25.5877 130.113 24.7117C130.138 24.4962 130.179 24.2692 130.23 24.0376C130.679 24.1476 131.17 24.2325 131.686 24.2875C131.996 24.7117 132.317 25.097 132.64 25.4341C131.892 26.1289 131.191 26.5095 130.714 26.5095C130.611 26.5072 130.523 26.4866 130.455 26.4476ZM135.894 24.7003C136.002 25.5762 135.869 26.2573 135.559 26.4384C135.49 26.4797 135.401 26.4981 135.295 26.4981C134.821 26.4981 134.117 26.1197 133.369 25.4295C133.69 25.0924 134.011 24.7094 134.316 24.2852C134.834 24.2302 135.325 24.1453 135.775 24.033C135.827 24.2646 135.869 24.487 135.894 24.7003ZM136.777 23.1708C136.58 23.2556 136.364 23.3313 136.142 23.4024C136.011 22.9529 135.839 22.4851 135.626 22.0059C135.837 21.5289 136.006 21.0634 136.135 20.6162C136.362 20.6873 136.577 20.7653 136.779 20.8501C137.591 21.1964 138.116 21.6504 138.116 22.0104C138.114 22.3705 137.589 22.8268 136.777 23.1708Z" fill="#61DAFB"/>
<path d="M132.998 23.0584C133.576 23.0584 134.046 22.5892 134.046 22.0104C134.046 21.4317 133.576 20.9625 132.998 20.9625C132.419 20.9625 131.95 21.4317 131.95 22.0104C131.95 22.5892 132.419 23.0584 132.998 23.0584Z" fill="#61DAFB"/>
<defs>
<linearGradient id="paint0_linear_1_2274" x1="157.771" y1="25.0639" x2="157.998" y2="25.3207" gradientUnits="userSpaceOnUse">
<stop offset="0.2" stop-opacity="0.15"/>
<stop offset="0.85" stop-color="#616161" stop-opacity="0.01"/>
</linearGradient>
<linearGradient id="paint1_linear_1_2274" x1="156.907" y1="25.0077" x2="159.473" y2="25.1561" gradientUnits="userSpaceOnUse">
<stop offset="0.2" stop-opacity="0.55"/>
<stop offset="0.85" stop-color="#616161" stop-opacity="0.01"/>
</linearGradient>
<clipPath id="clip0_1_2274">
<rect width="9.08475" height="11.2543" fill="white" transform="matrix(0.998361 0.0654092 -0.0577397 0.997951 153.113 15.6537)"/>
</clipPath>
<clipPath id="clip1_1_2274">
<rect width="74" height="90.2599" fill="white" transform="matrix(1 0 -0.00820296 0.999966 11.8822 10.923)"/>
</clipPath>
<clipPath id="clip2_1_2274">
<rect width="71" height="22" fill="white" transform="matrix(1 0 -0.00820296 0.999966 11.8822 10.923)"/>
</clipPath>
<clipPath id="clip3_1_2274">
<rect width="58.9765" height="39.3177" fill="white" transform="matrix(1 0 -0.00820296 0.999966 11.4643 61.8635)"/>
</clipPath>
<clipPath id="clip4_1_2274">
<rect width="45.3246" height="19.6588" fill="white" transform="matrix(1 0 -0.00820296 0.999966 11.303 81.5217)"/>
</clipPath>
</defs>
</svg>
