<svg width="205" height="110" viewBox="0 0 180 100" fill="none" xmlns="http://www.w3.org/2000/svg">
<g clip-path="url(#clip0_1_2245)">
<path d="M1.58636 9.73142H2.53036V12.9634C2.53036 13.3901 2.63836 13.6981 2.85436 13.8874C3.07303 14.0767 3.3517 14.1714 3.69036 14.1714C4.0317 14.1714 4.31036 14.0767 4.52636 13.8874C4.74236 13.6981 4.85036 13.3901 4.85036 12.9634V9.73142H5.79436V12.9634C5.79436 13.4007 5.71036 13.7741 5.54236 14.0834C5.37436 14.3927 5.13303 14.6287 4.81836 14.7914C4.50636 14.9541 4.13036 15.0354 3.69036 15.0354C3.25036 15.0354 2.87303 14.9541 2.55836 14.7914C2.24636 14.6287 2.00636 14.3927 1.83836 14.0834C1.67036 13.7741 1.58636 13.4007 1.58636 12.9634V9.73142ZM7.1898 14.9234V9.73142H8.1338V14.9234H7.1898ZM9.3073 15.5634L11.3633 8.96342H12.3313L10.2593 15.5634H9.3073ZM13.3207 9.73142H14.2647V12.9634C14.2647 13.3901 14.3727 13.6981 14.5887 13.8874C14.8074 14.0767 15.0861 14.1714 15.4247 14.1714C15.7661 14.1714 16.0447 14.0767 16.2607 13.8874C16.4767 13.6981 16.5847 13.3901 16.5847 12.9634V9.73142H17.5287V12.9634C17.5287 13.4007 17.4447 13.7741 17.2767 14.0834C17.1087 14.3927 16.8674 14.6287 16.5527 14.7914C16.2407 14.9541 15.8647 15.0354 15.4247 15.0354C14.9847 15.0354 14.6074 14.9541 14.2927 14.7914C13.9807 14.6287 13.7407 14.3927 13.5727 14.0834C13.4047 13.7741 13.3207 13.4007 13.3207 12.9634V9.73142ZM18.4522 14.9234L20.2842 12.3394L18.4442 9.73142H19.6042L20.9162 11.6034L22.0522 9.73142H23.1962L21.4442 12.3234L23.3722 14.9234H22.1882L20.8202 13.0754L19.5962 14.9234H18.4522ZM1.66636 20.7314H3.34636C3.87436 20.7314 4.33703 20.8381 4.73436 21.0514C5.1317 21.2621 5.44103 21.5621 5.66236 21.9514C5.8837 22.3407 5.99436 22.8007 5.99436 23.3314C5.99436 23.8567 5.8837 24.3141 5.66236 24.7034C5.44103 25.0901 5.1317 25.3901 4.73436 25.6034C4.33703 25.8167 3.87436 25.9234 3.34636 25.9234H1.66636V20.7314ZM2.61036 21.5874V25.0754H3.34636C3.68236 25.0754 3.9717 24.9994 4.21436 24.8474C4.4597 24.6954 4.6477 24.4887 4.77836 24.2274C4.9117 23.9634 4.97836 23.6647 4.97836 23.3314C4.97836 22.9927 4.9117 22.6927 4.77836 22.4314C4.6477 22.1701 4.4597 21.9647 4.21436 21.8154C3.9717 21.6634 3.68236 21.5874 3.34636 21.5874H2.61036ZM7.15055 25.9234V20.7314H10.4866V21.5474H8.09455V22.9154H10.3426V23.7314H8.09455V25.0994H10.4866V25.9234H7.15055ZM13.6619 26.0354C13.3019 26.0354 12.9699 25.9727 12.6659 25.8474C12.3645 25.7221 12.1192 25.5314 11.9299 25.2754C11.7432 25.0194 11.6432 24.6941 11.6299 24.2994H12.5579C12.5579 24.4994 12.6072 24.6634 12.7059 24.7914C12.8045 24.9194 12.9365 25.0154 13.1019 25.0794C13.2699 25.1407 13.4539 25.1714 13.6539 25.1714C13.8459 25.1714 14.0165 25.1461 14.1659 25.0954C14.3179 25.0447 14.4365 24.9727 14.5219 24.8794C14.6099 24.7834 14.6539 24.6701 14.6539 24.5394C14.6539 24.3661 14.6005 24.2301 14.4939 24.1314C14.3899 24.0327 14.2219 23.9421 13.9899 23.8594L12.9659 23.4514C12.5659 23.2941 12.2592 23.1114 12.0459 22.9034C11.8325 22.6954 11.7259 22.4087 11.7259 22.0434C11.7259 21.6221 11.8925 21.2807 12.2259 21.0194C12.5592 20.7581 13.0245 20.6274 13.6219 20.6274C14.2032 20.6274 14.6525 20.7634 14.9699 21.0354C15.2872 21.3047 15.4672 21.6807 15.5099 22.1634H14.5819C14.5472 21.9581 14.4539 21.7941 14.3019 21.6714C14.1499 21.5461 13.9232 21.4834 13.6219 21.4834C13.3552 21.4834 13.1445 21.5394 12.9899 21.6514C12.8352 21.7607 12.7579 21.8994 12.7579 22.0674C12.7579 22.2114 12.8059 22.3261 12.9019 22.4114C13.0005 22.4941 13.1525 22.5741 13.3579 22.6514L14.4939 23.0914C14.8779 23.2407 15.1725 23.4287 15.3779 23.6554C15.5832 23.8821 15.6859 24.1661 15.6859 24.5074C15.6859 24.8194 15.6072 25.0901 15.4499 25.3194C15.2925 25.5461 15.0632 25.7221 14.7619 25.8474C14.4605 25.9727 14.0939 26.0354 13.6619 26.0354ZM16.9554 25.9234V20.7314H17.8994V25.9234H16.9554ZM21.2889 26.0354C20.8649 26.0354 20.4823 25.9234 20.1409 25.6994C19.7996 25.4754 19.5276 25.1634 19.3249 24.7634C19.1249 24.3607 19.0249 23.8914 19.0249 23.3554C19.0249 22.9314 19.0863 22.5514 19.2089 22.2154C19.3343 21.8794 19.5076 21.5927 19.7289 21.3554C19.9503 21.1181 20.2103 20.9381 20.5089 20.8154C20.8076 20.6901 21.1316 20.6274 21.4809 20.6274C21.9663 20.6274 22.3729 20.7327 22.7009 20.9434C23.0316 21.1541 23.2889 21.4861 23.4729 21.9394L22.5049 22.1634C22.3689 21.9421 22.2116 21.7741 22.0329 21.6594C21.8569 21.5421 21.6569 21.4834 21.4329 21.4834C21.1769 21.4834 20.9436 21.5594 20.7329 21.7114C20.5223 21.8607 20.3543 22.0754 20.2289 22.3554C20.1036 22.6354 20.0409 22.9687 20.0409 23.3554C20.0409 23.7181 20.0956 24.0354 20.2049 24.3074C20.3169 24.5794 20.4729 24.7914 20.6729 24.9434C20.8729 25.0954 21.1049 25.1714 21.3689 25.1714C21.5929 25.1714 21.7929 25.1221 21.9689 25.0234C22.1476 24.9221 22.2876 24.7781 22.3889 24.5914C22.4929 24.4047 22.5449 24.1794 22.5449 23.9154H22.7529C22.7529 24.3474 22.7009 24.7221 22.5969 25.0394C22.4956 25.3567 22.3369 25.6021 22.1209 25.7754C21.9049 25.9487 21.6276 26.0354 21.2889 26.0354ZM22.6809 25.9234L22.5449 24.7794V23.8834L21.3769 23.8594V23.2594H23.4489V25.9234H22.6809ZM24.791 20.7314H25.823L28.183 24.4354H28.111V20.7314H29.055V25.9234H28.095L25.583 21.9954H25.735V25.9234H24.791V20.7314Z" fill="white"/>
<g clip-path="url(#clip1_1_2245)">
<rect x="0.922363" y="57.8757" width="58.997" height="2.18507" rx="1.09254" fill="white" fill-opacity="0.3"/>
<rect x="0.922363" y="64.4309" width="31.6836" height="2.18507" rx="1.09254" fill="white" fill-opacity="0.3"/>
<rect x="0.922363" y="70.9861" width="42.609" height="2.18507" rx="1.09254" fill="white" fill-opacity="0.3"/>
<g clip-path="url(#clip2_1_2245)">
<rect x="0.922363" y="77.5413" width="31.6836" height="2.18507" rx="1.09254" fill="white" fill-opacity="0.3"/>
<rect x="0.922363" y="92.8369" width="45.3403" height="4.37015" rx="2.18507" fill="white" fill-opacity="0.6"/>
</g>
</g>
</g>
<g clip-path="url(#clip3_1_2245)">
<rect x="114.002" y="82.3084" width="37.1463" height="2.18507" rx="1.09254" fill="white" fill-opacity="0.3"/>
<rect x="114.002" y="88.8637" width="20.7582" height="2.18507" rx="1.09254" fill="white" fill-opacity="0.3"/>
<g clip-path="url(#clip4_1_2245)">
<rect x="114.002" y="95.4189" width="28.9522" height="4.37015" rx="2.18507" fill="white" fill-opacity="0.6"/>
</g>
</g>
<path fill-rule="evenodd" clip-rule="evenodd" d="M150 26C155.523 26 160 21.5228 160 16C160 10.4772 155.523 6 150 6C144.477 6 140 10.4772 140 16C140 21.5228 144.477 26 150 26Z" fill="black"/>
<path d="M148.164 21.4546C149.157 21.4546 149.964 20.64 149.964 19.6364V17.8182H148.164C147.17 17.8182 146.364 18.6327 146.364 19.6364C146.364 20.64 147.17 21.4546 148.164 21.4546Z" fill="#0ACF83"/>
<path d="M146.364 16C146.364 14.9964 147.17 14.1818 148.164 14.1818H149.964V17.8182H148.164C147.17 17.8182 146.364 17.0037 146.364 16Z" fill="#A259FF"/>
<path d="M146.364 12.3636C146.364 11.36 147.17 10.5455 148.164 10.5455H149.964V14.1818H148.164C147.17 14.1818 146.364 13.3673 146.364 12.3636Z" fill="#F24E1E"/>
<path d="M149.964 10.5455H151.764C152.757 10.5455 153.564 11.36 153.564 12.3637C153.564 13.3673 152.757 14.1818 151.764 14.1818H149.964V10.5455Z" fill="#FF7262"/>
<path d="M153.564 16C153.564 17.0037 152.757 17.8182 151.764 17.8182C150.77 17.8182 149.964 17.0037 149.964 16C149.964 14.9964 150.77 14.1818 151.764 14.1818C152.757 14.1818 153.564 14.9964 153.564 16Z" fill="#1ABCFE"/>
<path fill-rule="evenodd" clip-rule="evenodd" d="M125 26C130.523 26 135 21.5228 135 16C135 10.4772 130.523 6 125 6C119.477 6 115 10.4772 115 16C115 21.5228 119.477 26 125 26Z" fill="#2E001F"/>
<g clip-path="url(#clip5_1_2245)">
<path d="M129.914 22.6142H120.087C118.754 22.6142 117.667 21.6235 117.667 20.4081V11.8141C117.667 10.5987 118.754 9.60799 120.087 9.60799H129.907C131.247 9.60799 132.327 10.5987 132.327 11.8141V20.4023C132.333 21.6235 131.247 22.6142 129.914 22.6142Z" fill="#2E001F"/>
<path d="M123.327 15.6551L125.194 18.9249C125.227 18.9734 125.207 19.0224 125.153 19.0224H123.993C123.919 19.0224 123.886 19.0043 123.853 18.9436C123.426 18.1413 122.993 17.339 122.546 16.4761H122.532C122.132 17.2906 121.692 18.1477 121.266 18.95C121.233 18.9984 121.199 19.0171 121.146 19.0171H120.047C119.98 19.0171 119.973 18.9687 120.007 18.9319L121.834 15.759L120.067 12.5499C120.027 12.5014 120.067 12.4647 120.107 12.4647H121.254C121.32 12.4647 121.347 12.4769 121.373 12.5318C121.793 13.3341 122.22 14.1608 122.62 14.969H122.634C123.02 14.1667 123.447 13.3341 123.86 12.5376C123.894 12.4892 123.914 12.4588 123.981 12.4588H125.054C125.107 12.4588 125.128 12.4956 125.094 12.544L123.327 15.6551ZM125.521 16.6459C125.521 15.2298 126.554 14.1235 128.194 14.1235C128.334 14.1235 128.407 14.1235 128.541 14.1358V12.5254C128.541 12.4886 128.574 12.4647 128.607 12.4647H129.661C129.714 12.4647 129.727 12.4828 129.727 12.5131V18.0929C129.727 18.2568 129.727 18.4634 129.761 18.6886C129.761 18.7254 129.747 18.737 129.707 18.7557C129.147 18.999 128.561 19.1081 128.001 19.1081C126.554 19.1134 125.52 18.2994 125.521 16.6459ZM128.54 15.0903C128.447 15.0536 128.314 15.0296 128.154 15.0296C127.313 15.0296 126.727 15.619 126.727 16.598C126.727 17.7165 127.327 18.1664 128.081 18.1664C128.241 18.1664 128.414 18.1483 128.541 18.0993V15.0903H128.54Z" fill="#FFD9F2"/>
</g>
<defs>
<clipPath id="clip0_1_2245">
<rect width="58.997" height="90.2836" fill="white" transform="translate(0.922363 6.92342)"/>
</clipPath>
<clipPath id="clip1_1_2245">
<rect width="58.997" height="39.3313" fill="white" transform="translate(0.922363 57.8757)"/>
</clipPath>
<clipPath id="clip2_1_2245">
<rect width="45.3403" height="19.6657" fill="white" transform="translate(0.922363 77.5413)"/>
</clipPath>
<clipPath id="clip3_1_2245">
<rect width="37.1463" height="17.4806" fill="white" transform="translate(114.002 82.3084)"/>
</clipPath>
<clipPath id="clip4_1_2245">
<rect width="28.9522" height="4.37015" fill="white" transform="translate(114.002 95.4189)"/>
</clipPath>
<clipPath id="clip5_1_2245">
<rect width="16" height="14.2222" fill="white" transform="translate(117 9)"/>
</clipPath>
</defs>
</svg>
