<svg width="702" height="428" viewBox="0 0 702 428" fill="none" xmlns="http://www.w3.org/2000/svg">
<path d="M0 373.113H136.922V427.882H6.84611C3.06511 427.882 0 424.816 0 421.035V373.113Z" fill="black" fill-opacity="0.1"/>
<path fill-rule="evenodd" clip-rule="evenodd" d="M27.6922 414.384C35.2542 414.384 41.3844 408.254 41.3844 400.692C41.3844 393.13 35.2542 387 27.6922 387C20.1302 387 14 393.13 14 400.692C14 408.254 20.1302 414.384 27.6922 414.384Z" fill="white" fill-opacity="0.1" stroke="white" stroke-opacity="0.3" stroke-width="0.821532"/>
<g clip-path="url(#clip0_1_2296)">
<path d="M27.6884 393.846L20.8423 400.692L27.6884 407.538L34.5345 400.692L27.6884 393.846Z" fill="#00CFFD" stroke="black" stroke-width="0.821532" stroke-miterlimit="10" stroke-linecap="round" stroke-linejoin="round"/>
<path fill-rule="evenodd" clip-rule="evenodd" d="M25.9757 401.094C25.8153 400.934 25.5552 400.934 25.3948 401.094C25.2344 401.255 25.2344 401.515 25.3948 401.675L27.4695 403.75C27.5465 403.827 27.651 403.87 27.7599 403.87C27.8689 403.87 27.9734 403.827 28.0504 403.75L30.1251 401.675C30.2855 401.515 30.2855 401.255 30.1251 401.094C29.9647 400.934 29.7046 400.934 29.5442 401.094L28.1726 402.466L28.1726 397.58C28.1726 397.354 27.9887 397.17 27.7619 397.17C27.535 397.17 27.3511 397.354 27.3511 397.58L27.3511 402.47L25.9757 401.094Z" fill="black"/>
</g>
<g clip-path="url(#clip1_1_2296)">
<rect x="48.2305" y="394.628" width="45.4121" height="4.37707" rx="2.18853" fill="white" fill-opacity="0.6"/>
<rect x="48.2305" y="404.568" width="31.7337" height="2.18853" rx="1.09427" fill="white" fill-opacity="0.3"/>
</g>
<g clip-path="url(#clip2_1_2296)">
<rect x="6.8461" y="39.982" width="123.23" height="19.1691" rx="3.42305" fill="black" fill-opacity="0.2"/>
<path d="M21.8394 52.2054C21.4537 52.2054 21.0992 52.1372 20.7758 52.0007C20.4525 51.8613 20.1914 51.6551 19.9926 51.3821C19.7968 51.1092 19.6945 50.768 19.6856 50.3587H20.5133C20.5133 50.6049 20.5726 50.8066 20.6913 50.9638C20.8129 51.1211 20.9731 51.2383 21.1719 51.3154C21.3706 51.3896 21.5902 51.4266 21.8305 51.4266C22.0737 51.4266 22.2888 51.3896 22.4757 51.3154C22.6626 51.2412 22.8065 51.1418 22.9074 51.0172C23.0112 50.8926 23.0631 50.7502 23.0631 50.59C23.0631 50.3735 22.9964 50.1999 22.8629 50.0694C22.7294 49.9359 22.5262 49.8232 22.2532 49.7312L21.1986 49.3396C20.7447 49.1705 20.3991 48.9762 20.1617 48.7567C19.9244 48.5342 19.8057 48.2256 19.8057 47.8311C19.8057 47.3831 19.9808 47.0197 20.3308 46.7408C20.6809 46.459 21.1734 46.3181 21.8082 46.3181C22.4105 46.3181 22.8777 46.4575 23.21 46.7364C23.5452 47.0152 23.7365 47.395 23.784 47.8756H22.9519C22.9103 47.6323 22.7961 47.4395 22.6092 47.2971C22.4253 47.1547 22.1583 47.0835 21.8082 47.0835C21.47 47.0835 21.206 47.1576 21.0161 47.306C20.8263 47.4513 20.7313 47.6353 20.7313 47.8578C20.7313 48.0417 20.7907 48.1886 20.9093 48.2983C21.031 48.4081 21.2193 48.5075 21.4745 48.5965L22.676 49.037C23.0883 49.1824 23.4102 49.3782 23.6416 49.6244C23.873 49.8706 23.9887 50.1836 23.9887 50.5633C23.9887 50.8837 23.9056 51.1671 23.7395 51.4133C23.5734 51.6595 23.3301 51.8538 23.0097 51.9962C22.6893 52.1357 22.2992 52.2054 21.8394 52.2054ZM26.9894 52.2054C26.6216 52.2054 26.2893 52.1105 25.9927 51.9206C25.696 51.7307 25.4601 51.4667 25.2851 51.1285C25.113 50.7903 25.027 50.3987 25.027 49.9537C25.027 49.482 25.113 49.0785 25.2851 48.7433C25.4572 48.4051 25.6915 48.1455 25.9882 47.9646C26.2849 47.7836 26.6186 47.6931 26.9894 47.6931C27.3217 47.6931 27.6065 47.7614 27.8438 47.8978C28.0812 48.0313 28.2725 48.2123 28.4179 48.4407C28.5632 48.6662 28.6626 48.9228 28.716 49.2106C28.7724 49.4983 28.7828 49.795 28.7472 50.1006H25.7034V49.6111H28.1687L27.964 49.7446C27.9729 49.5844 27.964 49.4242 27.9373 49.264C27.9136 49.1038 27.8661 48.9569 27.7949 48.8234C27.7237 48.6869 27.6228 48.5787 27.4923 48.4986C27.3647 48.4155 27.2016 48.374 27.0028 48.374C26.7536 48.374 26.5444 48.4363 26.3753 48.5609C26.2092 48.6855 26.0831 48.8531 25.9971 49.0637C25.9111 49.2714 25.8681 49.4998 25.8681 49.749V50.0917C25.8681 50.3676 25.9096 50.6123 25.9927 50.8259C26.0757 51.0395 26.1988 51.2086 26.362 51.3332C26.5281 51.4548 26.7373 51.5156 26.9894 51.5156C27.2357 51.5156 27.4389 51.4578 27.5991 51.3421C27.7623 51.2264 27.8631 51.0528 27.9017 50.8214H28.765C28.7205 51.1003 28.6181 51.3436 28.4579 51.5512C28.2977 51.7589 28.0916 51.9206 27.8394 52.0363C27.5902 52.149 27.3069 52.2054 26.9894 52.2054ZM32.77 52.0897L32.6632 51.1062V49.3218C32.6632 48.9717 32.5905 48.7181 32.4452 48.5609C32.2998 48.4007 32.0699 48.3206 31.7554 48.3206C31.5774 48.3206 31.4187 48.3473 31.2793 48.4007C31.1428 48.4511 31.0345 48.5282 30.9544 48.6321C30.8773 48.7359 30.8387 48.8664 30.8387 49.0237H29.9042C29.9042 48.7092 29.9814 48.4541 30.1356 48.2583C30.2899 48.0625 30.505 47.9201 30.7809 47.8311C31.0597 47.7391 31.3846 47.6931 31.7554 47.6931C32.1025 47.6931 32.4081 47.751 32.6721 47.8667C32.9362 47.9794 33.1409 48.1574 33.2862 48.4007C33.4345 48.6439 33.5087 48.9584 33.5087 49.3441V52.0897H32.77ZM31.3371 52.2054C30.9782 52.2054 30.68 52.1431 30.4427 52.0185C30.2054 51.8909 30.0274 51.7248 29.9087 51.5201C29.793 51.3154 29.7351 51.0973 29.7351 50.8659C29.7351 50.5841 29.8063 50.3527 29.9487 50.1718C30.0941 49.9878 30.2944 49.8514 30.5495 49.7624C30.8046 49.6734 31.0983 49.6289 31.4306 49.6289C31.659 49.6289 31.8815 49.6496 32.0981 49.6912C32.3146 49.7327 32.5282 49.7876 32.7389 49.8558V50.3676C32.5668 50.3053 32.3755 50.2563 32.1648 50.2207C31.9572 50.1821 31.7628 50.1629 31.5819 50.1629C31.3119 50.1629 31.0864 50.2163 30.9055 50.3231C30.7245 50.4298 30.634 50.6108 30.634 50.8659C30.634 51.0528 30.7052 51.2145 30.8476 51.351C30.99 51.4845 31.2155 51.5512 31.524 51.5512C31.7495 51.5512 31.9483 51.5008 32.1203 51.3999C32.2924 51.2961 32.4259 51.1671 32.5208 51.0128C32.6158 50.8585 32.6632 50.7043 32.6632 50.55H32.8679C32.8679 50.8467 32.8071 51.1211 32.6855 51.3732C32.5668 51.6224 32.3933 51.8242 32.1648 51.9784C31.9364 52.1297 31.6605 52.2054 31.3371 52.2054ZM35.119 52.0897V47.7955H35.9645V52.0897H35.119ZM35.7331 50.1762C35.7331 49.6274 35.7894 49.172 35.9022 48.8101C36.0179 48.4452 36.1781 48.1737 36.3828 47.9957C36.5904 47.8177 36.8337 47.7287 37.1126 47.7287C37.1956 47.7287 37.2728 47.7347 37.344 47.7465C37.4181 47.7584 37.4908 47.7747 37.562 47.7955L37.5309 48.6365C37.4508 48.6157 37.3632 48.5979 37.2683 48.5831C37.1763 48.5653 37.0918 48.5564 37.0147 48.5564C36.7714 48.5564 36.5726 48.6217 36.4184 48.7522C36.2641 48.8798 36.1499 49.0652 36.0757 49.3085C36.0016 49.5488 35.9645 49.838 35.9645 50.1762H35.7331ZM40.0052 52.2054C39.6552 52.2054 39.3289 52.1119 39.0263 51.925C38.7237 51.7381 38.4804 51.4756 38.2965 51.1374C38.1125 50.7992 38.0206 50.4017 38.0206 49.9448C38.0206 49.4642 38.1125 49.0578 38.2965 48.7255C38.4804 48.3903 38.7237 48.1352 39.0263 47.9601C39.3289 47.7821 39.6552 47.6931 40.0052 47.6931C40.2633 47.6931 40.4933 47.7347 40.695 47.8177C40.8967 47.8978 41.0703 48.0076 41.2156 48.147C41.361 48.2835 41.4782 48.4377 41.5672 48.6098C41.6592 48.7819 41.7229 48.9599 41.7585 49.1438L40.8997 49.1883C40.8374 48.9658 40.7276 48.7878 40.5704 48.6543C40.4161 48.5178 40.2248 48.4496 39.9963 48.4496C39.8035 48.4496 39.6211 48.5045 39.449 48.6143C39.2799 48.7211 39.142 48.8857 39.0352 49.1082C38.9313 49.3277 38.8794 49.6066 38.8794 49.9448C38.8794 50.2593 38.9284 50.5277 39.0263 50.7502C39.1242 50.9727 39.2577 51.1433 39.4268 51.262C39.5958 51.3807 39.7857 51.44 39.9963 51.44C40.2989 51.44 40.5244 51.3673 40.6727 51.2219C40.824 51.0736 40.8997 50.8704 40.8997 50.6123H41.7585C41.7585 50.9119 41.6888 51.1819 41.5494 51.4222C41.41 51.6625 41.2082 51.8538 40.9442 51.9962C40.6831 52.1357 40.3701 52.2054 40.0052 52.2054ZM46.0882 52.0897V49.5799C46.0882 49.2091 45.9992 48.9287 45.8212 48.7389C45.6462 48.546 45.4089 48.4496 45.1092 48.4496C44.8719 48.4496 44.6642 48.5149 44.4862 48.6454C44.3112 48.773 44.1747 48.9614 44.0768 49.2106C43.9819 49.4568 43.9344 49.7579 43.9344 50.1139H43.6318C43.6318 49.5888 43.6986 49.1468 43.8321 48.7878C43.9685 48.4288 44.1629 48.1574 44.415 47.9735C44.6672 47.7866 44.9698 47.6931 45.3228 47.6931C45.6669 47.6931 45.9577 47.7703 46.195 47.9245C46.4353 48.0788 46.6178 48.2983 46.7424 48.5831C46.867 48.8649 46.9293 49.1972 46.9293 49.5799V52.0897H46.0882ZM43.0889 52.0897V46.0066H43.9344V52.0897H43.0889Z" fill="white" fill-opacity="0.6"/>
<rect x="6.8461" y="67.3664" width="31.7337" height="2.18853" rx="1.09427" fill="white" fill-opacity="0.3"/>
<rect x="6.8461" y="75.0318" width="123.23" height="19.1691" rx="3.42305" fill="white" fill-opacity="0.1"/>
<g clip-path="url(#clip3_1_2296)">
<path fill-rule="evenodd" clip-rule="evenodd" d="M21.9076 92.8317C26.4448 92.8317 30.1229 89.1536 30.1229 84.6164C30.1229 80.0792 26.4448 76.401 21.9076 76.401C17.3704 76.401 13.6923 80.0792 13.6923 84.6164C13.6923 89.1536 17.3704 92.8317 21.9076 92.8317Z" fill="white" fill-opacity="0.6"/>
<rect x="36.969" y="83.5221" width="31.7337" height="2.18853" rx="1.09427" fill="white" fill-opacity="0.3"/>
</g>
<g clip-path="url(#clip4_1_2296)">
<path fill-rule="evenodd" clip-rule="evenodd" d="M21.9076 117.478C26.4448 117.478 30.1229 113.8 30.1229 109.262C30.1229 104.725 26.4448 101.047 21.9076 101.047C17.3704 101.047 13.6923 104.725 13.6923 109.262C13.6923 113.8 17.3704 117.478 21.9076 117.478Z" fill="white" fill-opacity="0.6"/>
<rect x="36.969" y="107.872" width="45.8946" height="2.78149" rx="1.39075" fill="white" fill-opacity="0.3"/>
</g>
<g clip-path="url(#clip5_1_2296)">
<path fill-rule="evenodd" clip-rule="evenodd" d="M21.9076 142.124C26.4448 142.124 30.1229 138.445 30.1229 133.908C30.1229 129.371 26.4448 125.693 21.9076 125.693C17.3704 125.693 13.6923 129.371 13.6923 133.908C13.6923 138.445 17.3704 142.124 21.9076 142.124Z" fill="white" fill-opacity="0.6"/>
<rect x="36.969" y="132.518" width="45.8946" height="2.78149" rx="1.39075" fill="white" fill-opacity="0.3"/>
</g>
<path d="M7.64709 166.554L8.11537 161.563H9.41339C9.73105 161.563 9.98709 161.629 10.1815 161.761C10.3787 161.892 10.5183 162.07 10.6005 162.295C10.6827 162.519 10.71 162.774 10.6827 163.059C10.6416 163.478 10.491 163.823 10.2308 164.094C9.9734 164.362 9.60508 164.496 9.12585 164.496H8.10715L7.90998 166.554H7.64709ZM8.12358 164.25H9.15871C9.5284 164.25 9.82142 164.146 10.0378 163.938C10.2568 163.727 10.3828 163.434 10.4157 163.059C10.4485 162.673 10.3759 162.37 10.198 162.151C10.02 161.932 9.74885 161.822 9.38463 161.822H8.3454L8.12358 164.25ZM11.5219 166.554L11.8834 162.689H12.1545L12.0805 163.395C12.1928 163.127 12.3284 162.931 12.4872 162.808C12.646 162.685 12.8459 162.623 13.0869 162.623C13.1499 162.623 13.2252 162.63 13.3128 162.644C13.4005 162.655 13.484 162.679 13.5634 162.718L13.4895 162.985C13.4073 162.949 13.3238 162.92 13.2389 162.898C13.154 162.877 13.0691 162.866 12.9842 162.866C12.7542 162.866 12.568 162.949 12.4256 163.116C12.2859 163.283 12.1778 163.509 12.1011 163.794C12.0271 164.076 11.9751 164.395 11.945 164.751L11.793 166.554H11.5219ZM15.1947 166.616C14.8825 166.616 14.6169 166.539 14.3978 166.386C14.1815 166.23 14.024 166.002 13.9255 165.704C13.8269 165.405 13.7981 165.044 13.8392 164.62C13.883 164.195 13.983 163.834 14.1391 163.535C14.2952 163.234 14.4964 163.005 14.7429 162.849C14.9893 162.69 15.2687 162.611 15.5808 162.611C15.8985 162.611 16.1655 162.692 16.3818 162.853C16.5982 163.015 16.7543 163.246 16.8501 163.547C16.9487 163.846 16.9775 164.203 16.9364 164.62C16.898 165.041 16.7995 165.401 16.6406 165.7C16.4845 165.996 16.2833 166.223 16.0368 166.382C15.7903 166.538 15.5096 166.616 15.1947 166.616ZM15.2071 166.369C15.637 166.369 15.9724 166.208 16.2134 165.885C16.4571 165.559 16.605 165.137 16.6571 164.62C16.7091 164.099 16.6447 163.678 16.464 163.354C16.2833 163.029 15.9766 162.866 15.5439 162.866C15.1167 162.866 14.7881 163.026 14.558 163.346C14.3307 163.664 14.1925 164.088 14.1432 164.62C14.113 164.956 14.1267 165.258 14.1842 165.523C14.2445 165.786 14.3568 165.993 14.5211 166.144C14.6881 166.294 14.9168 166.369 15.2071 166.369ZM18.7411 161.547C18.6891 161.547 18.6425 161.528 18.6015 161.49C18.5604 161.451 18.5439 161.396 18.5522 161.325C18.5604 161.254 18.5864 161.197 18.6302 161.153C18.6768 161.106 18.7315 161.083 18.7945 161.083C18.8575 161.083 18.9095 161.106 18.9506 161.153C18.9917 161.197 19.0067 161.254 18.9958 161.325C18.9876 161.38 18.9588 161.431 18.9095 161.477C18.863 161.524 18.8068 161.547 18.7411 161.547ZM17.2007 168.53C17.0501 168.53 16.9009 168.5 16.753 168.44C16.6024 168.382 16.4504 168.293 16.2971 168.173L16.3587 167.902C16.5065 168.022 16.6462 168.112 16.7777 168.173C16.9064 168.236 17.046 168.267 17.1966 168.267C17.4404 168.267 17.6334 168.182 17.7758 168.012C17.921 167.845 18.0141 167.576 18.0551 167.203L18.4947 162.681H18.7658L18.3386 167.187C18.3084 167.513 18.2359 167.774 18.1209 167.971C18.0086 168.169 17.8717 168.311 17.7101 168.399C17.5485 168.486 17.3787 168.53 17.2007 168.53ZM21.2071 166.616C20.9004 166.616 20.6403 166.541 20.4267 166.39C20.2131 166.237 20.0583 166.013 19.9625 165.72C19.8667 165.427 19.8393 165.069 19.8803 164.644C19.9214 164.222 20.0173 163.86 20.1679 163.556C20.3212 163.252 20.5184 163.019 20.7594 162.857C21.0004 162.693 21.2715 162.611 21.5727 162.611C21.7671 162.611 21.9369 162.644 22.0821 162.709C22.2299 162.775 22.3545 162.868 22.4559 162.989C22.5572 163.109 22.6325 163.253 22.6818 163.42C22.7338 163.584 22.7598 163.767 22.7598 163.966C22.7598 164.062 22.753 164.173 22.7393 164.299C22.7283 164.422 22.7105 164.542 22.6859 164.657H19.9707L20.172 164.542C20.1364 164.878 20.146 165.185 20.2007 165.462C20.2583 165.738 20.3705 165.959 20.5376 166.123C20.7074 166.287 20.9429 166.369 21.2441 166.369C21.5289 166.369 21.7699 166.291 21.967 166.135C22.1642 165.976 22.2943 165.748 22.3573 165.449H22.653C22.5873 165.718 22.4819 165.938 22.3367 166.111C22.1943 166.283 22.0259 166.41 21.8315 166.493C21.6371 166.575 21.4289 166.616 21.2071 166.616ZM20.1638 164.492L20.02 164.443H22.6612L22.46 164.463C22.4983 164.179 22.4983 163.914 22.46 163.671C22.4244 163.424 22.3354 163.226 22.193 163.075C22.0533 162.924 21.8465 162.849 21.5727 162.849C21.2961 162.849 21.0592 162.927 20.8621 163.083C20.6677 163.239 20.5129 163.442 20.3979 163.691C20.2829 163.94 20.2049 164.207 20.1638 164.492ZM24.9307 166.616C24.6486 166.616 24.3967 166.538 24.1748 166.382C23.9558 166.223 23.7901 165.994 23.6778 165.696C23.5655 165.395 23.5286 165.033 23.5669 164.611C23.608 164.192 23.712 163.834 23.8791 163.535C24.0461 163.237 24.2529 163.008 24.4993 162.849C24.7485 162.69 25.0128 162.611 25.2921 162.611C25.4482 162.611 25.5906 162.636 25.7193 162.685C25.8508 162.731 25.9672 162.8 26.0685 162.89C26.1725 162.981 26.2602 163.089 26.3314 163.215C26.4026 163.338 26.456 163.478 26.4916 163.634L26.2205 163.728C26.163 163.446 26.0466 163.231 25.8713 163.083C25.6988 162.935 25.4961 162.861 25.2634 162.861C25.0361 162.861 24.8211 162.933 24.6185 163.075C24.4186 163.215 24.2502 163.416 24.1132 163.679C23.979 163.939 23.8955 164.25 23.8627 164.611C23.8325 164.943 23.8544 165.243 23.9284 165.511C24.0051 165.777 24.131 165.987 24.3063 166.144C24.4843 166.297 24.7088 166.374 24.9799 166.374C25.262 166.374 25.5057 166.286 25.7111 166.111C25.9165 165.933 26.0274 165.675 26.0438 165.338H26.3437C26.3245 165.601 26.2451 165.829 26.1054 166.02C25.9685 166.209 25.796 166.356 25.5879 166.46C25.3798 166.564 25.1607 166.616 24.9307 166.616ZM28.4406 166.616C28.2653 166.616 28.1161 166.58 27.9928 166.509C27.8724 166.438 27.7847 166.33 27.73 166.185C27.6752 166.039 27.6588 165.856 27.6807 165.634L27.9353 162.837L28.1038 162.919H27.2617L27.311 162.697H28.1161L27.9107 162.882L28.0504 161.563H28.3215L28.1818 162.882L28.0175 162.697H29.4552L29.4223 162.919H27.9887L28.19 162.837L27.9189 165.651C27.897 165.886 27.9326 166.065 28.0257 166.189C28.1188 166.309 28.2598 166.369 28.4488 166.369C28.5638 166.369 28.6775 166.354 28.7897 166.324C28.902 166.294 29.0198 166.253 29.143 166.201L29.1594 166.423C29.0335 166.491 28.9102 166.541 28.7897 166.571C28.6692 166.601 28.5529 166.616 28.4406 166.616ZM31.2571 166.616C30.9422 166.616 30.6861 166.561 30.489 166.452C30.2918 166.342 30.148 166.2 30.0577 166.024C29.97 165.846 29.9289 165.657 29.9344 165.458H30.2137C30.2028 165.745 30.3 165.972 30.5054 166.139C30.7135 166.304 30.975 166.386 31.29 166.386C31.5912 166.386 31.8527 166.312 32.0745 166.164C32.2963 166.016 32.4209 165.819 32.4483 165.573C32.4702 165.373 32.4155 165.219 32.284 165.112C32.1526 165.003 31.9609 164.906 31.7089 164.821L31.138 164.628C30.834 164.524 30.604 164.391 30.4479 164.229C30.2945 164.068 30.2315 163.857 30.2589 163.597C30.2808 163.405 30.3466 163.235 30.4561 163.087C30.5656 162.94 30.7163 162.823 30.9079 162.738C31.0996 162.653 31.3269 162.611 31.5898 162.611C31.9677 162.611 32.2635 162.696 32.4771 162.866C32.6934 163.033 32.7961 163.245 32.7851 163.502H32.4935C32.4825 163.283 32.3935 163.12 32.2265 163.013C32.0622 162.904 31.8486 162.849 31.5857 162.849C31.3529 162.849 31.1612 162.886 31.0106 162.96C30.8628 163.034 30.7505 163.127 30.6738 163.239C30.5999 163.349 30.5547 163.461 30.5383 163.576C30.5109 163.776 30.5656 163.94 30.7026 164.069C30.8395 164.198 31.0339 164.302 31.2858 164.381L31.8198 164.546C32.1293 164.639 32.3634 164.769 32.5223 164.936C32.6838 165.1 32.7495 165.312 32.7194 165.573C32.6975 165.759 32.6263 165.931 32.5058 166.09C32.3881 166.249 32.2238 166.376 32.0129 166.472C31.8048 166.568 31.5528 166.616 31.2571 166.616Z" fill="white" fill-opacity="0.6"/>
<g clip-path="url(#clip6_1_2296)">
<g clip-path="url(#clip7_1_2296)">
<path d="M29.7806 183.2C29.7806 187.548 26.2558 191.073 21.9076 191.073C17.5595 191.073 14.0346 187.548 14.0346 183.2C14.0346 178.852 17.5595 175.327 21.9076 175.327C26.2558 175.327 29.7806 178.852 29.7806 183.2Z" stroke="white" stroke-opacity="0.2" stroke-width="0.68461"/>
</g>
<rect x="36.969" y="182.106" width="31.7337" height="2.18853" rx="1.09427" fill="white" fill-opacity="0.3"/>
</g>
<g clip-path="url(#clip8_1_2296)">
<path d="M29.7806 206.477C29.7806 210.825 26.2558 214.35 21.9076 214.35C17.5595 214.35 14.0346 210.825 14.0346 206.477C14.0346 202.129 17.5595 198.604 21.9076 198.604C26.2558 198.604 29.7806 202.129 29.7806 206.477Z" stroke="white" stroke-opacity="0.2" stroke-width="0.68461"/>
<rect x="36.969" y="205.086" width="37.5501" height="2.78149" rx="1.39075" fill="white" fill-opacity="0.3"/>
</g>
<g clip-path="url(#clip9_1_2296)">
<g clip-path="url(#clip10_1_2296)">
<path d="M29.7806 229.754C29.7806 234.102 26.2558 237.627 21.9076 237.627C17.5595 237.627 14.0346 234.102 14.0346 229.754C14.0346 225.406 17.5595 221.881 21.9076 221.881C26.2558 221.881 29.7806 225.406 29.7806 229.754Z" stroke="white" stroke-opacity="0.2" stroke-width="0.68461"/>
</g>
<rect x="36.969" y="228.363" width="41.7224" height="2.78149" rx="1.39075" fill="white" fill-opacity="0.3"/>
</g>
<path d="M7.65531 266.507L8.12358 261.517H9.57359C10.0665 261.517 10.4157 261.651 10.621 261.919C10.8292 262.187 10.9099 262.53 10.8634 262.946C10.8305 263.346 10.6922 263.677 10.4485 263.94C10.2048 264.203 9.85838 264.349 9.40928 264.38L10.5964 266.507H10.2678L9.10531 264.359H8.1318L7.92641 266.507H7.65531ZM8.15644 264.121H9.31891C9.70229 264.121 10.0035 264.011 10.2226 263.792C10.4444 263.573 10.5717 263.287 10.6046 262.934C10.6429 262.572 10.5676 262.289 10.3787 262.083C10.1897 261.878 9.91041 261.775 9.54073 261.775H8.36183L8.15644 264.121ZM13.0239 266.569C12.7172 266.569 12.457 266.494 12.2434 266.343C12.0298 266.19 11.8751 265.966 11.7793 265.673C11.6834 265.38 11.656 265.022 11.6971 264.597C11.7382 264.176 11.834 263.813 11.9847 263.509C12.138 263.205 12.3352 262.972 12.5762 262.81C12.8171 262.646 13.0882 262.564 13.3895 262.564C13.5839 262.564 13.7537 262.597 13.8988 262.663C14.0467 262.728 14.1713 262.821 14.2726 262.942C14.3739 263.062 14.4493 263.206 14.4985 263.373C14.5506 263.537 14.5766 263.72 14.5766 263.919C14.5766 264.015 14.5697 264.126 14.5561 264.252C14.5451 264.375 14.5273 264.495 14.5027 264.61H11.7875L11.9888 264.495C11.9532 264.831 11.9627 265.138 12.0175 265.415C12.075 265.691 12.1873 265.912 12.3543 266.076C12.5241 266.24 12.7596 266.322 13.0609 266.322C13.3457 266.322 13.5866 266.244 13.7838 266.088C13.981 265.93 14.1111 265.701 14.174 265.402H14.4698C14.4041 265.671 14.2986 265.891 14.1535 266.064C14.0111 266.236 13.8427 266.364 13.6483 266.446C13.4538 266.528 13.2457 266.569 13.0239 266.569ZM11.9805 264.445L11.8368 264.396H14.478L14.2767 264.417C14.3151 264.132 14.3151 263.867 14.2767 263.624C14.2411 263.377 14.1521 263.179 14.0097 263.028C13.8701 262.878 13.6633 262.802 13.3895 262.802C13.1129 262.802 12.876 262.88 12.6789 263.036C12.4844 263.192 12.3297 263.395 12.2147 263.644C12.0997 263.893 12.0216 264.16 11.9805 264.445ZM15.433 268.421L15.9834 262.65H16.2011C16.1984 262.76 16.1956 262.871 16.1929 262.983C16.1929 263.095 16.1902 263.206 16.1847 263.316C16.3298 263.075 16.5051 262.89 16.7105 262.761C16.9186 262.63 17.1431 262.564 17.3841 262.564C17.6525 262.564 17.8935 262.645 18.1071 262.806C18.3207 262.965 18.4836 263.194 18.5959 263.492C18.7109 263.791 18.7492 264.148 18.7109 264.564C18.6725 264.978 18.5685 265.335 18.3987 265.637C18.2289 265.935 18.0194 266.165 17.7702 266.327C17.5238 266.488 17.2636 266.569 16.9898 266.569C16.7515 266.569 16.542 266.507 16.3613 266.384C16.1806 266.261 16.045 266.087 15.9546 265.862L15.7041 268.421H15.433ZM17.0555 266.327C17.2581 266.327 17.4567 266.259 17.6511 266.125C17.8455 265.991 18.0126 265.794 18.1522 265.534C18.2919 265.271 18.3795 264.948 18.4151 264.564C18.4507 264.186 18.4247 263.867 18.3371 263.607C18.2495 263.347 18.1194 263.15 17.9469 263.016C17.7743 262.882 17.5785 262.815 17.3595 262.815C17.1678 262.815 16.9802 262.868 16.7967 262.975C16.616 263.079 16.4613 263.235 16.3326 263.443C16.2066 263.651 16.1285 263.911 16.0984 264.223L16.0286 264.93C16.0039 265.237 16.0409 265.494 16.1395 265.702C16.2381 265.908 16.3709 266.064 16.5379 266.17C16.705 266.275 16.8775 266.327 17.0555 266.327ZM21.0032 266.569C20.691 266.569 20.4254 266.492 20.2063 266.339C19.99 266.183 19.8325 265.956 19.7339 265.657C19.6354 265.359 19.6066 264.997 19.6477 264.573C19.6915 264.148 19.7915 263.787 19.9475 263.488C20.1036 263.187 20.3049 262.958 20.5514 262.802C20.7978 262.643 21.0772 262.564 21.3893 262.564C21.707 262.564 21.974 262.645 22.1903 262.806C22.4067 262.968 22.5628 263.199 22.6586 263.501C22.7572 263.799 22.7859 264.156 22.7449 264.573C22.7065 264.994 22.6079 265.354 22.4491 265.653C22.293 265.949 22.0917 266.176 21.8453 266.335C21.5988 266.491 21.3181 266.569 21.0032 266.569ZM21.0155 266.322C21.4455 266.322 21.7809 266.161 22.0219 265.838C22.2656 265.512 22.4135 265.09 22.4655 264.573C22.5176 264.052 22.4532 263.631 22.2725 263.307C22.0917 262.982 21.785 262.819 21.3524 262.819C20.9252 262.819 20.5966 262.979 20.3665 263.299C20.1392 263.617 20.0009 264.041 19.9517 264.573C19.9215 264.909 19.9352 265.211 19.9927 265.476C20.053 265.739 20.1653 265.946 20.3296 266.097C20.4966 266.247 20.7253 266.322 21.0155 266.322ZM23.7486 266.507L24.1101 262.642H24.3812L24.3073 263.349C24.4195 263.08 24.5551 262.884 24.7139 262.761C24.8727 262.638 25.0726 262.576 25.3136 262.576C25.3766 262.576 25.4519 262.583 25.5396 262.597C25.6272 262.608 25.7107 262.632 25.7901 262.671L25.7162 262.938C25.634 262.902 25.5505 262.873 25.4656 262.852C25.3807 262.83 25.2958 262.819 25.2109 262.819C24.9809 262.819 24.7947 262.902 24.6523 263.069C24.5126 263.236 24.4045 263.462 24.3278 263.747C24.2539 264.029 24.2018 264.348 24.1717 264.704L24.0197 266.507H23.7486ZM27.2612 266.569C27.086 266.569 26.9367 266.533 26.8135 266.462C26.693 266.391 26.6054 266.283 26.5506 266.138C26.4958 265.992 26.4794 265.809 26.5013 265.587L26.756 262.79L26.9244 262.872H26.0823L26.1316 262.65H26.9367L26.7314 262.835L26.871 261.517H27.1421L27.0025 262.835L26.8381 262.65H28.2758L28.243 262.872H26.8094L27.0107 262.79L26.7396 265.604C26.7177 265.839 26.7533 266.019 26.8464 266.142C26.9395 266.262 27.0805 266.322 27.2695 266.322C27.3845 266.322 27.4981 266.307 27.6104 266.277C27.7227 266.247 27.8404 266.206 27.9636 266.154L27.9801 266.376C27.8541 266.444 27.7309 266.494 27.6104 266.524C27.4899 266.554 27.3735 266.569 27.2612 266.569ZM30.0777 266.569C29.7628 266.569 29.5068 266.514 29.3096 266.405C29.1124 266.295 28.9687 266.153 28.8783 265.977C28.7907 265.799 28.7496 265.61 28.7551 265.411H29.0344C29.0234 265.698 29.1207 265.925 29.326 266.092C29.5342 266.257 29.7957 266.339 30.1106 266.339C30.4118 266.339 30.6734 266.265 30.8952 266.117C31.117 265.969 31.2416 265.772 31.269 265.526C31.2909 265.326 31.2361 265.172 31.1047 265.066C30.9732 264.956 30.7815 264.859 30.5296 264.774L29.9586 264.581C29.6547 264.477 29.4246 264.344 29.2685 264.182C29.1152 264.021 29.0522 263.81 29.0796 263.55C29.1015 263.358 29.1672 263.188 29.2768 263.04C29.3863 262.893 29.5369 262.776 29.7286 262.691C29.9203 262.606 30.1476 262.564 30.4105 262.564C30.7884 262.564 31.0841 262.649 31.2977 262.819C31.5141 262.986 31.6167 263.198 31.6058 263.455H31.3142C31.3032 263.236 31.2142 263.073 31.0472 262.967C30.8828 262.857 30.6692 262.802 30.4064 262.802C30.1736 262.802 29.9819 262.839 29.8313 262.913C29.6834 262.987 29.5711 263.08 29.4945 263.192C29.4205 263.302 29.3753 263.414 29.3589 263.529C29.3315 263.729 29.3863 263.893 29.5232 264.022C29.6601 264.151 29.8546 264.255 30.1065 264.334L30.6405 264.499C30.9499 264.592 31.1841 264.722 31.3429 264.889C31.5045 265.053 31.5702 265.265 31.5401 265.526C31.5182 265.712 31.447 265.884 31.3265 266.043C31.2087 266.202 31.0444 266.329 30.8336 266.425C30.6254 266.521 30.3735 266.569 30.0777 266.569Z" fill="white" fill-opacity="0.6"/>
<g clip-path="url(#clip11_1_2296)">
<g clip-path="url(#clip12_1_2296)">
<path d="M29.7806 283.153C29.7806 287.501 26.2558 291.026 21.9076 291.026C17.5595 291.026 14.0346 287.501 14.0346 283.153C14.0346 278.805 17.5595 275.28 21.9076 275.28C26.2558 275.28 29.7806 278.805 29.7806 283.153Z" stroke="white" stroke-opacity="0.2" stroke-width="0.68461"/>
</g>
<rect x="36.969" y="281.763" width="23.6427" height="2.78149" rx="1.39075" fill="white" fill-opacity="0.3"/>
</g>
<g clip-path="url(#clip13_1_2296)">
<path d="M29.7806 306.43C29.7806 310.778 26.2558 314.303 21.9076 314.303C17.5595 314.303 14.0346 310.778 14.0346 306.43C14.0346 302.082 17.5595 298.557 21.9076 298.557C26.2558 298.557 29.7806 302.082 29.7806 306.43Z" stroke="white" stroke-opacity="0.2" stroke-width="0.68461"/>
<rect x="36.969" y="305.336" width="31.7337" height="2.18853" rx="1.09427" fill="white" fill-opacity="0.3"/>
</g>
<g clip-path="url(#clip14_1_2296)">
<path d="M29.7806 329.707C29.7806 334.055 26.2558 337.58 21.9076 337.58C17.5595 337.58 14.0346 334.055 14.0346 329.707C14.0346 325.359 17.5595 321.834 21.9076 321.834C26.2558 321.834 29.7806 325.359 29.7806 329.707Z" stroke="white" stroke-opacity="0.2" stroke-width="0.68461"/>
<rect x="36.969" y="328.316" width="51.4576" height="2.78149" rx="1.39075" fill="white" fill-opacity="0.3"/>
</g>
</g>
<g clip-path="url(#clip15_1_2296)">
<rect x="13.6943" y="13.6924" width="8.21532" height="8.21532" rx="4.10766" fill="#EB6A5D"/>
<rect x="28.0711" y="13.6924" width="8.21532" height="8.21532" rx="4.10766" fill="#F3BE4F"/>
<rect x="42.448" y="13.6924" width="8.21532" height="8.21532" rx="4.10766" fill="#64C354"/>
</g>
<path d="M136.921 1.52588e-05H694.193C697.974 1.52588e-05 701.04 3.06512 701.04 6.84612V421.035C701.04 424.816 697.974 427.881 694.193 427.881H136.921V1.52588e-05Z" fill="#1A164A" fill-opacity="0.63"/>
<path fill-rule="evenodd" clip-rule="evenodd" d="M573.021 26.6999C578.314 26.6999 582.606 22.4087 582.606 17.1153C582.606 11.8219 578.314 7.53079 573.021 7.53079C567.728 7.53079 563.437 11.8219 563.437 17.1153C563.437 22.4087 567.728 26.6999 573.021 26.6999Z" fill="white" fill-opacity="0.1" stroke="white" stroke-opacity="0.3" stroke-width="0.821532"/>
<path d="M579.868 17.1156C579.868 17.8139 579.766 18.4917 579.567 19.1284C579.026 17.944 577.835 17.1156 576.445 17.1156C574.556 17.1156 573.022 18.6492 573.022 20.5387C573.022 21.9285 573.851 23.1197 575.035 23.6605C574.398 23.8591 573.721 23.9617 573.022 23.9617C569.243 23.9617 566.176 20.8947 566.176 17.1156C566.176 13.3366 569.243 10.2695 573.022 10.2695C576.801 10.2695 579.868 13.3366 579.868 17.1156Z" fill="#00CFFD" stroke="black" stroke-width="0.821532" stroke-miterlimit="10" stroke-linecap="round" stroke-linejoin="round"/>
<path d="M575.029 23.6527C573.844 23.1118 573.023 21.9206 573.023 20.5377C573.023 19.7846 573.262 19.0932 573.68 18.5249C573.461 18.4976 573.242 18.4839 573.023 18.4839C570.777 18.4839 568.853 19.8325 568.005 21.7631C569.257 23.1118 571.037 23.9607 573.023 23.9607C573.721 23.9607 574.392 23.8581 575.029 23.6527Z" fill="white" stroke="black" stroke-width="0.821532" stroke-miterlimit="10" stroke-linecap="round"/>
<path d="M573.789 18.3748H573.795C574.172 17.9093 574.679 17.5396 575.254 17.3274C575.575 16.8756 575.76 16.3347 575.76 15.7459C575.76 14.233 574.535 13.0075 573.022 13.0075C571.509 13.0075 570.283 14.233 570.283 15.7459C570.283 17.2589 571.509 18.4844 573.022 18.4844C573.289 18.4844 573.549 18.4433 573.795 18.3748" fill="white"/>
<path d="M573.789 18.3748H573.795C574.172 17.9093 574.679 17.5396 575.254 17.3274C575.575 16.8756 575.76 16.3347 575.76 15.7459C575.76 14.233 574.535 13.0075 573.022 13.0075C571.509 13.0075 570.283 14.233 570.283 15.7459C570.283 17.2589 571.509 18.4844 573.022 18.4844C573.289 18.4844 573.549 18.4433 573.795 18.3748" stroke="black" stroke-width="0.821532" stroke-miterlimit="10" stroke-linecap="round" stroke-linejoin="round"/>
<path d="M576.445 23.9623C578.335 23.9623 579.868 22.4298 579.868 20.5393C579.868 18.6488 578.335 17.1162 576.445 17.1162C574.554 17.1162 573.021 18.6488 573.021 20.5393C573.021 22.4298 574.554 23.9623 576.445 23.9623Z" fill="black" stroke="black" stroke-width="0.821532" stroke-miterlimit="10" stroke-linecap="round" stroke-linejoin="round"/>
<path d="M574.798 20.0931L576.03 21.3254L578.084 19.2716" stroke="#00CFFD" stroke-width="0.821532" stroke-miterlimit="10"/>
<g clip-path="url(#clip16_1_2296)">
<path d="M589.703 19.9538L591.942 13.4124H593.149L595.321 19.9538H594.294L593.785 18.3929H591.259L590.73 19.9538H589.703ZM591.506 17.6433H593.544L592.527 14.5882L591.506 17.6433ZM598.362 20.0873C597.958 20.0873 597.587 19.9795 597.248 19.7639C596.909 19.5448 596.639 19.2401 596.437 18.8499C596.238 18.4563 596.139 17.9941 596.139 17.4636C596.139 16.9364 596.237 16.4794 596.432 16.0926C596.63 15.7058 596.892 15.408 597.217 15.1992C597.542 14.987 597.904 14.8809 598.301 14.8809C598.664 14.8809 598.98 14.9699 599.251 15.1479C599.521 15.3225 599.73 15.5775 599.877 15.9129C600.028 16.2484 600.103 16.6574 600.103 17.1401H599.764C599.764 16.8423 599.704 16.5907 599.584 16.3853C599.465 16.1765 599.309 16.019 599.117 15.9129C598.925 15.8068 598.72 15.7538 598.501 15.7538C598.244 15.7538 598.011 15.8239 597.803 15.9643C597.597 16.1012 597.433 16.298 597.31 16.5548C597.19 16.8081 597.13 17.111 597.13 17.4636C597.13 17.8196 597.19 18.1294 597.31 18.3929C597.433 18.6531 597.597 18.8533 597.803 18.9937C598.011 19.134 598.242 19.2042 598.496 19.2042C598.705 19.2042 598.905 19.1494 599.097 19.0399C599.292 18.9269 599.451 18.766 599.574 18.5572C599.701 18.3484 599.764 18.1003 599.764 17.8127H600.103C600.103 18.3056 600.024 18.7215 599.867 19.0604C599.713 19.3993 599.504 19.656 599.24 19.8306C598.977 20.0018 598.684 20.0873 598.362 20.0873ZM599.933 19.9538L599.764 18.7678V12.9349H600.745V19.9538H599.933ZM609.592 19.9538V17.0579C609.592 16.6301 609.49 16.3066 609.284 16.0875C609.082 15.865 608.81 15.7538 608.468 15.7538C608.057 15.7538 607.739 15.9146 607.513 16.2364C607.29 16.5582 607.179 17.0203 607.179 17.6227H606.753C606.753 17.1469 606.799 16.7362 606.891 16.3904C606.984 16.0447 607.116 15.7606 607.287 15.5381C607.461 15.3156 607.669 15.1513 607.908 15.0452C608.151 14.9356 608.422 14.8809 608.719 14.8809C609.116 14.8809 609.452 14.9699 609.726 15.1479C610.003 15.3259 610.214 15.5792 610.357 15.9078C610.501 16.233 610.573 16.6164 610.573 17.0579V19.9538H609.592ZM602.748 19.9538V15.0144H603.595L603.703 15.9437C603.86 15.598 604.076 15.3344 604.35 15.153C604.627 14.9716 604.952 14.8809 605.325 14.8809C605.722 14.8809 606.058 14.9699 606.332 15.1479C606.609 15.3259 606.82 15.5792 606.963 15.9078C607.107 16.233 607.179 16.6164 607.179 17.0579V19.9538H606.209V17.0579C606.209 16.6301 606.106 16.3066 605.9 16.0875C605.699 15.865 605.425 15.7538 605.079 15.7538C604.805 15.7538 604.566 15.8291 604.36 15.9797C604.158 16.1269 604.001 16.3442 603.888 16.6318C603.778 16.9159 603.723 17.2633 603.723 17.6741V19.9538H602.748ZM612.98 13.9618C612.785 13.9618 612.631 13.9087 612.518 13.8026C612.408 13.6931 612.354 13.5459 612.354 13.361C612.354 13.183 612.408 13.0427 612.518 12.94C612.631 12.8339 612.785 12.7808 612.98 12.7808C613.172 12.7808 613.322 12.8339 613.432 12.94C613.545 13.0427 613.601 13.183 613.601 13.361C613.601 13.5459 613.545 13.6931 613.432 13.8026C613.322 13.9087 613.172 13.9618 612.98 13.9618ZM612.492 19.9538V14.999H613.468V19.9538H612.492ZM619.065 19.9538V17.0579C619.065 16.6301 618.962 16.3066 618.757 16.0875C618.555 15.865 618.281 15.7538 617.935 15.7538C617.662 15.7538 617.422 15.8291 617.217 15.9797C617.015 16.1269 616.857 16.3442 616.744 16.6318C616.635 16.9159 616.58 17.2633 616.58 17.6741H616.231C616.231 17.0682 616.308 16.5582 616.462 16.144C616.619 15.7298 616.844 15.4166 617.134 15.2044C617.425 14.9887 617.775 14.8809 618.182 14.8809C618.579 14.8809 618.914 14.9699 619.188 15.1479C619.466 15.3259 619.676 15.5792 619.82 15.9078C619.964 16.233 620.036 16.6164 620.036 17.0579V19.9538H619.065ZM615.604 19.9538V15.0144H616.452L616.58 16.0824V19.9538H615.604Z" fill="white"/>
</g>
<rect x="157.463" y="62.1044" width="137.684" height="8.34447" rx="2.18853" fill="white" fill-opacity="0.6"/>
<rect x="157.463" y="81.5748" width="63.9743" height="8.34447" rx="2.18853" fill="white" fill-opacity="0.6"/>
<rect x="157.463" y="101.045" width="129.339" height="2.78149" rx="1.39075" fill="white" fill-opacity="0.3"/>
<rect x="157.463" y="114.953" width="95.9614" height="2.78149" rx="1.39075" fill="white" fill-opacity="0.3"/>
<rect x="157.463" y="128.86" width="112.65" height="2.78149" rx="1.39075" fill="white" fill-opacity="0.3"/>
<g clip-path="url(#clip17_1_2296)">
<rect x="568.229" y="48.608" width="45.4121" height="4.37707" rx="2.18853" fill="white" fill-opacity="0.6"/>
<rect x="568.229" y="58.5481" width="95.9614" height="2.78149" rx="1.39075" fill="white" fill-opacity="0.3"/>
<g filter="url(#filter0_b_1_2296)">
<rect x="568.229" y="66.8926" width="119.122" height="49.2919" rx="6.8461" fill="#5B0000" fill-opacity="0.22"/>
<path fill-rule="evenodd" clip-rule="evenodd" d="M590.136 105.231C597.698 105.231 603.828 99.1005 603.828 91.5385C603.828 83.9765 597.698 77.8463 590.136 77.8463C582.574 77.8463 576.444 83.9765 576.444 91.5385C576.444 99.1005 582.574 105.231 590.136 105.231Z" fill="white" fill-opacity="0.1" stroke="white" stroke-opacity="0.3" stroke-width="0.821532"/>
<g clip-path="url(#clip18_1_2296)">
<path d="M592.875 91.5382L590.136 86.7459L587.398 91.5382L583.975 86.7459L584.66 95.6458H595.613L596.298 86.7459L592.875 91.5382Z" fill="#00CFFD" stroke="black" stroke-width="0.821532" stroke-miterlimit="10" stroke-linecap="round" stroke-linejoin="round"/>
<path fill-rule="evenodd" clip-rule="evenodd" d="M596.64 97.6996H583.633C583.441 97.6996 583.29 97.549 583.29 97.3573V95.9881C583.29 95.7964 583.441 95.6458 583.633 95.6458H596.64C596.832 95.6458 596.983 95.7964 596.983 95.9881V97.3573C596.983 97.549 596.832 97.6996 596.64 97.6996Z" fill="white" stroke="black" stroke-width="0.821532" stroke-miterlimit="10" stroke-linecap="round" stroke-linejoin="round"/>
<path d="M583.976 86.7465C584.354 86.7465 584.66 86.44 584.66 86.0619C584.66 85.6838 584.354 85.3773 583.976 85.3773C583.597 85.3773 583.291 85.6838 583.291 86.0619C583.291 86.44 583.597 86.7465 583.976 86.7465Z" stroke="black" stroke-width="0.821532" stroke-miterlimit="10" stroke-linecap="round" stroke-linejoin="round"/>
<path d="M596.299 86.746C596.677 86.746 596.983 86.4395 596.983 86.0614C596.983 85.6833 596.677 85.3768 596.299 85.3768C595.921 85.3768 595.614 85.6833 595.614 86.0614C595.614 86.4395 595.921 86.746 596.299 86.746Z" stroke="black" stroke-width="0.821532" stroke-miterlimit="10" stroke-linecap="round" stroke-linejoin="round"/>
<path d="M590.14 86.746C590.518 86.746 590.824 86.4395 590.824 86.0614C590.824 85.6833 590.518 85.3768 590.14 85.3768C589.762 85.3768 589.455 85.6833 589.455 86.0614C589.455 86.4395 589.762 86.746 590.14 86.746Z" stroke="black" stroke-width="0.821532" stroke-miterlimit="10" stroke-linecap="round" stroke-linejoin="round"/>
</g>
<g clip-path="url(#clip19_1_2296)">
<rect x="610.675" y="79.9362" width="28" height="5" rx="2" fill="white" fill-opacity="0.6"/>
<rect x="610.675" y="90.9362" width="45.8946" height="2.78149" rx="1.39075" fill="white" fill-opacity="0.3"/>
<rect x="610.675" y="99.7177" width="68.461" height="3.42305" rx="1.71153" fill="black" fill-opacity="0.2"/>
<rect x="611.359" y="100.402" width="41.0766" height="2.05383" rx="1.02692" fill="#00CFFD" stroke="black" stroke-opacity="0.05" stroke-width="0.247119"/>
</g>
</g>
</g>
<rect x="136.921" y="34.2318" width="564.119" height="0.342305" fill="white" fill-opacity="0.2"/>
<rect y="372.427" width="136.922" height="0.68461" fill="white" fill-opacity="0.05"/>
<rect x="145.139" y="7.53079" width="25.3306" height="19.1691" rx="2.73844" fill="black" fill-opacity="0.2"/>
<rect x="669.55" y="7.53079" width="23.2767" height="19.1691" rx="2.73844" fill="black" fill-opacity="0.2"/>
<defs>
<filter id="filter0_b_1_2296" x="554.537" y="53.2003" width="146.507" height="76.6763" filterUnits="userSpaceOnUse" color-interpolation-filters="sRGB">
<feFlood flood-opacity="0" result="BackgroundImageFix"/>
<feGaussianBlur in="BackgroundImage" stdDeviation="6.8461"/>
<feComposite in2="SourceAlpha" operator="in" result="effect1_backgroundBlur_1_2296"/>
<feBlend mode="normal" in="SourceGraphic" in2="effect1_backgroundBlur_1_2296" result="shape"/>
</filter>
<clipPath id="clip0_1_2296">
<rect width="16.4306" height="16.4306" fill="white" transform="translate(19.4757 392.476)"/>
</clipPath>
<clipPath id="clip1_1_2296">
<rect width="45.4121" height="12.1286" fill="white" transform="translate(48.2305 394.628)"/>
</clipPath>
<clipPath id="clip2_1_2296">
<rect width="136.922" height="310.263" fill="white" transform="translate(0 39.982)"/>
</clipPath>
<clipPath id="clip3_1_2296">
<rect width="55.0105" height="16.4306" fill="white" transform="translate(13.6923 76.401)"/>
</clipPath>
<clipPath id="clip4_1_2296">
<rect width="69.1713" height="16.4306" fill="white" transform="translate(13.6923 101.047)"/>
</clipPath>
<clipPath id="clip5_1_2296">
<rect width="69.1713" height="16.4306" fill="white" transform="translate(13.6923 125.693)"/>
</clipPath>
<clipPath id="clip6_1_2296">
<rect width="55.0105" height="16.4306" fill="white" transform="translate(13.6923 174.985)"/>
</clipPath>
<clipPath id="clip7_1_2296">
<rect width="16.4306" height="16.4306" fill="white" transform="translate(13.6923 174.985)"/>
</clipPath>
<clipPath id="clip8_1_2296">
<rect width="60.8269" height="16.4306" fill="white" transform="translate(13.6923 198.262)"/>
</clipPath>
<clipPath id="clip9_1_2296">
<rect width="64.9991" height="16.4306" fill="white" transform="translate(13.6923 221.538)"/>
</clipPath>
<clipPath id="clip10_1_2296">
<rect width="16.4306" height="16.4306" fill="white" transform="translate(13.6923 221.538)"/>
</clipPath>
<clipPath id="clip11_1_2296">
<rect width="46.9194" height="16.4306" fill="white" transform="translate(13.6923 274.938)"/>
</clipPath>
<clipPath id="clip12_1_2296">
<rect width="16.4306" height="16.4306" fill="white" transform="translate(13.6923 274.938)"/>
</clipPath>
<clipPath id="clip13_1_2296">
<rect width="55.0105" height="16.4306" fill="white" transform="translate(13.6923 298.215)"/>
</clipPath>
<clipPath id="clip14_1_2296">
<rect width="74.7343" height="16.4306" fill="white" transform="translate(13.6923 321.491)"/>
</clipPath>
<clipPath id="clip15_1_2296">
<rect width="36.9689" height="8.21532" fill="white" transform="translate(13.6943 13.6924)"/>
</clipPath>
<clipPath id="clip16_1_2296">
<rect width="42.4458" height="12.323" fill="white" transform="translate(589.452 10.9538)"/>
</clipPath>
<clipPath id="clip17_1_2296">
<rect width="119.122" height="67.5764" fill="white" transform="translate(568.229 48.608)"/>
</clipPath>
<clipPath id="clip18_1_2296">
<rect width="16.4306" height="16.4306" fill="white" transform="translate(581.924 83.3222)"/>
</clipPath>
<clipPath id="clip19_1_2296">
<rect width="68.461" height="23.2045" fill="white" transform="translate(610.675 79.9362)"/>
</clipPath>
</defs>
</svg>
