<svg width="5200" height="1476" viewBox="0 0 5200 1476" fill="none" xmlns="http://www.w3.org/2000/svg">
<path d="M2128.03 574C1970.72 556.359 1932.55 641.22 1858.03 660C1858.03 660 1308.07 898.645 936 900C558.647 901.374 0 660 0 660V1432C0 1432 544.762 1345.28 896 1352C1262.7 1359.01 1460.23 1475.67 1827 1475.67C2024 1475.67 2342.03 1382 2552.03 1060C2762.03 738 2924.03 1010 3146.03 928C3323.63 862.4 3371.47 722 3373.19 660C3378.57 466 3986.01 911.704 4304 756C4884 472 5206 660 5206 660V248C5206 248 4732 -160 4304 60C3980.58 226.245 3428 -22.0001 3373.19 34C3310 74 3338.03 298 2914.03 340C2792.95 351.994 2588.03 392 2502.03 576.897C2436.57 717.62 2188.03 574.966 2128.03 574Z" fill="url(#paint0_radial)"/>
<defs>
<radialGradient id="paint0_radial" cx="0" cy="0" r="1" gradientUnits="userSpaceOnUse" gradientTransform="translate(2476.55 584.456) rotate(90) scale(851.897 649.553)">
<stop stop-color="#8338A8"/>
<stop offset="1" stop-color="#1F1144"/>
</radialGradient>
</defs>
</svg>
