<svg width="183" height="121" viewBox="0 0 183 121" fill="none" xmlns="http://www.w3.org/2000/svg">
<g clip-path="url(#clip0_1_2245)">
<path d="M11.5864 13.7314H12.5304V16.9634C12.5304 17.3901 12.6384 17.6981 12.8544 17.8874C13.073 18.0767 13.3517 18.1714 13.6904 18.1714C14.0317 18.1714 14.3104 18.0767 14.5264 17.8874C14.7424 17.6981 14.8504 17.3901 14.8504 16.9634V13.7314H15.7944V16.9634C15.7944 17.4007 15.7104 17.7741 15.5424 18.0834C15.3744 18.3927 15.133 18.6287 14.8184 18.7914C14.5064 18.9541 14.1304 19.0354 13.6904 19.0354C13.2504 19.0354 12.873 18.9541 12.5584 18.7914C12.2464 18.6287 12.0064 18.3927 11.8384 18.0834C11.6704 17.7741 11.5864 17.4007 11.5864 16.9634V13.7314ZM17.1898 18.9234V13.7314H18.1338V18.9234H17.1898ZM19.3073 19.5634L21.3633 12.9634H22.3313L20.2593 19.5634H19.3073ZM23.3207 13.7314H24.2647V16.9634C24.2647 17.3901 24.3727 17.6981 24.5887 17.8874C24.8074 18.0767 25.0861 18.1714 25.4247 18.1714C25.7661 18.1714 26.0447 18.0767 26.2607 17.8874C26.4767 17.6981 26.5847 17.3901 26.5847 16.9634V13.7314H27.5287V16.9634C27.5287 17.4007 27.4447 17.7741 27.2767 18.0834C27.1087 18.3927 26.8674 18.6287 26.5527 18.7914C26.2407 18.9541 25.8647 19.0354 25.4247 19.0354C24.9847 19.0354 24.6074 18.9541 24.2927 18.7914C23.9807 18.6287 23.7407 18.3927 23.5727 18.0834C23.4047 17.7741 23.3207 17.4007 23.3207 16.9634V13.7314ZM28.4522 18.9234L30.2842 16.3394L28.4442 13.7314H29.6042L30.9162 15.6034L32.0522 13.7314H33.1962L31.4442 16.3234L33.3722 18.9234H32.1882L30.8202 17.0754L29.5962 18.9234H28.4522ZM11.6664 24.7314H13.3464C13.8744 24.7314 14.337 24.8381 14.7344 25.0514C15.1317 25.2621 15.441 25.5621 15.6624 25.9514C15.8837 26.3407 15.9944 26.8007 15.9944 27.3314C15.9944 27.8567 15.8837 28.3141 15.6624 28.7034C15.441 29.0901 15.1317 29.3901 14.7344 29.6034C14.337 29.8167 13.8744 29.9234 13.3464 29.9234H11.6664V24.7314ZM12.6104 25.5874V29.0754H13.3464C13.6824 29.0754 13.9717 28.9994 14.2144 28.8474C14.4597 28.6954 14.6477 28.4887 14.7784 28.2274C14.9117 27.9634 14.9784 27.6647 14.9784 27.3314C14.9784 26.9927 14.9117 26.6927 14.7784 26.4314C14.6477 26.1701 14.4597 25.9647 14.2144 25.8154C13.9717 25.6634 13.6824 25.5874 13.3464 25.5874H12.6104ZM17.1506 29.9234V24.7314H20.4866V25.5474H18.0946V26.9154H20.3426V27.7314H18.0946V29.0994H20.4866V29.9234H17.1506ZM23.6619 30.0354C23.3019 30.0354 22.9699 29.9727 22.6659 29.8474C22.3645 29.7221 22.1192 29.5314 21.9299 29.2754C21.7432 29.0194 21.6432 28.6941 21.6299 28.2994H22.5579C22.5579 28.4994 22.6072 28.6634 22.7059 28.7914C22.8045 28.9194 22.9365 29.0154 23.1019 29.0794C23.2699 29.1407 23.4539 29.1714 23.6539 29.1714C23.8459 29.1714 24.0165 29.1461 24.1659 29.0954C24.3179 29.0447 24.4365 28.9727 24.5219 28.8794C24.6099 28.7834 24.6539 28.6701 24.6539 28.5394C24.6539 28.3661 24.6005 28.2301 24.4939 28.1314C24.3899 28.0327 24.2219 27.9421 23.9899 27.8594L22.9659 27.4514C22.5659 27.2941 22.2592 27.1114 22.0459 26.9034C21.8325 26.6954 21.7259 26.4087 21.7259 26.0434C21.7259 25.6221 21.8925 25.2807 22.2259 25.0194C22.5592 24.7581 23.0245 24.6274 23.6219 24.6274C24.2032 24.6274 24.6525 24.7634 24.9699 25.0354C25.2872 25.3047 25.4672 25.6807 25.5099 26.1634H24.5819C24.5472 25.9581 24.4539 25.7941 24.3019 25.6714C24.1499 25.5461 23.9232 25.4834 23.6219 25.4834C23.3552 25.4834 23.1445 25.5394 22.9899 25.6514C22.8352 25.7607 22.7579 25.8994 22.7579 26.0674C22.7579 26.2114 22.8059 26.3261 22.9019 26.4114C23.0005 26.4941 23.1525 26.5741 23.3579 26.6514L24.4939 27.0914C24.8779 27.2407 25.1725 27.4287 25.3779 27.6554C25.5832 27.8821 25.6859 28.1661 25.6859 28.5074C25.6859 28.8194 25.6072 29.0901 25.4499 29.3194C25.2925 29.5461 25.0632 29.7221 24.7619 29.8474C24.4605 29.9727 24.0939 30.0354 23.6619 30.0354ZM26.9554 29.9234V24.7314H27.8994V29.9234H26.9554ZM31.2889 30.0354C30.8649 30.0354 30.4823 29.9234 30.1409 29.6994C29.7996 29.4754 29.5276 29.1634 29.3249 28.7634C29.1249 28.3607 29.0249 27.8914 29.0249 27.3554C29.0249 26.9314 29.0863 26.5514 29.2089 26.2154C29.3343 25.8794 29.5076 25.5927 29.7289 25.3554C29.9503 25.1181 30.2103 24.9381 30.5089 24.8154C30.8076 24.6901 31.1316 24.6274 31.4809 24.6274C31.9663 24.6274 32.3729 24.7327 32.7009 24.9434C33.0316 25.1541 33.2889 25.4861 33.4729 25.9394L32.5049 26.1634C32.3689 25.9421 32.2116 25.7741 32.0329 25.6594C31.8569 25.5421 31.6569 25.4834 31.4329 25.4834C31.1769 25.4834 30.9436 25.5594 30.7329 25.7114C30.5223 25.8607 30.3543 26.0754 30.2289 26.3554C30.1036 26.6354 30.0409 26.9687 30.0409 27.3554C30.0409 27.7181 30.0956 28.0354 30.2049 28.3074C30.3169 28.5794 30.4729 28.7914 30.6729 28.9434C30.8729 29.0954 31.1049 29.1714 31.3689 29.1714C31.5929 29.1714 31.7929 29.1221 31.9689 29.0234C32.1476 28.9221 32.2876 28.7781 32.3889 28.5914C32.4929 28.4047 32.5449 28.1794 32.5449 27.9154H32.7529C32.7529 28.3474 32.7009 28.7221 32.5969 29.0394C32.4956 29.3567 32.3369 29.6021 32.1209 29.7754C31.9049 29.9487 31.6276 30.0354 31.2889 30.0354ZM32.6809 29.9234L32.5449 28.7794V27.8834L31.3769 27.8594V27.2594H33.4489V29.9234H32.6809ZM34.791 24.7314H35.823L38.183 28.4354H38.111V24.7314H39.055V29.9234H38.095L35.583 25.9954H35.735V29.9234H34.791V24.7314Z" fill="white"/>
<g clip-path="url(#clip1_1_2245)">
<rect x="10.9224" y="61.8757" width="58.997" height="2.18507" rx="1.09254" fill="white" fill-opacity="0.3"/>
<rect x="10.9224" y="68.4309" width="31.6836" height="2.18507" rx="1.09254" fill="white" fill-opacity="0.3"/>
<rect x="10.9224" y="74.9861" width="42.609" height="2.18507" rx="1.09254" fill="white" fill-opacity="0.3"/>
<g clip-path="url(#clip2_1_2245)">
<rect x="10.9224" y="81.5413" width="31.6836" height="2.18507" rx="1.09254" fill="white" fill-opacity="0.3"/>
<rect x="10.9224" y="96.8369" width="45.3403" height="4.37015" rx="2.18507" fill="white" fill-opacity="0.6"/>
</g>
</g>
</g>
<g clip-path="url(#clip3_1_2245)">
<rect x="124.002" y="86.3084" width="37.1463" height="2.18507" rx="1.09254" fill="white" fill-opacity="0.3"/>
<rect x="124.002" y="92.8637" width="20.7582" height="2.18507" rx="1.09254" fill="white" fill-opacity="0.3"/>
<g clip-path="url(#clip4_1_2245)">
<rect x="124.002" y="99.4189" width="28.9522" height="4.37015" rx="2.18507" fill="white" fill-opacity="0.6"/>
</g>
</g>
<path fill-rule="evenodd" clip-rule="evenodd" d="M160 30C165.523 30 170 25.5228 170 20C170 14.4772 165.523 10 160 10C154.477 10 150 14.4772 150 20C150 25.5228 154.477 30 160 30Z" fill="black"/>
<path d="M158.164 25.4546C159.157 25.4546 159.964 24.64 159.964 23.6364V21.8182H158.164C157.17 21.8182 156.364 22.6327 156.364 23.6364C156.364 24.64 157.17 25.4546 158.164 25.4546Z" fill="#0ACF83"/>
<path d="M156.364 20C156.364 18.9964 157.17 18.1818 158.164 18.1818H159.964V21.8182H158.164C157.17 21.8182 156.364 21.0037 156.364 20Z" fill="#A259FF"/>
<path d="M156.364 16.3636C156.364 15.36 157.17 14.5455 158.164 14.5455H159.964V18.1818H158.164C157.17 18.1818 156.364 17.3673 156.364 16.3636Z" fill="#F24E1E"/>
<path d="M159.964 14.5455H161.764C162.757 14.5455 163.564 15.36 163.564 16.3637C163.564 17.3673 162.757 18.1818 161.764 18.1818H159.964V14.5455Z" fill="#FF7262"/>
<path d="M163.564 20C163.564 21.0037 162.757 21.8182 161.764 21.8182C160.77 21.8182 159.964 21.0037 159.964 20C159.964 18.9964 160.77 18.1818 161.764 18.1818C162.757 18.1818 163.564 18.9964 163.564 20Z" fill="#1ABCFE"/>
<path fill-rule="evenodd" clip-rule="evenodd" d="M135 30C140.523 30 145 25.5228 145 20C145 14.4772 140.523 10 135 10C129.477 10 125 14.4772 125 20C125 25.5228 129.477 30 135 30Z" fill="#2E001F"/>
<g clip-path="url(#clip5_1_2245)">
<path d="M139.914 26.6142H130.087C128.754 26.6142 127.667 25.6235 127.667 24.4081V15.8141C127.667 14.5987 128.754 13.608 130.087 13.608H139.907C141.247 13.608 142.327 14.5987 142.327 15.8141V24.4023C142.333 25.6235 141.247 26.6142 139.914 26.6142Z" fill="#2E001F"/>
<path d="M133.327 19.6551L135.194 22.9249C135.227 22.9734 135.207 23.0224 135.153 23.0224H133.993C133.919 23.0224 133.886 23.0043 133.853 22.9436C133.426 22.1413 132.993 21.339 132.546 20.4761H132.532C132.132 21.2906 131.692 22.1477 131.266 22.95C131.233 22.9984 131.199 23.0171 131.146 23.0171H130.047C129.98 23.0171 129.973 22.9687 130.007 22.9319L131.834 19.759L130.067 16.5499C130.027 16.5014 130.067 16.4647 130.107 16.4647H131.254C131.32 16.4647 131.347 16.4769 131.373 16.5318C131.793 17.3341 132.22 18.1608 132.62 18.969H132.634C133.02 18.1667 133.447 17.3341 133.86 16.5376C133.894 16.4892 133.914 16.4588 133.981 16.4588H135.054C135.107 16.4588 135.128 16.4956 135.094 16.544L133.327 19.6551ZM135.521 20.6459C135.521 19.2298 136.554 18.1235 138.194 18.1235C138.334 18.1235 138.407 18.1235 138.541 18.1358V16.5254C138.541 16.4886 138.574 16.4647 138.607 16.4647H139.661C139.714 16.4647 139.727 16.4828 139.727 16.5131V22.0929C139.727 22.2568 139.727 22.4634 139.761 22.6886C139.761 22.7254 139.747 22.737 139.707 22.7557C139.147 22.999 138.561 23.1081 138.001 23.1081C136.554 23.1134 135.52 22.2994 135.521 20.6459ZM138.54 19.0903C138.447 19.0536 138.314 19.0296 138.154 19.0296C137.313 19.0296 136.727 19.619 136.727 20.598C136.727 21.7165 137.327 22.1664 138.081 22.1664C138.241 22.1664 138.414 22.1483 138.541 22.0993V19.0903H138.54Z" fill="#FFD9F2"/>
</g>
<defs>
<clipPath id="clip0_1_2245">
<rect width="58.997" height="90.2836" fill="white" transform="translate(10.9224 10.9234)"/>
</clipPath>
<clipPath id="clip1_1_2245">
<rect width="58.997" height="39.3313" fill="white" transform="translate(10.9224 61.8757)"/>
</clipPath>
<clipPath id="clip2_1_2245">
<rect width="45.3403" height="19.6657" fill="white" transform="translate(10.9224 81.5413)"/>
</clipPath>
<clipPath id="clip3_1_2245">
<rect width="37.1463" height="17.4806" fill="white" transform="translate(124.002 86.3084)"/>
</clipPath>
<clipPath id="clip4_1_2245">
<rect width="28.9522" height="4.37015" fill="white" transform="translate(124.002 99.4189)"/>
</clipPath>
<clipPath id="clip5_1_2245">
<rect width="16" height="14.2222" fill="white" transform="translate(127 13)"/>
</clipPath>
</defs>
</svg>
