<svg width="363" height="210" viewBox="0 0 363 210" fill="none" xmlns="http://www.w3.org/2000/svg">
<g clip-path="url(#clip0_1_2476)">
<g clip-path="url(#clip1_1_2476)">
<rect x="14.5689" y="13.6922" width="45.4121" height="4.37707" rx="2.18853" fill="white" fill-opacity="0.6"/>
<g clip-path="url(#clip2_1_2476)">
<circle cx="26.8919" cy="50.3923" r="12.323" fill="black" fill-opacity="0.2"/>
<g clip-path="url(#clip3_1_2476)">
<path d="M26.5689 58.0693C30.9872 58.0693 34.5689 54.4876 34.5689 50.0693C34.5689 45.651 30.9872 42.0693 26.5689 42.0693C22.1506 42.0693 18.5689 45.651 18.5689 50.0693C18.5689 54.4876 22.1506 58.0693 26.5689 58.0693Z" fill="#13AA52"/>
<path d="M28.7074 49.0918C28.202 46.8616 27.0078 46.1283 26.8792 45.8482C26.7386 45.6505 26.5961 45.299 26.5961 45.299C26.5938 45.293 26.59 45.2826 26.5856 45.2724C26.5711 45.4701 26.5636 45.5463 26.3767 45.7457C26.0874 45.9719 24.6027 47.2177 24.4819 49.7515C24.3692 52.1146 26.1889 53.5227 26.435 53.7022L26.463 53.7221V53.7204C26.4645 53.7322 26.5411 54.2829 26.5949 54.8663H26.7877C26.8329 54.4539 26.9007 54.0443 26.9908 53.6393L27.0064 53.6291C27.1165 53.5502 27.2214 53.4643 27.3206 53.3721L27.3319 53.3619C27.855 52.8786 28.7955 51.7608 28.7863 49.9787C28.7843 49.6814 28.7579 49.3847 28.7074 49.0918ZM26.5744 52.368C26.5744 52.368 26.5744 49.0537 26.6838 49.0543C26.7691 49.0543 26.8795 53.3294 26.8795 53.3294C26.7277 53.3112 26.5744 52.6258 26.5744 52.368Z" fill="white"/>
</g>
<g clip-path="url(#clip4_1_2476)">
<rect x="52.9071" y="38.0693" width="95.9614" height="2.78149" rx="1.39075" fill="white" fill-opacity="0.3"/>
<rect x="52.9071" y="46.3277" width="111" height="3" rx="1.5" fill="white" fill-opacity="0.3"/>
</g>
</g>
<g clip-path="url(#clip5_1_2476)">
<circle cx="26.8919" cy="95.0382" r="12.323" fill="white" fill-opacity="0.73"/>
<path d="M35.5689 100.64C34.9142 100.802 34.5092 100.647 34.1458 100.114L31.5617 96.6263L31.1882 96.1433L28.1703 100.126C27.8255 100.605 27.4638 100.814 26.8203 100.644L30.6847 95.583L27.087 91.0114C27.7057 90.894 28.1332 90.9538 28.5129 91.4944L31.1932 95.0259L33.8932 91.5136C34.2392 91.0345 34.611 90.8523 35.232 91.029L33.837 92.8335L31.947 95.2345C31.722 95.5089 31.7529 95.6966 31.9599 95.9617L35.5689 100.64ZM17.5734 95.4985L17.8895 93.9816C18.7502 90.9796 22.277 89.7322 24.7093 91.5871C26.1307 92.6781 26.484 94.2214 26.4137 95.9501H18.4014C18.281 99.0619 20.5766 100.94 23.5033 99.9817C24.5298 99.6452 25.1345 98.861 25.4372 97.8797C25.5907 97.388 25.845 97.3112 26.3186 97.4517C26.0767 98.6788 25.5311 99.704 24.378 100.346C22.655 101.306 20.1958 100.995 18.902 99.6606C18.1314 98.8862 17.813 97.905 17.6702 96.8557C17.6477 96.6822 17.6027 96.517 17.5689 96.3508C17.5719 96.0668 17.5734 95.7829 17.5734 95.499V95.4985ZM18.416 95.2899H25.6565C25.6093 93.0398 24.1732 91.4417 22.2107 91.428C20.0563 91.4115 18.5094 92.9718 18.416 95.2899V95.2899Z" fill="black"/>
<g clip-path="url(#clip6_1_2476)">
<rect x="52.9071" y="82.7152" width="95.9614" height="2.78149" rx="1.39075" fill="white" fill-opacity="0.3"/>
<rect x="52.9071" y="90.9736" width="111" height="3" rx="1.5" fill="white" fill-opacity="0.3"/>
</g>
</g>
<g clip-path="url(#clip7_1_2476)">
<circle cx="26.8919" cy="139.684" r="12.323" fill="black" fill-opacity="0.2"/>
<path d="M31.7241 136.899C31.5581 136.843 31.3862 136.789 31.2091 136.739C31.2382 136.622 31.2649 136.507 31.2886 136.394C31.6785 134.532 31.4236 133.033 30.5531 132.539C29.7184 132.066 28.3534 132.56 26.9747 133.739C26.8421 133.853 26.7092 133.973 26.5763 134.099C26.4878 134.016 26.3994 133.935 26.3112 133.858C24.8663 132.597 23.4181 132.065 22.5484 132.56C21.7146 133.035 21.4676 134.444 21.8186 136.208C21.8525 136.379 21.8921 136.553 21.9369 136.729C21.7319 136.787 21.534 136.848 21.3447 136.913C19.6507 137.493 18.5689 138.404 18.5689 139.348C18.5689 140.323 19.7303 141.301 21.4946 141.894C21.6339 141.941 21.7784 141.985 21.9272 142.027C21.8789 142.219 21.8369 142.406 21.8016 142.589C21.467 144.322 21.7283 145.699 22.56 146.17C23.419 146.658 24.8607 146.157 26.2645 144.95C26.3755 144.855 26.4869 144.753 26.5984 144.647C26.743 144.784 26.8874 144.914 27.031 145.036C28.3908 146.186 29.7338 146.651 30.5647 146.178C31.4229 145.689 31.7018 144.211 31.3397 142.412C31.312 142.275 31.2798 142.134 31.2437 141.991C31.3449 141.962 31.4443 141.932 31.5413 141.9C33.3755 141.302 34.5689 140.336 34.5689 139.348C34.5689 138.4 33.4522 137.484 31.7241 136.899ZM31.3263 141.262C31.2388 141.29 31.149 141.318 31.0576 141.345C30.8551 140.714 30.5818 140.044 30.2473 139.351C30.5665 138.675 30.8292 138.013 31.026 137.387C31.1897 137.433 31.3486 137.483 31.5016 137.534C32.9822 138.036 33.8854 138.777 33.8854 139.348C33.8854 139.956 32.91 140.746 31.3263 141.262ZM30.6691 142.543C30.8293 143.338 30.8521 144.057 30.7461 144.619C30.6508 145.124 30.4591 145.461 30.2222 145.596C29.7179 145.883 28.6396 145.51 27.4767 144.526C27.3434 144.413 27.2091 144.293 27.0744 144.165C27.5253 143.68 27.9758 143.117 28.4156 142.49C29.1891 142.423 29.9198 142.313 30.5825 142.162C30.6152 142.291 30.6442 142.418 30.6691 142.543ZM24.0237 145.547C23.531 145.718 23.1387 145.723 22.9015 145.588C22.3968 145.302 22.187 144.197 22.4732 142.714C22.506 142.545 22.545 142.37 22.5899 142.192C23.2454 142.335 23.9708 142.437 24.7461 142.499C25.1888 143.112 25.6524 143.675 26.1196 144.168C26.0175 144.265 25.9159 144.357 25.8148 144.444C25.194 144.978 24.5719 145.356 24.0237 145.547ZM21.7157 141.258C20.9355 140.996 20.2912 140.655 19.8496 140.283C19.4528 139.949 19.2524 139.617 19.2524 139.348C19.2524 138.775 20.121 138.044 21.5697 137.547C21.7455 137.487 21.9295 137.43 22.1204 137.377C22.3206 138.017 22.5833 138.687 22.9002 139.364C22.5792 140.051 22.3128 140.732 22.1106 141.38C21.9745 141.341 21.8426 141.301 21.7157 141.258ZM22.4894 136.079C22.1887 134.568 22.3884 133.428 22.8909 133.142C23.4262 132.837 24.6098 133.271 25.8573 134.361C25.9371 134.43 26.0171 134.503 26.0974 134.579C25.6326 135.07 25.1732 135.629 24.7344 136.238C23.9819 136.306 23.2616 136.416 22.5993 136.564C22.5577 136.399 22.5208 136.237 22.4894 136.079ZM29.391 137.755C29.2327 137.486 29.0702 137.224 28.9045 136.968C29.415 137.032 29.9041 137.116 30.3634 137.219C30.2255 137.654 30.0536 138.108 29.8513 138.574C29.7062 138.303 29.5527 138.03 29.391 137.755ZM26.5765 135.059C26.8918 135.395 27.2075 135.77 27.5181 136.177C27.2051 136.162 26.8883 136.155 26.5689 136.155C26.2525 136.155 25.938 136.162 25.627 136.177C25.9379 135.773 26.2563 135.399 26.5765 135.059ZM23.744 137.76C23.5859 138.029 23.4352 138.301 23.2924 138.573C23.0933 138.109 22.923 137.653 22.7839 137.212C23.2404 137.111 23.7273 137.029 24.2345 136.967C24.0665 137.225 23.9026 137.489 23.744 137.76V137.76ZM24.2491 141.777C23.725 141.719 23.2309 141.641 22.7745 141.544C22.9158 141.095 23.0899 140.629 23.2931 140.154C23.4364 140.427 23.5876 140.698 23.7467 140.969H23.7468C23.9088 141.244 24.0768 141.514 24.2491 141.777ZM26.5955 143.684C26.2715 143.34 25.9484 142.96 25.6328 142.551C25.9391 142.563 26.2515 142.569 26.5689 142.569C26.895 142.569 27.2174 142.562 27.5347 142.548C27.2232 142.964 26.9086 143.345 26.5955 143.684ZM29.8578 140.13C30.0717 140.61 30.252 141.073 30.3951 141.515C29.9312 141.619 29.4303 141.702 28.9026 141.765C29.0687 141.506 29.2327 141.239 29.3938 140.964C29.5568 140.686 29.7115 140.408 29.8578 140.13ZM28.8017 140.628C28.5516 141.055 28.2948 141.462 28.0341 141.846C27.5594 141.88 27.0688 141.897 26.5689 141.897C26.071 141.897 25.5867 141.882 25.1203 141.852C24.8491 141.462 24.5867 141.054 24.3382 140.632H24.3383C24.0904 140.211 23.8623 139.786 23.6556 139.364C23.8622 138.941 24.0898 138.516 24.3362 138.096L24.3362 138.096C24.5832 137.674 24.8433 137.268 25.112 136.881C25.5878 136.846 26.0758 136.827 26.5689 136.827H26.5689C27.0643 136.827 27.5528 136.846 28.0285 136.881C28.2931 137.265 28.5514 137.671 28.7994 138.092C29.0503 138.518 29.2808 138.94 29.4892 139.355C29.2814 139.776 29.0515 140.202 28.8017 140.628ZM30.2117 133.122C30.7475 133.426 30.9558 134.651 30.6192 136.258C30.5977 136.361 30.5736 136.465 30.5473 136.571C29.8835 136.42 29.1627 136.308 28.408 136.239C27.9683 135.623 27.5128 135.063 27.0555 134.578C27.1784 134.462 27.3012 134.351 27.4234 134.247C28.6047 133.236 29.7087 132.836 30.2117 133.122ZM26.5689 137.943C27.358 137.943 27.9977 138.572 27.9977 139.348C27.9977 140.124 27.358 140.753 26.5689 140.753C25.7798 140.753 25.1402 140.124 25.1402 139.348C25.1402 138.572 25.7798 137.943 26.5689 137.943Z" fill="#00D8FF"/>
<g clip-path="url(#clip8_1_2476)">
<rect x="52.9071" y="127.361" width="105" height="3" rx="1.5" fill="white" fill-opacity="0.3"/>
<rect x="52.9071" y="135.838" width="66" height="3" rx="1.5" fill="white" fill-opacity="0.3"/>
</g>
</g>
<g clip-path="url(#clip9_1_2476)">
<circle cx="26.5689" cy="184.007" r="12" fill="#F3F3F3"/>
<g clip-path="url(#clip10_1_2476)">
<path d="M34.9693 183.191C34.9207 183.191 34.8734 183.201 34.8316 183.225L33.5079 183.989C33.4222 184.039 33.3701 184.132 33.3701 184.231V185.757C33.3701 185.856 33.4222 185.949 33.5079 185.999L33.8536 186.198C34.0215 186.281 34.0834 186.28 34.1599 186.28C34.4086 186.28 34.5505 186.129 34.5505 185.867V184.36C34.5505 184.339 34.5321 184.324 34.5112 184.324H34.3454C34.3241 184.324 34.3061 184.339 34.3061 184.36V185.867C34.3061 185.983 34.185 186.1 33.9885 186.002L33.6287 185.791C33.616 185.784 33.6062 185.772 33.6062 185.757V184.231C33.6062 184.217 33.6159 184.202 33.6287 184.195L34.9496 183.433C34.9556 183.429 34.9624 183.428 34.9693 183.428C34.9762 183.428 34.983 183.429 34.989 183.433L36.31 184.195C36.3225 184.202 36.3325 184.216 36.3325 184.231V185.757C36.3325 185.772 36.3251 185.787 36.3128 185.794L34.989 186.555C34.9777 186.562 34.962 186.562 34.9496 186.555L34.6096 186.353C34.6044 186.35 34.5986 186.349 34.5927 186.349C34.5868 186.349 34.581 186.35 34.5759 186.353C34.482 186.406 34.4643 186.412 34.3763 186.443C34.3546 186.451 34.3217 186.462 34.3875 186.499L34.8316 186.761C34.8735 186.785 34.921 186.797 34.9693 186.797C35.0177 186.797 35.0652 186.785 35.107 186.761L36.4308 185.999C36.5165 185.949 36.5685 185.856 36.5685 185.757V184.231C36.5685 184.132 36.5165 184.039 36.4308 183.989L35.107 183.225C35.0655 183.201 35.018 183.191 34.9693 183.191L34.9693 183.191Z" fill="#83CD29"/>
<path d="M35.3234 184.282C34.9465 184.282 34.722 184.442 34.722 184.709C34.722 184.998 34.9448 185.078 35.3066 185.114C35.7394 185.156 35.7731 185.22 35.7731 185.305C35.7731 185.452 35.6553 185.516 35.3769 185.516C35.027 185.516 34.9501 185.428 34.9244 185.254C34.9213 185.235 34.9069 185.22 34.8878 185.22H34.7164C34.6953 185.22 34.677 185.239 34.677 185.26C34.677 185.483 34.7982 185.746 35.3769 185.746C35.7957 185.746 36.0373 185.582 36.0373 185.293C36.0373 185.008 35.8422 184.931 35.4359 184.878C35.0253 184.823 34.9862 184.797 34.9862 184.7C34.9862 184.621 35.0194 184.515 35.3234 184.515C35.5951 184.515 35.6955 184.574 35.7366 184.757C35.7402 184.774 35.7554 184.788 35.7731 184.788H35.9446C35.9552 184.788 35.9654 184.781 35.9727 184.774C35.9799 184.765 35.985 184.756 35.9839 184.745C35.9574 184.43 35.7471 184.282 35.3234 184.282V184.282Z" fill="#83CD29"/>
<path d="M27.1869 181.19C27.1721 181.19 27.1576 181.194 27.1447 181.201C27.132 181.209 27.1214 181.219 27.114 181.232C27.1066 181.245 27.1027 181.26 27.1026 181.274V183.424C27.1026 183.446 27.0928 183.464 27.0745 183.475C27.0655 183.48 27.0554 183.483 27.045 183.483C27.0346 183.483 27.0244 183.48 27.0155 183.475L26.6641 183.273C26.6385 183.258 26.6094 183.25 26.5798 183.25C26.5502 183.25 26.5211 183.258 26.4955 183.273L25.0931 184.082C25.0406 184.112 25.0088 184.171 25.0088 184.231V185.85C25.0088 185.91 25.0407 185.966 25.0931 185.996L26.4955 186.806C26.5211 186.82 26.5502 186.828 26.5798 186.828C26.6094 186.828 26.6385 186.82 26.6641 186.806L28.0666 185.996C28.0923 185.981 28.1136 185.96 28.1284 185.934C28.1432 185.909 28.151 185.88 28.1509 185.85V181.814C28.1509 181.784 28.1428 181.754 28.1275 181.728C28.1122 181.702 28.0902 181.68 28.0638 181.665L27.2291 181.198C27.216 181.191 27.2014 181.19 27.1869 181.19V181.19ZM18.165 183.211C18.1383 183.212 18.1132 183.217 18.0892 183.231L16.6867 184.04C16.661 184.055 16.6397 184.076 16.6249 184.102C16.6101 184.127 16.6023 184.156 16.6024 184.186L16.6052 186.359C16.6052 186.389 16.6208 186.417 16.6473 186.432C16.6601 186.439 16.6747 186.443 16.6895 186.443C16.7044 186.443 16.7189 186.439 16.7317 186.432L17.5636 185.954C17.6163 185.923 17.6507 185.868 17.6507 185.808V184.793C17.6507 184.733 17.6825 184.677 17.735 184.647L18.0891 184.442C18.1147 184.427 18.1439 184.419 18.1735 184.419C18.2024 184.419 18.2321 184.427 18.2578 184.442L18.6119 184.647C18.6376 184.662 18.659 184.683 18.6738 184.709C18.6886 184.734 18.6964 184.764 18.6963 184.793V185.808C18.6963 185.868 18.731 185.923 18.7834 185.954L19.6153 186.432C19.628 186.439 19.6426 186.443 19.6574 186.443C19.6723 186.443 19.6869 186.439 19.6996 186.432C19.7124 186.424 19.7231 186.414 19.7305 186.401C19.7379 186.388 19.7418 186.373 19.7418 186.359L19.7445 184.186C19.7447 184.156 19.737 184.127 19.7222 184.102C19.7074 184.076 19.686 184.055 19.6602 184.04L18.2578 183.231C18.2341 183.217 18.2088 183.212 18.1819 183.211H18.165ZM30.7675 183.231C30.7382 183.231 30.7095 183.238 30.6832 183.253L29.2808 184.062C29.2551 184.077 29.2338 184.099 29.219 184.124C29.2042 184.15 29.1964 184.179 29.1964 184.209V185.827C29.1964 185.888 29.2307 185.944 29.2836 185.974L30.6748 186.766C30.7262 186.796 30.7889 186.798 30.8406 186.769L31.6838 186.3C31.7106 186.285 31.7286 186.257 31.7288 186.227C31.7289 186.212 31.7251 186.197 31.7177 186.184C31.7102 186.171 31.6995 186.161 31.6866 186.153L30.2757 185.344C30.2493 185.329 30.2307 185.298 30.2307 185.268V184.762C30.2307 184.732 30.2495 184.704 30.2757 184.689L30.7141 184.436C30.727 184.429 30.7415 184.425 30.7563 184.425C30.7711 184.425 30.7857 184.429 30.7985 184.436L31.2369 184.689C31.2497 184.697 31.2604 184.707 31.2678 184.72C31.2752 184.733 31.2791 184.747 31.2791 184.762V185.161C31.279 185.176 31.2829 185.191 31.2903 185.204C31.2977 185.216 31.3084 185.227 31.3212 185.234C31.3475 185.25 31.3793 185.25 31.4055 185.234L32.2459 184.745C32.2715 184.731 32.2928 184.709 32.3076 184.684C32.3224 184.658 32.3302 184.629 32.3302 184.599V184.209C32.3302 184.148 32.2982 184.093 32.2459 184.062L30.8519 183.253C30.8263 183.238 30.7971 183.23 30.7675 183.231V183.231ZM26.5742 184.439C26.5815 184.439 26.5901 184.441 26.5967 184.445L27.0773 184.723C27.0904 184.73 27.0998 184.744 27.0998 184.759V185.316C27.0998 185.331 27.0904 185.345 27.0773 185.352L26.5967 185.631C26.5903 185.634 26.583 185.636 26.5756 185.636C26.5682 185.636 26.561 185.634 26.5545 185.631L26.0739 185.352C26.0609 185.345 26.0515 185.331 26.0515 185.316V184.759C26.0515 184.744 26.0609 184.731 26.0739 184.723L26.5545 184.445C26.5604 184.441 26.5673 184.439 26.5742 184.439V184.439H26.5742Z" fill="#404137"/>
<path d="M22.3781 183.222C22.3488 183.222 22.3199 183.229 22.2938 183.245L20.8913 184.051C20.8388 184.081 20.807 184.14 20.807 184.2V185.819C20.807 185.88 20.8389 185.935 20.8913 185.965L22.2938 186.775C22.3194 186.789 22.3485 186.797 22.3781 186.797C22.4077 186.797 22.4368 186.789 22.4624 186.775L23.8649 185.965C23.8905 185.95 23.9118 185.929 23.9266 185.903C23.9414 185.878 23.9492 185.849 23.9491 185.819V184.2C23.9491 184.14 23.9173 184.081 23.8649 184.051L22.4624 183.245C22.4368 183.23 22.4077 183.222 22.3781 183.222V183.222ZM30.7647 184.667C30.7591 184.667 30.7529 184.667 30.7479 184.67L30.4781 184.827C30.4731 184.83 30.4689 184.834 30.4659 184.839C30.4629 184.844 30.4613 184.849 30.4612 184.855V185.164C30.4612 185.176 30.4679 185.186 30.4781 185.192L30.7479 185.347C30.758 185.353 30.7688 185.353 30.7788 185.347L31.0486 185.192C31.0536 185.189 31.0578 185.185 31.0608 185.18C31.0637 185.176 31.0653 185.17 31.0655 185.164V184.855C31.0653 184.849 31.0637 184.844 31.0608 184.839C31.0578 184.834 31.0536 184.83 31.0486 184.827L30.7788 184.669C30.7738 184.667 30.7704 184.667 30.7647 184.667V184.667Z" fill="#83CD29"/>
</g>
<g clip-path="url(#clip11_1_2476)">
<rect x="52.2611" y="172.007" width="95.9614" height="2.78149" rx="1.39075" fill="white" fill-opacity="0.3"/>
<rect x="52.2611" y="180.266" width="119" height="3" rx="1.5" fill="white" fill-opacity="0.3"/>
</g>
</g>
</g>
<g filter="url(#filter0_dd_1_2476)">
<g clip-path="url(#clip12_1_2476)">
<rect x="184.953" y="13.6922" width="164.306" height="169" rx="6.8461" fill="white"/>
<rect x="184.953" y="13.6922" width="164.306" height="246.46" rx="6.8461" fill="#007AFF"/>
<path opacity="0.43" d="M215.419 87.7727C210.638 92.3572 206.881 100.521 209.714 105.179C211.322 107.82 214.577 108.557 225.701 109.143C246.232 110.226 261.819 109.124 263.253 109.017C277.647 107.95 275.397 107.498 285.311 107.01C296.522 106.458 301.641 106.927 310.28 104.841C317.222 103.165 321.231 102.197 325.216 98.73C334.077 91.0212 333.864 78.747 333.828 76.7198C333.78 73.9379 333.239 64.363 326.173 56.6237C315.529 44.9655 295.596 43.5165 285.024 51.3603C272.643 60.5454 280.158 77.2341 268.994 83.1793C259.138 88.4285 249.456 77.4556 227.554 81.9263C224.297 82.591 219.505 83.8555 215.419 87.7727Z" fill="#491EB8"/>
<path opacity="0.2" d="M208.739 120.905C207.25 120.905 206.044 120.546 205.231 119.622C202.915 116.988 204.445 110.437 208.207 106.877C212.278 103.025 217.996 103.844 227.468 105.203C230.751 105.674 234.472 106.207 238.728 106.632C248.012 107.558 257.638 107.715 267.339 107.098C267.389 107.095 267.431 107.133 267.434 107.183C267.437 107.232 267.399 107.275 267.35 107.278C257.64 107.895 248.004 107.739 238.711 106.811C234.451 106.386 230.727 105.852 227.443 105.381C218.024 104.031 212.338 103.215 208.33 107.008C204.63 110.509 203.106 116.932 205.367 119.503C207.378 121.791 212.004 120.447 217.359 118.891C218.819 118.467 220.328 118.028 221.855 117.643C233.347 114.743 240.044 116.394 246.52 117.991C252.326 119.423 258.331 120.902 267.853 119.248C277.587 117.556 283.742 113.922 289.172 110.716C295.476 106.993 300.455 104.053 308.323 106.055C312.442 107.103 315.484 109.061 317.929 110.634C320.969 112.589 323.37 114.133 326.26 113.03C329.045 111.967 331.226 108.838 332.401 104.219C333.46 100.059 333.592 94.9687 332.755 90.6026C330.29 77.7468 317.701 69.3552 307.108 67.9865C300.78 67.1684 297.123 69.0536 292.889 71.2361C288.913 73.2855 284.406 75.6084 276.766 75.976C268.818 76.3589 264.037 74.359 258.973 72.2425C254.524 70.3833 249.925 68.4606 242.885 68.147C242.835 68.1446 242.796 68.1027 242.799 68.0529C242.801 68.0044 242.841 67.9668 242.889 67.9668C242.89 67.9668 242.891 67.9668 242.893 67.967C249.965 68.2821 254.58 70.2109 259.042 72.0762C264.087 74.1846 268.852 76.1751 276.757 75.7962C284.358 75.4302 288.847 73.1169 292.807 71.0759C297.067 68.8799 300.748 66.9833 307.131 67.8076C317.787 69.1845 330.452 77.6295 332.932 90.5688C333.774 94.9596 333.641 100.079 332.576 104.263C331.386 108.941 329.166 112.114 326.325 113.198C323.348 114.335 320.914 112.768 317.832 110.785C315.271 109.138 312.369 107.271 308.279 106.23C300.482 104.246 295.531 107.169 289.264 110.871C283.82 114.085 277.651 117.728 267.884 119.425C258.325 121.088 252.302 119.602 246.477 118.166C239.725 116.501 233.347 114.929 221.899 117.818C220.376 118.202 218.868 118.64 217.41 119.064C214.104 120.024 211.073 120.905 208.739 120.905Z" fill="#76F7FF"/>
<path d="M294.985 98.9291C303.74 98.9291 310.837 91.8321 310.837 83.0773C310.837 74.3225 303.74 67.2254 294.985 67.2254C286.231 67.2254 279.133 74.3225 279.133 83.0773C279.133 91.8321 286.231 98.9291 294.985 98.9291Z" fill="#B3CAF8"/>
<path d="M304.796 97.8108H280.93V114.526H304.796V97.8108Z" fill="#76F7FF"/>
<path opacity="0.43" d="M257.265 71.8174C262.339 71.8174 266.453 67.7037 266.453 62.6292C266.453 57.5548 262.339 53.4411 257.265 53.4411C252.19 53.4411 248.077 57.5548 248.077 62.6292C248.077 67.7037 252.19 71.8174 257.265 71.8174Z" fill="#76F7FF"/>
<path d="M264.07 115.351C262.486 115.351 261.198 114.073 261.187 112.487C261.176 110.895 262.458 109.595 264.051 109.585L274.758 109.512L275.499 96.7377C275.592 95.1478 276.951 93.932 278.545 94.0264C280.135 94.1187 281.349 95.4821 281.256 97.0719L280.456 110.862C280.313 113.318 278.275 115.254 275.815 115.271L264.09 115.351C264.083 115.351 264.076 115.351 264.07 115.351Z" fill="#B3825D"/>
<path d="M293.327 115.254C291.788 115.254 290.51 114.038 290.448 112.486C290.384 110.894 291.622 109.553 293.213 109.489L303.516 109.077V96.9045C303.516 95.3121 304.806 94.0213 306.399 94.0213C307.991 94.0213 309.282 95.3121 309.282 96.9045V109.774C309.282 112.49 307.156 114.702 304.442 114.811L293.444 115.251C293.405 115.253 293.366 115.254 293.327 115.254Z" fill="#B3825D"/>
<path d="M327.36 118.12H211.876C211.03 118.12 210.344 117.434 210.344 116.588C210.344 115.742 211.03 115.056 211.876 115.056H327.36C328.205 115.056 328.891 115.742 328.891 116.588C328.891 117.434 328.205 118.12 327.36 118.12Z" fill="#18204D"/>
<path d="M274.82 100.366C274.82 89.9124 282.217 85.3504 291.856 85.3504C301.495 85.3504 309.725 89.9124 309.725 100.366" fill="#76F7FF"/>
<path d="M288.024 72.4356C288.781 72.4356 289.394 71.8225 289.394 71.0662C289.394 70.31 288.781 69.697 288.024 69.697C287.268 69.697 286.655 70.31 286.655 71.0662C286.655 71.8225 287.268 72.4356 288.024 72.4356Z" fill="#F05936"/>
<path d="M295.661 72.4356C296.417 72.4356 297.03 71.8225 297.03 71.0662C297.03 70.31 296.417 69.697 295.661 69.697C294.905 69.697 294.292 70.31 294.292 71.0662C294.292 71.8225 294.905 72.4356 295.661 72.4356Z" fill="#F05936"/>
<path d="M295.66 76.2126V87.718C295.66 89.8031 293.969 91.4935 291.884 91.4935C289.799 91.4935 288.108 89.8031 288.108 87.718V76.2126C288.108 75.4322 288.345 74.7073 288.75 74.1057C289.428 73.0988 290.579 72.4366 291.884 72.4366C292.927 72.4366 293.871 72.8592 294.554 73.5426C295.237 74.226 295.66 75.1698 295.66 76.2126Z" fill="#B3825D"/>
<path d="M295.659 74.5092L295.039 78.6572C295.039 80.717 294.228 83.4599 292.235 83.6453C288.556 83.9872 288.108 81.955 288.108 79.8696V72.4023C288.849 71.3954 290.107 70.7332 291.533 70.7332C292.673 70.7332 293.704 71.1558 294.451 71.8392C295.198 72.5226 295.659 73.4663 295.659 74.5092Z" fill="#303030"/>
<path d="M292.097 82.895H291.671C289.703 82.895 288.108 81.3001 288.108 79.3327V69.4924C288.108 67.525 289.703 65.9301 291.671 65.9301H292.097C294.064 65.9301 295.659 67.525 295.659 69.4924V79.3327C295.659 81.3001 294.064 82.895 292.097 82.895Z" fill="#B3825D"/>
<path d="M288.647 68.4525L295.156 68.4287C296.529 68.4231 296.644 63.6902 294.362 64.2576L293.933 64.5241C293.408 64.1527 292.781 63.9543 292.138 63.957L288.628 63.9788C287.602 63.9831 286.774 64.8179 286.778 65.8438C286.783 66.8697 287.621 68.4566 288.647 68.4525Z" fill="#76F7FF"/>
<path d="M289.575 71.7825C289.772 71.7825 289.933 71.6221 289.933 71.4243C289.933 71.2264 289.772 71.066 289.575 71.066C289.377 71.066 289.216 71.2264 289.216 71.4243C289.216 71.6221 289.377 71.7825 289.575 71.7825Z" fill="#303030"/>
<path d="M292.766 71.7825C292.964 71.7825 293.124 71.6221 293.124 71.4243C293.124 71.2264 292.964 71.066 292.766 71.066C292.568 71.066 292.408 71.2264 292.408 71.4243C292.408 71.6221 292.568 71.7825 292.766 71.7825Z" fill="#303030"/>
<path d="M290.997 76.616C290.879 76.616 290.76 76.5749 290.654 76.4958C290.478 76.3644 290.356 76.1448 290.335 75.9225C290.304 75.5973 290.427 75.2933 290.547 74.9994L290.58 74.9169C290.907 74.1004 291.098 73.2412 291.148 72.3628L291.328 72.3729C291.277 73.2706 291.082 74.1492 290.747 74.9837L290.714 75.0672C290.602 75.3411 290.488 75.624 290.514 75.9055C290.53 76.076 290.627 76.2513 290.762 76.3515C290.828 76.401 290.933 76.4541 291.061 76.4298L291.095 76.6066C291.063 76.6129 291.03 76.616 290.997 76.616Z" fill="#303030"/>
<path d="M290.952 78.747C290.739 78.747 290.585 78.7121 290.572 78.7086L290.613 78.5334C290.619 78.5348 291.277 78.6833 291.748 78.328C292.049 78.1014 292.214 77.7163 292.239 77.184L292.419 77.1924C292.391 77.7817 292.201 78.2125 291.856 78.4728C291.56 78.6953 291.212 78.747 290.952 78.747Z" fill="#303030"/>
<path d="M291.953 92.3819C291.833 92.3819 291.759 92.3773 291.743 92.3762C291.634 92.3687 291.552 92.2742 291.56 92.165C291.567 92.056 291.658 91.9728 291.771 91.981C291.79 91.9817 293.81 92.1029 295.191 90.8124C296.062 89.9979 296.504 88.7938 296.504 87.2338C296.504 87.1242 296.592 87.0358 296.702 87.0358C296.811 87.0358 296.9 87.1242 296.9 87.2338C296.9 88.9097 296.415 90.212 295.458 91.1046C294.207 92.2718 292.537 92.3819 291.953 92.3819Z" fill="#B3CAF8"/>
<path d="M326.558 113.239L315.237 113.223L315.234 114.941L326.556 114.956L326.558 113.239Z" fill="#B3CAF8"/>
<path d="M325.229 111.519L313.907 111.503L313.905 113.221L325.226 113.236L325.229 111.519Z" fill="#18204D"/>
<path d="M326.942 109.803L315.621 109.788L315.619 111.505L326.94 111.521L326.942 109.803Z" fill="#76F7FF"/>
<path d="M262.33 114.798H255.415C255.415 113.661 256.336 112.74 257.473 112.74H260.272C261.409 112.74 262.33 113.661 262.33 114.798Z" fill="#76F7FF"/>
<path d="M320.421 119.07H224.066C223.835 119.07 223.648 118.883 223.648 118.651C223.648 118.42 223.835 118.233 224.066 118.233H320.421C320.652 118.233 320.84 118.42 320.84 118.651C320.84 118.883 320.652 119.07 320.421 119.07Z" fill="#B3CAF8"/>
<path d="M311.101 69.7457C313.698 69.7457 315.803 67.6404 315.803 65.0432C315.803 62.4461 313.698 60.3407 311.101 60.3407C308.504 60.3407 306.398 62.4461 306.398 65.0432C306.398 67.6404 308.504 69.7457 311.101 69.7457Z" fill="#76F7FF"/>
<path d="M289.928 70.1819L288.002 70.6459L288.044 70.8212L289.97 70.3572L289.928 70.1819Z" fill="#303030"/>
<path d="M292.325 70.1819L292.283 70.3572L294.209 70.8205L294.251 70.6453L292.325 70.1819Z" fill="#303030"/>
<path d="M294.236 69.1841C294.286 69.1841 294.326 69.1438 294.326 69.0941C294.326 69.0443 294.286 69.0041 294.236 69.0041C294.187 69.0041 294.146 69.0443 294.146 69.0941C294.146 69.1438 294.187 69.1841 294.236 69.1841Z" fill="#76F7FF"/>
<path d="M294.147 68.791C294.196 68.791 294.237 68.7507 294.237 68.701C294.237 68.6512 294.196 68.611 294.147 68.611C294.097 68.611 294.057 68.6512 294.057 68.701C294.057 68.7507 294.097 68.791 294.147 68.791Z" fill="#76F7FF"/>
<path d="M293.472 68.791C293.521 68.791 293.562 68.7507 293.562 68.701C293.562 68.6512 293.521 68.611 293.472 68.611C293.422 68.611 293.382 68.6512 293.382 68.701C293.382 68.7507 293.422 68.791 293.472 68.791Z" fill="#76F7FF"/>
<path d="M293.806 68.791C293.856 68.791 293.896 68.7507 293.896 68.701C293.896 68.6512 293.856 68.611 293.806 68.611C293.756 68.611 293.716 68.6512 293.716 68.701C293.716 68.7507 293.756 68.791 293.806 68.791Z" fill="#76F7FF"/>
<path d="M295.208 68.791C295.257 68.791 295.298 68.7507 295.298 68.701C295.298 68.6512 295.257 68.611 295.208 68.611C295.158 68.611 295.117 68.6512 295.117 68.701C295.117 68.7507 295.158 68.791 295.208 68.791Z" fill="#76F7FF"/>
<path d="M294.537 68.791C294.586 68.791 294.626 68.7507 294.626 68.701C294.626 68.6512 294.586 68.611 294.537 68.611C294.487 68.611 294.447 68.6512 294.447 68.701C294.447 68.7507 294.487 68.791 294.537 68.791Z" fill="#76F7FF"/>
<path d="M294.871 68.791C294.92 68.791 294.961 68.7507 294.961 68.701C294.961 68.6512 294.92 68.611 294.871 68.611C294.821 68.611 294.781 68.6512 294.781 68.701C294.781 68.7507 294.821 68.791 294.871 68.791Z" fill="#76F7FF"/>
<path d="M295.316 69.1014C295.366 69.1014 295.406 69.061 295.406 69.0114C295.406 68.9617 295.366 68.9213 295.316 68.9213C295.266 68.9213 295.226 68.9617 295.226 69.0114C295.226 69.061 295.266 69.1014 295.316 69.1014Z" fill="#76F7FF"/>
<path d="M294.61 69.1812C294.66 69.1812 294.7 69.1408 294.7 69.0911C294.7 69.0415 294.66 69.0011 294.61 69.0011C294.56 69.0011 294.52 69.0415 294.52 69.0911C294.52 69.1408 294.56 69.1812 294.61 69.1812Z" fill="#76F7FF"/>
<path d="M294.983 69.1841C295.033 69.1841 295.073 69.1438 295.073 69.0941C295.073 69.0443 295.033 69.0041 294.983 69.0041C294.934 69.0041 294.893 69.0443 294.893 69.0941C294.893 69.1438 294.934 69.1841 294.983 69.1841Z" fill="#76F7FF"/>
<path d="M295.364 69.4341C295.413 69.4341 295.454 69.3939 295.454 69.3441C295.454 69.2943 295.413 69.2541 295.364 69.2541C295.314 69.2541 295.274 69.2943 295.274 69.3441C295.274 69.3939 295.314 69.4341 295.364 69.4341Z" fill="#76F7FF"/>
<path d="M294.623 69.5244C294.673 69.5244 294.714 69.4842 294.714 69.4345C294.714 69.3847 294.673 69.3445 294.623 69.3445C294.574 69.3445 294.533 69.3847 294.533 69.4345C294.533 69.4842 294.574 69.5244 294.623 69.5244Z" fill="#76F7FF"/>
<path d="M295.034 69.5169C295.083 69.5169 295.124 69.4767 295.124 69.4269C295.124 69.3772 295.083 69.337 295.034 69.337C294.984 69.337 294.944 69.3772 294.944 69.4269C294.944 69.4767 294.984 69.5169 295.034 69.5169Z" fill="#76F7FF"/>
<path d="M295.387 69.776C295.436 69.776 295.477 69.7358 295.477 69.686C295.477 69.6363 295.436 69.596 295.387 69.596C295.337 69.596 295.297 69.6363 295.297 69.686C295.297 69.7358 295.337 69.776 295.387 69.776Z" fill="#76F7FF"/>
<path d="M295.06 69.8603C295.109 69.8603 295.15 69.8201 295.15 69.7704C295.15 69.7206 295.109 69.6804 295.06 69.6804C295.01 69.6804 294.969 69.7206 294.969 69.7704C294.969 69.8201 295.01 69.8603 295.06 69.8603Z" fill="#76F7FF"/>
<path d="M295.418 70.1194C295.468 70.1194 295.508 70.079 295.508 70.0294C295.508 69.9797 295.468 69.9394 295.418 69.9394C295.368 69.9394 295.328 69.9797 295.328 70.0294C295.328 70.079 295.368 70.1194 295.418 70.1194Z" fill="#76F7FF"/>
<path d="M295.084 70.2037C295.134 70.2037 295.174 70.1635 295.174 70.1138C295.174 70.064 295.134 70.0238 295.084 70.0238C295.034 70.0238 294.994 70.064 294.994 70.1138C294.994 70.1635 295.034 70.2037 295.084 70.2037Z" fill="#76F7FF"/>
<path d="M295.418 70.4644C295.468 70.4644 295.508 70.4241 295.508 70.3743C295.508 70.3247 295.468 70.2843 295.418 70.2843C295.368 70.2843 295.328 70.3247 295.328 70.3743C295.328 70.4241 295.368 70.4644 295.418 70.4644Z" fill="#76F7FF"/>
<path d="M295.084 70.5471C295.134 70.5471 295.174 70.5067 295.174 70.4572C295.174 70.4074 295.134 70.3672 295.084 70.3672C295.034 70.3672 294.994 70.4074 294.994 70.4572C294.994 70.5067 295.034 70.5471 295.084 70.5471Z" fill="#76F7FF"/>
<path d="M295.418 70.8077C295.468 70.8077 295.508 70.7675 295.508 70.7177C295.508 70.668 295.468 70.6278 295.418 70.6278C295.368 70.6278 295.328 70.668 295.328 70.7177C295.328 70.7675 295.368 70.8077 295.418 70.8077Z" fill="#76F7FF"/>
<path d="M295.084 70.8997C295.134 70.8997 295.174 70.8593 295.174 70.8098C295.174 70.76 295.134 70.7196 295.084 70.7196C295.034 70.7196 294.994 70.76 294.994 70.8098C294.994 70.8593 295.034 70.8997 295.084 70.8997Z" fill="#76F7FF"/>
<path d="M295.418 71.1586C295.468 71.1586 295.508 71.1184 295.508 71.0686C295.508 71.0189 295.468 70.9787 295.418 70.9787C295.368 70.9787 295.328 71.0189 295.328 71.0686C295.328 71.1184 295.368 71.1586 295.418 71.1586Z" fill="#76F7FF"/>
<path d="M295.084 71.2505C295.134 71.2505 295.174 71.2103 295.174 71.1605C295.174 71.1109 295.134 71.0706 295.084 71.0706C295.034 71.0706 294.994 71.1109 294.994 71.1605C294.994 71.2103 295.034 71.2505 295.084 71.2505Z" fill="#76F7FF"/>
<path d="M209.925 71.2587L249.186 72.6296C249.633 72.6452 250.273 73.1267 250.613 73.7036L252.229 76.4414L252.384 76.4469L250.769 73.7089C250.364 73.0226 249.601 72.4487 249.068 72.4301L209.807 71.059C209.276 71.0405 209.172 71.5842 209.577 72.2706L211.193 75.0083L211.347 75.0136L209.732 72.276C209.392 71.6991 209.479 71.2431 209.925 71.2587Z" fill="#B3CAF8"/>
<path fill-rule="evenodd" clip-rule="evenodd" d="M249.228 72.4514C249.172 72.4392 249.117 72.4321 249.065 72.4302L209.804 71.0591C209.438 71.0464 209.275 71.2992 209.34 71.6812C209.37 71.8553 209.447 72.0559 209.573 72.2707L211.189 75.0084L211.343 75.0137L209.728 72.2761C209.714 72.2517 209.7 72.2275 209.687 72.2036C209.578 72.0004 209.524 71.8149 209.521 71.6629C209.516 71.4092 209.654 71.2494 209.921 71.2588L249.182 72.6297C249.189 72.6301 249.195 72.6304 249.201 72.6308C249.648 72.6592 250.274 73.135 250.61 73.7037L252.225 76.4415L252.381 76.447L250.765 73.7092C250.751 73.6851 250.737 73.6613 250.722 73.6377C250.349 73.0499 249.724 72.5584 249.228 72.4514ZM209.915 71.4395L249.176 72.8105C249.346 72.8165 249.582 72.9161 249.827 73.1007C250.068 73.282 250.297 73.5291 250.454 73.7956L252.12 76.6188L252.704 76.6392L250.921 73.6173C250.706 73.2519 250.397 72.9195 250.072 72.6747C249.751 72.4334 249.391 72.2606 249.071 72.2494L209.81 70.8783C209.646 70.8727 209.496 70.9098 209.377 70.9999C209.257 71.0906 209.187 71.2211 209.159 71.3668C209.106 71.6487 209.205 72.0028 209.418 72.3626L211.083 75.1857L211.667 75.2059L209.884 72.1842C209.884 72.1842 209.884 72.1842 209.884 72.1842C209.723 71.9123 209.684 71.7009 209.707 71.5792C209.718 71.5231 209.74 71.4923 209.764 71.4745C209.789 71.4556 209.834 71.4368 209.915 71.4395Z" fill="#B3CAF8"/>
<path d="M268.669 104.05L267.628 102.286L256.655 83.6883L254.64 80.2733L254.484 80.2678L256.499 83.6828L267.473 102.28L268.513 104.045C268.853 104.62 268.767 105.077 268.32 105.062L229.059 103.691C228.613 103.675 227.972 103.193 227.632 102.617L227.104 101.722L223.776 96.0816L223.143 95.009L219.816 89.3701L218.946 87.8956L215.618 82.2553L213.603 78.8403L213.448 78.8348L215.463 82.2498L218.791 87.8901L219.661 89.3646L222.988 95.0036L223.621 96.0762L226.949 101.717L227.477 102.611C227.882 103.298 228.645 103.872 229.177 103.89L268.438 105.261C268.971 105.28 269.074 104.736 268.669 104.05Z" fill="#B3CAF8"/>
<path fill-rule="evenodd" clip-rule="evenodd" d="M254.745 80.0956L256.811 83.596L268.825 103.958C269.037 104.317 269.137 104.672 269.083 104.953C269.055 105.099 268.985 105.23 268.865 105.32C268.746 105.41 268.596 105.448 268.432 105.442L229.171 104.071C228.851 104.06 228.492 103.887 228.171 103.645C227.846 103.401 227.537 103.068 227.322 102.703L223.466 96.1677L215.307 82.3414L213.125 78.642L213.708 78.6625L219.102 87.8033L223.299 94.9167L227.26 101.63L227.788 102.525C227.945 102.79 228.173 103.037 228.415 103.219C228.66 103.404 228.896 103.504 229.066 103.51L268.327 104.881C268.408 104.883 268.453 104.864 268.478 104.846C268.502 104.828 268.524 104.797 268.534 104.741C268.557 104.619 268.518 104.407 268.358 104.136L254.161 80.075L254.745 80.0956ZM268.514 104.044C268.528 104.069 268.542 104.093 268.555 104.117C268.662 104.317 268.717 104.5 268.721 104.651C268.728 104.908 268.59 105.071 268.32 105.061L229.059 103.69C229.053 103.69 229.047 103.69 229.041 103.689C228.596 103.661 227.967 103.184 227.632 102.617L213.603 78.8398L213.448 78.8344L227.477 102.611C227.491 102.635 227.506 102.659 227.521 102.682C227.893 103.27 228.519 103.762 229.015 103.869C229.071 103.881 229.125 103.888 229.177 103.89L268.438 105.261C268.807 105.274 268.97 105.018 268.901 104.631C268.871 104.459 268.794 104.261 268.669 104.05L254.64 80.2729L254.484 80.2674L268.514 104.044Z" fill="#B3CAF8"/>
<path d="M295.418 71.511C295.468 71.511 295.508 71.4707 295.508 71.4211C295.508 71.3713 295.468 71.3311 295.418 71.3311C295.368 71.3311 295.328 71.3713 295.328 71.4211C295.328 71.4707 295.368 71.511 295.418 71.511Z" fill="#76F7FF"/>
<path d="M294.701 69.8678C294.751 69.8678 294.791 69.8276 294.791 69.7779C294.791 69.7281 294.751 69.6879 294.701 69.6879C294.651 69.6879 294.611 69.7281 294.611 69.7779C294.611 69.8276 294.651 69.8678 294.701 69.8678Z" fill="#76F7FF"/>
<path d="M254.295 115.077H248.6L244.289 107.278L249.983 107.522L254.295 115.077Z" fill="#B3CAF8"/>
<path opacity="0.2" d="M253.645 114.025L248.094 114.066L247.188 112.508L252.739 112.467L253.645 114.025Z" fill="#303030"/>
<path d="M263.462 115.077H239.321V114.944C239.321 114.459 239.713 114.067 240.198 114.067H262.585C263.069 114.067 263.462 114.459 263.462 114.944V115.077Z" fill="#B3CAF8"/>
<path d="M204.192 74.7629L211.191 75.0073L211.345 75.0127L212.156 75.041L251.417 76.4121L252.227 76.4403L252.383 76.4458L254.976 76.5363C255.794 76.5649 256.964 77.4445 257.588 78.5017C258.211 79.5577 258.053 80.3921 257.234 80.3635L254.641 80.2729L254.485 80.2675L253.675 80.2392L214.414 78.8681L213.604 78.8399L213.449 78.8344L206.45 78.59C205.631 78.5614 204.462 77.6807 203.838 76.6247C203.215 75.5674 203.373 74.7343 204.192 74.7629Z" fill="#76F7FF"/>
<path d="M255.69 83.6561L239.125 83.0776L250.098 101.675L266.664 102.254L267.474 102.282L256.501 83.6843L255.69 83.6561Z" fill="#76F7FF"/>
<path d="M260.733 83.8306L256.465 83.6816L267.438 102.279L271.706 102.428L260.733 83.8306Z" fill="#76F7FF"/>
<path d="M206.878 81.9977L210.207 87.638L220.021 87.9341L216.693 82.2938L206.878 81.9977Z" fill="#76F7FF"/>
<path d="M236.064 82.9693L216.426 82.2835L215.615 82.2552L218.943 87.8954L219.754 87.9238L239.392 88.6096L236.064 82.9693Z" fill="#76F7FF"/>
<path d="M297.635 115.295H272.243V114.76C272.243 114.205 272.693 113.755 273.248 113.755H296.63C297.186 113.755 297.635 114.205 297.635 114.76V115.295Z" fill="#76F7FF"/>
<path d="M280.634 138.381H215.677C213.955 138.381 212.56 136.986 212.56 135.264V123.832C212.56 122.11 213.955 120.715 215.677 120.715H280.634C282.356 120.715 283.752 122.11 283.752 123.832V135.264C283.752 136.986 282.356 138.381 280.634 138.381Z" fill="#B3CAF8"/>
<path d="M327.036 138.381H289.109C287.388 138.381 285.992 136.986 285.992 135.264V123.832C285.992 122.11 287.388 120.715 289.109 120.715H327.036C328.757 120.715 330.153 122.11 330.153 123.832V135.264C330.153 136.986 328.757 138.381 327.036 138.381Z" fill="#B3CAF8"/>
<path d="M332.575 129.74H211.26C210.553 129.74 209.978 129.165 209.978 128.457C209.978 127.75 210.553 127.175 211.26 127.175H332.575C333.282 127.175 333.858 127.75 333.858 128.457C333.858 129.165 333.282 129.74 332.575 129.74ZM211.26 127.56C210.766 127.56 210.364 127.963 210.364 128.457C210.364 128.952 210.766 129.354 211.26 129.354H332.575C333.07 129.354 333.472 128.952 333.472 128.457C333.472 127.963 333.07 127.56 332.575 127.56H211.26Z" fill="#76F7FF"/>
<path d="M238.598 85.4398C238.564 85.4398 238.531 85.4205 238.516 85.3875L238.328 84.9781C238.307 84.9329 238.327 84.8793 238.372 84.8586C238.417 84.8379 238.471 84.8574 238.491 84.9028L238.68 85.312C238.701 85.3573 238.681 85.4107 238.636 85.4316C238.623 85.4373 238.611 85.4398 238.598 85.4398Z" fill="#303030"/>
<path d="M238.038 84.2177C238.004 84.2177 237.971 84.1983 237.956 84.1651L237.582 83.3534C237.562 83.3082 237.581 83.2546 237.627 83.2339C237.671 83.2132 237.725 83.2327 237.746 83.2781L238.119 84.0898C238.14 84.1352 238.121 84.1886 238.075 84.2093C238.063 84.2149 238.05 84.2177 238.038 84.2177ZM237.291 82.594C237.257 82.594 237.224 82.5746 237.209 82.5416L236.836 81.7298C236.815 81.6845 236.835 81.6311 236.88 81.6103C236.925 81.5893 236.979 81.6091 236.999 81.6545L237.373 82.4663C237.394 82.5115 237.374 82.565 237.329 82.5857C237.316 82.5914 237.304 82.594 237.291 82.594ZM236.544 80.9704C236.51 80.9704 236.477 80.9511 236.462 80.9179L236.089 80.1061C236.068 80.0609 236.088 80.0073 236.133 79.9866C236.178 79.9663 236.232 79.9854 236.253 80.0308L236.626 80.8426C236.647 80.8879 236.627 80.9413 236.582 80.9622C236.57 80.9677 236.557 80.9704 236.544 80.9704ZM235.797 79.3467C235.763 79.3467 235.731 79.3273 235.716 79.2943L235.342 78.4825C235.321 78.4373 235.341 78.3838 235.386 78.3631C235.431 78.3422 235.485 78.3617 235.506 78.4072L235.879 79.219C235.9 79.2642 235.88 79.3178 235.835 79.3385C235.823 79.3441 235.81 79.3467 235.797 79.3467ZM235.051 77.723C235.016 77.723 234.984 77.7036 234.969 77.6706L234.595 76.8586C234.575 76.8135 234.594 76.7599 234.64 76.7392C234.684 76.7181 234.738 76.738 234.759 76.7833L235.132 77.5951C235.153 77.6405 235.133 77.6939 235.088 77.7147C235.076 77.7204 235.063 77.723 235.051 77.723ZM234.304 76.0992C234.27 76.0992 234.237 76.0799 234.222 76.0469L233.849 75.2351C233.828 75.1899 233.848 75.1363 233.893 75.1156C233.937 75.0946 233.992 75.1144 234.012 75.1598L234.386 75.9716C234.406 76.0167 234.387 76.0703 234.341 76.091C234.329 76.0967 234.316 76.0992 234.304 76.0992ZM233.557 74.4757C233.523 74.4757 233.49 74.4563 233.475 74.4233L233.102 73.6114C233.081 73.5662 233.101 73.5128 233.146 73.4919C233.191 73.4715 233.245 73.4907 233.266 73.5361L233.639 74.348C233.66 74.3932 233.64 74.4466 233.595 74.4675C233.583 74.4731 233.57 74.4757 233.557 74.4757ZM232.81 72.8521C232.776 72.8521 232.744 72.8326 232.728 72.7996L232.355 71.9878C232.334 71.9426 232.354 71.8891 232.399 71.8683C232.444 71.8475 232.498 71.8671 232.519 71.9125L232.892 72.7243C232.913 72.7695 232.893 72.823 232.848 72.8437C232.836 72.8494 232.823 72.8521 232.81 72.8521ZM232.064 71.2284C232.03 71.2284 231.997 71.2091 231.982 71.176L231.608 70.3641C231.587 70.3189 231.607 70.2655 231.652 70.2446C231.697 70.2237 231.751 70.2434 231.772 70.2888L232.145 71.1007C232.166 71.1459 232.146 71.1993 232.101 71.2202C232.089 71.2258 232.076 71.2284 232.064 71.2284ZM231.317 69.6049C231.283 69.6049 231.25 69.5855 231.235 69.5523L230.862 68.7405C230.841 68.6953 230.861 68.6418 230.906 68.6211C230.951 68.6007 231.004 68.6199 231.025 68.6652L231.398 69.477C231.419 69.5222 231.4 69.5758 231.354 69.5965C231.342 69.6021 231.329 69.6049 231.317 69.6049ZM230.57 67.9811C230.536 67.9811 230.503 67.9618 230.488 67.9288L230.115 67.117C230.094 67.0716 230.114 67.0182 230.159 66.9973C230.203 66.9768 230.258 66.9961 230.278 67.0417L230.652 67.8535C230.673 67.8986 230.653 67.9522 230.608 67.9729C230.595 67.9786 230.583 67.9811 230.57 67.9811ZM229.823 66.3576C229.789 66.3576 229.756 66.3382 229.741 66.305L229.368 65.4931C229.347 65.4479 229.367 65.3943 229.412 65.3736C229.457 65.3527 229.511 65.3724 229.532 65.4178L229.905 66.2297C229.926 66.2751 229.906 66.3285 229.861 66.3492C229.849 66.3548 229.836 66.3576 229.823 66.3576ZM229.076 64.7337C229.042 64.7337 229.01 64.7143 228.994 64.6813L228.621 63.8695C228.6 63.8242 228.62 63.7708 228.665 63.7499C228.71 63.729 228.764 63.7487 228.785 63.7942L229.158 64.606C229.179 64.6512 229.159 64.7048 229.114 64.7255C229.102 64.7311 229.089 64.7337 229.076 64.7337ZM228.33 63.1101C228.296 63.1101 228.263 63.0908 228.248 63.0576L228.082 62.6975C228.006 62.5327 227.966 62.3591 227.961 62.1816C227.96 62.1318 227.999 62.0904 228.049 62.0892C228.098 62.095 228.14 62.1274 228.141 62.177C228.145 62.33 228.18 62.4798 228.246 62.6222L228.412 62.9823C228.432 63.0276 228.413 63.081 228.367 63.1019C228.355 63.1074 228.342 63.1101 228.33 63.1101ZM228.345 61.4464C228.324 61.4464 228.304 61.4393 228.287 61.425C228.249 61.3924 228.244 61.3356 228.276 61.2978C228.487 61.0501 228.78 60.8913 229.101 60.8501C229.149 60.8422 229.195 60.8785 229.202 60.9281C229.208 60.9774 229.173 61.0226 229.124 61.0289C228.847 61.0643 228.595 61.2014 228.414 61.4147C228.396 61.4356 228.37 61.4464 228.345 61.4464ZM255.919 61.0193H255.025C254.976 61.0193 254.935 60.9791 254.935 60.9293C254.935 60.8795 254.976 60.8393 255.025 60.8393H255.919C255.969 60.8393 256.009 60.8795 256.009 60.9293C256.009 60.9791 255.969 61.0193 255.919 61.0193ZM254.132 61.0193H253.238C253.188 61.0193 253.148 60.9791 253.148 60.9293C253.148 60.8795 253.188 60.8393 253.238 60.8393H254.132C254.182 60.8393 254.222 60.8795 254.222 60.9293C254.222 60.9791 254.182 61.0193 254.132 61.0193ZM252.345 61.0193H251.451C251.401 61.0193 251.361 60.9791 251.361 60.9293C251.361 60.8795 251.401 60.8393 251.451 60.8393H252.345C252.394 60.8393 252.435 60.8795 252.435 60.9293C252.435 60.9791 252.394 61.0193 252.345 61.0193ZM250.558 61.0193H249.664C249.614 61.0193 249.574 60.9791 249.574 60.9293C249.574 60.8795 249.614 60.8393 249.664 60.8393H250.558C250.607 60.8393 250.648 60.8795 250.648 60.9293C250.648 60.9791 250.607 61.0193 250.558 61.0193ZM248.77 61.0193H247.877C247.827 61.0193 247.787 60.9791 247.787 60.9293C247.787 60.8795 247.827 60.8393 247.877 60.8393H248.77C248.82 60.8393 248.86 60.8795 248.86 60.9293C248.86 60.9791 248.82 61.0193 248.77 61.0193ZM246.983 61.0193H246.09C246.04 61.0193 246 60.9791 246 60.9293C246 60.8795 246.04 60.8393 246.09 60.8393H246.983C247.033 60.8393 247.073 60.8795 247.073 60.9293C247.073 60.9791 247.033 61.0193 246.983 61.0193ZM245.196 61.0193H244.302C244.253 61.0193 244.212 60.9791 244.212 60.9293C244.212 60.8795 244.253 60.8393 244.302 60.8393H245.196C245.246 60.8393 245.286 60.8795 245.286 60.9293C245.286 60.9791 245.246 61.0193 245.196 61.0193ZM243.409 61.0193H242.515C242.465 61.0193 242.425 60.9791 242.425 60.9293C242.425 60.8795 242.465 60.8393 242.515 60.8393H243.409C243.459 60.8393 243.499 60.8795 243.499 60.9293C243.499 60.9791 243.459 61.0193 243.409 61.0193ZM241.622 61.0193H240.728C240.678 61.0193 240.638 60.9791 240.638 60.9293C240.638 60.8795 240.678 60.8393 240.728 60.8393H241.622C241.672 60.8393 241.712 60.8795 241.712 60.9293C241.712 60.9791 241.672 61.0193 241.622 61.0193ZM239.834 61.0193H238.941C238.891 61.0193 238.851 60.9791 238.851 60.9293C238.851 60.8795 238.891 60.8393 238.941 60.8393H239.834C239.884 60.8393 239.925 60.8795 239.925 60.9293C239.925 60.9791 239.884 61.0193 239.834 61.0193ZM238.047 61.0193H237.154C237.104 61.0193 237.064 60.9791 237.064 60.9293C237.064 60.8795 237.104 60.8393 237.154 60.8393H238.047C238.097 60.8393 238.137 60.8795 238.137 60.9293C238.137 60.9791 238.097 61.0193 238.047 61.0193ZM236.26 61.0193H235.367C235.317 61.0193 235.276 60.9791 235.276 60.9293C235.276 60.8795 235.317 60.8393 235.367 60.8393H236.26C236.31 60.8393 236.35 60.8795 236.35 60.9293C236.35 60.9791 236.31 61.0193 236.26 61.0193ZM234.473 61.0193H233.579C233.53 61.0193 233.489 60.9791 233.489 60.9293C233.489 60.8795 233.53 60.8393 233.579 60.8393H234.473C234.523 60.8393 234.563 60.8795 234.563 60.9293C234.563 60.9791 234.523 61.0193 234.473 61.0193ZM232.686 61.0193H231.792C231.743 61.0193 231.702 60.9791 231.702 60.9293C231.702 60.8795 231.743 60.8393 231.792 60.8393H232.686C232.736 60.8393 232.776 60.8795 232.776 60.9293C232.776 60.9791 232.736 61.0193 232.686 61.0193ZM230.899 61.0193H230.005C229.956 61.0193 229.915 60.9791 229.915 60.9293C229.915 60.8795 229.956 60.8393 230.005 60.8393H230.899C230.949 60.8393 230.989 60.8795 230.989 60.9293C230.989 60.9791 230.949 61.0193 230.899 61.0193Z" fill="#303030"/>
<path d="M257.266 61.0193H256.815C256.766 61.0193 256.725 60.9791 256.725 60.9293C256.725 60.8795 256.766 60.8393 256.815 60.8393H257.266C257.316 60.8393 257.356 60.8795 257.356 60.9293C257.356 60.9791 257.316 61.0193 257.266 61.0193Z" fill="#303030"/>
<path d="M240.728 86.672C240.953 86.1079 240.441 85.3731 239.583 85.0312C238.726 84.689 237.848 84.8691 237.623 85.4334C237.398 85.9975 237.911 86.7323 238.768 87.0742C239.626 87.4164 240.503 87.2363 240.728 86.672Z" fill="#303030"/>
<path d="M257.786 62.472C256.889 62.472 256.14 61.7813 256.117 60.9322C256.107 60.5355 256.255 60.1582 256.535 59.8702C256.838 59.5589 257.254 59.3874 257.707 59.3874C258.604 59.3874 259.352 60.0781 259.376 60.9272C259.386 61.3241 259.238 61.7012 258.957 61.9894C258.655 62.3007 258.239 62.472 257.786 62.472ZM257.707 59.5676C257.304 59.5676 256.933 59.7196 256.665 59.9958C256.419 60.2488 256.288 60.5794 256.298 60.9272C256.318 61.6798 256.986 62.2918 257.786 62.2918C258.189 62.2918 258.56 62.1398 258.828 61.8636C259.075 61.6108 259.205 61.28 259.195 60.9322C259.175 60.1796 258.507 59.5676 257.707 59.5676Z" fill="#303030"/>
<path d="M257.748 61.6401C258.14 61.6401 258.458 61.3223 258.458 60.9302C258.458 60.5382 258.14 60.2202 257.748 60.2202C257.355 60.2202 257.038 60.5382 257.038 60.9302C257.038 61.3223 257.355 61.6401 257.748 61.6401Z" fill="#76F7FF"/>
<path d="M259.244 64.3075H250.584C250.501 64.3075 250.433 64.2399 250.433 64.1563C250.433 64.0728 250.501 64.0052 250.584 64.0052H259.244C259.327 64.0052 259.395 64.0728 259.395 64.1563C259.395 64.2399 259.327 64.3075 259.244 64.3075Z" fill="#76F7FF"/>
<path d="M259.244 65.1932H250.584C250.501 65.1932 250.433 65.1256 250.433 65.0421C250.433 64.9584 250.501 64.8908 250.584 64.8908H259.244C259.327 64.8908 259.395 64.9584 259.395 65.0421C259.395 65.1256 259.327 65.1932 259.244 65.1932Z" fill="#76F7FF"/>
<path d="M213.066 53.5928H204.407C204.323 53.5928 204.256 53.5252 204.256 53.4416C204.256 53.358 204.323 53.2905 204.407 53.2905H213.066C213.15 53.2905 213.218 53.358 213.218 53.4416C213.218 53.5252 213.15 53.5928 213.066 53.5928Z" fill="#76F7FF"/>
<path d="M213.066 54.861H204.407C204.323 54.861 204.256 54.7934 204.256 54.7098C204.256 54.6262 204.323 54.5586 204.407 54.5586H213.066C213.15 54.5586 213.218 54.6262 213.218 54.7098C213.218 54.7934 213.15 54.861 213.066 54.861Z" fill="#76F7FF"/>
<path d="M223.896 95.0035L220.569 89.3645L218.659 89.3296L221.986 94.9686L223.896 95.0035Z" fill="#18204D"/>
<path d="M223.956 95.0375L228.641 95.2011L225.313 89.5622L220.629 89.3985L219.819 89.3703L223.146 95.0093L223.956 95.0375Z" fill="#18204D"/>
<path d="M222.617 96.041L225.945 101.681L227.468 101.716L224.14 96.0761L222.617 96.041Z" fill="#18204D"/>
<path d="M243.592 95.7236L240.264 90.0847L233.612 89.8523L236.94 95.4912L243.592 95.7236Z" fill="#18204D"/>
<path d="M236.114 95.4616L232.786 89.8224L226.134 89.5902L229.462 95.2293L236.114 95.4616Z" fill="#18204D"/>
<path d="M217.831 89.3015L211.178 89.0691L214.506 94.7082L221.159 94.9404L217.831 89.3015Z" fill="#18204D"/>
<path d="M244.225 96.7959L237.573 96.5637L240.901 102.204L247.553 102.436L244.225 96.7959Z" fill="#18204D"/>
<path d="M230.096 96.3031L233.424 101.943L240.076 102.176L236.748 96.5354L230.096 96.3031Z" fill="#18204D"/>
<path d="M224.591 96.11L223.781 96.0817L227.109 101.722L227.919 101.75L232.603 101.914L229.275 96.2734L224.591 96.11Z" fill="#18204D"/>
<path d="M215.14 95.7805L218.468 101.421L225.121 101.653L221.793 96.0129L215.14 95.7805Z" fill="#18204D"/>
<path opacity="0.160784" d="M266.795 103.283L266.142 102.176L250.895 76.3361L249.667 74.2552C249.31 73.65 248.64 73.146 248.171 73.1297L210.61 71.818C210.141 71.8016 210.049 72.2789 210.406 72.8841L211.634 74.965L213.892 78.7923H213.892L215.907 82.2073L219.235 87.8476L220.105 89.3221L223.544 95.1506L224.066 96.0337L227.393 101.674L227.534 101.912C227.891 102.517 228.562 103.021 229.031 103.038L266.592 104.349C267.061 104.366 267.152 103.888 266.795 103.283Z" fill="#18204D"/>
<g clip-path="url(#clip13_1_2476)">
<rect x="206" y="151" width="123" height="5" rx="2.5" fill="white" fill-opacity="0.6"/>
</g>
<g clip-path="url(#clip14_1_2476)">
<path fill-rule="evenodd" clip-rule="evenodd" d="M324.615 49.2907C330.665 49.2907 335.569 44.3865 335.569 38.3369C335.569 32.2873 330.665 27.3831 324.615 27.3831C318.566 27.3831 313.661 32.2873 313.661 38.3369C313.661 44.3865 318.566 49.2907 324.615 49.2907Z" fill="#18204D"/>
<path d="M327.992 37.8022L324.08 41.7136L325.682 43.3155L329.594 39.4041L327.992 37.8022Z" fill="#FFE458"/>
<path fill-rule="evenodd" clip-rule="evenodd" d="M319.77 34.0722L323.068 37.3699C323.065 37.3942 323.064 37.419 323.064 37.4441C323.064 37.8084 323.359 38.1038 323.723 38.1038C324.088 38.1038 324.383 37.8084 324.383 37.4441C324.383 37.0797 324.088 36.7844 323.723 36.7844C323.698 36.7844 323.673 36.7858 323.648 36.7886L320.354 33.4944L326.212 34.603H326.217L327.283 38.5165L324.793 41.006L320.88 39.9355L319.77 34.0722Z" fill="#B5CDFB"/>
</g>
</g>
</g>
</g>
<defs>
<filter id="filter0_dd_1_2476" x="157.569" y="-1.90735e-06" width="219.075" height="223.769" filterUnits="userSpaceOnUse" color-interpolation-filters="sRGB">
<feFlood flood-opacity="0" result="BackgroundImageFix"/>
<feColorMatrix in="SourceAlpha" type="matrix" values="0 0 0 0 0 0 0 0 0 0 0 0 0 0 0 0 0 0 127 0" result="hardAlpha"/>
<feOffset dy="13.6922"/>
<feGaussianBlur stdDeviation="13.6922"/>
<feColorMatrix type="matrix" values="0 0 0 0 0 0 0 0 0 0.478431 0 0 0 0 1 0 0 0 0.3 0"/>
<feBlend mode="normal" in2="BackgroundImageFix" result="effect1_dropShadow_1_2476"/>
<feColorMatrix in="SourceAlpha" type="matrix" values="0 0 0 0 0 0 0 0 0 0 0 0 0 0 0 0 0 0 127 0" result="hardAlpha"/>
<feOffset dy="0.68461"/>
<feGaussianBlur stdDeviation="1.02692"/>
<feColorMatrix type="matrix" values="0 0 0 0 0 0 0 0 0 0 0 0 0 0 0 0 0 0 0.05 0"/>
<feBlend mode="normal" in2="effect1_dropShadow_1_2476" result="effect2_dropShadow_1_2476"/>
<feBlend mode="normal" in="SourceGraphic" in2="effect2_dropShadow_1_2476" result="shape"/>
</filter>
<clipPath id="clip0_1_2476">
<rect x="0.876709" width="362.075" height="209.699" rx="13.6922" fill="white"/>
</clipPath>
<clipPath id="clip1_1_2476">
<rect width="156.692" height="182.315" fill="white" transform="translate(14.5689 13.6922)"/>
</clipPath>
<clipPath id="clip2_1_2476">
<rect width="149.338" height="24.646" fill="white" transform="translate(14.5689 38.0693)"/>
</clipPath>
<clipPath id="clip3_1_2476">
<rect width="16" height="16" fill="white" transform="translate(18.5689 42.0693)"/>
</clipPath>
<clipPath id="clip4_1_2476">
<rect width="111" height="11.2584" fill="white" transform="translate(52.9071 38.0693)"/>
</clipPath>
<clipPath id="clip5_1_2476">
<rect width="149.338" height="24.646" fill="white" transform="translate(14.5689 82.7152)"/>
</clipPath>
<clipPath id="clip6_1_2476">
<rect width="111" height="11.2584" fill="white" transform="translate(52.9071 82.7152)"/>
</clipPath>
<clipPath id="clip7_1_2476">
<rect width="143.338" height="24.646" fill="white" transform="translate(14.5689 127.361)"/>
</clipPath>
<clipPath id="clip8_1_2476">
<rect width="105" height="24" fill="white" transform="translate(52.9071 127.361)"/>
</clipPath>
<clipPath id="clip9_1_2476">
<rect width="156.692" height="24" fill="white" transform="translate(14.5689 172.007)"/>
</clipPath>
<clipPath id="clip10_1_2476">
<rect width="20" height="20" fill="white" transform="translate(16.5689 174.007)"/>
</clipPath>
<clipPath id="clip11_1_2476">
<rect width="119" height="11.2584" fill="white" transform="translate(52.2611 172.007)"/>
</clipPath>
<clipPath id="clip12_1_2476">
<rect x="184.953" y="13.6922" width="164.306" height="169" rx="6.8461" fill="white"/>
</clipPath>
<clipPath id="clip13_1_2476">
<rect width="123" height="16" fill="white" transform="translate(206 151)"/>
</clipPath>
<clipPath id="clip14_1_2476">
<rect width="21.9075" height="50.6611" fill="white" transform="translate(313.661 27.3831)"/>
</clipPath>
</defs>
</svg>
