<svg xmlns="http://www.w3.org/2000/svg" width="80" viewBox="0 0 652.75 381.25"><defs><style>.cls-1,.cls-2{fill:#fff;}.cls-2{font-size:104.56px;font-family:PoorRichard-Regular, Poor Richard;}</style></defs><title>Fichier 3</title><g id="Calque_2" data-name="Calque 2"><g id="Calque_1-2" data-name="Calque 1"><path class="cls-1" d="M550.32,12a8.43,8.43,0,0,1,1.28.09,11.71,11.71,0,0,1,3,.95,21.51,21.51,0,0,1,4.89,3,6.66,6.66,0,0,1,2.37,3.61,16.14,16.14,0,0,1,.45,8.92,32.77,32.77,0,0,1-3.78,8.62c-5.41,9.36-6,19.15-1.44,29.28,6.06,13.29,12.09,26.61,13.47,41.1a146.55,146.55,0,0,1,.49,19.87c-.36,7.17,1.85,11.32,7.93,14.87l-36.22,93c-9.41-5.37-18.17-11.78-28-16.56C500.9,211.94,486.27,207,472.6,200c-2.78-1.43-5.87-2.36-8.8-3.54l-15.62-8.81a39.56,39.56,0,0,0-4.57-3.92c-8-5.32-16.3-10.16-23.95-15.87-9.72-7.31-9.42-13.46-5.08-24.1,1.46-3.58,2-6.53.51-10.39-4.08-10.55-1.56-16.94,7.93-23a6.22,6.22,0,0,0,2.28-5c-.23-4.07-1.2-8.11-1.85-12.18L426,88.85c3.84-2.4,8-4.38,11.37-7.3,1.66-1.5,1.67-4.6,2.48-7,1.52-4.42,2.1-9.5,4.8-13.1,4-5.3,8.11-7.62,13.37-7.62,4.8,0,10.54,1.93,18,5.29,11,5,21.2,11.74,31.73,17.68,3.11,1.73,5.52,2.64,7.38,2.64,3.2,0,4.76-2.69,5.43-8.49,1.17-9.68,1.73-19.49,3-29.19,1.49-11.67,8-20.63,17.81-27.12a19.64,19.64,0,0,1,4.88-1.9,13.9,13.9,0,0,1,4.08-.72m0-12h0a25.28,25.28,0,0,0-7.63,1.26l-.12,0-.78.24a25.53,25.53,0,0,0-7,3.07c-13.26,8.78-21.25,21.09-23.1,35.62C511,45.55,510.48,50.87,510,56c-.24,2.66-.47,5.24-.73,7.79l-5.14-3A234.36,234.36,0,0,0,481,48.17c-10-4.52-16.65-6.36-22.94-6.36-9.17,0-16.68,4.06-23,12.41-3.28,4.37-4.56,9.17-5.58,13-.33,1.25-.65,2.43-1,3.39l0,.09a29.22,29.22,0,0,0-.85,3.18c-1.2.8-2.6,1.6-4.05,2.44-1.27.73-2.58,1.49-3.93,2.33a12,12,0,0,0-3.94,4L413.15,87a12,12,0,0,0-1.55,8c.22,1.38.46,2.7.7,4s.47,2.55.65,3.75c-11.51,8.94-14.56,20.66-9.06,34.9l.06.15a10.73,10.73,0,0,1-.48,1.38c-2.47,6-4.59,12.62-3.47,19.7s5.18,13,12.45,18.52c5.37,4,10.91,7.53,16.27,10.95,2.85,1.82,5.55,3.53,8.23,5.32l.11.07a19.73,19.73,0,0,1,1.69,1.49c.47.45.95.89,1.43,1.32a12,12,0,0,0,2.1,1.5l15.62,8.81a12,12,0,0,0,1.41.68c1.15.46,2.25.87,3.32,1.26a42.91,42.91,0,0,1,4.47,1.82c7.84,4,15.88,7.38,23.66,10.61,6.52,2.71,12.68,5.28,18.71,8.2a170.53,170.53,0,0,1,16.19,9.41c3.58,2.25,7.27,4.58,11.12,6.78a12,12,0,0,0,17.13-6.07l36.22-93A12,12,0,0,0,585,131.9a6.47,6.47,0,0,1-1.85-1.37h0A7.34,7.34,0,0,1,583,128v-.09a158.47,158.47,0,0,0-.53-21.5c-1.58-16.61-8.43-31.65-14.48-44.91-2.92-6.54-2.65-12.19.88-18.31a44.23,44.23,0,0,0,5.06-11.79,28.18,28.18,0,0,0-.63-15.3l0-.08a18.59,18.59,0,0,0-6.37-9.42,33.44,33.44,0,0,0-7.49-4.52,23.29,23.29,0,0,0-6-1.83A20.59,20.59,0,0,0,550.32,0Z"/><path class="cls-1" d="M0,290.38,40.54,98.6h100L132,138.74H80.15l-8.26,38.83h48l-8.79,40.27h-48L48,290.38Z"/><path class="cls-1" d="M132.49,297.86,164,149.23H201.1l-1.44,23.09h1a73,73,0,0,1,11.15-15.22A33.43,33.43,0,0,1,224.32,149a46.46,46.46,0,0,1,15.61-2.43,52.1,52.1,0,0,1,5.71.33,31.57,31.57,0,0,1,5.57,1.11L239,196.85a29.64,29.64,0,0,0-6.63-2,41.91,41.91,0,0,0-7.94-.72,25.34,25.34,0,0,0-10.56,2.16,26,26,0,0,0-8.59,6.36,38.14,38.14,0,0,0-6.56,10.56,81.23,81.23,0,0,0-4.59,14.63l-14.69,70.05Z"/><path class="cls-1" d="M312.26,301.53q-16.92,0-29-6.56a44.08,44.08,0,0,1-18.43-18.76q-6.36-12.2-6.36-29a138.45,138.45,0,0,1,4.66-35.48,104,104,0,0,1,14.49-32.14,74.52,74.52,0,0,1,25-23.15q15.15-8.66,36-8.66,21.91,0,35,10.82t13.05,29.06a50.37,50.37,0,0,1-5,22.83A44.41,44.41,0,0,1,367,227.22q-9.71,6.76-23.81,10.23a136.32,136.32,0,0,1-32.47,3.48h-5.25a21.12,21.12,0,0,0-.33,2.82q-.07,1.38-.07,2.56,0,10.5,4.79,15.09T324.06,266a64.71,64.71,0,0,0,19.48-2.82,118.68,118.68,0,0,0,20.4-9v34a97.58,97.58,0,0,1-24,10.17A108,108,0,0,1,312.26,301.53Zm-1.05-91.7h2.23q11.41,0,17.84-2.62t9.05-6.89a16.88,16.88,0,0,0,2.62-9,9.33,9.33,0,0,0-2.69-6.89q-2.69-2.69-7.54-2.69a13.88,13.88,0,0,0-9.12,3.61,30.61,30.61,0,0,0-7.41,10A64.85,64.85,0,0,0,311.21,209.84Z"/><path class="cls-1" d="M437.08,299.17a121.54,121.54,0,0,1-24.53-2.1,72.34,72.34,0,0,1-18.37-6.43V250.37a87.72,87.72,0,0,0,19.87,8.72,66.93,66.93,0,0,0,18.56,2.82,30.4,30.4,0,0,0,7-.85,14.46,14.46,0,0,0,6.1-3,7.14,7.14,0,0,0,2.49-5.77,13.17,13.17,0,0,0-1.12-5.31,19.47,19.47,0,0,0-4.72-5.9,93.12,93.12,0,0,0-11.09-8.33,61.55,61.55,0,0,1-13.51-11.94,38,38,0,0,1-7-12.86,53.65,53.65,0,0,1,4-39.35q6-10.89,18.37-17.12t31-6.23a89.52,89.52,0,0,1,25.58,3.54,80.68,80.68,0,0,1,21.51,9.84l-16.14,32.8A57.41,57.41,0,0,0,479.78,183q-8.33-3.08-14.1-3.08a9.34,9.34,0,0,0-6.56,2.16q-2.36,2.16-2.36,6.49a9.16,9.16,0,0,0,1.25,4.66A17.49,17.49,0,0,0,462.6,198q3.34,2.56,9.51,6.49a65.1,65.1,0,0,1,13.71,11,41,41,0,0,1,8.26,13.31,48.81,48.81,0,0,1,2.82,17.38q0,16-7.21,27.94a48.18,48.18,0,0,1-20.6,18.5Q455.71,299.17,437.08,299.17Z"/><path class="cls-1" d="M511.59,296.55,555,92.43h46.83l-7.48,34.89q-1.18,5.77-3,11.94t-3.74,12.07q-2,5.9-3.94,10.89h.92a47,47,0,0,1,9.31-9.51,35.74,35.74,0,0,1,10.89-5.58,43.11,43.11,0,0,1,12.86-1.84q11.81,0,19.55,5.05a31.08,31.08,0,0,1,11.61,13.84,49,49,0,0,1,3.87,19.94,100,100,0,0,1-.85,12.59q-.85,6.69-2,12.86l-18.36,87h-47l17.19-82q1-4.33,1.84-9.51a66,66,0,0,0,.79-9.9A11.6,11.6,0,0,0,602,187.6a8.05,8.05,0,0,0-6.63-2.82,11.46,11.46,0,0,0-7.35,3.08q-3.67,3.08-7,10.49T575,218.63l-16.27,77.92Z"/><text class="cls-2" transform="translate(452.7 358.69)">soap</text></g></g></svg>