<svg width="200" height="150" viewBox="0 0 200 150" fill="none" xmlns="http://www.w3.org/2000/svg">
<path opacity="0.4" d="M181.716 127.228C177.984 131.4 89.8916 129.456 75.1966 129.638C37.7464 106.572 34.7141 70.7542 42.4634 51.0055C45.9621 42.09 55.8884 32.6042 67.7324 30.6087C82.2719 28.1465 95.0749 38.4358 100.88 43.1268C118.815 57.5885 118.685 72.6463 128.689 73.4755C139.678 74.3828 143.462 54.893 159.22 53.8823C168.965 53.2603 175.91 60.1023 176.766 60.9575C184.904 69.2253 185.785 83.1945 180.368 91.3065C175.055 99.263 164.636 100.17 165.025 103.229C165.362 106.131 176.299 104.265 181.483 110.874C184.93 115.357 185.266 123.288 181.716 127.228Z" fill="#B5CDFB"/>
<path opacity="0.5" d="M145.147 72.6202L127.887 66.9962L128.12 82.8575L145.381 88.4815L145.147 72.6202Z" fill="#FEEFF0"/>
<path d="M179.955 122.303L178.452 20.5527C178.452 20.2935 178.27 20.0084 178.063 19.9307L138.047 6.94622C137.84 6.86847 137.658 7.02397 137.658 7.30904L137.969 29.3645L164.845 38.306C165.053 38.3837 165.208 38.6427 165.208 38.902L166.452 122.692L179.618 127.02C179.825 127.098 180.007 126.942 180.007 126.657L179.955 122.303Z" fill="#2249B3"/>
<path d="M137.424 49.9942V50.2275L137.45 50.2535C137.502 50.3312 137.502 50.4607 137.45 50.5127L136.958 51.005C137.061 51.1605 137.191 51.2642 137.346 51.316C137.657 51.4197 137.891 51.1865 137.891 50.8237C137.917 50.4607 137.709 50.124 137.424 49.9942ZM137.295 49.9425C137.035 49.8907 136.828 50.124 136.828 50.4607C136.828 50.5127 136.828 50.5645 136.854 50.6422L137.269 50.2017L137.295 50.1757V49.9425Z" fill="#75E0E6"/>
<path d="M137.19 39.6277C137.112 39.6017 137.061 39.6535 137.061 39.7572L137.087 41.105C137.087 41.2087 137.164 41.2865 137.242 41.3122C137.32 41.3382 137.372 41.2865 137.372 41.1827L137.346 39.835C137.346 39.7572 137.294 39.6535 137.19 39.6277Z" fill="#75E0E6"/>
<path d="M137.501 59.9462C137.423 59.9205 137.371 59.9722 137.371 60.076L137.397 61.4235C137.397 61.5272 137.475 61.605 137.553 61.631C137.63 61.6567 137.682 61.605 137.682 61.5012L137.656 60.1537C137.656 60.076 137.579 59.9722 137.501 59.9462Z" fill="#75E0E6"/>
<path d="M143.462 44.915C143.436 44.915 143.436 44.915 143.41 44.915L142.658 45.6147C142.632 45.6407 142.632 45.6925 142.658 45.7445C142.684 45.7702 142.684 45.7702 142.71 45.7962C142.736 45.7962 142.736 45.7962 142.762 45.7962L143.513 45.0965C143.539 45.0705 143.539 45.0187 143.513 44.9667C143.487 44.941 143.487 44.915 143.462 44.915Z" fill="#75E0E6"/>
<path d="M132.034 55.4893C132.008 55.4893 132.008 55.4893 131.982 55.4893L131.23 56.189C131.204 56.215 131.204 56.2668 131.23 56.3185C131.256 56.3445 131.256 56.3445 131.282 56.3705C131.308 56.3705 131.308 56.3705 131.334 56.3705L132.086 55.6708C132.111 55.6448 132.111 55.593 132.086 55.541C132.06 55.5153 132.034 55.4893 132.034 55.4893Z" fill="#75E0E6"/>
<path d="M142.894 59.0135C142.868 59.0135 142.868 59.0135 142.842 59.0135C142.816 59.0392 142.816 59.0912 142.842 59.143L143.619 60.3352C143.645 60.361 143.645 60.361 143.671 60.387C143.697 60.387 143.697 60.387 143.723 60.387C143.749 60.361 143.749 60.3092 143.723 60.2575L142.945 59.0652C142.945 59.0392 142.92 59.0392 142.894 59.0135Z" fill="#75E0E6"/>
<path d="M131.048 40.8715C131.022 40.8715 131.022 40.8715 130.996 40.8715C130.97 40.8975 130.97 40.9493 130.996 41.0013L131.774 42.1933C131.8 42.2193 131.8 42.2193 131.825 42.2453C131.851 42.2453 131.851 42.2453 131.877 42.2453C131.903 42.2193 131.903 42.1675 131.877 42.1155L131.1 40.9235C131.074 40.8975 131.048 40.8715 131.048 40.8715Z" fill="#75E0E6"/>
<path d="M146.132 53.3115L145.044 52.9488C144.966 52.9228 144.914 52.9748 144.914 53.0783C144.914 53.182 144.992 53.2858 145.07 53.3115L146.158 53.6745C146.236 53.7003 146.288 53.6485 146.288 53.5448C146.288 53.4413 146.21 53.3375 146.132 53.3115Z" fill="#75E0E6"/>
<path d="M129.622 47.9733L128.637 47.6623C128.56 47.6363 128.508 47.6883 128.508 47.766C128.508 47.8438 128.56 47.9473 128.637 47.9733L129.622 48.2843C129.7 48.3103 129.752 48.2583 129.752 48.1805C129.752 48.077 129.674 47.9733 129.622 47.9733Z" fill="#75E0E6"/>
<path d="M137.242 42.8932C137.19 42.8932 137.164 42.9193 137.164 42.9453L137.268 49.9168V50.15C137.294 50.15 137.32 50.15 137.346 50.15C137.371 50.15 137.397 50.176 137.423 50.202V49.9688L137.32 42.997C137.32 42.9453 137.294 42.8932 137.242 42.8932Z" fill="#75E0E6"/>
<path d="M137.347 50.1763C137.321 50.1763 137.295 50.1763 137.269 50.1763C137.269 50.1763 137.243 50.1763 137.243 50.2023L136.828 50.6428L133.252 54.2713C133.2 54.323 133.2 54.4268 133.252 54.5303C133.278 54.5823 133.304 54.608 133.355 54.608C133.381 54.608 133.433 54.608 133.459 54.5823L136.984 51.0055L137.476 50.5133C137.528 50.4613 137.528 50.3578 137.476 50.254L137.45 50.228C137.398 50.2023 137.373 50.1763 137.347 50.1763Z" fill="#75E0E6"/>
<path d="M163.496 113.517L128.404 102.114L128.534 111.029V110.692L163.626 122.096L163.496 113.517Z" fill="#75E0E6"/>
<path d="M157.043 45.044L150.227 42.8152L150.253 44.7072L157.069 46.936L157.043 45.044Z" fill="#75E0E6"/>
<path d="M162.693 58.5733L156.551 56.5778L156.655 62.746L162.797 64.7415L162.693 58.5733Z" fill="#75E0E6"/>
<path d="M135.118 72.4912C132.63 71.6877 130.66 73.502 130.686 76.586C130.738 79.6442 132.785 82.8062 135.273 83.6095C137.761 84.413 139.731 82.5987 139.705 79.5147C139.679 76.4565 137.606 73.3205 135.118 72.4912Z" fill="#B5CDFB"/>
<path d="M98.7547 112.611C96.9925 113.595 94.919 113.906 92.9495 115.539C92.0942 116.265 91.2387 117.25 90.4612 118.675C90.4612 118.675 88.4398 121.293 85.6147 124.74C85.6147 124.74 85.6147 124.74 85.6147 124.766C80.6128 130.908 73.1748 139.668 70.4793 141.042C68.5873 142.001 64.1037 140.653 59.7495 138.865C54.4107 136.688 49.2272 133.837 49.2272 133.837C46.48 132.67 44.7177 131.53 44.6917 129.897C44.6657 128.42 46.1172 126.58 49.616 123.962C54.644 120.256 60.1902 116.161 64.622 112.922C64.648 112.922 64.648 112.896 64.648 112.896C68.5615 110.071 71.5937 107.868 72.6822 107.194C75.4035 105.483 78.1507 101.103 80.846 98.3043C81.4682 97.6563 82.0642 97.112 82.6862 96.6715C83.4377 96.1533 84.1895 95.8163 84.941 95.7903C84.9927 95.7903 85.0448 95.7903 85.0965 95.7903C85.589 95.8163 86.185 96.0753 86.8847 96.4643C86.8847 96.4643 86.8847 96.4643 86.9107 96.4643C87.429 96.7753 87.9732 97.164 88.5435 97.6305C88.5435 97.6305 88.5695 97.6563 88.6473 97.7083C90.1502 98.9263 91.809 100.637 93.364 102.451C93.39 102.477 93.416 102.503 93.4417 102.529C94.66 103.954 95.8003 105.457 96.7593 106.857C96.8628 107.013 96.9405 107.116 96.9665 107.168C97.433 107.894 97.8737 108.593 98.2105 109.215C99.0917 110.978 99.4027 112.248 98.7547 112.611Z" fill="#75E0E6"/>
<path d="M53.7122 37.7098H20.668V39.7573H53.7122V37.7098Z" fill="#75E0E6"/>
<path d="M136.75 95.6088L128.275 92.8358L128.379 101.414L136.88 104.188L136.75 95.6088Z" fill="#FAECC1"/>
<path d="M53.7122 41.5458H20.668V43.593H53.7122V41.5458Z" fill="#75E0E6"/>
<path d="M17.7136 37.7098H13.9297V41.8045H17.7136V37.7098Z" fill="#75E0E6"/>
<path d="M34.8714 60.9838H19.4766V62.3833H34.8714V60.9838Z" fill="#75E0E6"/>
<path d="M48.502 68.7587H35.8027V79.0477H48.502V68.7587Z" fill="#75E0E6"/>
<path d="M104.665 21.7455H88.5444C88.3889 21.7455 88.2852 21.6159 88.2852 21.4604V12.3117C88.2852 12.1562 88.4147 12.0266 88.5444 12.0266H111.377C111.533 12.0266 111.636 12.1562 111.636 12.3117V21.4864C111.636 21.6419 111.507 21.7714 111.377 21.7714H108.008" fill="#75E0E6"/>
<path d="M186.201 133.551H177.57V135.884H186.201V133.551Z" fill="#75E0E6"/>
<path d="M166.736 139.927L165.233 38.6947C165.233 38.4355 165.052 38.1505 164.844 38.0987L134.392 28.1982L124.828 25.0882C124.621 25.0105 124.439 25.166 124.439 25.4512L125.347 86.3822L125.424 92.1357L125.994 131.089C125.994 131.348 126.176 131.633 126.383 131.711L166.399 144.721C166.607 144.799 166.788 144.644 166.788 144.359L166.736 139.927ZM162.797 64.7415L162.875 70.9097L156.732 68.914L150.59 66.9185L150.512 60.7502L150.434 54.582L156.577 56.5775L162.719 58.5732L162.797 64.7415ZM162.667 56.5517L150.382 52.5605L150.357 50.6685L162.641 54.6597L162.667 56.5517ZM150.331 48.647L150.305 46.755L153.622 47.8435L153.648 49.7355L150.331 48.647ZM157.043 45.0445L157.069 46.9365L150.253 44.7335L150.227 42.8415L157.043 45.0445ZM145.588 33.4077C145.769 33.4595 145.925 33.6927 145.925 33.9C145.925 34.1075 145.795 34.237 145.614 34.1852C145.432 34.1332 145.277 33.9 145.277 33.6927C145.277 33.4855 145.406 33.3557 145.588 33.4077ZM144.136 32.9412C144.318 32.993 144.473 33.2262 144.473 33.4335C144.473 33.6667 144.344 33.7965 144.162 33.7187C143.981 33.6667 143.825 33.4335 143.825 33.2262C143.8 33.019 143.955 32.8892 144.136 32.9412ZM137.191 38.2282C142.737 40.0425 147.324 47.066 147.428 53.8822C147.532 60.7242 143.1 64.8192 137.554 63.005C132.007 61.1907 127.42 54.1672 127.316 47.351C127.213 40.535 131.644 36.44 137.191 38.2282ZM133.122 122.614L131.826 122.199C131.567 122.122 131.359 121.785 131.333 121.474L131.308 119.893C131.308 119.582 131.515 119.375 131.774 119.452L133.07 119.867C133.329 119.945 133.536 120.282 133.562 120.593L133.588 122.174C133.588 122.485 133.381 122.692 133.122 122.614ZM139.99 124.843L138.694 124.428C138.435 124.351 138.227 124.014 138.201 123.703L138.176 122.122C138.176 121.811 138.383 121.603 138.642 121.681L139.938 122.096C140.197 122.174 140.404 122.51 140.43 122.821L140.456 124.402C140.482 124.739 140.249 124.921 139.99 124.843ZM146.884 127.072L145.588 126.657C145.329 126.579 145.121 126.243 145.095 125.932L145.069 124.351C145.069 124.04 145.277 123.832 145.536 123.91L146.832 124.325C147.091 124.402 147.298 124.739 147.324 125.05L147.35 126.631C147.35 126.968 147.143 127.15 146.884 127.072ZM153.752 129.301L152.456 128.886C152.197 128.808 151.989 128.471 151.963 128.16L151.938 126.579C151.938 126.268 152.145 126.061 152.404 126.139L153.7 126.554C153.959 126.631 154.166 126.968 154.192 127.279L154.218 128.86C154.218 129.197 154.011 129.404 153.752 129.301ZM160.646 131.556L159.35 131.141C159.091 131.063 158.883 130.726 158.857 130.415L158.831 128.834C158.831 128.523 159.039 128.316 159.298 128.394L160.594 128.808C160.853 128.886 161.06 129.223 161.06 129.534L161.086 131.115C161.112 131.426 160.905 131.633 160.646 131.556ZM163.497 112.817L164.144 113.025V113.725L163.497 113.517L163.626 122.096L164.274 122.303V123.003L163.626 122.796L163.652 123.832C163.652 124.091 163.497 124.247 163.289 124.169L128.923 112.999C128.716 112.921 128.534 112.662 128.534 112.403L128.379 102.088L127.524 101.803V101.103L128.379 101.388L128.249 92.8097L127.394 92.5245V91.8247L128.249 92.11L128.197 88.948L128.12 83.5312L128.016 83.5055L127.264 83.2722V82.5725L128.12 82.8575L127.886 66.9962L127.031 66.7112V66.0115L127.886 66.2965L127.861 65.1302C127.861 64.871 128.016 64.7155 128.223 64.7932L162.589 75.9635C162.797 76.0412 162.978 76.3005 162.978 76.5597L163.004 77.726L163.652 77.9332V78.633L163.004 78.4257L163.237 94.287L164.818 94.8052V95.505L163.237 94.9867L163.497 112.817Z" fill="#2249B3"/>
<path fill-rule="evenodd" clip-rule="evenodd" d="M46.0405 27.11H20.6676V29.1575H46.0405V27.11ZM137.191 38.5912C131.801 36.829 127.498 40.7942 127.602 47.455C127.706 54.1157 132.138 60.932 137.554 62.6682C142.945 64.4307 147.247 60.4655 147.144 53.8047C147.04 47.17 142.582 40.3537 137.191 38.5912ZM127.317 47.3512C127.213 40.5352 131.645 36.4402 137.191 38.2285C142.738 40.0427 147.325 47.0662 147.429 53.8825C147.532 60.6987 143.101 64.8195 137.554 63.0052C132.008 61.217 127.421 54.1935 127.317 47.3512ZM123.17 94.2087C123.171 94.216 123.173 94.2232 123.174 94.2305C123.176 94.2397 123.178 94.249 123.18 94.2582C123.203 94.2525 123.225 94.246 123.248 94.2347C123.559 94.131 123.792 94.0015 123.922 93.846C125.14 92.4722 128.872 92.239 128.535 94.3902C128.457 94.8307 128.302 95.2712 128.069 95.6602C127.136 97.2152 125.062 98.485 122.807 99.133C121.559 99.4995 120.047 100.327 118.437 101.208C116.405 102.32 114.217 103.517 112.207 103.979C110.523 104.368 108.086 104.342 105.78 103.824L105.779 103.824L105.753 103.824C104.872 103.824 103.965 103.876 103.032 103.979C101.918 104.083 100.777 104.316 99.689 104.679C98.6262 105.042 97.6675 105.82 96.7602 106.856C96.7505 106.866 96.7442 106.876 96.739 106.884C96.7305 106.898 96.7245 106.908 96.7085 106.908C96.2172 105.181 91.0957 100.072 88.5965 97.7335L88.5967 97.7332C89.089 97.2927 89.5815 96.8522 90.0737 96.3857C91.0327 95.5047 91.9397 94.5975 92.769 93.6905C93.132 93.3017 93.4687 92.887 93.7797 92.4722C94.972 90.8915 95.931 89.1032 96.5012 87.937C96.9157 87.1335 97.5637 86.4855 98.3672 86.0707C99.445 85.5377 100.49 84.3172 101.595 83.0277C102.907 81.4957 104.302 79.8665 105.935 79.177C106.764 79.0992 107.879 79.2027 109.097 79.3842C109.265 79.4102 109.336 79.5072 109.408 79.6045C109.479 79.7017 109.55 79.799 109.719 79.8247C109.94 79.8617 110.253 79.8402 110.572 79.8187C110.927 79.7947 111.287 79.7702 111.533 79.8247C113.399 80.2135 115.369 80.706 117.001 81.1465L117.019 81.1515C117.42 81.0282 117.869 80.8895 118.35 80.7405L118.35 80.7402C121.337 79.815 125.575 78.5022 127.524 78.192C128.458 78.0435 129.345 77.4427 130.149 76.8972C131.309 76.111 132.299 75.4397 133.019 76.4037C134.237 78.0365 130.453 81.3022 128.224 80.7837C127.187 81.8465 126.125 82.313 124.751 82.5462C124.419 82.847 124.057 83.198 123.672 83.5725C123.276 83.9567 122.855 84.3655 122.416 84.7685C123.152 87.0192 123.156 90.0467 123.159 92.5637C123.159 93.1445 123.16 93.6982 123.17 94.2087ZM119.308 87.885C119.308 87.885 119.749 91.7207 120.215 94.5715C119.549 94.571 118.858 94.545 118.142 94.4937H118.115H118.09C118.112 94.1655 118.133 93.8395 118.152 93.5177L118.153 93.515V93.5142V93.514C118.202 92.7202 118.249 91.9545 118.323 91.2542C118.531 89.0512 119.308 87.885 119.308 87.885ZM20.6676 30.946H46.0405V32.9935H20.6676V30.946ZM32.1755 68.7587H19.476V91.3842H32.1755V68.7587ZM8.17578 118.727H26.836V129.016H8.17578V118.727ZM76.5117 45.9515H85.5827V39.887H76.5117V45.9515ZM74.2037 45.9515H65.1327V39.887H74.2037V45.9515ZM65.1455 38.7272H85.594V37.535H65.1455V38.7272ZM85.5827 50.4637H76.5117V49.2717H85.5827V50.4637ZM65.1327 50.4637H74.2037V49.2717H65.1327V50.4637ZM85.595 59.956H65.1465V53.8912H85.595V59.956ZM65.1465 52.7315H85.595V51.5395H65.1465V52.7315ZM85.5827 48.3955H76.5117V47.7995H85.5827V48.3955ZM65.1327 48.3955H74.2037V47.7995H65.1327V48.3955ZM74.2037 36.5617H65.1327V35.9657H74.2037V36.5617Z" fill="#2249B3"/>
<path fill-rule="evenodd" clip-rule="evenodd" d="M8.39648 98.1097H27.0569V116.77H8.39648V98.1097ZM8.78526 98.4985V116.381H26.6681V98.4985H8.78526Z" fill="#75E0E6"/>
<path fill-rule="evenodd" clip-rule="evenodd" d="M10.5605 52.2365H57.1077V52.6253H10.5605V52.2365Z" fill="#75E0E6"/>
<path d="M6.69922 44.889V18.8423C6.69922 16.7171 8.40974 15.0066 10.5349 15.0066H57.1078C59.2331 15.0066 60.9436 16.7171 60.9436 18.8423V44.889" stroke="#161616" stroke-width="0.375" stroke-miterlimit="10" stroke-linecap="round"/>
<path opacity="0.36" d="M173.111 131.245L171.634 29.4942C171.634 29.2352 171.452 28.95 171.245 28.8982L131.203 15.8879C130.996 15.8101 130.814 15.9656 130.814 16.2507L130.97 27.11L165.103 38.5652L166.606 133.266C166.606 133.525 172.774 136.013 172.774 136.013C172.982 136.091 173.163 135.936 173.163 135.651L173.111 131.245Z" fill="#75E0E6"/>
<path d="M137.528 61.6315C137.45 61.6055 137.398 61.5018 137.372 61.424L137.346 60.0763C137.346 59.9728 137.398 59.9208 137.476 59.9468C137.554 59.9728 137.631 60.0763 137.631 60.154L137.657 61.5018C137.657 61.6055 137.605 61.6573 137.528 61.6315ZM131.282 56.3703C131.256 56.3703 131.256 56.3443 131.23 56.3185C131.204 56.2665 131.204 56.2148 131.23 56.1888L131.981 55.489C132.007 55.489 132.007 55.4633 132.033 55.489C132.059 55.489 132.059 55.515 132.085 55.541C132.111 55.5928 132.111 55.6445 132.085 55.6705L131.334 56.3703C131.308 56.3703 131.282 56.3703 131.282 56.3703ZM143.696 60.3873C143.67 60.3873 143.67 60.3615 143.644 60.3355L142.867 59.1433C142.841 59.0915 142.841 59.0398 142.867 59.0138C142.893 59.0138 142.893 58.9878 142.918 59.0138C142.944 59.0138 142.944 59.0398 142.97 59.0655L143.748 60.2578C143.774 60.3095 143.774 60.3615 143.748 60.3873C143.722 60.3873 143.696 60.4133 143.696 60.3873ZM128.586 47.9473C128.509 47.9213 128.457 47.8175 128.431 47.714C128.431 47.6103 128.483 47.5585 128.56 47.5843L129.649 47.9473C129.727 47.973 129.779 48.0768 129.804 48.1545C129.804 48.2583 129.753 48.31 129.675 48.284L128.586 47.9473ZM145.07 53.312C144.992 53.286 144.94 53.1825 144.914 53.0788C144.914 52.975 144.966 52.9233 145.044 52.9493L146.132 53.312C146.21 53.338 146.262 53.4415 146.288 53.5193C146.288 53.623 146.236 53.6748 146.158 53.649L145.07 53.312ZM138.875 51.8088C138.72 51.757 138.616 51.5755 138.59 51.3943V50.6945C138.59 50.513 138.694 50.4093 138.849 50.4613L141.674 51.3683C141.83 51.42 141.934 51.6015 141.96 51.783V52.4828C141.96 52.664 141.856 52.7678 141.7 52.716L138.875 51.8088ZM131.826 42.2455C131.8 42.2455 131.8 42.2195 131.774 42.1935L130.997 41.0015C130.971 40.9495 130.971 40.8978 130.997 40.8718C131.023 40.8718 131.023 40.846 131.048 40.8718C131.074 40.8718 131.074 40.8978 131.1 40.9238L131.878 42.1158C131.904 42.1678 131.904 42.2195 131.878 42.2455C131.852 42.2455 131.852 42.2455 131.826 42.2455ZM137.294 49.9428L137.191 42.971C137.191 42.9193 137.217 42.8933 137.269 42.9193C137.32 42.9193 137.346 42.971 137.346 43.023L137.45 49.9948C137.709 50.1243 137.942 50.487 137.942 50.824C137.942 51.1868 137.709 51.42 137.398 51.3165C137.243 51.2645 137.113 51.161 137.009 51.0055L133.485 54.582C133.459 54.6078 133.407 54.6078 133.381 54.6078C133.355 54.6078 133.303 54.582 133.277 54.53C133.225 54.4523 133.225 54.3228 133.277 54.271L136.854 50.6425C136.854 50.5908 136.828 50.539 136.828 50.4613C136.802 50.0983 137.009 49.891 137.294 49.9428ZM142.711 45.7703C142.685 45.7703 142.685 45.7443 142.659 45.7183C142.633 45.6665 142.633 45.6148 142.659 45.5888L143.411 44.889C143.437 44.889 143.437 44.863 143.463 44.889C143.489 44.889 143.489 44.915 143.515 44.9408C143.54 44.9928 143.54 45.0445 143.515 45.0705L142.763 45.7703C142.737 45.796 142.737 45.796 142.711 45.7703ZM137.217 41.3125C137.139 41.2865 137.087 41.1828 137.061 41.105L137.035 39.7575C137.035 39.6538 137.087 39.602 137.165 39.6278C137.243 39.6538 137.32 39.7575 137.32 39.8353L137.346 41.1828C137.372 41.2865 137.294 41.3383 137.217 41.3125ZM137.191 38.591C131.8 36.8288 127.498 40.82 127.601 47.4548C127.705 54.1155 132.163 60.9318 137.554 62.668C142.944 64.4305 147.247 60.4393 147.143 53.8045C147.039 47.1438 142.582 40.3535 137.191 38.591Z" fill="#FEEFF0"/>
<path d="M141.701 51.3685L138.876 50.4612C138.721 50.4095 138.617 50.5132 138.617 50.6945V51.3942C138.617 51.5757 138.747 51.7572 138.902 51.809L141.727 52.7162C141.883 52.768 141.986 52.6642 141.986 52.4827V51.783C141.96 51.6017 141.857 51.4202 141.701 51.3685Z" fill="#FBD8CB"/>
<path d="M128.406 102.114L128.561 112.429C128.561 112.688 128.743 112.947 128.95 113.025L163.316 124.195C163.523 124.273 163.679 124.118 163.679 123.858L163.653 122.822L128.535 111.418V111.081L128.406 102.114ZM162.59 75.9378L128.224 64.7675C128.017 64.6898 127.861 64.8453 127.861 65.1043L127.887 66.2705L163.005 77.674L162.979 76.5078C162.953 76.2745 162.798 76.0155 162.59 75.9378Z" fill="#FBEFCB"/>
<path d="M144.11 32.9413C143.928 32.8895 143.799 33.019 143.799 33.2265C143.799 33.4338 143.954 33.667 144.136 33.7188C144.317 33.7708 144.447 33.641 144.447 33.4338C144.447 33.2265 144.291 32.9933 144.11 32.9413Z" fill="#FAE9B8"/>
<path d="M145.588 33.4077C145.407 33.3557 145.277 33.4855 145.277 33.6927C145.277 33.9 145.433 34.1332 145.614 34.1852C145.796 34.237 145.925 34.1075 145.925 33.9C145.925 33.6927 145.77 33.4855 145.588 33.4077Z" fill="#FAE9B8"/>
<path d="M163.237 94.961L145.977 89.3627L146.236 107.22L163.497 112.818L163.237 94.961Z" fill="#B5CDFB"/>
<path d="M145.536 98.4595L137.32 95.79L137.45 104.368L145.666 107.038L145.536 98.4595Z" fill="#FEEFF0"/>
<path d="M136.62 86.3305L128.119 83.5573L128.249 92.136L136.75 94.909L136.62 86.3305Z" fill="#B5CDFB"/>
<path d="M133.071 119.841L131.775 119.426C131.516 119.349 131.309 119.53 131.309 119.867L131.334 121.448C131.334 121.759 131.568 122.096 131.827 122.174L133.123 122.588C133.382 122.666 133.589 122.485 133.589 122.148L133.563 120.567C133.563 120.256 133.356 119.919 133.071 119.841Z" fill="#1F818C"/>
<path d="M139.963 122.07L138.668 121.655C138.408 121.578 138.201 121.759 138.201 122.096L138.227 123.677C138.227 123.988 138.46 124.325 138.719 124.403L140.015 124.817C140.274 124.895 140.482 124.714 140.482 124.377L140.456 122.796C140.43 122.485 140.223 122.174 139.963 122.07Z" fill="#1F818C"/>
<path d="M146.833 124.325L145.537 123.91C145.278 123.833 145.07 124.014 145.07 124.351L145.096 125.932C145.096 126.243 145.33 126.58 145.589 126.658L146.885 127.072C147.144 127.15 147.351 126.969 147.351 126.632L147.325 125.051C147.325 124.74 147.092 124.403 146.833 124.325Z" fill="#1F818C"/>
<path d="M153.725 126.554L152.429 126.139C152.17 126.062 151.963 126.243 151.963 126.58L151.989 128.161C151.989 128.472 152.196 128.809 152.481 128.887L153.777 129.301C154.036 129.379 154.244 129.198 154.244 128.861L154.218 127.28C154.192 126.969 153.984 126.632 153.725 126.554Z" fill="#1F818C"/>
<path d="M160.595 128.783L159.299 128.368C159.04 128.29 158.832 128.472 158.832 128.809L158.858 130.39C158.858 130.701 159.065 131.038 159.351 131.115L160.646 131.53C160.906 131.608 161.113 131.426 161.113 131.089L161.087 129.508C161.087 129.197 160.854 128.861 160.595 128.783Z" fill="#1F818C"/>
<path d="M153.596 47.8177L150.305 46.7552L150.331 48.647L153.648 49.7098L153.596 47.8177Z" fill="#B5CDFB"/>
<path d="M162.642 54.66L150.357 50.6688L150.383 52.5608L162.668 56.552L162.642 54.66Z" fill="#FEEFF0"/>
<path d="M162.797 64.7415L156.654 62.7457L156.732 68.914L162.874 70.9097L162.797 64.7415Z" fill="#FBEFCB"/>
<path d="M156.551 56.5778L150.408 54.582L150.512 60.7503L150.59 66.9185L156.732 68.9143L156.654 62.746L156.551 56.5778Z" fill="#B5CDFB"/>
<path d="M145.976 89.3627L145.405 89.1812L145.535 97.76L145.82 97.8635V98.5632L145.535 98.4597L145.665 107.038L146.235 107.22L145.976 89.3627ZM145.717 72.8017L145.146 72.6202L145.38 88.4815L145.95 88.663L145.717 72.8017Z" fill="#161616"/>
<path d="M164.792 94.7795L163.237 94.261L145.951 88.663L145.38 88.4815L128.12 82.8575L127.238 82.5725L127.264 83.2723L128.12 83.5573L136.62 86.3305V85.7603L137.191 85.9418V86.512L145.406 89.1813L145.977 89.3628L163.237 94.961L164.792 95.4793V94.7795Z" fill="#161616"/>
<path d="M136.751 94.909L128.25 92.136L127.395 91.8508V92.5505L128.25 92.8358L136.751 95.583V94.909ZM145.796 97.8378L145.511 97.734L137.321 95.0905V95.7903L145.537 98.4598L145.822 98.5633L145.796 97.8378Z" fill="#161616"/>
<path d="M137.191 85.9418L136.621 85.7603V86.3305L136.751 94.909V95.6088L136.88 104.187L137.45 104.369L137.321 95.7903V95.0905L137.191 86.5118V85.9418Z" fill="#161616"/>
<path d="M164.275 122.303L163.627 122.096L128.535 110.693V111.029V111.392L163.653 122.796L164.275 123.003V122.303Z" fill="#161616"/>
<path d="M164.144 113.025L163.496 112.818L146.236 107.22L145.665 107.038L137.45 104.369L136.88 104.187L128.379 101.414L127.523 101.129V101.829L128.405 102.114L163.496 113.518L164.144 113.725V113.025Z" fill="#161616"/>
<path d="M163.627 77.9075L162.979 77.7L127.861 66.2965L127.006 66.0115V66.7112L127.887 66.9962L145.148 72.6202L145.718 72.8017L163.005 78.3997L163.627 78.6072V77.9075Z" fill="#161616"/>
<path d="M135.169 74.4605C133.563 73.9422 132.293 75.1085 132.319 77.104C132.345 79.0737 133.666 81.0952 135.273 81.6137C136.88 82.132 138.15 80.9657 138.124 78.9702C138.072 77.0262 136.75 75.0047 135.169 74.4605Z" fill="#2249B3"/>
<path opacity="0.1" d="M134.159 82.0022C134.029 83.013 130.945 86.6932 128.224 89.8292C127.187 91.0215 126.202 92.11 125.451 92.9392L125.373 87.1858L128.043 84.3347L132.397 79.6957C133.096 78.97 134.315 79.4625 134.315 80.4733C134.289 80.9398 134.237 81.4322 134.159 82.0022Z" fill="#161616"/>
<path d="M116.949 81.173C119.826 80.2917 125.243 78.5552 127.524 78.1925C129.804 77.8297 131.8 74.7715 133.018 76.4042C134.236 78.037 130.452 81.3025 128.197 80.7842C127.187 81.8207 126.072 82.3392 124.75 82.5207C122.444 84.1015 121.2 85.2677 118.79 87.1597C117.312 88.326 114.487 91.8767 116.509 93.7167C118.504 95.531 120.967 94.9867 123.273 94.2352" stroke="#161616" stroke-width="0.375" stroke-miterlimit="10" stroke-linecap="round"/>
<path opacity="0.1" d="M98.7553 112.61C96.9928 113.595 94.9195 113.906 92.9497 115.539C92.0945 116.264 91.2393 117.249 90.4618 118.675C90.4618 118.675 88.4403 121.292 85.6153 124.739C85.6153 124.739 85.6153 124.739 85.6153 124.765C80.6133 130.908 73.175 139.668 70.4795 141.041C68.5878 142 64.104 140.652 59.75 138.864C64.2855 138.009 71.2052 135.391 72.6047 133.81C74.4707 131.737 81.1833 123.469 85.9002 119.4C87.4812 118.053 88.518 117.016 89.1918 116.109C90.5653 114.295 90.5135 112.973 90.5135 110.666C90.5135 107.219 92.3795 108.774 90.5135 104.161C89.736 102.217 88.2327 100.585 86.7555 99.3665C84.708 97.656 82.7125 96.6712 82.7125 96.6712C83.464 96.153 84.2158 95.816 84.9673 95.79C85.019 95.79 85.071 95.79 85.1228 95.79C85.6153 95.816 86.2112 96.0752 86.911 96.464C86.911 96.464 86.911 96.464 86.937 96.464C87.4552 96.775 87.9995 97.1637 88.5698 97.6302C88.5698 97.6302 88.5958 97.656 88.6735 97.708C90.1765 98.926 91.8352 100.636 93.3902 102.451C93.4162 102.477 93.4422 102.502 93.468 102.528C94.6862 103.954 95.8265 105.457 96.7855 106.857C96.889 107.012 96.9667 107.116 96.9927 107.168C97.4592 107.893 97.8997 108.593 98.2368 109.215C99.092 110.977 99.403 112.247 98.7553 112.61Z" fill="#161616"/>
<path d="M76.0262 136.765C79.6807 132.618 83.05 128.29 85.6157 124.74C87.9482 121.5 89.607 118.908 90.203 117.69C90.229 117.612 90.2807 117.561 90.3067 117.483C90.9287 116.239 91.6285 115.306 92.38 114.606C94.298 112.74 96.449 112.351 98.2112 111.237C98.652 110.952 98.6002 110.252 98.1855 109.293C97.9002 108.593 97.408 107.764 96.786 106.857C95.9047 105.535 94.7125 104.032 93.4167 102.58C93.3907 102.555 93.3647 102.529 93.339 102.503C92.4577 101.518 91.5507 100.559 90.6177 99.678C90.6177 99.678 90.6177 99.678 90.5917 99.652C89.892 98.978 89.2182 98.356 88.5442 97.8117C87.974 97.3195 87.404 96.9047 86.8597 96.516C86.8597 96.516 86.8597 96.516 86.8337 96.516C85.512 95.583 84.3457 95.0387 83.5682 95.1165C83.1277 95.1425 82.687 95.298 82.2465 95.5312C78.7477 97.3452 75.4302 104.628 71.8795 107.09C70.7652 107.868 67.992 110.096 64.6227 112.921L64.597 112.947C57.677 118.727 48.1395 126.917 44.6407 129.923C43.7855 130.675 43.293 131.089 43.293 131.089" stroke="#161616" stroke-width="0.375" stroke-miterlimit="10" stroke-linecap="round"/>
<path opacity="0.1" d="M128.068 95.6865C127.135 97.2415 125.061 98.5115 122.806 99.1593C119.981 99.9888 115.809 103.177 112.206 104.006C110.522 104.395 108.086 104.369 105.779 103.85C104.898 103.85 103.991 103.902 103.058 104.006C101.943 104.11 100.803 104.343 99.7144 104.706C98.6517 105.069 97.6929 105.846 96.7857 106.883C96.7597 106.909 96.7597 106.935 96.7339 106.935C96.8374 107.09 96.9152 107.194 96.9412 107.246C97.0189 107.375 96.9412 107.271 96.7079 106.96C96.0599 106.105 94.3494 103.825 92.5872 101.777C91.9132 101 91.2394 100.3 90.6174 99.6778C90.6174 99.6778 90.6174 99.6778 90.5914 99.6518C89.6327 98.6928 88.8552 97.993 88.5959 97.7598C88.5442 97.708 88.5182 97.682 88.4922 97.682C88.4922 97.682 88.5182 97.708 88.5959 97.7598C89.0884 97.3193 89.5807 96.8785 90.0732 96.412C91.1617 98.952 93.6239 102.762 98.4704 102.14C99.3514 102.036 100.181 101.881 100.958 101.699C101.01 101.673 101.088 101.673 101.14 101.647C106.608 100.378 110.003 97.8375 116.742 97.7598C117.131 97.7598 117.493 97.7338 117.856 97.708C118.893 97.656 119.852 97.5005 120.733 97.345C121.122 97.2673 121.511 97.1895 121.873 97.086C124.932 96.3603 126.953 95.3495 128.068 95.6865Z" fill="#161616"/>
<path d="M17.7136 27.058H13.9297V31.153H17.7136V27.058Z" fill="#B5CDFB"/>
<path d="M2.5 21.7451H64.727" stroke="#161616" stroke-width="0.375" stroke-miterlimit="10" stroke-linecap="round"/>
<path opacity="0.1" d="M57.1334 17.676H10.5605V19.9308H57.1334V17.676Z" fill="#161616"/>
<path d="M26.9666 63.1865H19.4766V64.586H26.9666V63.1865Z" fill="#B5CDFB"/>
<path d="M47.2596 65.3635H19.4766V66.763H47.2596V65.3635Z" fill="#B5CDFB"/>
<path opacity="0.1" d="M32.1759 93.38H19.4766V103.669H32.1759V93.38Z" fill="#161616"/>
<path opacity="0.3" d="M89.3214 68.7587H69.7539V79.0477H89.3214V68.7587Z" fill="#75E0E6"/>
<path opacity="0.1" d="M48.502 81.0953H35.8027V91.3843H48.502V81.0953Z" fill="#161616"/>
<path opacity="0.1" d="M52.183 55.489H14.5254V59.1693H52.183V55.489Z" fill="#161616"/>
<path opacity="0.1" d="M71.3089 18.1167H69.2871V20.1382H71.3089V18.1167Z" fill="#161616"/>
<path opacity="0.1" d="M75.3516 18.1167H73.3301V20.1382H75.3516V18.1167Z" fill="#161616"/>
<path opacity="0.1" d="M73.3323 20.1382H71.3105V22.1597H73.3323V20.1382Z" fill="#161616"/>
<path opacity="0.1" d="M73.3323 16.0693H71.3105V18.0909H73.3323V16.0693Z" fill="#161616"/>
<path opacity="0.1" d="M106.664 61.0322V66.5007H112.133V61.0322H106.664Z" fill="#161616"/>
<path opacity="0.1" d="M112.133 66.518V71.9865H117.601V66.518H112.133Z" fill="#161616"/>
<path opacity="0.1" d="M101.205 66.5007V71.9692H106.674V66.5007H101.205Z" fill="#161616"/>
<path opacity="0.1" d="M195.142 19.4385H189.674V24.907H195.142V19.4385Z" fill="#161616"/>
<path opacity="0.1" d="M189.699 24.907H184.23V30.3755H189.699V24.907Z" fill="#161616"/>
<path opacity="0.1" d="M189.699 13.97H184.23V19.4385H189.699V13.97Z" fill="#161616"/>
<path opacity="0.19" d="M14.8106 107.634H12.7891V109.656H14.8106V107.634Z" fill="#1A1A1A"/>
<path opacity="0.19" d="M18.8536 107.634H16.832V109.656H18.8536V107.634Z" fill="#1A1A1A"/>
<path opacity="0.19" d="M16.8321 109.656H14.8105V111.677H16.8321V109.656Z" fill="#1A1A1A"/>
<path opacity="0.19" d="M16.8321 105.613H14.8105V107.634H16.8321V105.613Z" fill="#1A1A1A"/>
<path fill-rule="evenodd" clip-rule="evenodd" d="M129.373 15.0293L150.573 21.9751L150.452 22.3445L129.252 15.3987L129.373 15.0293Z" fill="#75E0E6"/>
<path fill-rule="evenodd" clip-rule="evenodd" d="M133.106 5.25854L159.593 13.9667L159.472 14.336L132.984 5.62784L133.106 5.25854Z" fill="#75E0E6"/>
<path fill-rule="evenodd" clip-rule="evenodd" d="M86.342 11.0025H85.5645V10.6138H86.342V11.0025Z" fill="#75E0E6"/>
<path fill-rule="evenodd" clip-rule="evenodd" d="M88.6914 11.0025H87.9219V10.6138H88.6914V11.0025ZM91.7691 11.0025H90.2301V10.6138H91.7691V11.0025ZM94.8466 11.0025H93.3079V10.6138H94.8466V11.0025ZM97.9244 11.0025H96.3856V10.6138H97.9244V11.0025ZM101.002 11.0025H99.4631V10.6138H101.002V11.0025ZM104.08 11.0025H102.541V10.6138H104.08V11.0025ZM107.157 11.0025H105.618V10.6138H107.157V11.0025ZM110.235 11.0025H108.696V10.6138H110.235V11.0025ZM112.543 11.0025H111.774V10.6138H112.543V11.0025Z" fill="#75E0E6"/>
<path fill-rule="evenodd" clip-rule="evenodd" d="M114.098 11.0025H113.32V10.6138H114.098V11.0025Z" fill="#75E0E6"/>
<path fill-rule="evenodd" clip-rule="evenodd" d="M114.099 8.92906H85.5645V8.54028H114.099V8.92906Z" fill="#75E0E6"/>
<path fill-rule="evenodd" clip-rule="evenodd" d="M114.099 6.82967H85.5645V6.44092H114.099V6.82967Z" fill="#75E0E6"/>
<path fill-rule="evenodd" clip-rule="evenodd" d="M174.477 19.3898L161.777 15.1653L161.9 14.7964L174.599 19.0209L174.477 19.3898Z" fill="#75E0E6"/>
<path fill-rule="evenodd" clip-rule="evenodd" d="M172.17 29.497L153.82 23.3547L153.944 22.9861L172.293 29.1285L172.17 29.497Z" fill="#75E0E6"/>
<path fill-rule="evenodd" clip-rule="evenodd" d="M28.7402 107.873V107.038H29.129V107.873H28.7402ZM28.7402 111.212V109.543H29.129V111.212H28.7402ZM28.7402 114.551V112.882H29.129V114.551H28.7402ZM28.7402 117.89V116.221H29.129V117.89H28.7402ZM28.7402 121.229V119.56H29.129V121.229H28.7402ZM28.7402 124.568V122.899H29.129V124.568H28.7402ZM28.7402 127.072V126.238H29.129V127.072H28.7402Z" fill="#75E0E6"/>
<path fill-rule="evenodd" clip-rule="evenodd" d="M87.209 68.5307V67.696H87.598V68.5307H87.209ZM87.209 71.8697V70.2002H87.598V71.8697H87.209ZM87.209 75.2087V73.5392H87.598V75.2087H87.209ZM87.209 78.5477V76.8782H87.598V78.5477H87.209ZM87.209 81.8867V80.2172H87.598V81.8867H87.209ZM87.209 85.2257V83.5562H87.598V85.2257H87.209ZM87.209 87.73V86.8952H87.598V87.73H87.209Z" fill="#2249B3"/>
<path opacity="0.77" d="M61.6424 68.7587H52.1309V69.951H61.6424V68.7587Z" fill="#2249B3"/>
<path opacity="0.77" d="M66.1519 71.4022H52.1309V72.5945H66.1519V71.4022Z" fill="#2249B3"/>
<path opacity="0.77" d="M66.1519 74.0198H52.1309V75.212H66.1519V74.0198Z" fill="#2249B3"/>
<path opacity="0.77" d="M66.1519 76.6375H52.1309V77.8298H66.1519V76.6375Z" fill="#2249B3"/>
<path opacity="0.77" d="M66.1519 79.281H52.1309V80.4733H66.1519V79.281Z" fill="#2249B3"/>
<path opacity="0.77" d="M66.1519 84.024H52.1309V85.216H66.1519V84.024Z" fill="#2249B3"/>
<path opacity="0.77" d="M66.1519 86.6412H52.1309V87.8335H66.1519V86.6412Z" fill="#2249B3"/>
<path d="M20.3573 120.463H10.8457V121.655H20.3573V120.463Z" fill="#75E0E6"/>
<path d="M24.8668 123.081H10.8457V124.273H24.8668V123.081Z" fill="#75E0E6"/>
<path d="M24.8668 125.698H10.8457V126.891H24.8668V125.698Z" fill="#75E0E6"/>
<path d="M20.3573 131.193H10.8457V132.385H20.3573V131.193Z" fill="#75E0E6"/>
<path d="M24.8668 133.81H10.8457V135.003H24.8668V133.81Z" fill="#75E0E6"/>
<path d="M24.8668 136.428H10.8457V137.62H24.8668V136.428Z" fill="#75E0E6"/>
<path d="M85.5645 17.0801H114.099" stroke="#161616" stroke-width="0.375" stroke-miterlimit="10" stroke-linecap="round"/>
<path d="M85.5645 15.0066H114.099" stroke="#161616" stroke-width="0.375" stroke-miterlimit="10" stroke-linecap="round"/>
<path d="M85.5645 12.9075H114.099" stroke="#161616" stroke-width="0.375" stroke-miterlimit="10" stroke-linecap="round"/>
<path d="M65.1406 62.798H87.4036V38.073" stroke="#161616" stroke-width="0.375" stroke-miterlimit="10" stroke-linecap="round"/>
<path opacity="0.77" d="M89.2437 80.6805H69.7539V81.8725H89.2437V80.6805Z" fill="#2249B3"/>
<path opacity="0.77" d="M89.2437 83.298H69.7539V84.4902H89.2437V83.298Z" fill="#2249B3"/>
<path d="M118.738 48.5173H99.1191" stroke="#161616" stroke-width="0.375" stroke-miterlimit="10" stroke-linecap="round"/>
<path d="M112.673 54.2192H93.0801" stroke="#161616" stroke-width="0.375" stroke-miterlimit="10" stroke-linecap="round"/>
<path d="M112.673 53.0012H93.0801" stroke="#161616" stroke-width="0.375" stroke-miterlimit="10" stroke-linecap="round"/>
<path d="M115.188 46.9365H99.1191" stroke="#161616" stroke-width="0.375" stroke-miterlimit="10" stroke-linecap="round"/>
<path fill-rule="evenodd" clip-rule="evenodd" d="M179.821 44.7482L179.811 43.9847L180.199 43.9792L180.21 44.7427L179.821 44.7482ZM179.865 47.802L179.843 46.2752L180.232 46.2697L180.253 47.7965L179.865 47.802ZM179.908 50.856L179.886 49.329L180.275 49.3235L180.297 50.8505L179.908 50.856ZM179.951 53.91L179.929 52.383L180.318 52.3775L180.34 53.9045L179.951 53.91ZM179.994 56.9637L179.973 55.4367L180.361 55.4312L180.383 56.9582L179.994 56.9637ZM180.037 60.0177L180.016 58.4907L180.405 58.4852L180.426 60.0122L180.037 60.0177ZM180.081 63.0715L180.059 61.5447L180.448 61.5392L180.469 63.066L180.081 63.0715ZM180.124 66.1255L180.102 64.5985L180.491 64.593L180.513 66.12L180.124 66.1255ZM180.167 69.1795L180.145 67.6525L180.534 67.647L180.556 69.174L180.167 69.1795ZM180.21 72.2332L180.189 70.7062L180.577 70.7007L180.599 72.2277L180.21 72.2332ZM180.253 75.2872L180.232 73.7602L180.621 73.7547L180.642 75.2817L180.253 75.2872ZM180.297 78.341L180.275 76.8142L180.664 76.8087L180.685 78.3355L180.297 78.341ZM180.329 80.6315L180.318 79.868L180.707 79.8625L180.718 80.626L180.329 80.6315Z" fill="#75E0E6"/>
<path fill-rule="evenodd" clip-rule="evenodd" d="M182.517 52.3943L182.506 51.6303L182.895 51.6248L182.905 52.3888L182.517 52.3943ZM182.56 55.4503L182.538 53.9223L182.927 53.9168L182.949 55.4448L182.56 55.4503ZM182.603 58.5063L182.581 56.9783L182.97 56.9728L182.992 58.501L182.603 58.5063ZM182.646 61.5625L182.625 60.0345L183.013 60.029L183.035 61.557L182.646 61.5625ZM182.689 64.6185L182.668 63.0905L183.057 63.085L183.078 64.613L182.689 64.6185ZM182.733 67.6745L182.711 66.1465L183.1 66.141L183.121 67.669L182.733 67.6745ZM182.776 70.7305L182.754 69.2025L183.143 69.197L183.165 70.725L182.776 70.7305ZM182.819 73.7868L182.797 72.2588L183.186 72.2533L183.208 73.7813L182.819 73.7868ZM182.862 76.8428L182.841 75.3148L183.229 75.3093L183.251 76.8373L182.862 76.8428ZM182.905 79.8988L182.884 78.3708L183.273 78.3653L183.294 79.8933L182.905 79.8988ZM182.949 82.9548L182.927 81.4268L183.316 81.4213L183.337 82.9493L182.949 82.9548ZM182.992 86.011L182.97 84.4828L183.359 84.4773L183.381 86.0055L182.992 86.011ZM183.024 88.303L183.013 87.539L183.402 87.5335L183.413 88.2975L183.024 88.303Z" fill="#75E0E6"/>
<path opacity="0.36" d="M197.499 133.24H188.869V135.573H197.499V133.24Z" fill="#2249B3"/>
<path d="M163.003 78.4002L145.717 72.8022L145.95 88.6635L163.237 94.2615L163.003 78.4002Z" fill="#75E0E6"/>
<path d="M145.407 89.1815L137.191 86.512L137.321 95.0905L145.537 97.76L145.407 89.1815Z" fill="#75E0E6"/>
<path opacity="0.35" d="M127.445 120.593L127.575 129.741C127.575 130.001 127.756 130.286 127.964 130.363L133.976 132.307L162.33 40.6127C162.33 40.3535 162.148 40.0685 161.941 40.0165L153.907 37.399L127.445 120.593ZM127.445 120.593L153.881 37.399L127.445 120.593Z" fill="#FEEFF0"/>
</svg>
