<svg width="200" height="150" viewBox="0 0 200 150" fill="none" xmlns="http://www.w3.org/2000/svg">
<g opacity="0.2">
<path opacity="0.2" d="M50.9672 64.52C51.0867 66.2222 38.8959 65.9572 26.9912 72.4072C13.1113 79.9227 10.0733 90.9 6.1518 89.4757C1.6664 87.8465 1.02188 71.825 7.67987 59.6812C7.8644 59.3432 8.0541 59.0107 8.249 58.686C9.2417 57.0045 10.3254 55.5025 11.4454 54.1537C14.5535 50.4192 17.9683 47.888 20.6684 46.1392C20.7411 46.0897 20.8139 46.043 20.8867 45.9987C21.2843 45.7415 21.6637 45.505 22.0249 45.2842C22.329 45.097 22.6174 44.9202 22.8903 44.7567C23.857 44.172 24.842 43.6235 25.8399 43.1065C25.9179 43.0647 25.9984 43.0232 26.0789 42.9842C26.6039 42.714 27.1342 42.4542 27.6642 42.2072C28.1944 41.9577 28.7272 41.716 29.2572 41.4847C29.4339 41.4067 29.6107 41.3315 29.7899 41.2562C29.9667 41.1807 30.1434 41.1055 30.3202 41.0327C30.6762 40.887 31.0297 40.7467 31.3829 40.609C31.5389 40.5467 31.6949 40.487 31.8507 40.4272C32.2639 40.2712 32.6772 40.1205 33.0877 39.975C33.3112 39.8945 33.5322 39.819 33.7532 39.7437C34.0154 39.6552 34.2754 39.567 34.5352 39.4837C42.7109 36.8382 49.8862 36.555 50.9672 38.803C52.5029 41.9967 41.1439 49.0992 37.1132 54.993C37.0639 55.0657 37.0144 55.1412 36.9652 55.214C35.8997 56.8355 35.4162 58.361 35.9437 59.6812C36.8949 62.0642 40.7489 62.8152 44.3144 63.213C44.4469 63.2285 44.5769 63.2415 44.7067 63.257C47.9812 63.6027 50.9074 63.6857 50.9672 64.52Z" fill="#2249B3"/>
</g>
<g opacity="0.7">
<path opacity="0.1" d="M14.446 55.5543L12.1384 60.4998L8.24805 58.6858C9.24075 57.0046 10.3244 55.5023 11.4445 54.1536L14.446 55.5543Z" fill="#333333"/>
</g>
<g opacity="0.84">
<path opacity="0.84" d="M185.693 128.538H17.4479C12.2533 128.538 7.94366 124.542 7.52183 119.365C6.41298 105.754 7.87111 93.2718 15.6236 87.9973C25.0918 81.5553 35.8405 91.3803 47.0683 84.8788C63.4653 75.3838 58.2678 44.1643 67.8583 42.5193C74.7068 41.3445 79.1018 56.9645 87.089 56.2925C99.0375 55.2875 101.424 19.3051 111.257 18.8706C120.536 18.4607 124.729 50.2238 139.584 51.6148C148.214 52.423 152.795 42.263 158.555 44.5983C167.7 48.3063 160.511 75.6923 171.808 81.2405C177.537 84.0543 182.697 78.6368 186.361 82.02C192.228 87.4378 181.59 103.723 188.96 111.386C191.351 113.873 194.08 113.83 195.197 116.843C195.651 118.068 195.678 119.366 195.427 120.666C194.538 125.276 190.388 128.538 185.693 128.538Z" fill="#2249B3"/>
</g>
<path d="M174.407 76.1725C174.388 76.1725 174.368 76.1682 174.35 76.1592C168.349 73.2125 167.526 64.375 166.73 55.8285C166.032 48.332 165.372 41.251 161.105 39.5207C161.038 39.4937 161.006 39.418 161.033 39.3515C161.06 39.285 161.136 39.2532 161.202 39.28C165.616 41.0697 166.283 48.227 166.989 55.8045C167.778 64.2797 168.595 73.0435 174.464 75.926C174.529 75.9577 174.555 76.0355 174.524 76.1C174.501 76.146 174.455 76.1725 174.407 76.1725Z" fill="#333333"/>
<path d="M143.158 46.593C142.835 46.593 142.506 46.578 142.171 46.5465C142.099 46.5398 142.047 46.4765 142.053 46.405C142.06 46.3338 142.124 46.281 142.195 46.2878C146.553 46.6965 149.899 44.2528 152.852 42.0973C155.784 39.9575 158.316 38.11 161.202 39.28C161.269 39.3073 161.301 39.383 161.274 39.4495C161.247 39.5158 161.171 39.5475 161.105 39.521C158.352 38.405 155.874 40.2133 153.005 42.3073C150.24 44.3255 147.132 46.593 143.158 46.593Z" fill="#333333"/>
<path d="M87.0887 56.4222C87.0219 56.4222 86.9652 56.371 86.9594 56.303C86.9534 56.2315 87.0064 56.1687 87.0779 56.1627C93.2382 55.6445 96.8234 45.7015 100.291 36.0857C103.468 27.2745 106.469 18.9518 111.251 18.7405C111.317 18.7339 111.384 18.7928 111.387 18.8646C111.39 18.9363 111.335 18.9969 111.263 19.0001C106.655 19.2038 103.682 27.4467 100.535 36.174C97.0402 45.8667 93.426 55.8895 87.1 56.4217C87.0962 56.422 87.0924 56.4222 87.0887 56.4222Z" fill="#333333"/>
<path d="M86.5849 56.4436C82.6842 56.4436 79.6677 52.6876 76.7459 49.0503C73.8694 45.4691 71.1544 42.0851 67.8804 42.6471C67.8099 42.6593 67.7424 42.6116 67.7304 42.5408C67.7182 42.4703 67.7657 42.4031 67.8364 42.3908C71.2584 41.8043 74.0227 45.2446 76.9487 48.8876C79.9549 52.6306 83.0614 56.5008 87.0782 56.1628C87.1504 56.1551 87.2124 56.2098 87.2184 56.2813C87.2247 56.3528 87.1714 56.4158 87.0999 56.4218C86.9267 56.4363 86.7547 56.4436 86.5849 56.4436Z" fill="#333333"/>
<g opacity="0.31">
<g opacity="0.31">
<path opacity="0.31" d="M14.9175 111.285C12.788 111.434 11.3677 111.933 11.6086 112.51L20.8521 118.353C21.1344 119.03 23.5894 119.559 26.3341 119.534L97.5176 118.901C97.9209 118.897 98.3076 118.882 98.6736 118.856C100.802 118.707 102.221 118.209 101.981 117.632L92.7366 111.788C92.4551 111.111 89.9991 110.582 87.2546 110.607L16.071 111.241C15.6687 111.244 15.2828 111.26 14.9175 111.285Z" fill="#333333"/>
</g>
</g>
<path d="M45.519 101.152H37.7582L37.977 101.911H44.7785L46.8 108.913H47.7592L45.519 101.152ZM72.5072 101.152H64.7465L64.9655 101.911H71.7667L73.7882 108.913H74.7475L72.5072 101.152ZM86.0025 101.152H78.2417L78.4607 101.911H85.262L87.2835 108.913H88.2427L86.0025 101.152ZM38.632 77.295H30.8712L31.0902 78.0533H37.8915L39.913 85.0558H40.8725L38.632 77.295ZM52.1272 77.295H44.3665L44.5855 78.0533H51.3845L53.406 85.0558H54.3677L52.1272 77.295ZM79.1155 77.295H71.3547L71.5737 78.0533H78.375L80.3965 85.0558H81.356L79.1155 77.295ZM52.3977 110.168L50.0142 101.911H58.2715L60.655 110.168H52.3977ZM37.7287 101.911L37.4382 100.904H45.6957L48.0792 109.161H46.8715L47.162 110.168H38.9047L36.521 101.911H37.7287ZM64.7172 101.911L64.4265 100.904H72.6837L75.0675 109.161H73.8597L74.1502 110.168H65.893L63.5095 101.911H64.7172ZM78.2125 101.911L77.9217 100.904H86.179L88.5627 109.161H87.355L87.6455 110.168H79.386L77.0025 101.911H78.2125ZM35.4615 98.2403L33.078 89.983H41.3352L43.719 98.2403H35.4615ZM48.9547 98.2403L46.571 89.983H54.8282L57.212 98.2403H48.9547ZM62.45 98.2403L60.0662 89.983H68.3235L70.7072 98.2403H62.45ZM75.943 98.2403L73.5592 89.983H81.8187L84.2025 98.2403H75.943ZM59.006 86.3105L56.6225 78.0533H64.8797L67.2635 86.3105H59.006ZM30.8417 78.0533L30.5512 77.0468H38.8087L41.1922 85.3043H39.9845L40.2752 86.3105H32.0177L29.6342 78.0533H30.8417ZM44.337 78.0533L44.0465 77.0468H52.304L54.6875 85.3043H53.4775L53.7682 86.3105H45.5107L43.1272 78.0533H44.337ZM71.3255 78.0533L71.035 77.0468H79.2922L81.6757 85.3043H80.468L80.7587 86.3105H72.499L70.1155 78.0533H71.3255ZM81.9142 71.9878H23.589C21.2966 71.9878 19.9713 73.8508 20.6331 76.1433L31.7922 114.8C32.4535 117.09 34.855 118.955 37.1472 118.955H95.464C97.2017 118.497 98.1025 116.811 97.5217 114.8L86.3627 76.1433C85.783 74.135 83.9132 72.4495 81.9142 71.9878ZM22.5169 71.8625H19.5763C17.2123 71.8625 15.8511 73.7793 16.5335 76.1433L27.6927 114.8C28.375 117.164 30.8422 119.078 33.2062 119.078H36.1377C34.0762 118.608 32.1412 116.868 31.544 114.8L20.3849 76.1433C19.7866 74.071 20.7213 72.3295 22.5169 71.8625Z" fill="#75E0E6"/>
<path d="M30.8425 78.053H29.6348L32.0185 86.3102H40.2758L39.9853 85.3037H32.9355L30.8425 78.053ZM37.892 78.053H31.0908L33.1123 85.0555H39.9135L37.892 78.053Z" fill="#2249B3"/>
<path d="M31.0895 78.0531L30.8705 77.2949H38.6315L40.8718 85.0559H39.9123H33.111L31.0895 78.0531ZM38.808 77.0469H30.5508L30.8413 78.0531L32.9343 85.3041H39.984H41.1918L38.808 77.0469Z" fill="#333333"/>
<path d="M44.337 78.053H43.127L45.5107 86.3102H53.768L53.4775 85.3037H46.4302L44.337 78.053ZM51.3842 78.053H44.5852L46.6067 85.0555H53.4057L51.3842 78.053Z" fill="#2249B3"/>
<path d="M44.5856 78.0531L44.3666 77.2949H52.1274L54.3679 85.0559H53.4061H46.6071L44.5856 78.0531ZM52.3041 77.0469H44.0469L44.3374 78.0531L46.4304 85.3041H53.4776H54.6876L52.3041 77.0469Z" fill="#333333"/>
<path d="M64.8783 78.053H56.6211L59.0048 86.3102H67.2621L64.8783 78.053Z" fill="#2249B3"/>
<path d="M71.3252 78.053H70.1152L72.4987 86.3102H80.7585L80.4677 85.3037H73.4182L71.3252 78.053ZM78.3747 78.053H71.5735L73.5947 85.0555H80.3962L78.3747 78.053Z" fill="#2249B3"/>
<path d="M71.5739 78.0531L71.3552 77.2949H79.1159L81.3562 85.0559H80.3967H73.5954L71.5739 78.0531ZM79.2924 77.0469H71.0352L71.3257 78.0531L73.4189 85.3041H80.4684H81.6762L79.2924 77.0469Z" fill="#333333"/>
<path d="M41.3354 89.9829H33.0781L35.4616 98.2402H43.7191L41.3354 89.9829Z" fill="#2249B3"/>
<path d="M54.8276 89.9829H46.5703L48.9538 98.2402H57.2113L54.8276 89.9829Z" fill="#2249B3"/>
<path d="M68.3239 89.9829H60.0664L62.4502 98.2402H70.7074L68.3239 89.9829Z" fill="#2249B3"/>
<path d="M81.8181 89.9829H73.5586L75.9423 98.2402H84.2019L81.8181 89.9829Z" fill="#2249B3"/>
<path d="M37.7292 101.91H36.5215L38.905 110.168H47.1622L46.8717 109.161H39.8222L37.7292 101.91ZM44.7787 101.91H37.9775L39.9987 108.913H46.8002L44.7787 101.91Z" fill="#2249B3"/>
<path d="M37.9762 101.911L37.7575 101.152H45.5182L47.7585 108.913H46.7993H39.9977L37.9762 101.911ZM45.6948 100.904H37.4375L37.728 101.911L39.8213 109.161H46.8708H48.0785L45.6948 100.904Z" fill="#333333"/>
<path d="M58.2709 101.91H50.0137L52.3972 110.168H60.6544L58.2709 101.91Z" fill="#2249B3"/>
<path d="M64.7175 101.91H63.5098L65.8935 110.168H74.1508L73.8603 109.161H66.8108L64.7175 101.91ZM71.767 101.91H64.9658L66.9873 108.913H73.7885L71.767 101.91Z" fill="#2249B3"/>
<path d="M64.9645 101.911L64.7458 101.152H72.5065L74.7468 108.913H73.7873H66.986L64.9645 101.911ZM72.683 100.904H64.4258L64.7163 101.911L66.8095 109.161H73.859H75.0668L72.683 100.904Z" fill="#333333"/>
<path d="M78.212 101.91H77.002L79.3857 110.168H87.6452L87.3547 109.161H80.3049L78.212 101.91ZM85.2615 101.91H78.4602L80.4817 108.913H87.283L85.2615 101.91Z" fill="#2249B3"/>
<path d="M78.4606 101.911L78.2416 101.152H86.0024L88.2429 108.913H87.2834H80.4821L78.4606 101.911ZM86.1791 100.904H77.9219L78.2124 101.911L80.3054 109.161H87.3551H88.5629L86.1791 100.904Z" fill="#333333"/>
<path d="M81.9148 71.9877H84.8595C87.152 71.9877 89.5528 73.8507 90.2145 76.1432L101.374 114.799C102.035 117.09 100.71 118.955 98.4178 118.955H95.4645H37.148C34.8555 118.955 32.454 117.09 31.7928 114.799L20.6338 76.1432C19.972 73.8507 21.2972 71.9877 23.5897 71.9877H81.9148ZM84.7878 71.7395H23.518C23.1613 71.7395 22.8267 71.7823 22.5176 71.8625C20.7219 72.3293 19.7873 74.071 20.3855 76.1432L31.5445 114.799C32.1418 116.868 34.0768 118.608 36.1383 119.078C36.497 119.16 36.8595 119.203 37.2195 119.203H98.4895C100.918 119.203 102.323 117.228 101.622 114.799L90.4628 76.1432C89.7618 73.7142 87.2168 71.7395 84.7878 71.7395Z" fill="#333333"/>
<path d="M30.4262 74.3757C30.3747 74.3757 30.3247 74.3477 30.2989 74.299C30.2622 74.229 30.2892 74.142 30.3592 74.1052C31.5412 73.4832 32.2754 72.2675 32.2754 70.933C32.2754 68.9577 30.6687 67.3507 28.6934 67.3507C26.7182 67.3507 25.1112 68.9577 25.1112 70.933C25.1112 71.0122 25.0469 71.0765 24.9677 71.0765C24.8886 71.0765 24.8242 71.0122 24.8242 70.933C24.8242 68.7995 26.5599 67.0637 28.6934 67.0637C30.8269 67.0637 32.5627 68.7995 32.5627 70.933C32.5627 72.3745 31.7694 73.6872 30.4929 74.3592C30.4714 74.3705 30.4487 74.3757 30.4262 74.3757Z" fill="#333333"/>
<path d="M40.0786 74.3755C40.0271 74.3755 39.9771 74.3475 39.9513 74.2987C39.9146 74.2287 39.9416 74.142 40.0116 74.105C41.1936 73.483 41.9281 72.2672 41.9281 70.9327C41.9281 68.9575 40.3211 67.3505 38.3458 67.3505C36.3706 67.3505 34.7638 68.9575 34.7638 70.9327C34.7638 71.012 34.6993 71.0762 34.6203 71.0762C34.5411 71.0762 34.4766 71.012 34.4766 70.9327C34.4766 68.7992 36.2123 67.0635 38.3458 67.0635C40.4793 67.0635 42.2151 68.7992 42.2151 70.9327C42.2151 72.3742 41.4221 73.687 40.1453 74.359C40.1241 74.3702 40.1011 74.3755 40.0786 74.3755Z" fill="#333333"/>
<path d="M49.729 74.3755C49.6775 74.3755 49.6275 74.3475 49.6017 74.2987C49.565 74.2287 49.592 74.142 49.662 74.105C50.8442 73.483 51.5785 72.2675 51.5785 70.9327C51.5785 68.9575 49.9715 67.3505 47.9965 67.3505C46.021 67.3505 44.414 68.9575 44.414 70.9327C44.414 71.012 44.3497 71.0762 44.2705 71.0762C44.1915 71.0762 44.127 71.012 44.127 70.9327C44.127 68.7992 45.8627 67.0635 47.9965 67.0635C50.1297 67.0635 51.8655 68.7992 51.8655 70.9327C51.8655 72.3742 51.0722 73.687 49.7957 74.359C49.7745 74.3702 49.7515 74.3755 49.729 74.3755Z" fill="#333333"/>
<path d="M59.3813 74.3755C59.3295 74.3755 59.2798 74.3475 59.254 74.2987C59.2173 74.2287 59.244 74.142 59.3143 74.105C60.4965 73.483 61.2308 72.2675 61.2308 70.9327C61.2308 68.9575 59.6238 67.3505 57.6485 67.3505C55.6733 67.3505 54.0663 68.9575 54.0663 70.9327C54.0663 71.012 54.002 71.0762 53.9228 71.0762C53.8435 71.0762 53.7793 71.012 53.7793 70.9327C53.7793 68.7992 55.515 67.0635 57.6485 67.0635C59.782 67.0635 61.5178 68.7992 61.5178 70.9327C61.5178 72.3742 60.7245 73.687 59.4478 74.359C59.4265 74.3702 59.4035 74.3755 59.3813 74.3755Z" fill="#333333"/>
<path d="M69.0588 74.3755C69.0073 74.3755 68.9575 74.3475 68.9318 74.2987C68.895 74.2287 68.9218 74.142 68.9918 74.105C70.174 73.483 70.9083 72.2672 70.9083 70.9327C70.9083 68.9575 69.3013 67.3505 67.326 67.3505C65.351 67.3505 63.744 68.9575 63.744 70.9327C63.744 71.012 63.6798 71.0762 63.6005 71.0762C63.5213 71.0762 63.457 71.012 63.457 70.9327C63.457 68.7992 65.1928 67.0635 67.326 67.0635C69.4595 67.0635 71.1953 68.7992 71.1953 70.9327C71.1953 72.3742 70.4023 73.687 69.1255 74.359C69.1043 74.3702 69.0813 74.3755 69.0588 74.3755Z" fill="#333333"/>
<path d="M78.7114 74.3755C78.6599 74.3755 78.6099 74.3475 78.5841 74.2987C78.5474 74.2287 78.5741 74.142 78.6444 74.105C79.8264 73.483 80.5606 72.2672 80.5606 70.9327C80.5606 68.9575 78.9539 67.3505 76.9786 67.3505C75.0031 67.3505 73.3964 68.9575 73.3964 70.9327C73.3964 71.012 73.3319 71.0762 73.2529 71.0762C73.1736 71.0762 73.1094 71.012 73.1094 70.9327C73.1094 68.7992 74.8451 67.0635 76.9786 67.0635C79.1119 67.0635 80.8476 68.7992 80.8476 70.9327C80.8476 72.3742 80.0546 73.687 78.7781 74.359C78.7566 74.3702 78.7336 74.3755 78.7114 74.3755Z" fill="#333333"/>
<path d="M195.328 123.86H89.0488C88.9053 123.86 88.7891 123.743 88.7891 123.6C88.7891 123.456 88.9053 123.34 89.0488 123.34H195.328C195.471 123.34 195.587 123.456 195.587 123.6C195.587 123.743 195.471 123.86 195.328 123.86Z" fill="#B5CDFB"/>
<path d="M75.9798 123.86H2.75987C2.61637 123.86 2.5 123.743 2.5 123.6C2.5 123.456 2.61637 123.34 2.75987 123.34H75.9798C76.1236 123.34 76.2398 123.456 76.2398 123.6C76.2398 123.743 76.1236 123.86 75.9798 123.86Z" fill="#B5CDFB"/>
<path d="M195.586 128.732H164.124C164.017 128.732 163.93 128.645 163.93 128.538C163.93 128.43 164.017 128.343 164.124 128.343H195.586C195.693 128.343 195.781 128.43 195.781 128.538C195.781 128.645 195.693 128.732 195.586 128.732Z" fill="#333333"/>
<path d="M156.183 128.732H4.3199C4.2123 128.732 4.125 128.645 4.125 128.538C4.125 128.43 4.2123 128.343 4.3199 128.343H156.183C156.29 128.343 156.378 128.43 156.378 128.538C156.378 128.645 156.29 128.732 156.183 128.732Z" fill="#333333"/>
<g opacity="0.59">
<path opacity="0.59" d="M167.39 29.0055H49.4071C47.0389 29.0055 45.1191 27.0857 45.1191 24.7176V24.7176C45.1191 22.3494 47.0389 20.4297 49.4071 20.4297H167.39C169.758 20.4297 171.678 22.3494 171.678 24.7176V24.7176C171.678 27.0857 169.758 29.0055 167.39 29.0055Z" fill="#B5CDFB"/>
</g>
<path d="M186.231 31.3443C189.819 31.3443 192.728 28.4355 192.728 24.8475C192.728 21.2593 189.819 18.3506 186.231 18.3506C182.643 18.3506 179.734 21.2593 179.734 24.8475C179.734 28.4355 182.643 31.3443 186.231 31.3443Z" fill="#2249B3"/>
<path d="M57.3337 31.0507C54.6297 31.0507 52.4297 28.8507 52.4297 26.1467C52.4297 23.4428 54.6297 21.2429 57.3337 21.2429C60.0374 21.2429 62.2374 23.4428 62.2374 26.1467C62.2374 28.8507 60.0374 31.0507 57.3337 31.0507ZM57.3337 21.4353C54.7357 21.4353 52.6222 23.5488 52.6222 26.1467C52.6222 28.7447 54.7357 30.8582 57.3337 30.8582C59.9317 30.8582 62.0452 28.7447 62.0452 26.1467C62.0452 23.5488 59.9317 21.4353 57.3337 21.4353Z" fill="#333333"/>
<path d="M123.861 66.6873H119.184V96.5728H123.861V66.6873Z" fill="#75E0E6"/>
<path d="M133.736 53.6936H129.059V96.5728H133.736V53.6936Z" fill="#75E0E6"/>
<path d="M135.035 95.7933H130.098V52.6541H135.035V95.7933ZM130.358 95.5333H134.775V52.9141H130.358V95.5333Z" fill="#333333"/>
<path d="M143.611 68.7661H138.934V96.5729H143.611V68.7661Z" fill="#75E0E6"/>
<path d="M153.486 85.1384H148.809V96.5729H153.486V85.1384Z" fill="#75E0E6"/>
<path d="M154.656 95.6632H149.719V83.969H154.656V95.6632ZM149.979 95.4035H154.396V84.2287H149.979V95.4035Z" fill="#333333"/>
<path d="M114.14 102.03H111.509C108.343 102.03 105.775 99.4629 105.775 96.2959V51.3714C105.775 48.2047 108.343 45.6375 111.509 45.6375H114.14V102.03Z" fill="#B5CDFB"/>
<path d="M111.257 104.369C111.185 104.369 111.127 104.311 111.127 104.239V52.2643C111.127 52.1925 111.185 52.1343 111.257 52.1343C111.329 52.1343 111.387 52.1925 111.387 52.2643V104.239C111.387 104.311 111.329 104.369 111.257 104.369Z" fill="#333333"/>
<path d="M169.209 98.5217H104.589C104.517 98.5217 104.459 98.4637 104.459 98.392C104.459 98.32 104.517 98.262 104.589 98.262H169.209C169.28 98.262 169.339 98.32 169.339 98.392C169.339 98.4637 169.28 98.5217 169.209 98.5217Z" fill="#333333"/>
<path d="M176.617 103.589H164.143V105.149H176.617V103.589Z" fill="#B5CDFB"/>
<path d="M191.149 60.6125H183.872C182.437 60.6125 181.273 59.449 181.273 58.0138C181.273 56.5785 182.437 55.415 183.872 55.415H191.149C192.584 55.415 193.747 56.5785 193.747 58.0138C193.747 59.449 192.584 60.6125 191.149 60.6125Z" fill="#2249B3"/>
<path d="M191.148 59.4433H183.871C182.367 59.4433 181.143 58.2191 181.143 56.7146C181.143 55.2101 182.367 53.9858 183.871 53.9858H191.148C192.652 53.9858 193.876 55.2101 193.876 56.7146C193.876 58.2191 192.652 59.4433 191.148 59.4433ZM183.871 54.2458C182.51 54.2458 181.403 55.3533 181.403 56.7146C181.403 58.0758 182.51 59.1833 183.871 59.1833H191.148C192.509 59.1833 193.617 58.0758 193.617 56.7146C193.617 55.3533 192.509 54.2458 191.148 54.2458H183.871Z" fill="#333333"/>
<path d="M193.035 64.5757H181.984C181.52 64.5757 181.143 64.1982 181.143 63.7344V62.9482C181.143 62.4844 181.52 62.1069 181.984 62.1069H193.035C193.499 62.1069 193.876 62.4844 193.876 62.9482V63.7344C193.876 64.1982 193.499 64.5757 193.035 64.5757ZM181.984 62.3667C181.663 62.3667 181.403 62.6277 181.403 62.9482V63.7344C181.403 64.0549 181.663 64.3157 181.984 64.3157H193.035C193.356 64.3157 193.617 64.0549 193.617 63.7344V62.9482C193.617 62.6277 193.356 62.3667 193.035 62.3667H181.984Z" fill="#333333"/>
<path d="M193.035 68.2141H181.984C181.52 68.2141 181.143 67.8366 181.143 67.3729V66.5866C181.143 66.1226 181.52 65.7451 181.984 65.7451H193.035C193.499 65.7451 193.876 66.1226 193.876 66.5866V67.3729C193.876 67.8366 193.499 68.2141 193.035 68.2141ZM181.984 66.0051C181.663 66.0051 181.403 66.2661 181.403 66.5866V67.3729C181.403 67.6934 181.663 67.9541 181.984 67.9541H193.035C193.356 67.9541 193.617 67.6934 193.617 67.3729V66.5866C193.617 66.2661 193.356 66.0051 193.035 66.0051H181.984Z" fill="#333333"/>
<path d="M174.735 69.1887H163.684C163.291 69.1887 162.973 68.8702 162.973 68.4772V67.691C162.973 67.2982 163.291 66.9797 163.684 66.9797H174.735C175.128 66.9797 175.447 67.2982 175.447 67.691V68.4772C175.447 68.8702 175.128 69.1887 174.735 69.1887Z" fill="#75E0E6"/>
<path d="M104.345 111.71H93.2933C92.9005 111.71 92.582 111.392 92.582 110.999V110.213C92.582 109.82 92.9005 109.501 93.2933 109.501H104.345C104.738 109.501 105.056 109.82 105.056 110.213V110.999C105.056 111.392 104.738 111.71 104.345 111.71Z" fill="#B5CDFB"/>
<path d="M193.035 71.8523H181.984C181.52 71.8523 181.143 71.475 181.143 71.011V70.225C181.143 69.761 181.52 69.3835 181.984 69.3835H193.035C193.499 69.3835 193.876 69.761 193.876 70.225V71.011C193.876 71.475 193.499 71.8523 193.035 71.8523ZM181.984 69.6435C181.663 69.6435 181.403 69.9043 181.403 70.225V71.011C181.403 71.3318 181.663 71.5925 181.984 71.5925H193.035C193.356 71.5925 193.617 71.3318 193.617 71.011V70.225C193.617 69.9043 193.356 69.6435 193.035 69.6435H181.984Z" fill="#333333"/>
<g opacity="0.59">
<path opacity="0.59" d="M62.4018 33.6833H53.0463C52.831 33.6833 52.6562 33.5088 52.6562 33.2936C52.6562 33.0781 52.831 32.9036 53.0463 32.9036H62.4018C62.617 32.9036 62.7915 33.0781 62.7915 33.2936C62.7915 33.5088 62.617 33.6833 62.4018 33.6833Z" fill="#333333"/>
</g>
<path d="M8.40716 31.6723C8.34156 31.6723 8.28534 31.6228 8.27811 31.5563C8.27036 31.4851 8.32201 31.4208 8.39334 31.4131L57.3126 26.1306C57.3846 26.1233 57.4478 26.1746 57.4556 26.2458C57.4633 26.3171 57.4118 26.3813 57.3403 26.3891L8.42124 31.6716C8.41654 31.6721 8.41171 31.6723 8.40716 31.6723Z" fill="#333333"/>
<path d="M40.4444 52.4985C40.4094 52.4985 40.3744 52.4845 40.3489 52.4565L6.55185 15.6746C6.50325 15.6217 6.5068 15.5396 6.55957 15.491C6.6125 15.4427 6.6946 15.4458 6.7432 15.4988L40.5402 52.2805C40.5887 52.3335 40.5852 52.4155 40.5324 52.4642C40.5074 52.4872 40.4759 52.4985 40.4444 52.4985Z" fill="#333333"/>
<path d="M40.5663 56.4852C42.8486 56.4852 44.6988 54.635 44.6988 52.3527C44.6988 50.0702 42.8486 48.22 40.5663 48.22C38.2838 48.22 36.4336 50.0702 36.4336 52.3527C36.4336 54.635 38.2838 56.4852 40.5663 56.4852Z" fill="#B5CDFB"/>
<path d="M6.87283 18.5521C8.16608 18.5521 9.21442 17.5037 9.21442 16.2105C9.21442 14.9173 8.16608 13.8689 6.87283 13.8689C5.5796 13.8689 4.53125 14.9173 4.53125 16.2105C4.53125 17.5037 5.5796 18.5521 6.87283 18.5521Z" fill="#B5CDFB"/>
<path d="M10.2001 54.876C10.1805 54.876 10.1606 54.8715 10.1418 54.862C10.0777 54.8297 10.0519 54.7515 10.0843 54.6875L31.5081 12.2215C31.5404 12.1575 31.6186 12.1318 31.6826 12.1641C31.7466 12.1964 31.7724 12.2744 31.7401 12.3385L10.3162 54.8045C10.2934 54.8497 10.2476 54.876 10.2001 54.876Z" fill="#333333"/>
<path d="M27.9987 36.2623L31.424 28.9198L26.7777 22.2822L18.7064 22.9872L15.2812 30.3298L19.9275 36.9673L27.9987 36.2623Z" fill="#2249B3"/>
<path d="M11.3481 58.4359L13.6551 53.4901L8.70942 51.1831L6.40234 56.1289L11.3481 58.4359Z" fill="#75E0E6"/>
<path d="M31.6244 15.0119C33.3466 15.0119 34.7429 13.6157 34.7429 11.8934C34.7429 10.1711 33.3466 8.7749 31.6244 8.7749C29.9021 8.7749 28.5059 10.1711 28.5059 11.8934C28.5059 13.6157 29.9021 15.0119 31.6244 15.0119Z" fill="#75E0E6"/>
<path d="M57.3268 27.8193C58.1881 27.8193 58.8861 27.121 58.8861 26.26C58.8861 25.3988 58.1881 24.7007 57.3268 24.7007C56.4656 24.7007 55.7676 25.3988 55.7676 26.26C55.7676 27.121 56.4656 27.8193 57.3268 27.8193Z" fill="#333333"/>
<path d="M8.40691 33.1014C9.26806 33.1014 9.96616 32.4032 9.96616 31.5422C9.96616 30.6809 9.26806 29.9829 8.40691 29.9829C7.54576 29.9829 6.84766 30.6809 6.84766 31.5422C6.84766 32.4032 7.54576 33.1014 8.40691 33.1014Z" fill="#333333"/>
<path d="M20.1794 40.1174L15.4473 33.3569L18.9358 25.8784L27.1567 25.1604L31.8889 31.9207L28.4002 39.3994L20.1794 40.1174ZM15.7462 33.3307L20.3063 39.8454L28.2282 39.1534L31.5899 31.9469L27.0297 25.4324L19.1078 26.1244L15.7462 33.3307ZM28.3142 39.2764H28.3167H28.3142Z" fill="#333333"/>
<path d="M161.803 103.589H118.404V105.149H161.803V103.589Z" fill="#B5CDFB"/>
<path d="M164.793 106.708H131.398V108.267H164.793V106.708Z" fill="#B5CDFB"/>
<path d="M164.141 109.826H143.334V111.386H164.141V109.826Z" fill="#B5CDFB"/>
<path d="M141.273 109.826H120.467V111.386H141.273V109.826Z" fill="#B5CDFB"/>
<path d="M184.916 109.826H166.725V111.386H184.916V109.826Z" fill="#B5CDFB"/>
<path d="M197.5 112.945H125.551V114.504H197.5V112.945Z" fill="#B5CDFB"/>
<path d="M189.936 106.708H167.131V108.267H189.936V106.708Z" fill="#B5CDFB"/>
<path opacity="0.28" d="M153.487 116.063H118.404V117.622H153.487V116.063Z" fill="#333333"/>
<path opacity="0.28" d="M182.853 116.063H170.379V117.622H182.853V116.063Z" fill="#333333"/>
<path opacity="0.28" d="M168.56 116.063H156.086V117.622H168.56V116.063Z" fill="#333333"/>
<path d="M178.046 39.0105C179.194 39.0105 180.125 38.0798 180.125 36.9315C180.125 35.7833 179.194 34.8525 178.046 34.8525C176.898 34.8525 175.967 35.7833 175.967 36.9315C175.967 38.0798 176.898 39.0105 178.046 39.0105Z" fill="#333333"/>
<path d="M141.274 72.7943C141.848 72.7943 142.313 72.3291 142.313 71.7548C142.313 71.1808 141.848 70.7153 141.274 70.7153C140.7 70.7153 140.234 71.1808 140.234 71.7548C140.234 72.3291 140.7 72.7943 141.274 72.7943Z" fill="#B5CDFB"/>
<path d="M141.273 73.2733C140.435 73.2733 139.754 72.5921 139.754 71.7548C139.754 70.9173 140.435 70.2361 141.273 70.2361C142.11 70.2361 142.791 70.9173 142.791 71.7548C142.791 72.5921 142.11 73.2733 141.273 73.2733ZM141.273 70.4148C140.534 70.4148 139.933 71.0158 139.933 71.7548C139.933 72.4936 140.534 73.0948 141.273 73.0948C142.011 73.0948 142.613 72.4936 142.613 71.7548C142.613 71.0158 142.011 70.4148 141.273 70.4148Z" fill="#333333"/>
<path d="M167.639 71.8848H166.73C166.658 71.8848 166.6 71.8265 166.6 71.7548C166.6 71.6828 166.658 71.6248 166.73 71.6248H167.639C167.711 71.6248 167.769 71.6828 167.769 71.7548C167.769 71.8265 167.711 71.8848 167.639 71.8848Z" fill="#333333"/>
<path d="M164.85 71.8848H162.972C162.9 71.8848 162.842 71.8265 162.842 71.7548C162.842 71.6828 162.9 71.6248 162.972 71.6248H164.85C164.922 71.6248 164.98 71.6828 164.98 71.7548C164.98 71.8265 164.922 71.8848 164.85 71.8848ZM161.094 71.8848H159.216C159.144 71.8848 159.086 71.8265 159.086 71.7548C159.086 71.6828 159.144 71.6248 159.216 71.6248H161.094C161.166 71.6248 161.224 71.6828 161.224 71.7548C161.224 71.8265 161.166 71.8848 161.094 71.8848ZM157.338 71.8848H155.459C155.388 71.8848 155.329 71.8265 155.329 71.7548C155.329 71.6828 155.388 71.6248 155.459 71.6248H157.338C157.409 71.6248 157.468 71.6828 157.468 71.7548C157.468 71.8265 157.409 71.8848 157.338 71.8848ZM153.581 71.8848H151.703C151.631 71.8848 151.573 71.8265 151.573 71.7548C151.573 71.6828 151.631 71.6248 151.703 71.6248H153.581C153.653 71.6248 153.711 71.6828 153.711 71.7548C153.711 71.8265 153.653 71.8848 153.581 71.8848ZM149.825 71.8848H147.947C147.875 71.8848 147.817 71.8265 147.817 71.7548C147.817 71.6828 147.875 71.6248 147.947 71.6248H149.825C149.897 71.6248 149.955 71.6828 149.955 71.7548C149.955 71.8265 149.897 71.8848 149.825 71.8848ZM146.069 71.8848H144.191C144.119 71.8848 144.061 71.8265 144.061 71.7548C144.061 71.6828 144.119 71.6248 144.191 71.6248H146.069C146.141 71.6248 146.199 71.6828 146.199 71.7548C146.199 71.8265 146.141 71.8848 146.069 71.8848Z" fill="#333333"/>
<path d="M142.313 71.8848H141.403C141.332 71.8848 141.273 71.8265 141.273 71.7548C141.273 71.6828 141.332 71.6248 141.403 71.6248H142.313C142.385 71.6248 142.443 71.6828 142.443 71.7548C142.443 71.8265 142.385 71.8848 142.313 71.8848Z" fill="#333333"/>
<path d="M177.525 71.8848H167.638C167.566 71.8848 167.508 71.8266 167.508 71.7549C167.508 71.6831 167.566 71.6248 167.638 71.6248H177.525C177.74 71.6248 177.915 71.4501 177.915 71.2351V55.1363C177.915 55.0646 177.973 55.0063 178.045 55.0063C178.117 55.0063 178.175 55.0646 178.175 55.1363V71.2351C178.175 71.5933 177.884 71.8848 177.525 71.8848Z" fill="#333333"/>
<path d="M178.044 38.491C177.972 38.491 177.914 38.4328 177.914 38.361V37.4515C177.914 37.3798 177.972 37.3215 178.044 37.3215C178.116 37.3215 178.174 37.3798 178.174 37.4515V38.361C178.174 38.4328 178.116 38.491 178.044 38.491Z" fill="#333333"/>
<path d="M178.044 52.5939C177.972 52.5939 177.914 52.5359 177.914 52.4641V50.7011C177.914 50.6294 177.972 50.5711 178.044 50.5711C178.116 50.5711 178.174 50.6294 178.174 50.7011V52.4641C178.174 52.5359 178.116 52.5939 178.044 52.5939ZM178.044 49.0681C177.972 49.0681 177.914 49.0101 177.914 48.9381V47.1754C177.914 47.1036 177.972 47.0456 178.044 47.0456C178.116 47.0456 178.174 47.1036 178.174 47.1754V48.9381C178.174 49.0101 178.116 49.0681 178.044 49.0681ZM178.044 45.5424C177.972 45.5424 177.914 45.4844 177.914 45.4126V43.6496C177.914 43.5779 177.972 43.5196 178.044 43.5196C178.116 43.5196 178.174 43.5779 178.174 43.6496V45.4126C178.174 45.4844 178.116 45.5424 178.044 45.5424ZM178.044 42.0169C177.972 42.0169 177.914 41.9586 177.914 41.8869V40.1239C177.914 40.0521 177.972 39.9941 178.044 39.9941C178.116 39.9941 178.174 40.0521 178.174 40.1239V41.8869C178.174 41.9586 178.116 42.0169 178.044 42.0169Z" fill="#333333"/>
<path d="M178.044 55.2662C177.972 55.2662 177.914 55.2082 177.914 55.1364V54.2267C177.914 54.1549 177.972 54.0969 178.044 54.0969C178.116 54.0969 178.174 54.1549 178.174 54.2267V55.1364C178.174 55.2082 178.116 55.2662 178.044 55.2662Z" fill="#333333"/>
<path d="M53.9218 51.5395H46.5823C46.4388 51.5395 46.3223 51.4233 46.3223 51.2798C46.3223 51.1363 46.4388 51.0198 46.5823 51.0198H53.9218C54.0653 51.0198 54.1818 51.1363 54.1818 51.2798C54.1818 51.4233 54.0653 51.5395 53.9218 51.5395Z" fill="#333333"/>
<path d="M53.9218 53.0442H46.582C46.4385 53.0442 46.3223 52.9277 46.3223 52.7842C46.3223 52.6407 46.4385 52.5244 46.582 52.5244H53.9218C54.0653 52.5244 54.1815 52.6407 54.1815 52.7842C54.1815 52.9277 54.0653 53.0442 53.9218 53.0442Z" fill="#333333"/>
<path d="M53.9218 54.5486H46.582C46.4385 54.5486 46.3223 54.4323 46.3223 54.2888C46.3223 54.1453 46.4385 54.0288 46.582 54.0288H53.9218C54.0653 54.0288 54.1815 54.1453 54.1815 54.2888C54.1815 54.4323 54.0653 54.5486 53.9218 54.5486Z" fill="#333333"/>
<path d="M131.398 43.6256C132.044 43.6256 132.567 43.1021 132.567 42.4561C132.567 41.8104 132.044 41.2866 131.398 41.2866C130.752 41.2866 130.229 41.8104 130.229 42.4561C130.229 43.1021 130.752 43.6256 131.398 43.6256Z" fill="#2249B3"/>
<path d="M131.397 48.329C132.282 48.329 133 47.6118 133 46.7268C133 45.842 132.282 45.1245 131.397 45.1245C130.512 45.1245 129.795 45.842 129.795 46.7268C129.795 47.6118 130.512 48.329 131.397 48.329Z" fill="#B5CDFB"/>
<path d="M131.398 39.9171C130.443 39.9171 129.666 39.1399 129.666 38.1846C129.666 37.2296 130.443 36.4526 131.398 36.4526C132.354 36.4526 133.131 37.2296 133.131 38.1846C133.131 39.1399 132.354 39.9171 131.398 39.9171ZM131.398 36.7124C130.586 36.7124 129.926 37.3729 129.926 38.1846C129.926 38.9966 130.586 39.6571 131.398 39.6571C132.21 39.6571 132.871 38.9966 132.871 38.1846C132.871 37.3729 132.21 36.7124 131.398 36.7124Z" fill="#333333"/>
<path d="M121.522 65.0164C121.451 65.0164 121.393 64.9584 121.393 64.8867V63.9769C121.393 63.9052 121.451 63.8472 121.522 63.8472C121.594 63.8472 121.652 63.9052 121.652 63.9769V64.8867C121.652 64.9584 121.594 65.0164 121.522 65.0164Z" fill="#333333"/>
<path d="M121.523 62.2353C121.451 62.2353 121.393 62.1773 121.393 62.1053V60.2338C121.393 60.162 121.451 60.1038 121.523 60.1038C121.594 60.1038 121.652 60.162 121.652 60.2338V62.1053C121.652 62.1773 121.594 62.2353 121.523 62.2353ZM121.523 58.4921C121.451 58.4921 121.393 58.4338 121.393 58.362V56.4903C121.393 56.4185 121.451 56.3603 121.523 56.3603C121.594 56.3603 121.652 56.4185 121.652 56.4903V58.362C121.652 58.4338 121.594 58.4921 121.523 58.4921ZM121.523 54.7486C121.451 54.7486 121.393 54.6903 121.393 54.6185V52.7468C121.393 52.675 121.451 52.6171 121.523 52.6171C121.594 52.6171 121.652 52.675 121.652 52.7468V54.6185C121.652 54.6903 121.594 54.7486 121.523 54.7486ZM121.523 51.0051C121.451 51.0051 121.393 50.947 121.393 50.875V49.0036C121.393 48.9316 121.451 48.8736 121.523 48.8736C121.594 48.8736 121.652 48.9316 121.652 49.0036V50.875C121.652 50.947 121.594 51.0051 121.523 51.0051ZM121.523 47.2616C121.451 47.2616 121.393 47.2035 121.393 47.1318V45.26C121.393 45.1883 121.451 45.1301 121.523 45.1301C121.594 45.1301 121.652 45.1883 121.652 45.26V47.1318C121.652 47.2035 121.594 47.2616 121.523 47.2616ZM121.523 43.5183C121.451 43.5183 121.393 43.46 121.393 43.3883V41.5165C121.393 41.4448 121.451 41.3866 121.523 41.3866C121.594 41.3866 121.652 41.4448 121.652 41.5165V43.3883C121.652 43.46 121.594 43.5183 121.523 43.5183ZM121.523 39.7748C121.451 39.7748 121.393 39.7165 121.393 39.6448V37.773C121.393 37.7013 121.451 37.6433 121.523 37.6433C121.594 37.6433 121.652 37.7013 121.652 37.773V39.6448C121.652 39.7165 121.594 39.7748 121.523 39.7748ZM121.523 36.0316C121.451 36.0316 121.393 35.9733 121.393 35.9016V34.0331C121.393 33.9613 121.451 33.9016 121.523 33.9016C121.594 33.9016 121.652 33.9578 121.652 34.0298V35.9016C121.652 35.9733 121.594 36.0316 121.523 36.0316ZM131.398 34.9273C131.326 34.9273 131.268 34.869 131.268 34.7973V34.0331C131.268 33.8181 131.093 33.6433 130.878 33.6433H130.587C130.516 33.6433 130.457 33.585 130.457 33.5133C130.457 33.4415 130.516 33.3833 130.587 33.3833H130.878C131.236 33.3833 131.528 33.6748 131.528 34.0331V34.7973C131.528 34.869 131.47 34.9273 131.398 34.9273ZM128.716 33.6433H126.844C126.772 33.6433 126.714 33.585 126.714 33.5133C126.714 33.4415 126.772 33.3833 126.844 33.3833H128.716C128.787 33.3833 128.846 33.4415 128.846 33.5133C128.846 33.585 128.787 33.6433 128.716 33.6433ZM124.972 33.6433H123.101C123.029 33.6433 122.971 33.585 122.971 33.5133C122.971 33.4415 123.029 33.3833 123.101 33.3833H124.972C125.044 33.3833 125.102 33.4415 125.102 33.5133C125.102 33.585 125.044 33.6433 124.972 33.6433Z" fill="#333333"/>
<path d="M131.398 37.7117C131.326 37.7117 131.268 37.6535 131.268 37.5817V36.6722C131.268 36.6002 131.326 36.5422 131.398 36.5422C131.469 36.5422 131.528 36.6002 131.528 36.6722V37.5817C131.528 37.6535 131.469 37.7117 131.398 37.7117Z" fill="#333333"/>
<path d="M194.354 141.225H5.76463C5.08345 141.225 4.53125 140.673 4.53125 139.992V133.28C4.53125 132.599 5.08345 132.047 5.76463 132.047H194.354C195.035 132.047 195.587 132.599 195.587 133.28V139.992C195.587 140.673 195.035 141.225 194.354 141.225Z" fill="#75E0E6"/>
<path d="M79.8854 83.642C79.8436 83.642 79.8016 83.6285 79.7661 83.601L73.1476 78.465C73.0626 78.399 73.0471 78.2768 73.1134 78.1918C73.1791 78.1065 73.3016 78.0913 73.3866 78.157L80.0051 83.293C80.0901 83.359 80.1056 83.4815 80.0396 83.5665C80.0011 83.616 79.9436 83.642 79.8854 83.642Z" fill="#333333"/>
<path d="M74.7496 83.6421C74.7104 83.6421 74.6709 83.6303 74.6366 83.6058C74.5489 83.5436 74.5284 83.4218 74.5909 83.3341L78.2441 78.1983C78.3066 78.1106 78.4281 78.0898 78.5159 78.1523C78.6036 78.2148 78.6241 78.3366 78.5616 78.4241L74.9086 83.5601C74.8704 83.6133 74.8104 83.6421 74.7496 83.6421Z" fill="#333333"/>
<path d="M197.055 86.8619C197.014 86.8619 196.972 86.8486 196.936 86.8211L190.318 81.6851C190.233 81.6191 190.217 81.4969 190.283 81.4116C190.349 81.3266 190.472 81.3111 190.557 81.3771L197.175 86.5131C197.26 86.5791 197.276 86.7014 197.209 86.7866C197.171 86.8361 197.114 86.8619 197.055 86.8619Z" fill="#333333"/>
<path d="M191.92 86.8618C191.88 86.8618 191.841 86.8503 191.807 86.8258C191.719 86.7635 191.698 86.6418 191.761 86.554L195.414 81.4183C195.477 81.3305 195.598 81.3098 195.686 81.3723C195.774 81.4348 195.794 81.5565 195.732 81.644L192.079 86.78C192.04 86.8333 191.98 86.8618 191.92 86.8618Z" fill="#333333"/>
<path d="M87.5163 44.0494C87.4745 44.0494 87.4325 44.0361 87.397 44.0086L80.7785 38.8726C80.6935 38.8066 80.678 38.6844 80.7442 38.5991C80.81 38.5141 80.9325 38.4986 81.0175 38.5646L87.636 43.7006C87.721 43.7666 87.7365 43.8889 87.6705 43.9741C87.632 44.0236 87.5745 44.0494 87.5163 44.0494Z" fill="#333333"/>
<path d="M82.3803 44.0493C82.3413 44.0493 82.3018 44.0378 82.2675 44.0133C82.1798 43.9508 82.1593 43.8293 82.2215 43.7415L85.8748 38.6058C85.9373 38.518 86.059 38.4973 86.1465 38.5598C86.2345 38.6223 86.2548 38.744 86.1925 38.8315L82.5393 43.9673C82.5013 44.0208 82.4413 44.0493 82.3803 44.0493Z" fill="#333333"/>
<path d="M141.559 14.6314C141.518 14.6314 141.475 14.6181 141.44 14.5905L134.821 9.4546C134.736 9.3886 134.721 9.26627 134.787 9.18115C134.853 9.09612 134.976 9.08065 135.061 9.14662L141.679 14.2826C141.764 14.3485 141.779 14.4709 141.713 14.556C141.675 14.6055 141.617 14.6314 141.559 14.6314Z" fill="#333333"/>
<path d="M136.423 14.6314C136.384 14.6314 136.345 14.6197 136.31 14.5953C136.223 14.5329 136.202 14.4112 136.265 14.3235L139.918 9.18772C139.98 9.10005 140.102 9.07935 140.19 9.1418C140.277 9.20422 140.298 9.3259 140.236 9.4136L136.582 14.5494C136.544 14.6028 136.484 14.6314 136.423 14.6314Z" fill="#333333"/>
<g opacity="0.7">
<path opacity="0.1" d="M31.8425 49.2549L35.2235 42.0069L34.1035 40.4086L34.535 39.4836C34.275 39.5666 34.0152 39.6551 33.7527 39.7434C33.5317 39.8186 33.311 39.8941 33.0875 39.9746C32.6767 40.1201 32.2637 40.2709 31.8505 40.4269C31.6945 40.4866 31.5385 40.5464 31.3825 40.6089C31.0292 40.7466 30.6757 40.8869 30.3197 41.0324C30.143 41.1051 29.9662 41.1804 29.7895 41.2559C29.6102 41.3311 29.4335 41.4066 29.2567 41.4846C28.7267 41.7159 28.194 41.9576 27.6637 42.2069C27.1337 42.4591 26.6062 42.7164 26.0812 42.9866L26.0785 42.9841C25.998 43.0231 25.9175 43.0646 25.8395 43.1061C24.8416 43.6234 23.8566 44.1716 22.8899 44.7564C22.617 44.9201 22.3286 45.0969 22.0245 45.2839L23.2615 47.0536L29.0047 46.5521L31.4815 49.2469L23.641 49.9331L20.8863 45.9986C20.8135 46.0426 20.7407 46.0896 20.668 46.1389L23.5136 50.2034L31.7047 49.4886L36.9647 55.2136C37.0142 55.1409 37.0635 55.0656 37.1127 54.9929L31.8425 49.2549ZM31.6502 49.0469L29.3322 46.5234L31.3332 46.3494L33.9762 40.6816L34.9247 42.0329L31.6502 49.0469Z" fill="#333333"/>
</g>
<path d="M24.7066 79.9447C24.1614 79.9447 23.6537 79.5987 23.4732 79.0527L22.6891 76.681C22.4713 76.0222 22.584 75.2935 22.9902 74.7312C23.3965 74.1692 24.053 73.8337 24.7465 73.8337H27.3761C28.0938 73.8337 28.6756 74.4155 28.6756 75.133C28.6756 75.8507 28.0938 76.4325 27.3761 76.4325H25.3438L25.9406 78.2372C26.1658 78.9185 25.7961 79.6535 25.1148 79.8785C24.9795 79.9235 24.8419 79.9447 24.7066 79.9447Z" fill="white"/>
<path d="M62.2503 116.215C62.7086 115.694 62.5123 114.772 61.8121 114.156C61.1116 113.541 60.1726 113.464 59.7143 113.986C59.2561 114.507 59.4523 115.429 60.1526 116.044C60.8528 116.66 61.7921 116.736 62.2503 116.215Z" fill="#B5CDFB"/>
<g opacity="0.25">
<path opacity="0.25" d="M66.7718 116.185C67.2301 115.663 67.0338 114.742 66.3335 114.126C65.633 113.511 64.694 113.434 64.2358 113.956C63.7775 114.477 63.9738 115.399 64.674 116.014C65.3743 116.63 66.3136 116.706 66.7718 116.185Z" fill="#B5CDFB"/>
</g>
<g opacity="0.68">
<path opacity="0.68" d="M71.2933 116.155C71.7515 115.634 71.5553 114.712 70.855 114.097C70.1545 113.481 69.2155 113.405 68.7573 113.926C68.299 114.447 68.4953 115.369 69.1955 115.985C69.8958 116.6 70.835 116.676 71.2933 116.155Z" fill="#B5CDFB"/>
</g>
</svg>
