<svg xmlns="http://www.w3.org/2000/svg" viewBox="0 0 857.32 199.16"><defs><style>.cls-1{fill:#fff;}</style></defs><title>Fichier 1</title><g id="Calque_2" data-name="Calque 2"><g id="Calque_1-2" data-name="Calque 1"><path class="cls-1" d="M79.34,152.29a53.86,53.86,0,0,1-9.48,28.8c5.77.61,17.24,9.1,18.3,18.08l-28.3-.08c-1.47-9.9-5.47-16-9.18-19C54.13,175.75,63,168.2,69,149.86a105.52,105.52,0,0,0,10.34,2.43Z"/><path class="cls-1" d="M161.57,143.22c2,5.3,6.9,14,10,18.58,2.86,18.63,2.61,24.79-6.68,37.35H134.27c.08-8.58,6.92-12.32,8.49-17.45-2.37-7.44-9.87-13.59-12.46-23C139.75,158.1,154,151.24,161.57,143.22Z"/><path class="cls-1" d="M14.65,41.81c1.55-2.2,3.06-4.35,5.49-5,6.52-.08,7.64,5.11,7.08,7.73-7.16-2.61-9.82.67-12.32,3.74a12.16,12.16,0,0,1-3.73,3.5c-.94-1-2.59-2.86-1.37-5C11.89,45.73,13.29,43.75,14.65,41.81Zm.1,10.88a7.33,7.33,0,0,1,5.85-3.44A8.45,8.45,0,0,0,18,53,5.52,5.52,0,0,1,14.75,52.69Zm8.35,20.39c-4-2.44-9.52-3.55-16-3C8.92,66,12.21,59.82,14.73,58.06a4.65,4.65,0,0,1,3-.7c2.2,0,5-.07,8.61-5,.15,2.11-1,4.28-2.27,6.62C21.92,63,19.49,67.55,23.11,73.08ZM24.43,88.6c-.18.91-.36,1.85-.51,2.81C19.28,89.6,9.18,84.29,5.34,75.28c8.49-.87,16.8,1.27,19,5C25.63,82.44,25.07,85.3,24.43,88.6ZM0,75.76c3.82,12.8,19.77,20.3,27,22.33.36-1.61.7-3.26,1-4.93,2-9.73,4.15-20.08,11.45-25.89-4.85,8.13-6.4,18.36-8,28.89-.87,5.73-1.75,11.55-3.19,17.18A112.81,112.81,0,0,1,23.65,126c1-1,2.06-2,3.15-3,5.8-5.49,12.58-11.92,15.49-21.25-2.22,12.08-8.37,19.51-14.65,27.09C23.32,134,19,139.3,15.74,146.2,9.59,159.41.92,186.55,13,199.16H53.61c0-5.37-2.18-8.34-4.5-11.45a24.85,24.85,0,0,1-4.28-7.56c1.33-7.43,4-11.08,7.63-16.11,3.9-5.37,8.93-12.3,14.71-27.08l-2,1.43c-6.44,4.56-14,9.89-19.34,18.1,4.38-11,13.61-18.39,22.65-25.66s17.9-14.4,21.55-24.77c-.65,9.28-5.31,14.7-10,20.17-3,3.46-6,6.93-8,11.42,23.54,24,59,15.11,88.33,7.77l1.17-.3a47.88,47.88,0,0,1-.94-14.74c6.51,29.84,19.77,41.1,30.69,49.7-5.19,2.39-10.91,10-11.27,19.07h39.2c18.79-18,12.77-27.51,5.17-39.46-2.85-4.47-5.91-9.29-8-15a39.73,39.73,0,0,0-2.15,21.11c-4.26-10.3-3-18.55-1.77-27.11a81.66,81.66,0,0,0,1.23-14.46c-.63-24-3.24-51.38-31.76-57.77-7.7-1.73-13.7-.32-19.71,1.09C155.62,69.09,149,70.65,140,68c-9.77-1.85-15.38-9.35-21.32-17.32C111.42,40.95,103.62,30.51,87,28.86c5.63,6.34,11.31,13.25,13.37,24C97.23,45.12,92,39.64,86.1,33.35c-3.16-3.34-6.54-6.91-10-11.17l0,0A156.19,156.19,0,0,0,65.32,9.56a37.77,37.77,0,0,1,6.11,2,19.26,19.26,0,0,0-6.59-4.9,55.9,55.9,0,0,1,5.56,1.25C56.65-6.08,29.94-.26,20.48,15.76a87,87,0,0,0-7.09,16c-1.67,4.72-3,8.44-5.3,10.62-5.7,5.38-3.7,10,1.41,15-3,3.68-9,14.25-9.5,18.37Zm136.39,24.67c22.35,7.53,39.61,4.39,43.65-8,2.72-8.3-8.32-10.46-22.64-13.25a175.7,175.7,0,0,1-22.2-5.37c-11.57-3.9-18.17-12-22.41-17.25-3.94-4.86-5.84-7.19-7.8-1.22C101,67.74,114,92.91,136.39,100.43Z"/><path class="cls-1" d="M269.32,76.29,282.61,75c.8,4.46,2.42,7.73,4.87,9.83s5.75,3.13,9.9,3.13q6.59,0,9.94-2.79a8.32,8.32,0,0,0,3.35-6.53,6.15,6.15,0,0,0-1.41-4.08,11.28,11.28,0,0,0-4.92-2.93q-2.4-.83-10.94-3Q282.43,66,278,62a17.6,17.6,0,0,1-6.23-13.61,17.35,17.35,0,0,1,2.93-9.67,18.33,18.33,0,0,1,8.44-6.85,33.94,33.94,0,0,1,13.31-2.35q12.73,0,19.17,5.58T322.38,50l-13.66.6q-.87-5.21-3.75-7.49t-8.65-2.29c-4,0-7.08.82-9.32,2.44a4.93,4.93,0,0,0-2.17,4.2,5.2,5.2,0,0,0,2,4.11q2.59,2.17,12.55,4.52t14.74,4.87a19.07,19.07,0,0,1,7.48,6.87,20.15,20.15,0,0,1,2.7,10.77,19.9,19.9,0,0,1-3.23,10.89A19.33,19.33,0,0,1,312,97a38.41,38.41,0,0,1-14.72,2.46q-12.82,0-19.7-5.93t-8.22-17.27Z"/><rect class="cls-1" x="335.39" y="30.66" width="13.65" height="67.64"/><path class="cls-1" d="M362.43,98.3V31.21h13.65V86.9h34V98.3H362.43Z"/><path class="cls-1" d="M430,98.3,405.85,30.66h14.81l17.12,50.06,16.56-50.06h14.49L444.6,98.3H430Z"/><path class="cls-1" d="M475.79,98.3V30.66h50.15V42.1H489.45v15h34V68.49h-34V86.9h37.78V98.3Z"/><path class="cls-1" d="M538.86,98.3V30.66h28.75q10.85,0,15.75,1.82A15.53,15.53,0,0,1,591.23,39a19.52,19.52,0,0,1,3,10.66,18.06,18.06,0,0,1-4.48,12.57q-4.47,5-13.37,6.25a31.71,31.71,0,0,1,7.31,5.68,77.14,77.14,0,0,1,7.77,11l8.26,13.2H583.35l-9.88-14.72a94.62,94.62,0,0,0-7.2-9.94,10.5,10.5,0,0,0-4.11-2.82,22.5,22.5,0,0,0-6.87-.76h-2.77V98.3H538.86Zm13.66-39h10.11q9.82,0,12.27-.83a7.36,7.36,0,0,0,3.83-2.86,8.82,8.82,0,0,0,1.39-5.08A8.14,8.14,0,0,0,578.29,45a8.37,8.37,0,0,0-5.14-2.65c-1.11-.15-4.43-.23-10-.23H552.52V59.26Z"/><path class="cls-1" d="M607.11,98.3V30.66h25.37q7.75,0,12.44,2A16,16,0,0,1,652.25,39,16.62,16.62,0,0,1,654.9,48a15.31,15.31,0,0,1-2.35,8.16,16.75,16.75,0,0,1-7.11,6.18,17.67,17.67,0,0,1,9.44,6.14,16.44,16.44,0,0,1,3.3,10.24,19.77,19.77,0,0,1-2,8.84,17.06,17.06,0,0,1-5,6.3,20.69,20.69,0,0,1-7.4,3.35,45.1,45.1,0,0,1-10.92,1.13H607.11Zm9-39.22h14.63a32.39,32.39,0,0,0,8.54-.79,9.47,9.47,0,0,0,5.14-3.37A9.7,9.7,0,0,0,646.09,49a10.86,10.86,0,0,0-1.62-5.92,8.14,8.14,0,0,0-4.61-3.51q-3-1-10.29-1H616.06V59.08Zm0,31.23h16.84A38.41,38.41,0,0,0,639,90a14.5,14.5,0,0,0,5.17-1.85,9.75,9.75,0,0,0,3.41-3.76,11.72,11.72,0,0,0,1.35-5.7A11.2,11.2,0,0,0,647,72.12a10.19,10.19,0,0,0-5.37-3.92,33.3,33.3,0,0,0-9.89-1.13H616.06Z"/><path class="cls-1" d="M663.07,98.3l26-67.64h9.64L726.37,98.3h-10.2l-7.89-20.49H680L672.57,98.3h-9.5Zm19.51-27.77h22.93l-7.06-18.73q-3.23-8.55-4.8-14A86.52,86.52,0,0,1,690,50.68Z"/><path class="cls-1" d="M781.78,74.58l9,2.26q-2.82,11-10.13,16.82t-17.87,5.8q-10.94,0-17.79-4.46A27.8,27.8,0,0,1,734.51,82.1,46.06,46.06,0,0,1,730.94,64a39.76,39.76,0,0,1,4-18.43,27.63,27.63,0,0,1,11.49-12,33.55,33.55,0,0,1,16.4-4.08q10.15,0,17.07,5.17a26.81,26.81,0,0,1,9.65,14.54l-8.82,2.08q-2.36-7.38-6.82-10.75a18.2,18.2,0,0,0-11.26-3.37,21.91,21.91,0,0,0-13,3.73,19.74,19.74,0,0,0-7.36,10,40.42,40.42,0,0,0-2.12,13A41.31,41.31,0,0,0,742.68,79a18.76,18.76,0,0,0,7.82,9.62A22,22,0,0,0,762,91.79a19.22,19.22,0,0,0,12.73-4.34Q779.94,83.11,781.78,74.58Z"/><path class="cls-1" d="M801.39,98.3V30.66h9V64.2l33.59-33.54h12.13L827.69,58.07,857.32,98.3H845.5L821.42,64.06l-11.07,10.8V98.3h-9Z"/><path class="cls-1" d="M352.75,175V128.74h9.7v38.42h24.13V175H352.75Z"/><path class="cls-1" d="M400,152a28.89,28.89,0,0,1,2.2-12,21.81,21.81,0,0,1,4.48-6.4,18.74,18.74,0,0,1,6.21-4.2,27.17,27.17,0,0,1,10.36-1.85q10.63,0,17,6.4t6.38,17.8q0,11.3-6.33,17.68t-16.92,6.38q-10.72,0-17-6.35T400,152Zm10-.32q0,7.93,3.77,12a13.24,13.24,0,0,0,19.1,0q3.72-4.06,3.72-12.18t-3.62-12a13.71,13.71,0,0,0-19.3,0Q410,143.6,410,151.66Z"/><path class="cls-1" d="M485,157.87V150h20.92V168.6a26.63,26.63,0,0,1-8.84,5,33.09,33.09,0,0,1-11.73,2.18,27,27,0,0,1-13.14-3.07A19.79,19.79,0,0,1,463.8,164,27.69,27.69,0,0,1,461,151.53a26.24,26.24,0,0,1,3.14-13,20.91,20.91,0,0,1,9.22-8.69,25.47,25.47,0,0,1,11.51-2.32q8.95,0,14,3.65a16.4,16.4,0,0,1,6.47,10.08L495.68,143a10,10,0,0,0-3.82-5.43,11.82,11.82,0,0,0-7-2q-6.36,0-10.11,3.92T471,151.15q0,8.3,3.8,12.46a12.88,12.88,0,0,0,10,4.15,17.12,17.12,0,0,0,6.11-1.16,20.63,20.63,0,0,0,5.26-2.82v-5.92Z"/><rect class="cls-1" x="523.05" y="128.36" width="9.7" height="46.67"/><path class="cls-1" d="M548,159.84l9.44-.89q.85,4.62,3.46,6.78a10.65,10.65,0,0,0,7,2.17q4.69,0,7.06-1.93a5.67,5.67,0,0,0,2.37-4.51,4.21,4.21,0,0,0-1-2.82,8.13,8.13,0,0,0-3.5-2q-1.7-.57-7.77-2-7.8-1.88-11-4.61a12,12,0,0,1-4.43-9.39,11.77,11.77,0,0,1,2.08-6.67,13,13,0,0,1,6-4.73,24.65,24.65,0,0,1,9.46-1.63q9.05,0,13.63,3.85a13.45,13.45,0,0,1,4.8,10.28l-9.7.42a7.91,7.91,0,0,0-2.68-5.17q-2-1.57-6.15-1.58a11.38,11.38,0,0,0-6.62,1.68,3.38,3.38,0,0,0-1.54,2.9,3.55,3.55,0,0,0,1.44,2.83q1.84,1.5,8.92,3.12a47.79,47.79,0,0,1,10.48,3.36,13.36,13.36,0,0,1,5.31,4.74,14.32,14.32,0,0,1-.37,15,13.72,13.72,0,0,1-6.49,5.2,28,28,0,0,1-10.46,1.7q-9.11,0-14-4.08T548,159.84Z"/><path class="cls-1" d="M614.54,175V136.25H600.27v-7.89h38.2v7.89H624.24V175Z"/><rect class="cls-1" x="652.89" y="128.36" width="9.7" height="46.67"/><path class="cls-1" d="M711.06,157.87l9.42,2.89q-2.17,7.64-7.2,11.35t-12.77,3.7a21,21,0,0,1-15.74-6.35q-6.16-6.35-6.16-17.37,0-11.65,6.2-18.1t16.3-6.44q8.82,0,14.33,5.06a18.28,18.28,0,0,1,4.92,8.59l-9.61,2.23a9.86,9.86,0,0,0-3.56-5.73,10.4,10.4,0,0,0-6.58-2.1,11.06,11.06,0,0,0-8.67,3.73q-3.33,3.72-3.33,12.06,0,8.85,3.28,12.61a10.77,10.77,0,0,0,8.52,3.75,9.85,9.85,0,0,0,6.65-2.39q2.79-2.39,4-7.51Z"/><path class="cls-1" d="M734.81,159.84l9.44-.89q.85,4.62,3.46,6.78a10.64,10.64,0,0,0,7,2.17q4.69,0,7.07-1.93a5.67,5.67,0,0,0,2.37-4.51,4.18,4.18,0,0,0-1-2.82,8.05,8.05,0,0,0-3.49-2q-1.7-.57-7.77-2-7.81-1.88-11-4.61a12,12,0,0,1-4.43-9.39,11.77,11.77,0,0,1,2.08-6.67,13,13,0,0,1,6-4.73,24.65,24.65,0,0,1,9.46-1.63q9.05,0,13.63,3.85a13.45,13.45,0,0,1,4.8,10.28l-9.7.42a7.94,7.94,0,0,0-2.68-5.17q-2-1.57-6.15-1.58a11.36,11.36,0,0,0-6.62,1.68,3.38,3.38,0,0,0-1.54,2.9,3.55,3.55,0,0,0,1.44,2.83q1.84,1.5,8.92,3.12a47.92,47.92,0,0,1,10.48,3.36A13.4,13.4,0,0,1,772,154a13.61,13.61,0,0,1,1.92,7.44,13.42,13.42,0,0,1-2.3,7.51,13.66,13.66,0,0,1-6.49,5.2,28,28,0,0,1-10.46,1.7q-9.12,0-14-4.08T734.81,159.84Z"/></g></g></svg>