<svg width="29" height="28" viewBox="0 0 29 28" fill="none" xmlns="http://www.w3.org/2000/svg">
<path fill-rule="evenodd" clip-rule="evenodd" d="M14.7232 27.0064C22.4699 27.0064 28.7499 20.9608 28.7499 13.5032C28.7499 6.04559 22.4699 0 14.7232 0C6.97649 0 0.696533 6.04559 0.696533 13.5032C0.696533 20.9608 6.97649 27.0064 14.7232 27.0064Z" fill="black"/>
<path d="M12.1474 20.8687C13.541 20.8687 14.6722 19.7689 14.6722 18.4136V15.9585H12.1474C10.7537 15.9585 9.62256 17.0584 9.62256 18.4136C9.62256 19.7689 10.7537 20.8687 12.1474 20.8687Z" fill="#0ACF83"/>
<path d="M9.62256 13.5032C9.62256 12.148 10.7537 11.0481 12.1474 11.0481H14.6722V15.9583H12.1474C10.7537 15.9583 9.62256 14.8585 9.62256 13.5032Z" fill="#A259FF"/>
<path d="M9.62256 8.59307C9.62256 7.23784 10.7537 6.13794 12.1474 6.13794H14.6722V11.0482H12.1474C10.7537 11.0482 9.62256 9.9483 9.62256 8.59307Z" fill="#F24E1E"/>
<path d="M14.6721 6.13794H17.1969C18.5906 6.13794 19.7217 7.23784 19.7217 8.59307C19.7217 9.9483 18.5906 11.0482 17.1969 11.0482H14.6721V6.13794Z" fill="#FF7262"/>
<path d="M19.7217 13.5032C19.7217 14.8585 18.5906 15.9583 17.1969 15.9583C15.8032 15.9583 14.6721 14.8585 14.6721 13.5032C14.6721 12.148 15.8032 11.0481 17.1969 11.0481C18.5906 11.0481 19.7217 12.148 19.7217 13.5032Z" fill="#1ABCFE"/>
</svg>
