<svg width="44" height="44" viewBox="0 0 44 44" fill="none" xmlns="http://www.w3.org/2000/svg">
<path fill-rule="evenodd" clip-rule="evenodd" d="M22 44C34.1503 44 44 34.1503 44 22C44 9.84974 34.1503 0 22 0C9.84974 0 0 9.84974 0 22C0 34.1503 9.84974 44 22 44Z" fill="black"/>
<path d="M21.0308 8.01152C14.8789 8.01152 15.268 10.9591 15.268 10.9591V14.0219H21.1183V14.982H12.9381C12.9381 14.982 9 14.4443 9 21.362C9 28.2797 12.4771 27.9984 12.4771 27.9984H14.4847V24.7714C14.4847 24.7714 14.372 20.9185 17.8639 20.9185H23.7229C23.7229 20.9185 26.9911 20.9761 26.9911 17.4121V11.564C26.9911 11.564 27.4868 8 21.0628 8L21.0308 8.01152ZM17.7972 10.0633C18.0051 10.0575 18.21 10.1202 18.3859 10.2434C18.5617 10.3666 18.7006 10.5448 18.7851 10.7555C18.8695 10.9662 18.8956 11.1999 18.8602 11.4271C18.8247 11.6543 18.7293 11.8647 18.5859 12.0318C18.4426 12.1988 18.2577 12.315 18.0547 12.3656C17.8518 12.4163 17.6398 12.3991 17.4456 12.3162C17.2515 12.2334 17.0839 12.0886 16.964 11.9002C16.8441 11.7117 16.7773 11.4882 16.7721 11.2577V11.2385C16.7721 11.0854 16.7993 10.9339 16.8522 10.7924C16.9051 10.651 16.9825 10.5225 17.0802 10.4143C17.1779 10.3061 17.2939 10.2202 17.4215 10.1616C17.5491 10.1031 17.6859 10.0729 17.824 10.0729L17.7972 10.0633Z" fill="url(#paint0_linear_70_3301)"/>
<path d="M21.9641 34.9981C28.1053 34.9981 27.7169 32.0408 27.7169 32.0408V28.9875H21.8776V28.0274H30.0688C30.0688 28.0274 34 28.5151 34 21.6376C34 14.76 30.5289 15.001 30.5289 15.001H28.4989V18.1859C28.4989 18.1859 28.6113 22.0389 25.1255 22.0389H19.2741C19.2741 22.0389 16.0088 21.9842 16.0088 25.5483V31.4359C16.0088 31.4359 15.5141 35 21.9269 35H21.9615L21.9641 34.9981ZM25.1921 32.9366C24.9845 32.9425 24.78 32.8798 24.6044 32.7566C24.4289 32.6334 24.2902 32.4551 24.2059 32.2444C24.1216 32.0337 24.0955 31.8 24.1309 31.5728C24.1663 31.3456 24.2616 31.1352 24.4047 30.9681C24.5478 30.8011 24.7324 30.6849 24.935 30.6342C25.1376 30.5836 25.3492 30.6008 25.543 30.6836C25.7368 30.7665 25.9042 30.9113 26.0238 31.0997C26.1435 31.2881 26.2102 31.5117 26.2154 31.7422V31.771C26.2154 32.0802 26.1047 32.3766 25.9078 32.5952C25.7109 32.8138 25.4438 32.9366 25.1653 32.9366H25.1913H25.1921Z" fill="url(#paint1_linear_70_3301)"/>
<defs>
<linearGradient id="paint0_linear_70_3301" x1="11.3976" y1="10.6258" x2="24.0846" y2="22.0492" gradientUnits="userSpaceOnUse">
<stop stop-color="#387EB8"/>
<stop offset="1" stop-color="#366994"/>
</linearGradient>
<linearGradient id="paint1_linear_70_3301" x1="18.9735" y1="19.2022" x2="33.2689" y2="30.4451" gradientUnits="userSpaceOnUse">
<stop stop-color="#FFE052"/>
<stop offset="1" stop-color="#FFC331"/>
</linearGradient>
</defs>
</svg>
