<svg width="44" height="44" viewBox="0 0 44 44" fill="none" xmlns="http://www.w3.org/2000/svg">
<path fill-rule="evenodd" clip-rule="evenodd" d="M22 44C34.1503 44 44 34.1503 44 22C44 9.84974 34.1503 0 22 0C9.84974 0 0 9.84974 0 22C0 34.1503 9.84974 44 22 44Z" fill="black"/>
<path d="M21.996 23.795C23.179 23.795 24.138 22.836 24.138 21.653C24.138 20.47 23.179 19.511 21.996 19.511C20.813 19.511 19.854 20.47 19.854 21.653C19.854 22.836 20.813 23.795 21.996 23.795Z" fill="#00D8FF"/>
<path d="M21.9958 17.8091C24.7638 17.8091 27.3932 18.1994 29.3922 18.8876C31.6124 19.6519 32.9666 20.7819 32.9666 21.6526C32.9666 22.58 31.5041 23.784 29.1293 24.5709C27.2387 25.1973 24.7092 25.5387 21.9958 25.5387C19.1452 25.5387 16.5872 25.2039 14.7185 24.5652C13.5487 24.1653 12.5826 23.6457 11.9204 23.0786C11.3253 22.569 11.0249 22.0631 11.0249 21.6526C11.0249 20.779 12.3273 19.6646 14.4996 18.9073C16.4995 18.2101 19.1933 17.8091 21.9958 17.8091ZM21.9958 16.7842C19.0844 16.7842 16.2778 17.202 14.1622 17.9395C11.6221 18.8251 10 20.2129 10 21.6526C10 23.1394 11.7414 24.6307 14.387 25.535C16.3757 26.2147 19.0413 26.5636 21.9958 26.5636C24.8116 26.5636 27.4475 26.2078 29.4517 25.5438C32.2021 24.6325 33.9915 23.1593 33.9915 21.6526C33.9915 20.2077 32.3171 18.8105 29.7259 17.9185C27.6129 17.1911 24.8717 16.7842 21.9958 16.7842ZM18.6478 19.7432C20.0306 17.3454 21.6823 15.2625 23.2771 13.8746C25.0483 12.3332 26.7038 11.7246 27.458 12.1595C28.2614 12.6228 28.5738 14.4913 28.069 16.9415C27.6672 18.8922 26.6993 21.254 25.3437 23.6046C23.9197 26.074 22.3518 28.1227 20.8649 29.4224C19.9341 30.236 19.0013 30.8133 18.1792 31.1037C17.4405 31.3646 16.8521 31.372 16.4965 31.167C15.7397 30.7305 15.4251 29.0456 15.8543 26.7855C16.2493 24.7048 17.2477 22.171 18.6478 19.7432L18.6478 19.7432ZM17.76 19.2312C16.3055 21.7533 15.2653 24.3933 14.8473 26.5943C14.3455 29.2371 14.7374 31.3356 15.9845 32.0548C17.2726 32.7976 19.4344 32.0341 21.5394 30.194C23.1218 28.8109 24.7556 26.6761 26.2316 24.1167C27.6382 21.6774 28.6469 19.2163 29.0729 17.1483C29.6575 14.3105 29.2753 12.0243 27.97 11.2716C26.7184 10.5499 24.6715 11.3024 22.6043 13.1015C20.9185 14.5685 19.1967 16.7399 17.76 19.2312L17.76 19.2312ZM18.651 23.6102C17.2642 21.2147 16.2846 18.7435 15.8786 16.6687C15.4277 14.3644 15.7272 12.6262 16.4807 12.19C17.2834 11.7253 19.0582 12.3878 20.9289 14.0488C22.4182 15.3712 23.981 17.3892 25.3405 19.7376C26.7687 22.2046 27.7606 24.5861 28.144 26.5234C28.3841 27.7362 28.4184 28.8326 28.2594 29.6898C28.1165 30.4601 27.8291 30.9735 27.4738 31.1792C26.7178 31.6169 25.1009 31.048 23.3571 29.5475C21.7518 28.1661 20.0552 26.0357 18.651 23.6102L18.651 23.6102ZM17.764 24.1237C19.2228 26.6434 20.9904 28.8631 22.6886 30.3244C24.7276 32.079 26.7414 32.7875 27.9873 32.0662C29.2741 31.3213 29.6923 29.0671 29.1494 26.3244C28.7413 24.2627 27.7077 21.781 26.2275 19.2241C24.8167 16.7872 23.1882 14.6843 21.6094 13.2824C19.4428 11.3587 17.2712 10.5481 15.9672 11.303C14.7168 12.0269 14.3466 14.1761 14.8728 16.8655C15.3019 19.0586 16.3232 21.6348 17.764 24.1237L17.764 24.1237Z" fill="#00D8FF"/>
</svg>
