<svg xmlns="http://www.w3.org/2000/svg" viewBox="0 0 199 199"><defs><style>.cls-1{fill:#f8fdff;}.cls-2{fill:#002654;}.cls-3,.cls-4{fill:none;stroke:#002654;stroke-miterlimit:10;}.cls-3{stroke-width:4px;}.cls-4{stroke-width:3px;}</style></defs><title>Fichier 3</title><g id="Calque_2" data-name="Calque 2"><g id="Calque_1-2" data-name="Calque 1"><rect class="cls-1" width="199" height="199" rx="35" ry="35"/><path class="cls-2" d="M117.3,112.43A19.15,19.15,0,0,1,98.16,93.29,19.15,19.15,0,0,1,117.3,74.15a19,19,0,0,1,16.8,10h-5a14.9,14.9,0,1,0-22.29,19.71,14.89,14.89,0,0,0,17.94,2.37,14.78,14.78,0,0,0,5.37-5.34h4.8a18.93,18.93,0,0,1-7,8.37A18.55,18.55,0,0,1,117.3,112.43Z"/><circle class="cls-3" cx="117.08" cy="93.16" r="22.76"/><line class="cls-3" x1="41.2" y1="164.27" x2="97.89" y2="107.57"/><line class="cls-3" x1="102.49" y1="77.16" x2="59.97" y2="34.64"/><line class="cls-3" x1="130.14" y1="75.33" x2="158.49" y2="46.98"/><line class="cls-3" x1="134.92" y1="109.59" x2="149.1" y2="123.76"/><circle class="cls-4" cx="152.98" cy="127.65" r="5.71"/><circle class="cls-4" cx="37.71" cy="167.76" r="5.71"/><circle class="cls-4" cx="161.29" cy="44.17" r="5.71" transform="translate(4.04 101.07) rotate(-35.21)"/><circle class="cls-4" cx="56.57" cy="31.24" r="5.71" transform="translate(-2.93 56.46) rotate(-51.88)"/></g></g></svg>