<svg width="1368" height="224" viewBox="0 0 1368 224" fill="none" xmlns="http://www.w3.org/2000/svg">
<g clip-path="url(#clip0_1_2016)">
<g clip-path="url(#clip1_1_2016)">
<circle cx="2.49969" cy="20.5" r="0.5" fill="white" fill-opacity="0.5"/>
<circle cx="32.4997" cy="40.5" r="0.5" fill="white" fill-opacity="0.5"/>
<circle cx="72.4997" cy="30.5" r="0.5" fill="white" fill-opacity="0.5"/>
<circle cx="92.4997" cy="0.5" r="0.5" fill="white" fill-opacity="0.5"/>
<circle cx="142.5" cy="20.5" r="0.5" fill="white" fill-opacity="0.5"/>
<circle cx="201.5" cy="30.5" r="0.5" fill="white" fill-opacity="0.5"/>
<circle cx="231.5" cy="50.5" r="0.5" fill="white" fill-opacity="0.5"/>
<circle cx="271.5" cy="40.5" r="0.5" fill="white" fill-opacity="0.5"/>
<circle cx="291.5" cy="10.5" r="0.5" fill="white" fill-opacity="0.5"/>
<circle cx="341.5" cy="30.5" r="0.5" fill="white" fill-opacity="0.5"/>
<circle cx="0.499695" cy="91.5" r="0.5" fill="white" fill-opacity="0.5"/>
<circle cx="30.4997" cy="111.5" r="0.5" fill="white" fill-opacity="0.5"/>
<circle cx="70.4997" cy="101.5" r="0.5" fill="white" fill-opacity="0.5"/>
<circle cx="90.4997" cy="71.5" r="0.5" fill="white" fill-opacity="0.5"/>
<circle cx="140.5" cy="91.5" r="0.5" fill="white" fill-opacity="0.5"/>
<circle cx="344.5" cy="20.5" r="0.5" fill="white" fill-opacity="0.5"/>
<circle cx="374.5" cy="40.5" r="0.5" fill="white" fill-opacity="0.5"/>
<circle cx="414.5" cy="30.5" r="0.5" fill="white" fill-opacity="0.5"/>
<circle cx="434.5" cy="0.5" r="0.5" fill="white" fill-opacity="0.5"/>
<circle cx="484.5" cy="20.5" r="0.5" fill="white" fill-opacity="0.5"/>
<circle cx="543.5" cy="30.5" r="0.5" fill="white" fill-opacity="0.5"/>
<circle cx="573.5" cy="50.5" r="0.5" fill="white" fill-opacity="0.5"/>
<circle cx="613.5" cy="40.5" r="0.5" fill="white" fill-opacity="0.5"/>
<circle cx="633.5" cy="10.5" r="0.5" fill="white" fill-opacity="0.5"/>
<circle cx="683.5" cy="30.5" r="0.5" fill="white" fill-opacity="0.5"/>
<circle cx="342.5" cy="91.5" r="0.5" fill="white" fill-opacity="0.5"/>
<circle cx="372.5" cy="111.5" r="0.5" fill="white" fill-opacity="0.5"/>
<circle cx="412.5" cy="101.5" r="0.5" fill="white" fill-opacity="0.5"/>
<circle cx="432.5" cy="71.5" r="0.5" fill="white" fill-opacity="0.5"/>
<circle cx="482.5" cy="91.5" r="0.5" fill="white" fill-opacity="0.5"/>
<circle cx="686.5" cy="20.5" r="0.5" fill="white" fill-opacity="0.5"/>
<circle cx="716.5" cy="40.5" r="0.5" fill="white" fill-opacity="0.5"/>
<circle cx="756.5" cy="30.5" r="0.5" fill="white" fill-opacity="0.5"/>
<circle cx="776.5" cy="0.5" r="0.5" fill="white" fill-opacity="0.5"/>
<circle cx="826.5" cy="20.5" r="0.5" fill="white" fill-opacity="0.5"/>
<circle cx="885.5" cy="30.5" r="0.5" fill="white" fill-opacity="0.5"/>
<circle cx="915.5" cy="50.5" r="0.5" fill="white" fill-opacity="0.5"/>
<circle cx="955.5" cy="40.5" r="0.5" fill="white" fill-opacity="0.5"/>
<circle cx="975.5" cy="10.5" r="0.5" fill="white" fill-opacity="0.5"/>
<circle cx="1025.5" cy="30.5" r="0.5" fill="white" fill-opacity="0.5"/>
<circle cx="684.5" cy="91.5" r="0.5" fill="white" fill-opacity="0.5"/>
<circle cx="714.5" cy="111.5" r="0.5" fill="white" fill-opacity="0.5"/>
<circle cx="754.5" cy="101.5" r="0.5" fill="white" fill-opacity="0.5"/>
<circle cx="774.5" cy="71.5" r="0.5" fill="white" fill-opacity="0.5"/>
<circle cx="824.5" cy="91.5" r="0.5" fill="white" fill-opacity="0.5"/>
<circle cx="1028.5" cy="20.5" r="0.5" fill="white" fill-opacity="0.5"/>
<circle cx="1058.5" cy="40.5" r="0.5" fill="white" fill-opacity="0.5"/>
<circle cx="1098.5" cy="30.5" r="0.5" fill="white" fill-opacity="0.5"/>
<circle cx="1118.5" cy="0.5" r="0.5" fill="white" fill-opacity="0.5"/>
<circle cx="1168.5" cy="20.5" r="0.5" fill="white" fill-opacity="0.5"/>
<circle cx="1227.5" cy="30.5" r="0.5" fill="white" fill-opacity="0.5"/>
<circle cx="1257.5" cy="50.5" r="0.5" fill="white" fill-opacity="0.5"/>
<circle cx="1297.5" cy="40.5" r="0.5" fill="white" fill-opacity="0.5"/>
<circle cx="1317.5" cy="10.5" r="0.5" fill="white" fill-opacity="0.5"/>
<circle cx="1367.5" cy="30.5" r="0.5" fill="white" fill-opacity="0.5"/>
<circle cx="1026.5" cy="91.5" r="0.5" fill="white" fill-opacity="0.5"/>
<circle cx="1056.5" cy="111.5" r="0.5" fill="white" fill-opacity="0.5"/>
<circle cx="1096.5" cy="101.5" r="0.5" fill="white" fill-opacity="0.5"/>
<circle cx="1116.5" cy="71.5" r="0.5" fill="white" fill-opacity="0.5"/>
<circle cx="1166.5" cy="91.5" r="0.5" fill="white" fill-opacity="0.5"/>
</g>
<g clip-path="url(#clip2_1_2016)">
<circle cx="2.49969" cy="132.5" r="0.5" fill="white" fill-opacity="0.5"/>
<circle cx="32.4997" cy="152.5" r="0.5" fill="white" fill-opacity="0.5"/>
<circle cx="72.4997" cy="142.5" r="0.5" fill="white" fill-opacity="0.5"/>
<circle cx="92.4997" cy="112.5" r="0.5" fill="white" fill-opacity="0.5"/>
<circle cx="142.5" cy="132.5" r="0.5" fill="white" fill-opacity="0.5"/>
<circle cx="201.5" cy="142.5" r="0.5" fill="white" fill-opacity="0.5"/>
<circle cx="231.5" cy="162.5" r="0.5" fill="white" fill-opacity="0.5"/>
<circle cx="271.5" cy="152.5" r="0.5" fill="white" fill-opacity="0.5"/>
<circle cx="291.5" cy="122.5" r="0.5" fill="white" fill-opacity="0.5"/>
<circle cx="341.5" cy="142.5" r="0.5" fill="white" fill-opacity="0.5"/>
<circle cx="0.499695" cy="203.5" r="0.5" fill="white" fill-opacity="0.5"/>
<circle cx="30.4997" cy="223.5" r="0.5" fill="white" fill-opacity="0.5"/>
<circle cx="70.4997" cy="213.5" r="0.5" fill="white" fill-opacity="0.5"/>
<circle cx="90.4997" cy="183.5" r="0.5" fill="white" fill-opacity="0.5"/>
<circle cx="140.5" cy="203.5" r="0.5" fill="white" fill-opacity="0.5"/>
<circle cx="344.5" cy="132.5" r="0.5" fill="white" fill-opacity="0.5"/>
<circle cx="374.5" cy="152.5" r="0.5" fill="white" fill-opacity="0.5"/>
<circle cx="414.5" cy="142.5" r="0.5" fill="white" fill-opacity="0.5"/>
<circle cx="434.5" cy="112.5" r="0.5" fill="white" fill-opacity="0.5"/>
<circle cx="484.5" cy="132.5" r="0.5" fill="white" fill-opacity="0.5"/>
<circle cx="543.5" cy="142.5" r="0.5" fill="white" fill-opacity="0.5"/>
<circle cx="573.5" cy="162.5" r="0.5" fill="white" fill-opacity="0.5"/>
<circle cx="613.5" cy="152.5" r="0.5" fill="white" fill-opacity="0.5"/>
<circle cx="633.5" cy="122.5" r="0.5" fill="white" fill-opacity="0.5"/>
<circle cx="683.5" cy="142.5" r="0.5" fill="white" fill-opacity="0.5"/>
<circle cx="342.5" cy="203.5" r="0.5" fill="white" fill-opacity="0.5"/>
<circle cx="372.5" cy="223.5" r="0.5" fill="white" fill-opacity="0.5"/>
<circle cx="412.5" cy="213.5" r="0.5" fill="white" fill-opacity="0.5"/>
<circle cx="432.5" cy="183.5" r="0.5" fill="white" fill-opacity="0.5"/>
<circle cx="482.5" cy="203.5" r="0.5" fill="white" fill-opacity="0.5"/>
<circle cx="686.5" cy="132.5" r="0.5" fill="white" fill-opacity="0.5"/>
<circle cx="716.5" cy="152.5" r="0.5" fill="white" fill-opacity="0.5"/>
<circle cx="756.5" cy="142.5" r="0.5" fill="white" fill-opacity="0.5"/>
<circle cx="776.5" cy="112.5" r="0.5" fill="white" fill-opacity="0.5"/>
<circle cx="826.5" cy="132.5" r="0.5" fill="white" fill-opacity="0.5"/>
<circle cx="885.5" cy="142.5" r="0.5" fill="white" fill-opacity="0.5"/>
<circle cx="915.5" cy="162.5" r="0.5" fill="white" fill-opacity="0.5"/>
<circle cx="955.5" cy="152.5" r="0.5" fill="white" fill-opacity="0.5"/>
<circle cx="975.5" cy="122.5" r="0.5" fill="white" fill-opacity="0.5"/>
<circle cx="1025.5" cy="142.5" r="0.5" fill="white" fill-opacity="0.5"/>
<circle cx="684.5" cy="203.5" r="0.5" fill="white" fill-opacity="0.5"/>
<circle cx="714.5" cy="223.5" r="0.5" fill="white" fill-opacity="0.5"/>
<circle cx="754.5" cy="213.5" r="0.5" fill="white" fill-opacity="0.5"/>
<circle cx="774.5" cy="183.5" r="0.5" fill="white" fill-opacity="0.5"/>
<circle cx="824.5" cy="203.5" r="0.5" fill="white" fill-opacity="0.5"/>
<circle cx="1028.5" cy="132.5" r="0.5" fill="white" fill-opacity="0.5"/>
<circle cx="1058.5" cy="152.5" r="0.5" fill="white" fill-opacity="0.5"/>
<circle cx="1098.5" cy="142.5" r="0.5" fill="white" fill-opacity="0.5"/>
<circle cx="1118.5" cy="112.5" r="0.5" fill="white" fill-opacity="0.5"/>
<circle cx="1168.5" cy="132.5" r="0.5" fill="white" fill-opacity="0.5"/>
<circle cx="1227.5" cy="142.5" r="0.5" fill="white" fill-opacity="0.5"/>
<circle cx="1257.5" cy="162.5" r="0.5" fill="white" fill-opacity="0.5"/>
<circle cx="1297.5" cy="152.5" r="0.5" fill="white" fill-opacity="0.5"/>
<circle cx="1317.5" cy="122.5" r="0.5" fill="white" fill-opacity="0.5"/>
<circle cx="1367.5" cy="142.5" r="0.5" fill="white" fill-opacity="0.5"/>
<circle cx="1026.5" cy="203.5" r="0.5" fill="white" fill-opacity="0.5"/>
<circle cx="1056.5" cy="223.5" r="0.5" fill="white" fill-opacity="0.5"/>
<circle cx="1096.5" cy="213.5" r="0.5" fill="white" fill-opacity="0.5"/>
<circle cx="1116.5" cy="183.5" r="0.5" fill="white" fill-opacity="0.5"/>
<circle cx="1166.5" cy="203.5" r="0.5" fill="white" fill-opacity="0.5"/>
</g>
</g>
<defs>
<clipPath id="clip0_1_2016">
<rect width="1368" height="224" fill="white" transform="translate(-0.000305176)"/>
</clipPath>
<clipPath id="clip1_1_2016">
<rect width="1368" height="112" fill="white" transform="translate(-0.000305176)"/>
</clipPath>
<clipPath id="clip2_1_2016">
<rect width="1368" height="112" fill="white" transform="translate(-0.000305176 112)"/>
</clipPath>
</defs>
</svg>
