<svg xmlns="http://www.w3.org/2000/svg" width="80" viewBox="0 0 311.79 167.72"><defs><style>.cls-1,.cls-2{fill:#fcfcfc;}.cls-2{font-size:14px;font-family:EthnocentricRg-Regular, Ethnocentric;}.cls-3{letter-spacing:-0.07em;}.cls-4{letter-spacing:0em;}.cls-5{letter-spacing:-0.07em;}.cls-6{letter-spacing:0em;}</style></defs><title>Fichier 1</title><g id="Calque_2" data-name="Calque 2"><g id="Calque_1-2" data-name="Calque 1"><path class="cls-1" d="M34.44,50.14a41,41,0,0,0-2.7,15,38.11,38.11,0,0,0,2.88,14.94,37,37,0,0,0,20,20A37.61,37.61,0,0,0,69.36,103a30.25,30.25,0,0,0,10.35-1.71,29.08,29.08,0,0,0,8.46-4.68,21.65,21.65,0,0,0,5.76-7,18.81,18.81,0,0,0,2-7.29H86.13a8.46,8.46,0,0,1-6-14.44l8.13-8.13A5.92,5.92,0,0,1,92.47,58H124.8a45.17,45.17,0,0,1,.54,5.4c.11,2.28.2,4.48.27,6.57s.09,3.76.09,5a55.67,55.67,0,0,1-4.41,22.41,51.64,51.64,0,0,1-12.42,17.55,56.76,56.76,0,0,1-18.81,11.43,66.16,66.16,0,0,1-23.4,4,72.87,72.87,0,0,1-27.27-4.86,61.56,61.56,0,0,1-21-13.68,60.06,60.06,0,0,1-13.5-20.7A69.9,69.9,0,0,1,.24,65.17a65.69,65.69,0,0,1,5-25.92,62.43,62.43,0,0,1,14.13-20.7A63.75,63.75,0,0,1,41,4.87,73.78,73.78,0,0,1,65.83.06V0H311.56l-1.19,1.19a89.38,89.38,0,0,1-63.2,26.18H67.92a36.23,36.23,0,0,0-14.31,2.79,34.59,34.59,0,0,0-11.52,7.92A35.81,35.81,0,0,0,34.44,50.14Z"/><path class="cls-1" d="M156.44,69.92v60.41h4.06a26.72,26.72,0,0,0,26.72-26.72V43.2h-4.06A26.72,26.72,0,0,0,156.44,69.92Z"/><path class="cls-1" d="M224.26,69.92v60.41h4.06A26.72,26.72,0,0,0,255,103.61V43.2H251A26.72,26.72,0,0,0,224.26,69.92Z"/><text class="cls-2" transform="translate(0 164.15)">GENERAL <tspan class="cls-3" x="96.67" y="0">T</tspan><tspan class="cls-4" x="108.25" y="0">RADING </tspan><tspan class="cls-5" x="188.19" y="0">T</tspan><tspan class="cls-6" x="199.77" y="0">RANSPORT</tspan></text></g></g></svg>