<svg xmlns="http://www.w3.org/2000/svg" width="60" viewBox="0 0 398 467.68"><defs><style>.cls-1{fill:#fff;}</style></defs><title>Fichier 1</title><g id="Calque_2" data-name="Calque 2"><g id="Calque_1-2" data-name="Calque 1"><path class="cls-1" d="M397.92,2.94c-1.4,9.51-2.75,19-4.16,28.55-1,6.4-2,12.79-2.94,19.19-1.26,8.47-2.46,17-3.71,25.43-1.81,12.29-3.68,24.56-5.47,36.84-.93,6.35-1.69,12.72-2.59,19.07-1.19,8.31-2.44,16.61-3.66,24.91q-1.87,12.72-3.73,25.44c-1,6.63-2,13.26-3,19.89-.22,1.44-.38,2.89-.61,4.67-1.11-2.33-2.07-4.42-3.1-6.48a46.81,46.81,0,0,0-11.47-15.13c-7.64-6.46-16.55-8-26.17-6.31a96.46,96.46,0,0,0-27.29,9.18c-.42.21-.85.38-1.29.55-.09,0-.22,0-.76-.08.38-2.75.7-5.49,1.14-8.21,1.68-10.24,3.41-20.46,5.1-30.7q3.3-19.92,6.56-39.85c.48-2.93,1-5.87,1.47-8.8.23-1.36-.5-1.76-1.69-1.8q-11.54-.36-23.08-.75c-2.86-.1-5.72-.29-8.58-.38q-7.8-.24-15.6-.4c-2,0-2.55.51-2.92,2.47-2.17,11.7-4.37,23.39-6.53,35.08-3.46,18.81-6.87,37.63-10.35,56.43-3.06,16.52-6.19,33-9.26,49.53-2.54,13.7-5,27.41-7.56,41.11q-4.28,23.14-8.57,46.27-3.63,19.62-7.21,39.23c-.55,3-1.17,6-1.68,8.94a1.41,1.41,0,0,1-1.65,1.35c-4,0-8.08,0-12.11,0-1.2,0-1.45-.38-1.25-1.59q4-24,7.79-48,3.4-21.26,6.71-42.51C210.84,272.75,213,259.4,215,246c1.5-9.85,2.94-19.72,4.18-29.61a35.19,35.19,0,0,0-.75-13.39A25.15,25.15,0,0,0,208,188.18a47.5,47.5,0,0,0-22.53-8c-16.49-1.63-31,3.86-44.9,12-1.45.84-3,2.31-4.4,2.21s-2.49-1.88-3.7-3c-6.57-5.88-14.48-8.84-23-10.46-7.8-1.49-15.38-.16-22.72,2.34-5,1.7-9.82,4-14.72,6.07l-1.32.55c0-2.22,0-4.23,0-6.23,0-5.5,0-4.27-4.31-3.56-10.52,1.76-21,3.6-31.54,5.42-.79.13-1.58.32-2.68.54.45-2.74.86-5.24,1.26-7.74l5.13-32.29q2.71-17.12,5.42-34.21c1.49-9.5,2.91-19,4.42-28.51,1.26-8,2.66-15.87,3.92-23.82,1.19-7.42,2.24-14.87,3.42-22.29C56.82,30.61,58,24,59.09,17.39c.8-5,1.48-10,2.28-15A11.84,11.84,0,0,1,62.27,0H396.75C398.09.6,398.1,1.7,397.92,2.94Z"/><path class="cls-1" d="M98.18,227.27a100.56,100.56,0,0,1-1.76,12.79c-3.18,16.26-6.51,32.48-9.72,48.73Q80,322.42,73.48,356.08c-1.28,6.53-2.48,13.06-3.7,19.6-.43,2.32-.6,2.49-2.93,2.49-3.4,0-6.79,0-10.18,0-3.57,0-7.14,0-10.7,0-1.91,0-2.39-.62-2-2.5,4.94-24.7,9.93-49.4,14.82-74.11,4.2-21.22,8.29-42.47,12.44-63.7a37.16,37.16,0,0,1,3.88-11.58c3.64-6.33,9.72-9,16.8-7.29A8.26,8.26,0,0,1,98.18,227.27Z"/><path class="cls-1" d="M171.09,233.21q-5.76,32.71-11.82,65.39c-3.65,19.89-7.4,39.77-11.09,59.66q-1.66,8.94-3.18,17.9a2.15,2.15,0,0,1-2.52,2c-2.31,0-4.61,0-6.92,0h-8c-1.64,0-3.27,0-4.91,0-1.9,0-2.19-.36-1.86-2.15q6-32.4,12.09-64.81,5.13-27.68,10.17-55.38c1.45-8,2.76-16,4.34-23.91.84-4.23,3-7.9,5.56-11.4,4.53-6.19,14.42-3.75,17.09,1.86A17.53,17.53,0,0,1,171.09,233.21Z"/><path class="cls-1" d="M313.08,230.46c-.76,5.31-1.43,10.63-2.28,15.92q-3,18.81-6.19,37.6c-2.17,13-4.45,26-6.52,39a91,91,0,0,1-4.5,18.3A15.82,15.82,0,0,1,281,351.91c-3.08.6-6.21,1-9.34,1.33-2.21.23-2.49-.14-2.12-2.33.58-3.45,1.24-6.89,1.85-10.33q3.11-17.74,6.2-35.49c1.78-10.11,3.64-20.2,5.4-30.31,1.86-10.68,3.56-21.39,5.51-32.06a78.82,78.82,0,0,1,3.27-13.39c2-5.5,6.62-8.33,12.37-9,5.28-.65,8.47,2.3,8.59,7.67,0,.82,0,1.64,0,2.45Z"/><path class="cls-1" d="M347.5,336.55c-.54,3.2-1.11,6.39-1.6,9.59q-1.89,12.35-3.72,24.7c-.26,1.72-.51,3.45-.71,5.19s-1.24,2.12-2.67,2.14c-2.16,0-4.32,0-6.49,0H310.23c-.55,0-1.11,0-1.66-.07,0-.1,0-.2,0-.3.76-.24,1.51-.49,2.27-.71,13.81-4,24-12.13,29.87-25.44,2.08-4.76,4.1-9.54,6.15-14.31A1.31,1.31,0,0,1,347.5,336.55Z"/><polygon class="cls-1" points="0 466.27 12.09 409.52 21.51 409.52 22.51 446.02 38.76 409.52 48.26 409.52 36.34 466.27 27.01 466.27 32.09 442.02 21.59 466.27 15.01 466.27 14.51 440.44 9.01 466.27 0 466.27"/><path class="cls-1" d="M71.05,409.52s-3.25-.85-4,3.4-10.69,51.38-10.69,51.38-1.06,2,1.56,2H77s1.31.08,1.75-1.92S80,457.67,80,457.67s.13-.94-3.19-.94-9.37.13-9.37.13l2.25-12.25a3.26,3.26,0,0,1,3-2c2.25,0,7.31.06,7.31.06s1.87,0,2.62-3.06a26.82,26.82,0,0,0,.81-4.94s-.12-1.37-3.19-1.37-6.37-.12-6.37-.12-1.62.13-1.06-2.31,2.31-10.62,2.31-10.62.38-1.87,3.31-1.87,7.31.06,7.31.06,2.69.5,3.25-1.62a54.91,54.91,0,0,0,1-5.56,1.54,1.54,0,0,0-1.56-1.78Z"/><path class="cls-1" d="M123.39,409.45H108.56L96.24,466.27,111.8,466s8.38,1.21,10.32-7.13l9.11-39.29a2.92,2.92,0,0,0,.06-.72C131.16,417,130.21,409.45,123.39,409.45Zm-2.52,11.87c-.16.87-7.1,33.22-7.1,33.22s-.74,2.51-3.15,2.24-2.8-.36-2.8-.36l7.8-35.66s.56-2.66,2.84-2.32S121,420.44,120.87,421.32Z"/><polygon class="cls-1" points="152.86 409.45 162.68 409.45 150.18 466.27 140.49 466.27 152.86 409.45"/><path class="cls-1" d="M190.21,409.66c-3.75,0-4.22,4.35-4.22,4.35l-18.73,52.26h7.34a3.19,3.19,0,0,0,3.37-2.38s.5-1.58,2-6,2.87-3.46,5.25-3.46,2.25,1.75,2.25,1.75-.71,7.08-.71,8.54a1.59,1.59,0,0,0,1.46,1.59h6.67a1.74,1.74,0,0,0,1.87-1.46l3.37-55.15Zm-1.12,33.75c0,2.07-2.13,1.72-2.13,1.72h-2.78l5.28-15.44S189.09,441.35,189.09,443.41Z"/><path class="cls-1" d="M241.85,437.42c6.16-7,6.16-14.82,6.16-20.9s-5.91-6.86-5.91-6.86-9.34-.21-13.67-.21-4.17,3.82-4.17,3.82l-10.91,53h14.37c8.08,0,11.42-7.3,11.42-7.3s.37-2.29,2.46-9.58.54-8.83.54-8.83C240.89,438.22,241.85,437.42,241.85,437.42Zm-9,8.11c-.55,2.69-2.3,9.91-2.3,9.91a3.57,3.57,0,0,1-3.06,1.65,24.48,24.48,0,0,1-2.69-.08l2.46-12.34s.53-3.11,4-2.13C231.31,442.54,233.45,442.83,232.9,445.53Zm5.1-24c-.56,2.7-2.31,9.92-2.31,9.92a3.57,3.57,0,0,1-3.06,1.65,21.45,21.45,0,0,1-2.68-.09l2.46-12.34s.53-3.1,4-2.13C236.41,418.59,238.55,418.89,238,421.58Z"/><path class="cls-1" d="M290.14,412.1s-3.88-4.88-12.88-3.38-10.75,10.57-10.75,10.57c-4.29,15-8.06,39.37-8.06,42.43s6.63,7.5,15.06,5.42,9.13-8.54,9.13-8.54,6.25-29.44,8.12-37.06S290.14,412.1,290.14,412.1Zm-8.74,8.28-7.69,35.44a3.24,3.24,0,0,1-4.06,2c-3.09-.84-.78-6.41-.78-6.41l7.19-31.5a2.88,2.88,0,0,1,3.09-2A2.38,2.38,0,0,1,281.4,420.38Z"/><path class="cls-1" d="M309.8,410.79s0-1.12,2.38-1.12H318s1.5-.44,1.81,3.19.94,12.06.94,12.06l7.19-14.06s.27-1.35,3.69-1.2,6.52,0,6.52,0l-15.71,28.42L326,464.27a1.45,1.45,0,0,1-1.54,1.79h-6.92s-1.62.17-1.62-2.67-.37-14.12-.37-14.12L308,464.56a5.55,5.55,0,0,1-3.54,1.5h-6.79l15.54-28.21Z"/></g></g></svg>