<svg xmlns="http://www.w3.org/2000/svg" viewBox="0 0 201.4 222.4"><defs><style>.cls-1{fill:#fff;}.cls-2,.cls-3{fill:none;stroke:#fff;stroke-miterlimit:10;}.cls-2{stroke-width:4px;}.cls-3{stroke-width:3px;}</style></defs><title>Fichier 1</title><g id="Calque_2" data-name="Calque 2"><g id="Calque_1-2" data-name="Calque 1"><path class="cls-1" d="M126.85,131.16A28.06,28.06,0,0,1,98.74,103a28.16,28.16,0,0,1,42.59-24.13,27.35,27.35,0,0,1,10.24,10.7h-7.44a22,22,0,0,0-32.74-2,21.89,21.89,0,0,0,0,30.91A21.8,21.8,0,0,0,137.75,122a22.13,22.13,0,0,0,7.89-7.83h7a27.78,27.78,0,0,1-10.3,12.33A27.48,27.48,0,0,1,126.85,131.16Z"/><circle class="cls-2" cx="126.53" cy="102.85" r="33.46"/><line class="cls-2" x1="17.02" y1="207.34" x2="100.31" y2="124.05"/><line class="cls-2" x1="105.13" y1="78.07" x2="42.65" y2="15.59"/><line class="cls-2" x1="145.77" y1="76.7" x2="187.38" y2="35.02"/><line class="cls-2" x1="152.75" y1="125.74" x2="173.62" y2="146.55"/><circle class="cls-3" cx="179.29" cy="153.53" r="8.41"/><circle class="cls-3" cx="9.91" cy="212.49" r="8.41"/><circle class="cls-3" cx="191.49" cy="28.96" r="8.41"/><circle class="cls-3" cx="37.63" cy="9.91" r="8.41"/></g></g></svg>