<svg width="44" height="44" viewBox="0 0 44 44" fill="none" xmlns="http://www.w3.org/2000/svg">
<path fill-rule="evenodd" clip-rule="evenodd" d="M22 44C34.1503 44 44 34.1503 44 22C44 9.84974 34.1503 0 22 0C9.84974 0 0 9.84974 0 22C0 34.1503 9.84974 44 22 44Z" fill="black"/>
<path d="M22.0603 6.75415C21.6367 6.75415 21.2247 6.84166 20.8601 7.04799L9.32154 13.7114C8.57485 14.1418 8.12097 14.9542 8.12097 15.8187V29.1213C8.12097 29.9851 8.57485 30.7965 9.32154 31.2279L12.3349 32.9675C13.799 33.689 14.3387 33.6777 15.005 33.6777C17.1726 33.6777 18.4102 32.3624 18.4102 30.0767V16.9454C18.4102 16.7598 18.2495 16.627 18.0674 16.627H16.622C16.4368 16.627 16.2791 16.7598 16.2791 16.9454V30.0767C16.2791 31.0897 15.2236 32.1088 13.5109 31.2524L10.375 29.4151C10.264 29.3549 10.1789 29.2483 10.1789 29.1213V15.8183C10.1789 15.6924 10.263 15.564 10.375 15.5L21.889 8.86144C21.9411 8.83105 22.0002 8.81503 22.0605 8.81503C22.1207 8.81503 22.1799 8.83105 22.2319 8.86144L33.7463 15.5003C33.8559 15.5664 33.9424 15.6886 33.9424 15.819V29.1216C33.9424 29.2486 33.8784 29.3787 33.7708 29.44L22.2319 36.0789C22.1332 36.1378 21.997 36.1378 21.889 36.0789L18.9247 34.3151C18.8796 34.2907 18.8291 34.2778 18.7778 34.2778C18.7265 34.2778 18.676 34.2907 18.6309 34.3151C17.8127 34.7789 17.6588 34.8327 16.8913 35.0989C16.7023 35.165 16.4153 35.2675 16.9894 35.5892L20.8601 37.8671C21.225 38.0777 21.6393 38.1877 22.0606 38.1858C22.4819 38.1884 22.8963 38.0785 23.2609 37.8675L34.7997 31.2282C35.5464 30.7941 36 29.9855 36 29.1216V15.8187C36 14.9545 35.5464 14.1435 34.7997 13.7121L23.2609 7.04868C22.8993 6.842 22.4846 6.75449 22.0606 6.75449L22.0603 6.75415Z" fill="#83CD29"/>
<path d="M25.1472 16.2596C21.8615 16.2596 19.9047 17.658 19.9047 19.9836C19.9047 22.5059 21.8468 23.1992 25.0004 23.5111C28.7731 23.8805 29.0669 24.4345 29.0669 25.1771C29.0669 26.4652 28.04 27.0144 25.613 27.0144C22.5632 27.0144 21.8931 26.253 21.6687 24.7361C21.6422 24.5734 21.5165 24.442 21.35 24.442H19.8556C19.6718 24.442 19.5128 24.6006 19.5128 24.7852C19.5128 26.727 20.569 29.0233 25.613 29.0233C29.2641 29.0233 31.37 27.5901 31.37 25.079C31.37 22.59 29.6689 21.9217 26.1271 21.4535C22.5486 20.9799 22.2074 20.748 22.2074 19.91C22.2074 19.2182 22.4968 18.2927 25.1472 18.2927C27.515 18.2927 28.39 18.8034 28.7486 20.4C28.7799 20.5498 28.912 20.6693 29.0669 20.6693H30.5617C30.6536 20.6693 30.7428 20.6128 30.8065 20.5468C30.8691 20.4763 30.9134 20.3969 30.9045 20.3019C30.673 17.5528 28.8398 16.2596 25.1472 16.2596V16.2596Z" fill="#83CD29"/>
</svg>
