<svg width="44" height="44" viewBox="0 0 44 44" fill="none" xmlns="http://www.w3.org/2000/svg">
<path fill-rule="evenodd" clip-rule="evenodd" d="M22 44C34.1503 44 44 34.1503 44 22C44 9.84974 34.1503 0 22 0C9.84974 0 0 9.84974 0 22C0 34.1503 9.84974 44 22 44Z" fill="black"/>
<path d="M36.5379 24.6711C36.3659 24.1504 35.9154 23.7876 35.3327 23.7004C35.058 23.6594 34.7434 23.6769 34.3711 23.7537C33.7222 23.8876 33.2408 23.9385 32.8894 23.9485C34.2156 21.7093 35.294 19.1559 35.9148 16.7522C36.9186 12.8657 36.3822 11.0952 35.7554 10.2943C34.0964 8.17456 31.676 7.03575 28.7559 7.00084C27.1984 6.98183 25.8308 7.28939 25.1175 7.5105C24.4533 7.39338 23.7391 7.32794 22.9897 7.31582C21.5852 7.29343 20.3441 7.59959 19.2837 8.22888C18.6965 8.03042 17.7543 7.75056 16.6662 7.5719C14.1069 7.15174 12.0443 7.47917 10.5356 8.54498C8.70865 9.83549 7.86169 12.0776 8.01835 15.2092C8.06803 16.2034 8.62426 19.2285 9.49996 22.0974C10.0033 23.7464 10.5399 25.1158 11.0951 26.1678C11.8824 27.6596 12.7248 28.5382 13.6705 28.8536C14.2006 29.0303 15.1637 29.1539 16.1767 28.3104C16.3051 28.4658 16.4763 28.6203 16.7037 28.7638C16.9924 28.9459 17.3455 29.0946 17.698 29.1828C18.9687 29.5005 20.1589 29.421 21.1743 28.9758C21.1806 29.1564 21.1854 29.3289 21.1895 29.4779C21.1963 29.7196 21.2029 29.9566 21.2118 30.1782C21.2719 31.6767 21.3739 32.8418 21.6759 33.6569C21.6925 33.7018 21.7148 33.7701 21.7384 33.8425C21.889 34.304 22.1411 35.0763 22.7821 35.6813C23.446 36.3079 24.249 36.5001 24.9844 36.5001C25.3532 36.5001 25.7051 36.4517 26.0138 36.3855C27.1141 36.1498 28.3637 35.7905 29.2676 34.5034C30.1222 33.2866 30.5376 31.454 30.6128 28.5663C30.6225 28.4847 30.6316 28.4067 30.6402 28.3324C30.6461 28.2823 30.652 28.231 30.6581 28.1799L30.8594 28.1975L30.9113 28.2011C32.032 28.2521 33.4022 28.0145 34.2437 27.6236C34.9087 27.315 37.0396 26.19 36.5379 24.6711Z" fill="black"/>
<path d="M34.6217 24.9666C31.2896 25.6539 31.0606 24.5258 31.0606 24.5258C34.5787 19.3055 36.0494 12.679 34.7802 11.0573C31.3178 6.63336 25.3242 8.72559 25.2242 8.7799L25.192 8.78567C24.5337 8.64901 23.7969 8.5676 22.9689 8.55409C21.4612 8.52938 20.3176 8.94935 19.4497 9.60745C19.4497 9.60745 8.75771 5.20276 9.25498 15.1472C9.36077 17.2628 12.2872 31.1548 15.7778 26.9587C17.0536 25.4244 18.2863 24.1271 18.2863 24.1271C18.8985 24.5338 19.6315 24.7413 20.3999 24.6667L20.4596 24.6161C20.441 24.8066 20.4495 24.9929 20.4835 25.2135C19.5843 26.2182 19.8485 26.3946 18.0509 26.7646C16.232 27.1394 17.3005 27.8068 17.9982 27.9812C18.844 28.1927 20.8006 28.4923 22.1228 26.6416L22.07 26.8528C22.4224 27.1349 22.6698 28.6884 22.6283 30.0965C22.5868 31.5047 22.5591 32.4715 22.8368 33.2267C23.1144 33.9818 23.3911 35.6809 25.7541 35.1745C27.7287 34.7514 28.7519 33.6548 28.8943 31.8257C28.9953 30.5254 29.2239 30.7176 29.2384 29.555L29.4217 29.0046C29.6332 27.2419 29.4553 26.6732 30.6718 26.9377L30.9674 26.9636C31.8628 27.0044 33.0347 26.8196 33.7225 26.5C35.2035 25.8126 36.0818 24.6651 34.6216 24.9666H34.6217Z" fill="#336791"/>
<path d="M20.0756 16.0932C19.7754 16.0514 19.5034 16.0901 19.3658 16.1942C19.2884 16.2529 19.2645 16.3208 19.258 16.3675C19.2407 16.4913 19.3275 16.6282 19.3808 16.6988C19.5315 16.8986 19.7519 17.036 19.9699 17.0663C20.0015 17.0707 20.0329 17.0728 20.0642 17.0728C20.4279 17.0728 20.7584 16.7897 20.7875 16.5807C20.824 16.319 20.444 16.1445 20.0756 16.0932Z" fill="white"/>
<path d="M30.023 16.1015H30.0229C29.9943 15.8963 29.6292 15.8378 29.2827 15.886C28.9368 15.9342 28.6013 16.0903 28.6293 16.296C28.6518 16.4559 28.9405 16.7288 29.2823 16.7288C29.3111 16.7288 29.3402 16.7269 29.3696 16.7227C29.5977 16.6912 29.7651 16.5463 29.8446 16.4628C29.9657 16.3356 30.0358 16.1937 30.023 16.1015Z" fill="white"/>
<path d="M35.7305 24.8885C35.6035 24.5043 35.1946 24.3806 34.5151 24.521C32.4978 24.9373 31.7754 24.6489 31.5381 24.4742C33.1062 22.0854 34.3961 19.1981 35.092 16.504C35.4216 15.2278 35.6037 14.0427 35.6186 13.0768C35.635 12.0164 35.4545 11.2374 35.082 10.7614C33.5804 8.84267 31.3766 7.81349 28.7089 7.7852C26.875 7.7646 25.3255 8.23399 25.0251 8.36594C24.3924 8.20862 23.7028 8.11204 22.9521 8.09972C21.5753 8.07746 20.3853 8.40707 19.3999 9.07889C18.972 8.91965 17.8659 8.53995 16.5133 8.32209C14.1747 7.94551 12.3165 8.23081 10.9903 9.1703C9.40795 10.2914 8.67745 12.2953 8.819 15.1263C8.86663 16.0788 9.40928 19.0089 10.2658 21.815C11.3931 25.5082 12.6185 27.5991 13.908 28.0291C14.0589 28.0794 14.2329 28.1147 14.4248 28.1147C14.8952 28.1147 15.4718 27.9026 16.0718 27.1813C17.0684 25.9824 17.9989 24.9777 18.3419 24.6127C18.8487 24.8848 19.4055 25.0367 19.9751 25.0519C19.9761 25.0668 19.9776 25.0817 19.9789 25.0965C19.8647 25.2321 19.771 25.3508 19.6911 25.4523C19.2965 25.9532 19.2143 26.0574 17.9441 26.319C17.5828 26.3935 16.623 26.5913 16.6091 27.264C16.5938 27.999 17.7434 28.3076 17.8744 28.3404C18.3309 28.4546 18.7706 28.511 19.19 28.511C20.2099 28.5109 21.1074 28.1758 21.8248 27.5272C21.8026 30.1474 21.9119 32.7292 22.2265 33.5159C22.4841 34.1598 23.1136 35.7337 25.102 35.7336C25.3936 35.7336 25.7148 35.6997 26.0681 35.624C28.1431 35.179 29.0442 34.2619 29.3928 32.24C29.5794 31.1594 29.8995 28.5789 30.05 27.1948C30.3678 27.2939 30.7769 27.3393 31.2191 27.3392C32.1414 27.3392 33.2057 27.1433 33.8731 26.8335C34.6228 26.4853 35.9759 25.6308 35.7305 24.8885ZM30.7889 15.5353C30.782 15.9439 30.7257 16.3149 30.6661 16.7021C30.602 17.1186 30.5356 17.5491 30.5189 18.0718C30.5024 18.5805 30.566 19.1094 30.6274 19.6207C30.7516 20.6537 30.879 21.7172 30.3858 22.7666C30.3092 22.6305 30.2352 22.482 30.1673 22.3175C30.1061 22.1689 29.973 21.9302 29.7888 21.5999C29.0718 20.3141 27.3928 17.3032 28.2523 16.0746C28.5083 15.7088 29.158 15.3329 30.7889 15.5353ZM28.812 8.61269C31.2023 8.66548 33.093 9.55967 34.4317 11.2703C35.4585 12.5824 34.3279 18.5527 31.0548 23.7032C31.0225 23.6622 30.9896 23.6207 30.9555 23.5782C30.942 23.5611 30.9281 23.5439 30.9141 23.5264C31.7599 22.1295 31.5945 20.7476 31.4473 19.5222C31.3868 19.0194 31.3297 18.5445 31.3442 18.0984C31.3593 17.6254 31.4218 17.22 31.4822 16.8278C31.5566 16.3445 31.6322 15.8445 31.6113 15.2551C31.6269 15.1933 31.6332 15.1202 31.625 15.0335C31.5718 14.4682 30.9265 12.7766 29.611 11.2453C28.8916 10.4079 27.8423 9.47064 26.4096 8.8385C27.0259 8.71079 27.8686 8.59169 28.812 8.61269ZM15.4369 26.6534C14.7759 27.4482 14.3193 27.2959 14.1692 27.2459C13.191 26.9196 12.0561 24.8523 11.0555 21.5739C10.1897 18.7373 9.68365 15.8849 9.64364 15.085C9.51718 12.5554 10.1304 10.7924 11.4663 9.84503C13.6403 8.30327 17.2146 9.22608 18.6509 9.69414C18.6302 9.71447 18.6088 9.73355 18.5883 9.75422C16.2315 12.1345 16.2874 16.2011 16.2932 16.4497C16.293 16.5456 16.301 16.6814 16.312 16.8682C16.3526 17.5521 16.428 18.8251 16.2265 20.2668C16.0391 21.6064 16.452 22.9177 17.3592 23.8643C17.4532 23.9622 17.5512 24.0542 17.6525 24.1408C17.2486 24.5733 16.371 25.5296 15.4369 26.6534ZM17.9554 23.2929C17.2242 22.53 16.8921 21.4688 17.0442 20.3811C17.2571 18.8582 17.1785 17.5318 17.1363 16.8193C17.1304 16.7196 17.1252 16.6322 17.122 16.5633C17.4664 16.258 19.0619 15.403 20.1997 15.6638C20.7191 15.7827 21.0354 16.1363 21.1669 16.7445C21.8477 19.8931 21.2571 21.2055 20.7824 22.26C20.6846 22.4773 20.5922 22.6827 20.5132 22.8952L20.4521 23.0594C20.2972 23.4746 20.1532 23.8607 20.0639 24.2273C19.2866 24.2249 18.5304 23.8929 17.9554 23.2929ZM18.0747 27.5393C17.8478 27.4826 17.6436 27.3841 17.5239 27.3024C17.6239 27.2553 17.8019 27.1914 18.1107 27.1278C19.605 26.8201 19.8357 26.603 20.3397 25.9631C20.4553 25.8165 20.5862 25.6501 20.7676 25.4476C20.7677 25.4474 20.7677 25.4474 20.7678 25.4473C21.038 25.1448 21.1615 25.1961 21.3856 25.289C21.5673 25.3642 21.7441 25.5918 21.8159 25.8424C21.8498 25.9607 21.8879 26.1853 21.7632 26.36C20.7104 27.834 19.1764 27.815 18.0747 27.5393ZM25.895 34.8166C24.0669 35.2083 23.4197 34.2756 22.9932 33.2093C22.7179 32.5208 22.5826 29.4166 22.6786 25.9885C22.6799 25.9429 22.6734 25.8989 22.6608 25.8575C22.6498 25.7775 22.633 25.6966 22.6097 25.6152C22.4669 25.1164 22.1191 24.6992 21.7017 24.5262C21.5359 24.4575 21.2316 24.3315 20.8658 24.425C20.9439 24.1037 21.0791 23.7409 21.2257 23.3479L21.2873 23.1826C21.3566 22.9962 21.4434 22.8032 21.5353 22.5989C22.032 21.4955 22.7122 19.9842 21.974 16.5699C21.6974 15.2912 20.774 14.6667 19.3742 14.8117C18.5349 14.8986 17.7672 15.2372 17.3842 15.4313C17.3019 15.4731 17.2266 15.5133 17.1562 15.5526C17.2631 14.2641 17.6669 11.8562 19.1775 10.3327C20.1285 9.37353 21.3952 8.89984 22.9385 8.92534C25.9793 8.97516 27.9292 10.5357 29.0296 11.836C29.9779 12.9566 30.4914 14.0854 30.6963 14.6941C29.1552 14.5375 28.1071 14.8417 27.5757 15.6013C26.4198 17.2536 28.2081 20.4607 29.0676 22.002C29.2252 22.2846 29.3612 22.5287 29.404 22.6324C29.6839 23.3107 30.0462 23.7635 30.3108 24.0941C30.3919 24.1954 30.4706 24.2936 30.5304 24.3794C30.0637 24.514 29.2253 24.8249 29.3016 26.379C29.24 27.1588 28.8018 30.8098 28.5792 32.0997C28.2854 33.8038 27.6583 34.4386 25.895 34.8166ZM33.5254 26.0845C33.0482 26.3061 32.2494 26.4723 31.4906 26.5079C30.6526 26.5472 30.226 26.4141 30.1256 26.3322C30.0784 25.3638 30.439 25.2625 30.8205 25.1554C30.8804 25.1385 30.9389 25.1222 30.9953 25.1024C31.0305 25.131 31.0689 25.1593 31.1109 25.1871C31.7845 25.6317 32.986 25.6797 34.6821 25.3296C34.6883 25.3283 34.6946 25.3271 34.7007 25.3258C34.472 25.5397 34.0805 25.8268 33.5254 26.0845Z" fill="white"/>
</svg>
